<?xml version="1.0" standalone="no"?>
<!DOCTYPE svg PUBLIC "-//W3C//DTD SVG 1.1//EN" "http://www.w3.org/Graphics/SVG/1.1/DTD/svg11.dtd" >
<svg>
<metadata>
Created by FontForge 20090914 at Fri Feb  3 23:26:32 2023
 By www-data
Copyright 2013 The Exo 2 Project Authors (https://github.com/NDISCOVER/Exo-2.0)
</metadata>
<defs>
<font id="Exo2-ExtraLight" horiz-adv-x="664" >
  <font-face 
    font-family="Exo 2 ExtraLight"
    font-weight="250"
    font-stretch="normal"
    units-per-em="1000"
    panose-1="0 0 0 0 0 0 0 0 0 0"
    ascent="800"
    descent="-200"
    x-height="482"
    cap-height="690"
    bbox="-383 -263 1189 1012.33"
    underline-thickness="50"
    underline-position="-50"
    unicode-range="U+000D-U+FB02"
  />
<missing-glyph horiz-adv-x="648" 
d="M150 690v-690h-41v690h41zM539 690v-690h-41v690h41zM109 690h430v-41h-430v41zM109 41h430v-41h-430v41z" />
    <glyph glyph-name="fi" unicode="fi" horiz-adv-x="563" 
d="M250 715c12.667 0 29.167 -0.333008 49.5 -1s37.833 -2 52.5 -4v-30h-88c-38 0 -64.833 -7.83301 -80.5 -23.5s-23.5 -43.167 -23.5 -82.5v-574h-40v577c0 30 4.16699 55.167 12.5 75.5s22 35.833 41 46.5s44.5 16 76.5 16zM443 482v-35h-410v30l93 5h317zM469 482v-482
h-39v482h39zM458 683c10.667 0 16 -5.33301 16 -16v-60c0 -10.667 -5.33301 -16 -16 -16h-18c-10 0 -15 5.33301 -15 16v60c0 10.667 5 16 15 16h18z" />
    <glyph glyph-name="fl" unicode="fl" horiz-adv-x="629" 
d="M250 715c6.66699 0 17.502 -0.168945 32.502 -0.501953s32.167 -0.666016 51.5 -0.999023l58 -1c19.333 -0.333008 37.166 -1 53.499 -2s28.833 -2.16699 37.5 -3.5v-604c0 -24.667 6.66699 -43.5 20 -56.5s32 -19.5 56 -19.5h55l5 -26
c-4.66699 -1.33301 -11.334 -2.66602 -20.001 -3.99902s-17.667 -2.33301 -27 -3s-17.333 -1 -24 -1c-32 0 -57.5 9 -76.5 27s-28.5 44 -28.5 78v583h-180c-38 0.666992 -64.667 -7 -80 -23s-23 -44 -23 -84v-574h-40v577c0 30 4.16699 55.167 12.5 75.5s22 35.833 41 46.5
s44.5 16 76.5 16zM323.002 481.998v-35h-290v30l93 5h197z" />
    <glyph glyph-name="f_f" unicode="ff" horiz-adv-x="672" 
d="M250 697c9.33301 0 21.167 -0.166992 35.5 -0.5s29 -0.833008 44 -1.5s28.167 -1.66699 39.5 -3l-2 -30h-103c-38 0 -64.833 -7.5 -80.5 -22.5s-23.5 -41.833 -23.5 -80.5v-559h-40v561c0 30 4.33301 55 13 75s22.5 35.167 41.5 45.5s44.167 15.5 75.5 15.5zM561.001 715
c9.33301 0 21.501 -0.166992 36.501 -0.5s30.167 -0.833008 45.5 -1.5s28.666 -1.66699 39.999 -3l-1 -30h-108c-38 0 -64.667 -7.66699 -80 -23s-23 -42 -23 -80v-577h-40v579c0 30 4.16699 55 12.5 75s22 35.167 41 45.5s44.5 15.5 76.5 15.5zM643.002 482v-34h-610v29
l93 5h517z" />
    <glyph glyph-name="f_f_i" unicode="ffi" horiz-adv-x="872" 
d="M248 697c9.33301 0 21.168 -0.166992 35.501 -0.5s29 -0.833008 44 -1.5s28.167 -1.66699 39.5 -3l-2 -30h-103c-38 0 -64.833 -7.5 -80.5 -22.5s-23.5 -41.833 -23.5 -80.5v-559h-39v561c0 30 4.16699 55 12.5 75s22.166 35.167 41.499 45.5s44.333 15.5 75 15.5z
M752.002 482v-35l-719 1v29l93 5h626zM559.002 715c14 0 33 -0.333008 57 -1s44.333 -2 61 -4v-30h-105c-37.333 0 -63.833 -7.83301 -79.5 -23.5s-23.5 -43.167 -23.5 -82.5v-574h-40v577c0 30 4.16699 55.167 12.5 75.5s22 35.833 41 46.5s44.5 16 76.5 16zM778.002 482
v-482h-39v482h39zM767.002 683c10 0 15 -5.33301 15 -16v-60c0 -10.667 -5 -16 -15 -16h-18c-10 0 -15 5.33301 -15 16v60c0 10.667 5 16 15 16h18z" />
    <glyph glyph-name="f_f_l" unicode="ffl" horiz-adv-x="940" 
d="M250 697c9.33301 0 21.167 -0.166992 35.5 -0.5s29 -0.833008 44 -1.5s28.167 -1.66699 39.5 -3l-2 -30h-103c-38 0 -64.833 -7.5 -80.5 -22.5s-23.5 -41.833 -23.5 -80.5v-559h-40v561c0 30 4.33301 55 13 75s22.5 35.167 41.5 45.5s44.167 15.5 75.5 15.5zM561.001 715
c6.66699 0 17.502 -0.168945 32.502 -0.501953s32.167 -0.666016 51.5 -0.999023l58 -1c19.333 -0.333008 37.166 -1 53.499 -2s28.833 -2.16699 37.5 -3.5v-604c0 -24.667 6.5 -43.5 19.5 -56.5s31.833 -19.5 56.5 -19.5h55l5 -26
c-4.66699 -1.33301 -11.334 -2.66602 -20.001 -3.99902s-17.667 -2.33301 -27 -3s-17.333 -1 -24 -1c-32 0 -57.5 9 -76.5 27s-28.5 44 -28.5 78v583h-180c-38 0.666992 -64.667 -7 -80 -23s-23 -44 -23 -84v-574h-40v577c0 30 4.16699 55.167 12.5 75.5s22 35.833 41 46.5
s44.5 16 76.5 16zM641.003 481.998v-34h-608v29l93 5h515z" />
    <glyph glyph-name=".notdef" horiz-adv-x="648" 
d="M150 690v-690h-41v690h41zM539 690v-690h-41v690h41zM109 690h430v-41h-430v41zM109 41h430v-41h-430v41z" />
    <glyph glyph-name="CR" unicode="&#xd;" horiz-adv-x="228" 
 />
    <glyph glyph-name="space" unicode=" " horiz-adv-x="228" 
 />
    <glyph glyph-name="exclam" unicode="!" horiz-adv-x="258" 
d="M149 695v-332l-3 -158h-33l-4 158v332h40zM136 94c6 0 10.333 -1.33301 13 -4s4 -7 4 -13v-60c0 -6 -1.33301 -10.333 -4 -13s-7 -4 -13 -4h-13c-6 -0 -10.333 1.33301 -13 4s-4 7 -4 13v60c0 6 1.33301 10.333 4 13s7 4 13 4h13z" />
    <glyph glyph-name="quotedbl" unicode="&#x22;" horiz-adv-x="334" 
d="M250 690l-2 -210h-30l-3 210h35zM119 690l-3 -210h-30l-3 210h36z" />
    <glyph glyph-name="numbersign" unicode="#" horiz-adv-x="672" 
d="M289 690l-120 -690h-36l120 690h36zM540 690l-120 -690h-36l120 690h36zM616 495l-6 -31h-512l6 31h512zM574 255l-6 -31h-512l6 31h512z" />
    <glyph glyph-name="dollar" unicode="$" horiz-adv-x="560" 
d="M278 701c32 -0.666992 64.167 -1.99902 96.5 -3.99902s64.166 -5.33301 95.499 -10l-4 -30c-30 1.33301 -60.833 2.83301 -92.5 4.5s-63.167 2.5 -94.5 2.5c-30 0 -55.833 -1 -77.5 -3s-39.5 -7.33301 -53.5 -16s-24.333 -22.5 -31 -41.5s-10 -46.167 -10 -81.5
c0 -47.333 8 -81.333 24 -102s42.667 -34 80 -40l149 -25c51.333 -7.33301 87.5 -25.166 108.5 -53.499s31.5 -71.833 31.5 -130.5c0 -40.667 -4.66699 -73.167 -14 -97.5s-23 -42.5 -41 -54.5s-40.333 -20 -67 -24s-58 -6 -94 -6c-26 0 -56 0.666992 -90 2s-73 5 -117 11
l4 31l76.5 -3.5c21.667 -1 42.5 -1.66699 62.5 -2s41.667 -0.5 65 -0.5c42.667 0.666992 76.5 4.16699 101.5 10.5s43.167 19.833 54.5 40.5s17 51.667 17 93c0 34 -3.5 60.833 -10.5 80.5s-18.333 34.667 -34 45s-36.5 17.166 -62.5 20.499l-150 25
c-49.333 7.33301 -84.166 25.5 -104.499 54.5s-30.5 71.167 -30.5 126.5c0 40.667 4.33301 73.167 13 97.5s21.667 42.333 39 54s39.5 19.167 66.5 22.5s58.167 4.66602 93.5 3.99902zM270 350.001l27 -3l-28 -480h-28zM325 803.001l-26 -456l-28 3l27 453h27z" />
    <glyph glyph-name="percent" unicode="%" horiz-adv-x="886" 
d="M210 702c38 0 68.167 -7.16699 90.5 -21.5s38.333 -36.5 48 -66.5s14.5 -68.667 14.5 -116s-4.83301 -86 -14.5 -116s-25.667 -52.167 -48 -66.5s-52.5 -21.5 -90.5 -21.5s-68.167 7.16699 -90.5 21.5s-38.333 36.5 -48 66.5s-14.5 68.667 -14.5 116s4.83301 86 14.5 116
s25.667 52.167 48 66.5s52.5 21.5 90.5 21.5zM210 674c-30 0 -53.5 -6 -70.5 -18s-29.333 -31 -37 -57s-11.5 -59.667 -11.5 -101s3.83301 -75 11.5 -101s20 -45 37 -57s40.5 -18 70.5 -18s53.667 6 71 18s29.666 31 36.999 57s11 59.667 11 101s-3.66699 75 -11 101
s-19.666 45 -36.999 57s-41 18 -71 18zM694 690l-472 -690h-33l472 690h33zM676 401c38 0 68.167 -7.33301 90.5 -22s38.166 -36.834 47.499 -66.501s14 -68.167 14 -115.5s-4.66699 -86 -14 -116s-25.166 -52.333 -47.499 -67s-52.5 -22 -90.5 -22
s-68.167 7.33301 -90.5 22s-38.333 37 -48 67s-14.5 68.667 -14.5 116s4.83301 85.833 14.5 115.5s25.667 51.834 48 66.501s52.5 22 90.5 22zM675 373c-30 0 -53.5 -6 -70.5 -18s-29.167 -31 -36.5 -57s-11 -59.667 -11 -101s3.66699 -75 11 -101s19.5 -45.167 36.5 -57.5
s40.5 -18.5 70.5 -18.5c30.667 0 54.667 6.16699 72 18.5s29.5 31.5 36.5 57.5s10.5 59.667 10.5 101s-3.5 75 -10.5 101s-19.167 45 -36.5 57s-41.333 18 -72 18z" />
    <glyph glyph-name="ampersand" unicode="&#x26;" horiz-adv-x="780" 
d="M355 699c21.333 0 45.4971 -0.498047 72.4971 -1.49805s55.833 -3.5 86.5 -7.5l-6 -30c-5.33301 0.666992 -14.333 1.16699 -27 1.5s-27 0.666016 -43 0.999023s-31.5 0.5 -46.5 0.5h-38.5c-53.333 0 -95.666 -3.33301 -126.999 -10s-53.666 -20.334 -66.999 -41.001
s-20 -52.334 -20 -95.001c0 -38 5.33301 -67.333 16 -88s28 -35 52 -43s56.333 -12 97 -12h394l-3 -33h-392c-44.667 0 -80.334 -4.66699 -107.001 -14s-46 -25.833 -58 -49.5s-18 -56.834 -18 -99.501c0 -38.667 5 -68.834 15 -90.501s26.833 -37 50.5 -46
s55.167 -13.5 94.5 -13.5c60 0 109.167 9.33301 147.5 28s72.5 48 102.5 88l14 -26c-23.333 -31.333 -47.833 -56.333 -73.5 -75s-54.167 -32 -85.5 -40s-67.666 -12 -108.999 -12c-47.333 0 -85.666 5.66699 -114.999 17s-50.666 30.333 -63.999 57s-20 63 -20 109
c0 53.333 9.83301 95.833 29.5 127.5s55.167 49.834 106.5 54.501v4c-42.667 3.33301 -72.667 18.833 -90 46.5s-26 65.834 -26 114.501c0 40 5 71.833 15 95.5s25.667 41.334 47 53.001s48.166 19.5 80.499 23.5s70.833 6 115.5 6zM560.997 523.002l0.00195312 -418.001
c0 -26 6.5 -45.167 19.5 -57.5s31.833 -18.5 56.5 -18.5h84l5 -28c-9.33301 -1.33301 -19.833 -2.66602 -31.5 -3.99902s-22.834 -2.33301 -33.501 -3s-19.334 -1 -26.001 -1c-37.333 0 -65.5 9 -84.5 27s-28.5 44 -28.5 78v265l7 160h32z" />
    <glyph glyph-name="quotesingle" unicode="'" horiz-adv-x="202" 
d="M119 690l-3 -210h-30l-3 210h36z" />
    <glyph glyph-name="parenleft" unicode="(" horiz-adv-x="356" 
d="M309 790l6 -23.998c-72 -36.667 -124.833 -91.834 -158.5 -165.501s-50.5 -169.5 -50.5 -287.5c0 -76.667 7.33301 -144.5 22 -203.5s37.5 -109 68.5 -150s70.5 -74.5 118.5 -100.5l-6 -24c-84 38 -145.667 95.5 -185 172.5s-59 178.5 -59 304.5
c0 126.667 19.667 228.667 59 306s101 134.666 185 171.999z" />
    <glyph glyph-name="parenright" unicode=")" horiz-adv-x="356" 
d="M47 790c84 -37.333 145.666 -94.668 184.999 -172.001s59 -179.333 59 -306c0 -126 -19.667 -227.5 -59 -304.5s-101 -134.5 -185 -172.5l-5 24c48 26 87.333 59.5 118 100.5s53.334 91 68.001 150s22 126.833 22 203.5c0 118 -16.833 213.833 -50.5 287.5
s-86.167 128.834 -157.5 165.501z" />
    <glyph glyph-name="asterisk" unicode="*" horiz-adv-x="452" 
d="M242 690l-6 -155l96 -129l-24 -17l-82 124l-82 -123l-25 17l96 128l-4 155h31zM78 594l121 -44l-1 -13l-6 -9l-125 37zM376 593l10 -29l-127 -36l-6 9v13z" />
    <glyph glyph-name="plus" unicode="+" horiz-adv-x="552" 
d="M487 314v-33h-422v33h422zM293 498l-1 -401h-32l-1 401h34z" />
    <glyph glyph-name="comma" unicode="," horiz-adv-x="213" 
d="M114 94c6 0 10.333 -1.33203 13 -3.99902s4 -7 4 -13v-64c0 -13.333 -1 -27.833 -3 -43.5s-4.66699 -31.167 -8 -46.5s-7.33301 -30 -12 -44l-19 7c2 20 3.33301 37.667 4 53s1 35.666 1 60.999c-8 0 -11.667 5 -11 15l1 62c-0.666992 6 0.5 10.333 3.5 13s7.5 4 13.5 4
h13z" />
    <glyph glyph-name="hyphen" unicode="-" horiz-adv-x="474" 
d="M392 268v-33h-310v33h310z" />
    <glyph glyph-name="period" unicode="." horiz-adv-x="212" 
d="M113 94c6 0 10.333 -1.33301 13 -4s4 -7 4 -13v-60c0 -6 -1.33301 -10.333 -4 -13s-7 -4 -13 -4h-14c-6 -0 -10.5 1.33301 -13.5 4s-4.5 7 -4.5 13v60c0 6 1.5 10.333 4.5 13s7.5 4 13.5 4h14z" />
    <glyph glyph-name="slash" unicode="/" horiz-adv-x="500" 
d="M465 690l-393 -751h-37l393 751h37z" />
    <glyph glyph-name="zero" unicode="0" horiz-adv-x="589" 
d="M294 702c55.333 0 99.166 -12.667 131.499 -38s55.333 -64.333 69 -117s20.5 -120 20.5 -202c0 -81.333 -6.83301 -148.5 -20.5 -201.5s-36.667 -92.167 -69 -117.5s-76.166 -38 -131.499 -38c-54.667 0 -98.167 12.667 -130.5 38s-55.333 64.5 -69 117.5
s-20.5 120.167 -20.5 201.5c0 82 6.83301 149.333 20.5 202s36.667 91.667 69 117s75.833 38 130.5 38zM294 665c-33.333 0 -61.5 -6.16699 -84.5 -18.5s-41.5 -31.666 -55.5 -57.999s-24 -59.5 -30 -99.5s-9 -88 -9 -144c0 -55.333 3 -103.166 9 -143.499
s16 -73.666 30 -99.999s32.5 -45.666 55.5 -57.999s51.167 -18.5 84.5 -18.5c34 0 62.5 6.16699 85.5 18.5s41.5 31.666 55.5 57.999s24 59.666 30 99.999s9 88.166 9 143.499c0 56 -3 104 -9 144s-16 73.167 -30 99.5s-32.5 45.666 -55.5 57.999s-51.5 18.5 -85.5 18.5z
" />
    <glyph glyph-name="one" unicode="1" horiz-adv-x="383" 
d="M260 690v-690h-41v600c0 8 0.333008 16.167 1 24.5l2 24.5l-182 -60l-7 29l186 72h41z" />
    <glyph glyph-name="two" unicode="2" horiz-adv-x="558" 
d="M266 702c42.667 0 79.3301 -3.5 109.997 -10.5s54 -20.5 70 -40.5s24 -50 24 -90c0 -30.667 -4.83301 -59.667 -14.5 -87s-24.334 -55.5 -44.001 -84.5s-45.167 -61.167 -76.5 -96.5l-223 -256c19.333 0.666992 38.833 1 58.5 1h58.5h270v-38h-439v25
c0 4 0.666992 7.5 2 10.5s3 6.16699 5 9.5l230 264c46 52 79.5 98 100.5 138s30.833 79.667 29.5 119c-1.33301 30 -8.66602 52 -21.999 66s-31.666 23 -54.999 27s-50.666 6 -81.999 6c-20.667 0 -40.667 -0.5 -60 -1.5s-39.666 -3 -60.999 -6s-46.333 -7.5 -75 -13.5
l-6 31c32 8 59.167 13.833 81.5 17.5s42.833 6.16699 61.5 7.5s37.667 2 57 2z" />
    <glyph glyph-name="three" unicode="3" horiz-adv-x="553" 
d="M250 702c51.333 0 92 -4.83105 122 -14.498s51.833 -26 65.5 -49s20.5 -54.833 20.5 -95.5c0 -28 -3.33301 -54.167 -10 -78.5s-17.667 -44.833 -33 -61.5s-36.666 -28 -63.999 -34v-4c47.333 -7.33301 80 -26.833 98 -58.5s27.333 -69.834 28 -114.501
c0.666992 -46 -5.5 -84.167 -18.5 -114.5s-35 -52.833 -66 -67.5s-72.833 -22 -125.5 -22c-34.667 0 -69.667 1.66699 -105 5s-69.666 7.33301 -102.999 12l6 32l62 -6c21.333 -2 43.166 -3.5 65.499 -4.5s44.833 -1.5 67.5 -1.5c42 0 75.667 5.5 101 16.5
s44.166 29 56.499 54s18.5 57.833 18.5 98.5c0 27.333 -4.16699 52.666 -12.5 75.999s-24 42.166 -47 56.499s-57.5 21.5 -103.5 21.5l-128 1v31l128 2c33.333 0.666992 59.666 6 78.999 16s33.833 22.667 43.5 38s15.834 31.833 18.501 49.5s4 34.834 4 51.501
c-0.666992 34.667 -6.5 61 -17.5 79s-28.667 30.667 -53 38s-57.833 11 -100.5 11c-31.333 0 -62 -1 -92 -3s-56.333 -4.66699 -79 -8l-7 31c32 5.33301 62.5 9.5 91.5 12.5s58.833 4.5 89.5 4.5z" />
    <glyph glyph-name="four" unicode="4" horiz-adv-x="600" 
d="M314 690l-217.999 -418.999c-6.66699 -12.667 -6.83398 -23.667 -0.500977 -33s15.833 -14 28.5 -14h424v-30l-96 -5h-345c-14.667 0 -27.167 4.33301 -37.5 13s-16.833 19.667 -19.5 33s-0.666992 26.666 6 39.999l216 415h42zM464.001 559.001v-559h-40v443l9 116h31z
" />
    <glyph glyph-name="five" unicode="5" horiz-adv-x="529" 
d="M444 690l-3.99902 -36.001h-304l-11 -245l60 -1c48.667 -1.33301 90.5 -5 125.5 -11s63.833 -16.167 86.5 -30.5s39.5 -34.5 50.5 -60.5s16.5 -60 16.5 -102c0 -26.667 -2.33301 -53 -7 -79s-14.334 -49.333 -29.001 -70s-36.167 -37 -64.5 -49s-66.166 -18 -113.499 -18
c-25.333 0 -54.333 2.16699 -87 6.5s-66.334 11.166 -101.001 20.499l7 32c30.667 -6.66699 61.667 -12.167 93 -16.5s58.333 -6.5 81 -6.5c51.333 0 89.833 7.5 115.5 22.5s42.834 36 51.501 63s13.334 58.5 14.001 94.5c0 39.333 -5.33301 70.333 -16 93
s-27.834 39.334 -51.501 50.001s-54.334 17.5 -92.001 20.5s-83.167 5.16699 -136.5 6.5h-23c-5.33301 0.666992 -9.83301 2.83398 -13.5 6.50098s-5.16699 8.5 -4.5 14.5l15 295h342z" />
    <glyph glyph-name="six" unicode="6" horiz-adv-x="566" 
d="M334 702c12.667 0 30.3301 -0.5 52.9971 -1.5s46.334 -4.83301 71.001 -11.5l-8 -30c-13.333 2.66699 -25.333 4.33398 -36 5.00098s-22.334 1.16699 -35.001 1.5s-27.667 0.5 -45 0.5c-40.667 0 -74.834 -4.5 -102.501 -13.5s-49.667 -25.833 -66 -50.5
s-28.166 -60.834 -35.499 -108.501s-11 -110.167 -11 -187.5c0 -51.333 1.83301 -95 5.5 -131s11.5 -65 23.5 -87s29.667 -38.167 53 -48.5s55 -15.5 95 -15.5c48.667 0 84.834 7.33301 108.501 22s39.167 36.167 46.5 64.5s11 62.5 11 102.5
c0 47.333 -4.33301 85.333 -13 114s-24.167 49.5 -46.5 62.5s-54.166 19.5 -95.499 19.5c-24.667 0 -47.667 -3 -69 -9s-42.666 -16.667 -63.999 -32s-44.666 -37 -69.999 -65l-4 23c22 30.667 43.333 54.334 64 71.001s43 28.5 67 35.5s52 10.5 84 10.5
c48 0 85.5 -7.33301 112.5 -22s46.167 -39 57.5 -73s17 -80 17 -138c0 -34 -2.33301 -64.833 -7 -92.5s-14.167 -51 -28.5 -70s-35.333 -33.667 -63 -44s-63.834 -15.5 -108.501 -15.5c-46.667 0 -84.334 5.66699 -113.001 17s-50.5 29.5 -65.5 54.5s-25.333 58 -31 99
s-8.5 91.167 -8.5 150.5c0 85.333 4.83301 154.166 14.5 206.499s24.834 91.833 45.501 118.5s47.167 44.667 79.5 54s71.5 14 117.5 14z" />
    <glyph glyph-name="seven" unicode="7" horiz-adv-x="507" 
d="M426 690c12 0 21 -1.66699 27 -5s9.5 -8.33301 10.5 -15s-0.166992 -15.334 -3.5 -26.001l-223 -644h-41l212 613l8 21c2.66699 6.66699 5 13.334 7 20.001h-375l-2 36h380z" />
    <glyph glyph-name="eight" unicode="8" horiz-adv-x="610" 
d="M305 699c42.667 0 77.5059 -3.66699 104.506 -11s48.333 -18.333 64 -33s26.5 -33.334 32.5 -56.001s9 -49.667 9 -81c0 -32 -3.33301 -59.333 -10 -82s-17.334 -40.334 -32.001 -53.001s-33.667 -20.334 -57 -23.001v-4c28.667 -2.66699 51.167 -11.334 67.5 -26.001
s28 -35 35 -61s10.5 -58.333 10.5 -97c0 -42.667 -6 -77.5 -18 -104.5s-34.167 -46.5 -66.5 -58.5s-78.833 -18 -139.5 -18c-58.667 0 -104.334 6 -137.001 18s-55.334 31.5 -68.001 58.5s-19 61.833 -19 104.5c0 38.667 3.66699 71 11 97s19.166 46.333 35.499 61
s38.5 23.334 66.5 26.001v4c-23.333 2.66699 -42.333 10.334 -57 23.001s-25.334 30.334 -32.001 53.001s-10 50 -10 82c0 31.333 3.16699 58.333 9.5 81s17.333 41.334 33 56.001s37.167 25.667 64.5 33s61.666 11 102.999 11zM307.006 341
c-38 0 -69.1689 -2.16699 -93.502 -6.5s-43.166 -12.166 -56.499 -23.499s-22.666 -27.833 -27.999 -49.5s-8 -49.834 -8 -84.501c0 -36 5.16699 -64.833 15.5 -86.5s28.833 -37.334 55.5 -47.001s64.667 -14.5 114 -14.5c50 0 88.167 4.83301 114.5 14.5
s44.333 25.334 54 47.001s14.5 50.5 14.5 86.5c0 35.333 -2.66699 63.833 -8 85.5s-14.666 38.167 -27.999 49.5s-31.833 19 -55.5 23s-53.834 6 -90.501 6zM306.004 663c-46 0 -81.333 -4.66699 -106 -14s-41.667 -24.666 -51 -45.999s-14 -50.333 -14 -87
c0 -40 4.66699 -70 14 -90s26.5 -33.5 51.5 -40.5s60.5 -10.5 106.5 -10.5c47.333 0 83 3.66699 107 11s40.333 21 49 41s13 49.667 13 89c0 36.667 -4.5 65.667 -13.5 87s-25.667 36.666 -50 45.999s-59.833 14 -106.5 14z" />
    <glyph glyph-name="nine" unicode="9" horiz-adv-x="567" 
d="M272 702c48.667 0 87.502 -5.83203 116.502 -17.499s50.333 -30.834 64 -57.501s22.667 -62.334 27 -107.001s6.5 -100 6.5 -166c0 -78.667 -4.83301 -142.167 -14.5 -190.5s-24.834 -85.166 -45.501 -110.499s-47.167 -42.5 -79.5 -51.5s-71.5 -13.5 -117.5 -13.5
c-13.333 0 -31.666 0.5 -54.999 1.5s-48.666 4.83301 -75.999 11.5l8 30c14.667 -2 27.334 -3.5 38.001 -4.5s22.5 -1.5 35.5 -1.5h49.5c39.333 0 72.833 4 100.5 12s50 23.167 67 45.5s29.333 55.166 37 98.499s11.5 100.333 11.5 171
c0 59.333 -1.33301 109.166 -4 149.499s-9.33398 72.5 -20.001 96.5s-27.834 41.333 -51.501 52s-56.5 16 -98.5 16c-45.333 0 -80 -7.83301 -104 -23.5s-40.5 -38 -49.5 -67s-13.5 -64.167 -13.5 -105.5c0 -39.333 4.5 -73.166 13.5 -101.499s24.5 -50 46.5 -65
s53 -22.5 93 -22.5c24.667 0 47.5 3 68.5 9s42.167 16.667 63.5 32s44.666 37 69.999 65l4 -23c-22 -30 -43.333 -53.5 -64 -70.5s-42.834 -29 -66.501 -36s-51.5 -10.5 -83.5 -10.5c-46 0 -82.5 8.83301 -109.5 26.5s-46.333 43.334 -58 77.001s-17.5 74.167 -17.5 121.5
c0 48.667 6 90.167 18 124.5s33 60.5 63 78.5s72.333 27 127 27z" />
    <glyph glyph-name="colon" unicode=":" horiz-adv-x="214" 
d="M113 432c6 0 10.333 -1.33301 13 -4s4 -7 4 -13v-60c0 -6 -1.33301 -10.333 -4 -13s-7 -4 -13 -4h-14c-6 0 -10.5 1.33301 -13.5 4s-4.5 7 -4.5 13v60c0 6 1.5 10.333 4.5 13s7.5 4 13.5 4h14zM113 94c6 0 10.333 -1.33301 13 -4s4 -7 4 -13v-60
c0 -6 -1.33301 -10.333 -4 -13s-7 -4 -13 -4h-14c-6 -0 -10.5 1.33301 -13.5 4s-4.5 7 -4.5 13v60c0 6 1.5 10.333 4.5 13s7.5 4 13.5 4h14z" />
    <glyph glyph-name="semicolon" unicode=";" horiz-adv-x="215" 
d="M114 432c6 0 10.333 -1.33301 13 -4s4 -7 4 -13v-60c0 -6 -1.33301 -10.333 -4 -13s-7 -4 -13 -4h-14c-6 0 -10.5 1.33301 -13.5 4s-4.5 7 -4.5 13v60c0 6 1.5 10.333 4.5 13s7.5 4 13.5 4h14zM115 94c6 0 10.333 -1.33203 13 -3.99902s4 -7 4 -13v-64
c0 -13.333 -1 -27.833 -3 -43.5s-4.66699 -31.167 -8 -46.5s-7.33301 -30 -12 -44l-19 7c2 20 3.33301 37.667 4 53s1 35.666 1 60.999c-8 0 -11.667 5 -11 15l1 62c-0.666992 6 0.5 10.333 3.5 13s7.5 4 13.5 4h13z" />
    <glyph glyph-name="less" unicode="&#x3c;" horiz-adv-x="538" 
d="M458 493v-33l-359 -164l359 -159v-34l-396 176v34z" />
    <glyph glyph-name="equal" unicode="=" horiz-adv-x="588" 
d="M505 413v-33h-422v33h422zM505 201v-33h-422v33h422z" />
    <glyph glyph-name="greater" unicode="&#x3e;" horiz-adv-x="538" 
d="M80 493l396 -180v-34l-396 -176v34l359 159l-359 164v33z" />
    <glyph glyph-name="question" unicode="?" horiz-adv-x="506" 
d="M255 712c64.667 0 113.671 -12.499 147.004 -37.499s50 -64.167 50 -117.5c0 -30.667 -6.16699 -56.834 -18.5 -78.501s-27.833 -41.834 -46.5 -60.501l-56 -57c-18.667 -19.333 -34.334 -41.333 -47.001 -66s-19.334 -54.667 -20.001 -90h-36c0 38 6 70.333 18 97
s27.167 50 45.5 70s36.5 38.667 54.5 56s33.167 35.833 45.5 55.5s18.833 42.834 19.5 69.501c0 42 -13 73.167 -39 93.5s-66.667 30.5 -122 30.5c-33.333 0 -60.5 -0.5 -81.5 -1.5s-40 -2.33301 -57 -4s-36.833 -4.16699 -59.5 -7.5l-5 29l45 7.5
c13.333 2.33301 27.166 4.33301 41.499 6s31.166 3 50.499 4s43 1.5 71 1.5zM252.004 94.001c6 0 10.333 -1.33301 13 -4s4 -7 4 -13v-60c0 -6 -1.33301 -10.333 -4 -13s-7 -4 -13 -4h-13c-6 0 -10.333 1.33301 -13 4s-4 7 -4 13v60c0 6 1.33301 10.333 4 13s7 4 13 4h13z
" />
    <glyph glyph-name="at" unicode="@" horiz-adv-x="699" 
d="M482 572c42 0 75.1689 -9.49707 99.502 -28.4971s36.5 -50.833 36.5 -95.5v-318h-29l-6 79c-13.333 -12 -31.833 -24.667 -55.5 -38s-50 -24.5 -79 -33.5s-58.5 -13.5 -88.5 -13.5c-26 0 -48.5 4.33301 -67.5 13s-33.5 21 -43.5 37s-15 35.667 -15 59v53
c0 31.333 10 55.666 30 72.999s48.333 26 85 26h232v62c0 26.667 -7.16699 48.5 -21.5 65.5s-41.833 25.167 -82.5 24.5h-135c-47.333 0 -85.166 -2.16699 -113.499 -6.5s-49.833 -15.166 -64.5 -32.499s-24.334 -44.333 -29.001 -81s-7 -87.334 -7 -152.001
c0 -52.667 1.5 -96.334 4.5 -131.001s9 -62 18 -82s22.333 -34.833 40 -44.5s40.834 -15.834 69.501 -18.501s64.667 -4 108 -4h245v-31c-40.667 -0.666992 -81.334 -1.5 -122.001 -2.5s-81.334 -1.5 -122.001 -1.5c-50.667 -0.666992 -92.834 1 -126.501 5
s-60.667 11.833 -81 23.5s-35.666 29.167 -45.999 52.5s-17.333 54 -21 92s-5.5 85.333 -5.5 142c0 54 1.5 99.333 4.5 136s9.16699 66.334 18.5 89.001s23.166 39.667 41.499 51s42.833 19.166 73.5 23.499s68.667 6.83301 114 7.5h141zM581.002 359.003l-224.999 -4
c-27.333 -0.666992 -48 -7 -62 -19s-21 -29.667 -21 -53v-46c0 -26 7.66699 -45.5 23 -58.5s37.666 -19.833 66.999 -20.5c24 0 49.333 3.5 76 10.5s52.5 16.5 77.5 28.5s46.5 25.667 64.5 41v121z" />
    <glyph glyph-name="A" unicode="A" horiz-adv-x="608" 
d="M332 690c4.66699 0 8.50098 -1 11.501 -3s5.16699 -5.33301 6.5 -10l241 -677h-43l-210 600l-10 28l-10 28h-28l-10 -28l-10 -28l-210 -600h-43l241 677c1.33301 4.66699 3.66602 8 6.99902 10s7 3 11 3h56zM478.001 279v-36h-350v36h350z" />
    <glyph glyph-name="B" unicode="B" horiz-adv-x="614" 
d="M301 698c54.667 0 98.3359 -5.16699 131.003 -15.5s56.334 -28.5 71.001 -54.5s22 -62.667 22 -110c0 -49.333 -9.16699 -87 -27.5 -113s-48.166 -41 -89.499 -45v-4c51.333 -4.66699 87 -22.667 107 -54s30 -74.666 30 -129.999c0 -47.333 -7 -84 -21 -110
s-36.667 -44.167 -68 -54.5s-73 -15.5 -125 -15.5c-36 0 -66.833 0.166992 -92.5 0.5s-49.167 1.16602 -70.5 2.49902s-44.333 3 -69 5l14 31c14 -0.666992 40.333 -1.33398 79 -2.00098s83.667 -1 135 -1c44 0 78.667 4 104 12s43.666 22.667 54.999 44s17 52 17 92
c0 43.333 -6 76.833 -18 100.5s-31.5 40.167 -58.5 49.5s-63.167 14.333 -108.5 15h-206v33h206c40.667 0.666992 73.167 4.83398 97.5 12.501s41.666 21.667 51.999 42s15.5 49.166 15.5 86.499c0 40 -5.83301 70.5 -17.5 91.5s-31 35.5 -58 43.5s-62.833 12 -107.5 12
c-30.667 0 -58.334 -0.166992 -83.001 -0.5s-45.834 -0.666016 -63.501 -0.999023s-31.167 -0.833008 -40.5 -1.5l-14 31c21.333 2.66699 41.333 4.5 60 5.5s39.167 1.66699 61.5 2s49.166 0.5 80.499 0.5zM140.002 690v-690h-41v690h41z" />
    <glyph glyph-name="C" unicode="C" horiz-adv-x="563" 
d="M331 702c28 0 51.832 -0.668945 71.499 -2.00195s37.834 -3.33301 54.501 -6s34 -6 52 -10l-7 -30c-18.667 2.66699 -36.167 4.83398 -52.5 6.50098s-33.833 2.83398 -52.5 3.50098s-40.667 1 -66 1c-53.333 0 -95.666 -10.167 -126.999 -30.5s-54 -53.833 -68 -100.5
s-21 -109.667 -21 -189s7 -142.333 21 -189s36.667 -80.167 68 -100.5s73.666 -30.5 126.999 -30.5c40.667 0 75 1 103 3s55.333 5.33301 82 10l7 -31c-27.333 -6.66699 -55.333 -11.5 -84 -14.5s-64.667 -4.5 -108 -4.5c-63.333 0 -114 11.5 -152 34.5
s-65.333 60.5 -82 112.5s-25 122 -25 210s8.33301 158 25 210s44 89.5 82 112.5s88.667 34.5 152 34.5z" />
    <glyph glyph-name="D" unicode="D" horiz-adv-x="660" 
d="M332 699c47.333 0 87.166 -6.16895 119.499 -18.502s58.5 -32.333 78.5 -60s34.667 -64 44 -109s14 -100.5 14 -166.5c0 -65.333 -4.66699 -120.666 -14 -165.999s-24 -81.833 -44 -109.5s-46.167 -47.667 -78.5 -60s-72.166 -18.5 -119.499 -18.5
c-44.667 0 -86.167 0.833008 -124.5 2.5s-74.5 3.83398 -108.5 6.50098l19 31c31.333 -0.666992 64.333 -1.33398 99 -2.00098s73 -1 115 -1c52.667 0 94.5 10 125.5 30s53.333 53.167 67 99.5s20.5 108.833 20.5 187.5s-6.83301 141.167 -20.5 187.5s-36 79.5 -67 99.5
s-72.833 30 -125.5 30c-42 0 -80.333 -0.333008 -115 -1l-101 -2l-17 31c34 2.66699 70.333 4.83398 109 6.50098s80 2.5 124 2.5zM140 689.998v-690h-41v690h41z" />
    <glyph glyph-name="E" unicode="E" horiz-adv-x="553" 
d="M203 690l98.5 -0.00195312c33 0 65.833 -0.333008 98.5 -1s65 -1.66699 97 -3l-2 -31h-285c-22.667 0 -41 -7.16699 -55 -21.5s-21 -33.166 -21 -56.499v-464c0 -23.333 7 -42.166 21 -56.499s32.333 -21.5 55 -21.5h285l2 -31c-32 -1.33301 -64.333 -2.33301 -97 -3
s-65.5 -1 -98.5 -1h-98.5c-32.667 0 -59.167 10 -79.5 30s-30.5 45.333 -30.5 76v478c0 31.333 10.167 56.833 30.5 76.5s46.833 29.5 79.5 29.5zM110 385.998l344 -1v-33l-344 -1v35z" />
    <glyph glyph-name="F" unicode="F" horiz-adv-x="532" 
d="M206 690l96.5 -0.000976562c32.333 0 64.333 -0.333008 96 -1s63.167 -2 94.5 -4l-3 -30h-274c-24 0 -43.167 -7.16699 -57.5 -21.5s-21.5 -33.166 -21.5 -56.499v-577h-41v583c0 31.333 10.333 57 31 77s47 30 79 30zM113 379.999h337v-34h-337v34z" />
    <glyph glyph-name="G" unicode="G" horiz-adv-x="624" 
d="M338 702c28.667 0 53.999 -0.672852 75.999 -2.00586s42.5 -3.16602 61.5 -5.49902s38.167 -5.83301 57.5 -10.5l-7 -30c-20.667 2.66699 -40.5 4.83398 -59.5 6.50098s-38.667 2.83398 -59 3.50098s-43.166 1 -68.499 1c-41.333 0 -76.333 -5.33301 -105 -16
s-51.667 -28.167 -69 -52.5s-29.833 -57.166 -37.5 -98.499s-11.5 -92.666 -11.5 -153.999c0 -75.333 6.16699 -136.5 18.5 -183.5s32.333 -81.333 60 -103s64.5 -32.5 110.5 -32.5c31.333 0 59 4.83301 83 14.5s46 21.834 66 36.501s38.667 29.667 56 45l7 -28
c-16 -18.667 -35.167 -36 -57.5 -52s-46.833 -28.833 -73.5 -38.5s-56 -14.5 -88 -14.5c-54 0 -97.5 12.5 -130.5 37.5s-57.167 63.833 -72.5 116.5s-23 120.667 -23 204c0 88.667 8.5 159 25.5 211s45 89.167 84 111.5s91.167 33.5 156.5 33.5zM545.999 399.994v-400h-29
l-9 100l-3 14v286h41z" />
    <glyph glyph-name="H" unicode="H" horiz-adv-x="660" 
d="M140 690v-690h-41v690h41zM531 388v-36h-399v36h399zM561 690v-690h-41v690h41z" />
    <glyph glyph-name="I" unicode="I" horiz-adv-x="239" 
d="M140 690v-690h-41v690h41z" />
    <glyph glyph-name="J" unicode="J" horiz-adv-x="328" 
d="M232 690l0.00195312 -567c0 -42.667 -10.333 -75.167 -31 -97.5s-52 -33.166 -94 -32.499c-6.66699 0 -14.334 0.333008 -23.001 1s-17.334 1.66699 -26.001 3s-16 2.66602 -22 3.99902l5 28h56c62.667 0 94 31.333 94 94v567h41z" />
    <glyph glyph-name="K" unicode="K" horiz-adv-x="569" 
d="M524 690l-223.002 -300c-4.66699 -6 -9.16699 -11.5 -13.5 -16.5s-8.83301 -9.16699 -13.5 -12.5v-2c4.66699 -4 9.33398 -8.5 14.001 -13.5s9.33398 -10.5 14.001 -16.5l238 -329h-48l-262 360l247 330h47zM138.998 690v-231c0 -18 -0.333008 -34.333 -1 -49
s-2 -31 -4 -49c2 -18 3.33301 -35.167 4 -51.5s1 -32.833 1 -49.5v-260h-40v690h40zM261.998 377v-34h-142v34h142z" />
    <glyph glyph-name="L" unicode="L" horiz-adv-x="509" 
d="M137 690l0.000976562 -577.001c0 -23.333 7.16699 -42.166 21.5 -56.499s33.166 -21.5 56.499 -21.5h266l1 -30c-45.333 -2.66699 -91 -4.16699 -137 -4.5s-91.667 -0.5 -137 -0.5c-34.667 -0 -62 10.333 -82 31s-30 46.667 -30 78v581h41z" />
    <glyph glyph-name="M" unicode="M" horiz-adv-x="860" 
d="M726 690c13.333 0 20 -7 20 -21l30 -669h-41l-29 655h-23l-208 -576c-2.66699 -9.33301 -9 -14 -19 -14h-52c-10 0 -16.667 4.66699 -20 14l-207 576h-23l-29 -655h-41l29 669c0.666992 14 7.66699 21 21 21h57c10 0 16.333 -4.66699 19 -14l175 -484
c6 -15.333 11.5 -30.833 16.5 -46.5s10.5 -31.167 16.5 -46.5h24l16.5 47.5l16.5 47.5l174 482c3.33301 9.33301 10 14 20 14h57z" />
    <glyph glyph-name="N" unicode="N" horiz-adv-x="692" 
d="M594 690v-670c0 -13.333 -6.66699 -20 -20 -20h-54c-5.33301 0 -9.83301 1.16699 -13.5 3.5s-6.83398 6.16602 -9.50098 11.499l-298 564l-19 36c-6.66699 12.667 -12.667 25.334 -18 38.001h-23c0.666992 -12.667 1 -25.334 1 -38.001v-37v-578h-41v670
c0 13.333 6.66699 20 20 20h50c6 0 10.833 -1.16699 14.5 -3.5s6.83398 -6.16602 9.50098 -11.499l290 -551l22.5 -42l22.5 -44h25v47.5v46.5v558h41z" />
    <glyph glyph-name="O" unicode="O" 
d="M332 702c48 0 88.667 -6.16699 122 -18.5s60 -32.5 80 -60.5s34.5 -64.667 43.5 -110s13.5 -101.333 13.5 -168s-4.5 -122.667 -13.5 -168s-23.5 -82 -43.5 -110s-46.667 -48.167 -80 -60.5s-74 -18.5 -122 -18.5s-88.667 6.16699 -122 18.5s-60 32.5 -80 60.5
s-34.667 64.667 -44 110s-14 101.333 -14 168s4.66699 122.667 14 168s24 82 44 110s46.667 48.167 80 60.5s74 18.5 122 18.5zM332 665c-54 0 -96.667 -10.167 -128 -30.5s-54 -53.833 -68 -100.5s-21 -109.667 -21 -189s7 -142.333 21 -189s36.667 -80.167 68 -100.5
s74 -30.5 128 -30.5c53.333 0 95.833 10.167 127.5 30.5s54.334 53.833 68.001 100.5s20.5 109.667 20.5 189s-6.83301 142.333 -20.5 189s-36.334 80.167 -68.001 100.5s-74.167 30.5 -127.5 30.5z" />
    <glyph glyph-name="P" unicode="P" horiz-adv-x="583" 
d="M324 698c50.667 0 90.832 -5.99902 120.499 -17.999s51.167 -33 64.5 -63s20 -71.667 20 -125c0 -54 -6.5 -96 -19.5 -126s-34.333 -50.833 -64 -62.5s-69.5 -17.5 -119.5 -17.5c-26.667 0 -51.834 0.166992 -75.501 0.5s-45.167 1.16602 -64.5 2.49902
s-35.666 2.33301 -48.999 3s-22.666 1.66699 -27.999 3l3 27h104.5h107.5c40 0.666992 71.833 5.66699 95.5 15s40.834 26.333 51.501 51s16 59.334 16 104.001c0 45.333 -5.33301 80.166 -16 104.499s-27.834 41.333 -51.501 51s-55.5 14.5 -95.5 14.5
c-52 0 -96.833 -0.333008 -134.5 -1s-63.167 -1.66699 -76.5 -3l-14 32c24 2.66699 46.333 4.5 67 5.5s43.5 1.66699 68.5 2s54.833 0.5 89.5 0.5zM139.998 690.001v-690h-41v690h41z" />
    <glyph glyph-name="Q" unicode="Q" 
d="M332 702c48 0 88.667 -6.16699 122 -18.5s60 -32.5 80 -60.5s34.5 -64.667 43.5 -110s13.5 -101.333 13.5 -168s-4.5 -122.667 -13.5 -168s-23.5 -82 -43.5 -110s-46.667 -48.167 -80 -60.5s-74 -18.5 -122 -18.5s-88.667 6.16699 -122 18.5s-60 32.5 -80 60.5
s-34.667 64.667 -44 110s-14 101.333 -14 168s4.66699 122.667 14 168s24 82 44 110s46.667 48.167 80 60.5s74 18.5 122 18.5zM297 -49c33.333 -20.667 69.001 -37.5 107.001 -50.5s80.667 -23.167 128 -30.5l-13 -41c-46 6.66699 -89.333 18.667 -130 36
s-76.334 38 -107.001 62zM332.001 665c-54 0 -96.667 -10.167 -128 -30.5s-53.833 -53.833 -67.5 -100.5s-20.5 -109.667 -20.5 -189s6.83301 -142.333 20.5 -189s36.167 -80.167 67.5 -100.5s74 -30.5 128 -30.5s96.667 10.167 128 30.5s53.833 53.833 67.5 100.5
s20.5 109.667 20.5 189s-6.83301 142.333 -20.5 189s-36.167 80.167 -67.5 100.5s-74 30.5 -128 30.5z" />
    <glyph glyph-name="R" unicode="R" horiz-adv-x="610" 
d="M324 698c50 0 90.001 -5.50195 120.001 -16.502s51.667 -30.667 65 -59s20 -68.166 20 -119.499c0 -40 -4.33301 -72.833 -13 -98.5s-22.334 -45 -41.001 -58s-43 -21.5 -73 -25.5v-5c12 -2.66699 22.833 -8.66699 32.5 -18s18.5 -20.5 26.5 -33.5
s14.667 -27.833 20 -44.5l73 -220h-45l-70 217c-10.667 32 -24.834 54.5 -42.501 67.5s-39.5 19.5 -65.5 19.5c-38.667 0 -73.167 0.333008 -103.5 1s-55.5 1.33398 -75.5 2.00098s-34.333 1.33398 -43 2.00098l3 32h212c40 0.666992 71.833 5.66699 95.5 15
s40.834 25.5 51.501 48.5s16 55.5 16 97.5s-5.33301 74.5 -16 97.5s-27.834 39.167 -51.501 48.5s-55.5 14 -95.5 14c-52 0 -96.833 -0.333008 -134.5 -1s-63.167 -1.33398 -76.5 -2.00098l-14 31c24 2.66699 46.5 4.5 67.5 5.5s43.833 1.66699 68.5 2
s54.334 0.5 89.001 0.5zM140.001 689.998v-690h-41v690h41z" />
    <glyph glyph-name="S" unicode="S" horiz-adv-x="556" 
d="M275 701c32 -0.666992 64.167 -2.00098 96.5 -4.00098s64.166 -5.33301 95.499 -10l-4 -30c-29.333 1.33301 -59.833 2.83301 -91.5 4.5s-63.5 2.5 -95.5 2.5c-30 0 -55.833 -1 -77.5 -3s-39.5 -7.33301 -53.5 -16s-24.167 -22.5 -30.5 -41.5s-9.5 -46.167 -9.5 -81.5
c0 -47.333 7.83301 -81.333 23.5 -102s42.167 -34 79.5 -40l150 -25c51.333 -7.33301 87.333 -25.166 108 -53.499s31 -71.833 31 -130.5c0 -40.667 -4.66699 -73.167 -14 -97.5s-23 -42.5 -41 -54.5s-40.333 -20 -67 -24s-58 -6 -94 -6c-26 0 -56 0.666992 -90 2
s-72.667 5 -116 11l3 31c29.333 -2 54.833 -3.5 76.5 -4.5s42.5 -1.66699 62.5 -2s42 -0.5 66 -0.5c42 0.666992 75.5 4.33398 100.5 11.001s43.167 20.334 54.5 41.001s17 51.667 17 93c0 34 -3.5 60.833 -10.5 80.5s-18.333 34.667 -34 45s-36.5 17.166 -62.5 20.499
l-150 25c-49.333 7.33301 -84.166 25.5 -104.499 54.5s-30.5 71.167 -30.5 126.5c0 40.667 4.33301 73.167 13 97.5s21.667 42.333 39 54s39.5 19.167 66.5 22.5s58.167 4.66602 93.5 3.99902z" />
    <glyph glyph-name="T" unicode="T" horiz-adv-x="568" 
d="M304 690v-690h-41v690h41zM542 690v-36h-516v36h516z" />
    <glyph glyph-name="U" unicode="U" horiz-adv-x="667" 
d="M573 690l0.000976562 -433c0 -64.667 -7.83301 -116.667 -23.5 -156s-40.834 -68 -75.501 -86s-81 -27 -139 -27c-59.333 0 -106.5 9 -141.5 27s-60.333 46.667 -76 86s-23.5 91.333 -23.5 156v433h41v-433c0 -56.667 6.5 -102 19.5 -136s34 -58.5 63 -73.5
s67.833 -22.5 116.5 -22.5c48 0 86.5 7.5 115.5 22.5s50 39.5 63 73.5s19.5 79.333 19.5 136v433h41z" />
    <glyph glyph-name="V" unicode="V" horiz-adv-x="596" 
d="M573 690l-229.003 -677c-1.33301 -3.33301 -3.66602 -6.33301 -6.99902 -9s-7.33301 -4 -12 -4h-54c-4 -0 -7.66699 1.33301 -11 4s-5.66602 5.66699 -6.99902 9l-229 677h43l194 -582l12 -37c4 -12 7.66699 -24.333 11 -37h28l11.5 37.5
c3.66699 12.333 7.83398 24.833 12.501 37.5l193 581h44z" />
    <glyph glyph-name="W" unicode="W" horiz-adv-x="935" 
d="M902 690l-171.997 -676c-0.666992 -4 -2.83398 -7.33301 -6.50098 -10s-7.83398 -4 -12.501 -4h-57c-4.66699 -0 -8.66699 1.33301 -12 4s-5.66602 6.33398 -6.99902 11.001l-137 564l-9.5 39.5c-3 13 -6.16699 25.833 -9.5 38.5h-23
c-3.33301 -12.667 -6.5 -25.5 -9.5 -38.5l-9.5 -39.5l-137 -564c-0.666992 -4.66699 -2.83398 -8.33398 -6.50098 -11.001s-7.83398 -4 -12.501 -4h-57c-5.33301 -0 -9.66602 1.33301 -12.999 4s-5.66602 6 -6.99902 10l-172 676h44l146 -583
c3.33301 -12 6.33301 -24.167 9 -36.5l8 -36.5h27c3.33301 12 6.33301 24 9 36l8 36l139 568c1.33301 4.66699 3.66602 8.5 6.99902 11.5s7.33301 4.5 12 4.5h53c4.66699 0 8.66699 -1.5 12 -4.5s5.66602 -6.83301 6.99902 -11.5l139 -567
c3.33301 -12.667 6.33301 -25 9 -37s5 -24 7 -36h27c3.33301 12 6.33301 24 9 36l8 36l147 584h43z" />
    <glyph glyph-name="X" unicode="X" horiz-adv-x="598" 
d="M550 690l-200 -331l213 -359h-47l-211 359l198 331h47zM94 690l199 -331l-211 -359h-47l212 359l-199 331h46zM335 377v-34h-66v34h66z" />
    <glyph glyph-name="Y" unicode="Y" horiz-adv-x="548" 
d="M528 690l-236.998 -444h-33l-239 444h45l171 -322l18 -35l18 -36h6c5.33301 12 11.166 23.833 17.499 35.5s12.166 23.167 17.499 34.5l171 323h45zM295.002 285v-285h-42v285h42z" />
    <glyph glyph-name="Z" unicode="Z" horiz-adv-x="560" 
d="M459 655l46 -1l-408 -619l-46 1zM510 36v-36h-459v36h459zM505 690v-36h-450v36h450z" />
    <glyph glyph-name="bracketleft" unicode="[" horiz-adv-x="316" 
d="M269 768v-31h-116c-8 0 -12 -4.33301 -12 -13v-845c0 -8.66699 4 -13 12 -13h116v-31h-130c-10.667 0 -19.5 3.33301 -26.5 10s-10.5 15.667 -10.5 27v859c0 10.667 3.5 19.5 10.5 26.5s15.833 10.5 26.5 10.5h130z" />
    <glyph glyph-name="backslash" unicode="\" horiz-adv-x="500" 
d="M72 690l393 -751h-37l-393 751h37z" />
    <glyph glyph-name="bracketright" unicode="]" horiz-adv-x="316" 
d="M177 768c10.667 0 19.5 -3.5 26.5 -10.5s10.5 -15.833 10.5 -26.5v-859c0 -10.667 -3.5 -19.5 -10.5 -26.5s-15.833 -10.5 -26.5 -10.5h-129v31h115c8.66699 0 13 4.33301 13 13v845c0 8.66699 -4.33301 13 -13 13h-115v31h129z" />
    <glyph glyph-name="asciicircum" unicode="^" horiz-adv-x="401" 
d="M215 581l156 -200l-18 -14l-148 179h-8l-148 -179l-19 14l156 200h29z" />
    <glyph glyph-name="underscore" unicode="_" horiz-adv-x="433" 
d="M433 0v-33h-433v33h433z" />
    <glyph glyph-name="grave" unicode="`" horiz-adv-x="287" 
d="M72 712l155 -145l-18 -20l-163 135z" />
    <glyph glyph-name="a" unicode="a" horiz-adv-x="541" 
d="M312 494c30 0 55.667 -4.66797 77 -14.001s37.5 -24.166 48.5 -44.499s16.5 -47.5 16.5 -81.5v-354h-30l-8 106l-2 7v241c0 30.667 -7.33301 55.667 -22 75s-43 29 -85 29c-33.333 0 -69.5 -1.5 -108.5 -4.5s-76.5 -6.5 -112.5 -10.5l-4 30
c21.333 3.33301 43.833 6.5 67.5 9.5s49 5.66699 76 8s55.833 3.5 86.5 3.5zM429 292.999l-0.99707 -32.001l-242 -3c-28 -0.666992 -48.833 -8 -62.5 -22s-20.5 -34.333 -20.5 -61v-54c0 -30 7.83301 -52.5 23.5 -67.5s39.167 -22.833 70.5 -23.5
c24 -0.666992 50 3.5 78 12.5s55.333 21.5 82 37.5s49.334 33.667 68.001 53v-35c-9.33301 -10.667 -22 -21.834 -38 -33.501s-34.333 -23 -55 -34s-42.834 -20 -66.501 -27s-47.834 -10.5 -72.501 -10.5c-26.667 0 -49.834 4.83301 -69.501 14.5
s-34.834 23.834 -45.501 42.501s-16 41.334 -16 68.001v60c0 36.667 10.5 65 31.5 85s50.5 30 88.5 30h247z" />
    <glyph glyph-name="b" unicode="b" horiz-adv-x="561" 
d="M321 494c62 0 106.503 -19.332 133.503 -57.999s40.5 -103.667 40.5 -195c0 -44 -3.5 -82 -10.5 -114s-18.333 -58.333 -34 -79s-36.167 -35.834 -61.5 -45.501s-56.333 -14.5 -93 -14.5c-16.667 0 -33.834 0.666992 -51.501 2s-35 3.33301 -52 6
s-34.333 6.16699 -52 10.5l-52.5 13.5l33 28c22 -6 42.833 -10.833 62.5 -14.5s38.667 -6.16699 57 -7.5s36.5 -2 54.5 -2c38 0 68.667 7 92 21s40.333 36.833 51 68.5s16 74.167 16 127.5s-4.5 95.833 -13.5 127.5s-23.833 54.5 -44.5 68.5s-48.334 21 -83.001 21
c-30.667 0 -60.334 -8.33301 -89.001 -25s-62.334 -40.667 -101.001 -72l-2 32c23.333 21.333 46 39.5 68 54.5s43.833 26.5 65.5 34.5s43.834 12 66.501 12zM128.003 700.001v-208c0 -19.333 -0.166992 -36.333 -0.5 -51s-1.83301 -30 -4.5 -46l4 -16l1 -360l-40 1v680h40z
" />
    <glyph glyph-name="c" unicode="c" horiz-adv-x="481" 
d="M287 494c13.333 0 28.001 -0.499023 44.001 -1.49902s32.5 -2.83301 49.5 -5.5s32.833 -6.66699 47.5 -12l-7 -27c-18.667 4 -40.334 6.66699 -65.001 8s-45.334 2 -62.001 2c-45.333 0 -81.666 -6.5 -108.999 -19.5s-47.166 -35.167 -59.499 -66.5s-18.5 -75 -18.5 -131
s6.16699 -99.833 18.5 -131.5s32.166 -53.834 59.499 -66.501s63.666 -19 108.999 -19c9.33301 0 22 0.333008 38 1s33.167 1.83398 51.5 3.50098s34.833 3.83398 49.5 6.50098l6 -28c-22.667 -5.33301 -47.167 -9.83301 -73.5 -13.5s-52.166 -5.5 -77.499 -5.5
c-54 0 -97.333 8.16699 -130 24.5s-56.334 43.166 -71.001 80.499s-22 86.666 -22 147.999c0 62 7.33301 111.5 22 148.5s38.334 63.667 71.001 80s75.667 24.5 129 24.5z" />
    <glyph glyph-name="d" unicode="d" horiz-adv-x="564" 
d="M244 494c32.667 0 65.166 -4.50195 97.499 -13.502s65.5 -21.167 99.5 -36.5l-2 -31c-38 14.667 -71.5 25.834 -100.5 33.501s-58.833 11.5 -89.5 11.5c-33.333 0 -60.333 -6.66699 -81 -20s-35.834 -36 -45.501 -68s-14.5 -74.667 -14.5 -128
c0 -54 4.66699 -96.833 14 -128.5s24.333 -54.5 45 -68.5s47.667 -21 81 -21c20.667 0 40.5 3.33301 59.5 10s39.167 16.834 60.5 30.501s45 31.167 71 52.5l1 -35c-33.333 -29.333 -66.166 -52.333 -98.499 -69s-66.166 -25 -101.499 -25c-62 0 -106.333 20 -133 60
s-40 104.333 -40 193c0 61.333 6 110.5 18 147.5s31 63.833 57 80.5s60 25 102 25zM472.999 699.998v-700h-30l-6 84l-4 5v337l4 16c-2 17.333 -3.16699 33.333 -3.5 48s-0.5 31 -0.5 49v161h40z" />
    <glyph glyph-name="e" unicode="e" horiz-adv-x="530" 
d="M276 494c65.333 0 113.833 -11.834 145.5 -35.501s47.834 -59.167 48.501 -106.5c1.33301 -42.667 -6.16699 -75.167 -22.5 -97.5s-44.166 -33.5 -83.499 -33.5h-280v33h274c27.333 0 46.333 8.66699 57 26s15.334 40.666 14.001 69.999
c-0.666992 38 -13.334 65.5 -38.001 82.5s-62.334 25.5 -113.001 25.5c-42.667 0 -76.5 -6.66699 -101.5 -20s-42.833 -35.666 -53.5 -66.999s-16 -73.333 -16 -126c0 -56 6.16699 -100.167 18.5 -132.5s32 -55.166 59 -68.499s61.833 -20 104.5 -20
c31.333 0 61.5 1.33301 90.5 4s53.833 5.33398 74.5 8.00098l5 -28c-12 -4 -28.333 -7.5 -49 -10.5s-42.334 -5.33301 -65.001 -7s-43 -2.5 -61 -2.5c-52 0 -94 8.5 -126 25.5s-55.5 44.167 -70.5 81.5s-22.5 86.666 -22.5 147.999c0 62 7.16699 111.333 21.5 148
s37 63 68 79s71.5 24 121.5 24z" />
    <glyph glyph-name="f" unicode="f" horiz-adv-x="361" 
d="M250 715c9.33301 0 21.5 -0.166992 36.5 -0.5s30.167 -0.833008 45.5 -1.5s29 -1.66699 41 -3l-2 -30h-107c-38 0 -64.833 -7.66699 -80.5 -23s-23.5 -42 -23.5 -80v-577h-40v579c0 30 4.16699 55 12.5 75s22 35.167 41 45.5s44.5 15.5 76.5 15.5zM333 482v-34h-300v29
l93 5h207z" />
    <glyph glyph-name="g" unicode="g" horiz-adv-x="548" 
d="M270 494c47.333 0 85.167 -5.66699 113.5 -17s48.833 -28 61.5 -50s19 -50 19 -84c0 -33.333 -6.33301 -61.166 -19 -83.499s-33.167 -38.833 -61.5 -49.5s-66.5 -16 -114.5 -16c-46.667 0 -84.5 5.33301 -113.5 16s-50 27.167 -63 49.5s-19.5 50.166 -19.5 83.499
c0 34 6.5 62 19.5 84s33.833 38.667 62.5 50s67 17 115 17zM269.001 461c-58 0 -98.833 -9.66699 -122.5 -29s-35.5 -49 -35.5 -89s12 -69.333 36 -88s64.667 -28 122 -28c58.667 0 99.5 9.33301 122.5 28s34.5 48 34.5 88s-11.5 69.667 -34.5 89s-63.833 29 -122.5 29z
M521.001 482l-3 -26l-120 -5l-35 31h158zM135.001 228l27.9961 -4.00586c-16.667 -15.333 -27.834 -32.166 -33.501 -50.499s-3.83398 -34.833 5.49902 -49.5s28.333 -24.667 57 -30l190 -32c43.333 -7.33301 72.333 -21.166 87 -41.499s22 -49.833 22 -88.5
c0 -35.333 -7 -63.166 -21 -83.499s-37 -35 -69 -44s-74 -13.5 -126 -13.5c-41.333 0 -76.166 2.5 -104.499 7.5s-51.166 12.833 -68.499 23.5s-29.833 25 -37.5 43s-11.5 40 -11.5 66c0 22.667 2 41.834 6 57.501s11.333 29.667 22 42s25.334 23.5 44.001 33.5l47 26l28 -9
l-50 -32c-15.333 -10 -27.166 -20.167 -35.499 -30.5s-14.166 -22.166 -17.499 -35.499s-5 -30 -5 -50c0 -26.667 5.83301 -47.834 17.5 -63.501s30.834 -26.834 57.501 -33.501s62.334 -10 107.001 -10c44 0 79 3.33301 105 10s44.667 17.834 56 33.501
s17 36.834 17 63.501c0 20 -2.16699 36.333 -6.5 49s-12.833 22.834 -25.5 30.501s-31 13.5 -55 17.5l-192 32c-20.667 3.33301 -37.334 9.83301 -50.001 19.5s-21.667 21 -27 34s-7 26.333 -5 40s6.66699 27 14 40s17.333 23.833 30 32.5z" />
    <glyph glyph-name="h" unicode="h" horiz-adv-x="572" 
d="M355 494c86.667 0 130 -44 130 -132v-362h-40v354c0 36.667 -8 63.167 -24 79.5s-41 24.5 -75 24.5c-35.333 0 -69.5 -8 -102.5 -24s-72.5 -39.667 -118.5 -71l-1 33c40.667 30.667 80.167 54.667 118.5 72s75.833 26 112.5 26zM130 700l1.00098 -208.999
c0 -18.667 -0.333008 -36.334 -1 -53.001s-2.33398 -31.667 -5.00098 -45l5 -16v-377h-40v700h40z" />
    <glyph glyph-name="i" unicode="i" horiz-adv-x="227" 
d="M133 482v-482h-39v482h39zM122 683c10.667 0 16 -5.33301 16 -16v-60c0 -10.667 -5.33301 -16 -16 -16h-17c-10.667 0 -16 5.33301 -16 16v60c0 10.667 5.33301 16 16 16h17z" />
    <glyph glyph-name="j" unicode="j" horiz-adv-x="228" 
d="M134 482v-519.002c0 -22.667 -3 -44.167 -9 -64.5s-14.5 -39.333 -25.5 -57s-23.833 -34.167 -38.5 -49.5l-22 17c18 22.667 31.667 45.834 41 69.501s14 51.834 14 84.501v519h40zM123 682.998c10 0 15 -5.33301 15 -16v-60c0 -10.667 -5 -16 -15 -16h-18
c-10 0 -15 5.33301 -15 16v60c0 10.667 5 16 15 16h18z" />
    <glyph glyph-name="k" unicode="k" horiz-adv-x="482" 
d="M437 482l-173 -183.998c-3.33301 -3.33301 -7.66602 -7.33301 -12.999 -12s-9.66602 -8.33398 -12.999 -11.001v-2c3.33301 -2.66699 7.66602 -6.83398 12.999 -12.501s9.66602 -11.167 12.999 -16.5l189 -244h-48l-213 277l196 205h49zM130 700.002l1.00098 -327
c0 -18 -0.333008 -34.333 -1 -49s-2.33398 -31 -5.00098 -49c2 -18 3.33301 -35.167 4 -51.5s1 -32.833 1 -49.5v-174h-40v700h40zM225.001 291.002v-32h-114v32h114z" />
    <glyph glyph-name="l" unicode="l" horiz-adv-x="277" 
d="M131 700l-0.999023 -594.001c0 -25.333 6.66699 -44.333 20 -57s32.333 -19 57 -19h55l5 -29c-4.66699 -1.33301 -11.334 -2.66602 -20.001 -3.99902s-17.667 -2.33301 -27 -3s-17 -1 -23 -1c-32 0 -57.667 9.16699 -77 27.5s-29 44.833 -29 79.5v600h40z" />
    <glyph glyph-name="m" unicode="m" horiz-adv-x="879" 
d="M667 494c40 0 70.834 -11.167 92.501 -33.5s32.5 -55.166 32.5 -98.499v-362h-39v354c-0.666992 36 -9 62.333 -25 79s-40.333 25 -73 25c-20.667 0 -41 -3.5 -61 -10.5s-40.833 -17.5 -62.5 -31.5s-46.834 -31.667 -75.501 -53l-1 32
c36.667 33.333 72.5 58.166 107.5 74.499s69.833 24.5 104.5 24.5zM122.001 482l4 -89l4 -16v-377h-39v482h31zM336.001 494c40 0 70.833 -11 92.5 -33s32.5 -55 32.5 -99v-362h-39v354c0 36 -8.16699 62.333 -24.5 79s-40.833 25 -73.5 25c-20 0 -40 -3.33301 -60 -10
s-41 -17.167 -63 -31.5s-47 -32.166 -75 -53.499l-2 32c36.667 33.333 72.5 58.166 107.5 74.499s69.833 24.5 104.5 24.5z" />
    <glyph glyph-name="n" unicode="n" horiz-adv-x="573" 
d="M356 494c86.667 0 129.999 -44 129.999 -132v-362h-40v354c0 36.667 -8 63.167 -24 79.5s-41 24.5 -75 24.5c-35.333 0 -69.666 -8 -102.999 -24s-72.666 -39.667 -117.999 -71l-1 33c40 32 79.167 56.333 117.5 73s76.166 25 113.499 25zM122.999 482l4 -89l3 -16v-377
h-39v482h32z" />
    <glyph glyph-name="o" unicode="o" horiz-adv-x="562" 
d="M281 494c53.333 0 95.666 -8.16699 126.999 -24.5s53.833 -43 67.5 -80s20.5 -86.5 20.5 -148.5c0 -61.333 -6.83301 -110.666 -20.5 -147.999s-36.167 -64.166 -67.5 -80.499s-73.666 -24.5 -126.999 -24.5c-52 0 -94 8.16699 -126 24.5s-54.833 43.166 -68.5 80.499
s-20.5 86.666 -20.5 147.999c0 62 6.83301 111.5 20.5 148.5s36.5 63.667 68.5 80s74 24.5 126 24.5zM281 458c-42.667 0 -76.667 -6.66699 -102 -20s-43.5 -35.666 -54.5 -66.999s-16.5 -74.666 -16.5 -129.999c0 -54.667 5.5 -98 16.5 -130s29.167 -54.667 54.5 -68
s59.333 -20 102 -20s76.667 6.66699 102 20s43.666 36 54.999 68s17 75.333 17 130c0 55.333 -5.66699 98.666 -17 129.999s-29.666 53.666 -54.999 66.999s-59.333 20 -102 20z" />
    <glyph glyph-name="p" unicode="p" horiz-adv-x="566" 
d="M327 494c62 0 106.164 -19.833 132.497 -59.5s39.5 -104.5 39.5 -194.5c0 -61.333 -6.16699 -110.5 -18.5 -147.5s-31.333 -63.667 -57 -80s-59.5 -24.5 -101.5 -24.5c-32.667 0 -65.167 4.5 -97.5 13.5s-65.5 22.5 -99.5 40.5l2 27
c38.667 -14.667 72.334 -25.834 101.001 -33.501s58.334 -11.5 89.001 -11.5c34 0 61.167 6.83301 81.5 20.5s35.333 36.334 45 68.001s14.5 74.167 14.5 127.5s-4.66699 96 -14 128s-24.166 55 -44.499 69s-47.166 21 -80.499 21c-30.667 0 -60.5 -7.5 -89.5 -22.5
s-63.5 -38.833 -103.5 -71.5v32c22 21.333 44.167 39.333 66.5 54s44.666 25.667 66.999 33s44.833 11 67.5 11zM121.997 482l5 -91l3 -6v-329l-3 -12c2 -18 3 -34.333 3 -49v-48v-155h-39v690h31z" />
    <glyph glyph-name="q" unicode="q" horiz-adv-x="562" 
d="M270 494c15.333 0 31.333 -0.666016 48 -1.99902s33.5 -3.33301 50.5 -6s34.333 -6.16699 52 -10.5l52.5 -13.5l-33 -29c-21.333 6.66699 -42 11.834 -62 15.501s-38.833 6.16699 -56.5 7.5s-34.167 2 -49.5 2c-40 0 -72 -6.83301 -96 -20.5s-41.5 -36.334 -52.5 -68.001
s-16.5 -75.5 -16.5 -131.5c0 -75.333 10.167 -129.833 30.5 -163.5s54.833 -50.5 103.5 -50.5c34 0 65.667 7.66699 95 23s63.333 37.333 102 66l7 -28c-24.667 -20.667 -48.667 -38.334 -72 -53.001s-46.333 -25.667 -69 -33s-47 -11 -73 -11c-58 0 -100 20.333 -126 61
s-39 104.667 -39 192c0 44.667 3.66699 83 11 115s18.833 58.167 34.5 78.5s36.5 35.333 62.5 45s58 14.5 96 14.5zM433 463.001l40 -1v-670h-40v192c0 20 0.166992 37.167 0.5 51.5s1.83301 29.5 4.5 45.5l-5 16v366z" />
    <glyph glyph-name="r" unicode="r" horiz-adv-x="388" 
d="M121 482l5 -89l4 -16v-377h-39v482h30zM366 494l-6 -37.999h-20c-33.333 0 -66.333 -8 -99 -24s-71 -38.333 -115 -67l-2 30c38.667 31.333 76.5 55.666 113.5 72.999s73.167 26 108.5 26h20z" />
    <glyph glyph-name="s" unicode="s" horiz-adv-x="501" 
d="M239 494c20 0 41 -0.49707 63 -1.49707s44 -2.5 66 -4.5s42.667 -4.33301 62 -7l-4 -29l-91.5 4c-31.667 1.33301 -62.167 2.33301 -91.5 3c-34 0.666992 -61.667 -0.333008 -83 -3s-37 -10.667 -47 -24s-15 -35.666 -15 -66.999c0 -32.667 6.83301 -55.334 20.5 -68.001
s32.834 -21 57.501 -25l157 -23c36 -6 63.333 -18.667 82 -38s28 -48.333 28 -87c0 -40.667 -7.5 -70.5 -22.5 -89.5s-36.833 -31.333 -65.5 -37s-64 -8.5 -106 -8.5c-22 0 -47.833 0.666992 -77.5 2s-63.5 4.66602 -101.5 9.99902l4 29c20 -1.33301 39 -2.5 57 -3.5
s36.167 -1.66699 54.5 -2s38.166 -0.5 59.499 -0.5c39.333 0.666992 70.5 3.16699 93.5 7.5s39.667 13.666 50 27.999s15.5 35.833 15.5 64.5c0 32 -7.83301 54.333 -23.5 67s-35.5 20.667 -59.5 24l-157 23c-22.667 3.33301 -42 9.83301 -58 19.5
s-27.833 23.167 -35.5 40.5s-11.5 39.666 -11.5 66.999c0 40 6.66699 69.167 20 87.5s33.333 30 60 35s60 7.16699 100 6.5z" />
    <glyph glyph-name="t" unicode="t" horiz-adv-x="356" 
d="M159 631v-525.001c0 -26 6.5 -45.167 19.5 -57.5s32.167 -18.5 57.5 -18.5h84l5 -29c-9.33301 -1.33301 -20 -2.66602 -32 -3.99902s-23.333 -2.33301 -34 -3s-19.334 -1 -26.001 -1c-37.333 0 -65.666 9.33301 -84.999 28s-29 45.667 -29 81v529h40zM331 481.999v-34
h-299v29l94 5h205z" />
    <glyph glyph-name="u" unicode="u" horiz-adv-x="563" 
d="M127 482l0.000976562 -354c-0.666992 -36 7.33301 -62.333 24 -79s42.334 -25 77.001 -25c33.333 0 65.666 8 96.999 24s68.666 39.333 111.999 70l3 -33c-39.333 -32 -77.333 -56.167 -114 -72.5s-73 -24.5 -109 -24.5c-86.667 0 -130 44 -130 132v362h40zM472.001 482
v-482h-31l-4 89l-5 16v377h40z" />
    <glyph glyph-name="v" unicode="v" horiz-adv-x="513" 
d="M486 482l-192 -471c-2 -3.33301 -4.33301 -6 -7 -8s-6.33398 -3 -11.001 -3h-40c-3.33301 0 -6.5 1 -9.5 3s-5.5 4.66699 -7.5 8l-192 471h43l144 -360c6.66699 -14.667 12.834 -29.667 18.501 -45s11.5 -30.333 17.5 -45h13l18 45.5c6 15 12.333 29.833 19 44.5l143 360
h43z" />
    <glyph glyph-name="w" unicode="w" horiz-adv-x="815" 
d="M783 482l-160.003 -469c-1.33301 -4 -3.5 -7.16699 -6.5 -9.5s-6.83301 -3.5 -11.5 -3.5h-39c-4.66699 -0 -8.66699 1.33301 -12 4s-5.66602 6 -6.99902 10l-113 365l-10 36.5c-3.33301 12.333 -7 24.5 -11 36.5h-11l-10.5 -36.5
c-3.66699 -12.333 -7.5 -24.5 -11.5 -36.5l-112 -365c-1.33301 -4 -3.66602 -7.33301 -6.99902 -10s-7.33301 -4 -12 -4h-39c-4 0 -7.66699 1.16699 -11 3.5s-5.66602 5.5 -6.99902 9.5l-160 469h42l128 -385c4 -11.333 7.5 -22.5 10.5 -33.5s6.5 -21.833 10.5 -32.5h13
c3.33301 11.333 6.83301 22.5 10.5 33.5s7.16699 22.167 10.5 33.5l114 370c1.33301 4 3.66602 7.33301 6.99902 10s7 4 11 4h38c4 0 7.66699 -1.33301 11 -4s5.33301 -6 6 -10l115 -370c2.66699 -11.333 5.83398 -22.5 9.50098 -33.5s7.16699 -22.167 10.5 -33.5h13
c4 11.333 7.5 22.5 10.5 33.5s6.5 22.167 10.5 33.5l128 384h42z" />
    <glyph glyph-name="x" unicode="x" horiz-adv-x="511" 
d="M466 482l-165 -232l177 -250h-46l-176 250l164 232h46zM91 482l164 -232l-176 -250h-46l177 250l-165 232h46zM288 268v-33h-66v33h66z" />
    <glyph glyph-name="y" unicode="y" horiz-adv-x="512" 
d="M486 482l-215.003 -524c-8.66699 -20 -17.834 -39 -27.501 -57s-21.167 -34.5 -34.5 -49.5s-28.666 -27.667 -45.999 -38s-38 -17.833 -62 -22.5l-6 25c39.333 14.667 69.333 35 90 61s37.334 55.667 50.001 89l21 50c4.66699 11.333 9.33398 23.5 14.001 36.5
s9.33398 24.833 14.001 35.5l158 394h44zM69.9971 482l157.998 -395c3.33301 -9.33301 7 -18.333 11 -27s7.33301 -17.667 10 -27h20l-14 -33h-19c-3.33301 0 -6.66602 1 -9.99902 3s-5.66602 5 -6.99902 9l-192 470h43z" />
    <glyph glyph-name="z" unicode="z" horiz-adv-x="502" 
d="M400 448l47 -1l-348 -414l-47 1zM450 34v-34h-398v34h398zM447 482v-35h-392v35h392z" />
    <glyph glyph-name="braceleft" unicode="{" horiz-adv-x="303" 
d="M255 768v-27.0029c-38.667 0 -64.834 -8.5 -78.501 -25.5s-20.5 -42.5 -20.5 -76.5v-199c0 -26.667 -2.33301 -47.167 -7 -61.5s-12.667 -25.166 -24 -32.499s-27.666 -13.333 -48.999 -18c22.667 -7.33301 39.834 -14.833 51.501 -22.5s20 -18 25 -31
s7.5 -31.167 7.5 -54.5v-256c0 -33.333 6.83301 -58.666 20.5 -75.999s39.834 -26 78.501 -26v-27c-33.333 -0.666992 -60.166 3.33301 -80.499 12s-35 22.667 -44 42s-13.5 44 -13.5 74v268c0 18.667 -2.33301 32.334 -7 41.001s-11.834 15.5 -21.501 20.5
s-22.834 10.5 -39.501 16.5v38c18 5.33301 31.5 10 40.5 14s15.167 10.833 18.5 20.5s5 25.5 5 47.5v211c0 30.667 4.5 55.5 13.5 74.5s23.667 32.833 44 41.5s47.166 12.667 80.499 12z" />
    <glyph glyph-name="bar" unicode="|" horiz-adv-x="237" 
d="M135 781v-950h-33v950h33z" />
    <glyph glyph-name="braceright" unicode="}" horiz-adv-x="304" 
d="M48 768c34 0.666992 61.001 -3.33008 81.001 -11.9971s34.667 -22.5 44 -41.5s14 -43.833 14 -74.5v-211c0 -22 1.66699 -37.833 5 -47.5s9.66602 -16.5 18.999 -20.5s22.333 -8.66699 39 -14v-38c-15.333 -6 -28 -11.5 -38 -16.5s-17.333 -11.833 -22 -20.5
s-7 -22.334 -7 -41.001v-268c0 -30 -4.66699 -54.667 -14 -74s-24 -33.333 -44 -42s-47 -12.667 -81 -12v27c39.333 0 65.833 8.66699 79.5 26s20.5 42.666 20.5 75.999v256c0 23.333 2.5 41.5 7.5 54.5s13.5 23.333 25.5 31s28.667 15.167 50 22.5
c-20.667 4.66699 -36.667 10.667 -48 18s-19.333 18.166 -24 32.499s-7 34.833 -7 61.5v199c0 34 -6.83301 59.5 -20.5 76.5s-40.167 25.5 -79.5 25.5v27z" />
    <glyph glyph-name="asciitilde" unicode="~" horiz-adv-x="531" 
d="M160 335c20.667 -1.33301 39.332 -5.16992 55.999 -11.5029s33 -13.5 49 -21.5s32.167 -15.167 48.5 -21.5s34.833 -10.166 55.5 -11.499c20 -1.33301 34.167 2.83398 42.5 12.501s12.5 25.834 12.5 48.501h24c2 -32 -4.16699 -56.167 -18.5 -72.5
s-33.5 -23.5 -57.5 -21.5c-24 1.33301 -45 5.16602 -63 11.499s-34.667 13.333 -50 21s-30.666 14.834 -45.999 21.501s-32 10.667 -50 12c-20 2 -34.167 -2.33301 -42.5 -13s-12.5 -27.667 -12.5 -51h-24c-1.33301 22 1.16699 40.5 7.5 55.5s15.333 25.833 27 32.5
s25.5 9.66699 41.5 9z" />
    <glyph glyph-name="uni00A0" unicode="&#xa0;" horiz-adv-x="228" 
 />
    <glyph glyph-name="exclamdown" unicode="&#xa1;" horiz-adv-x="239" 
d="M136 278l4 -158v-323h-41v323l4 158h33zM127 483c5.33301 0 9.5 -1.33301 12.5 -4s4.5 -7 4.5 -13v-60c0 -6 -1.5 -10.333 -4.5 -13s-7.16699 -4 -12.5 -4h-13c-6 0 -10.5 1.33301 -13.5 4s-4.5 7 -4.5 13v60c0 6 1.5 10.333 4.5 13s7.5 4 13.5 4h13z" />
    <glyph glyph-name="cent" unicode="&#xa2;" horiz-adv-x="505" 
d="M287 603c12.667 0 27.167 -0.666016 43.5 -1.99902s33 -3.33301 50 -6s32.833 -6.33398 47.5 -11.001l-7 -28c-18.667 4 -40.5 6.83301 -65.5 8.5s-45.5 2.5 -61.5 2.5c-46 0 -82.833 -6.5 -110.5 -19.5s-47.667 -35.167 -60 -66.5s-18.5 -75 -18.5 -131
s6.16699 -99.833 18.5 -131.5s32.333 -54 60 -67s64.5 -19.5 110.5 -19.5c9.33301 0 22 0.333008 38 1s33.167 2 51.5 4s34.833 4.33301 49.5 7l5 -28c-22.667 -6 -47 -10.667 -73 -14s-51.667 -5 -77 -5c-54 0 -97.333 8.16699 -130 24.5s-56.334 43 -71.001 80
s-22 86.5 -22 148.5s7.33301 111.5 22 148.5s38.334 63.667 71.001 80s75.667 24.5 129 24.5zM277 118.001l-9 -118h-27l9 118h27zM311 581.001l-33 -466h-28l34 466h27zM320 690.001l-9 -112h-27l8 112h28z" />
    <glyph glyph-name="sterling" unicode="&#xa3;" horiz-adv-x="562" 
d="M319 701c13.333 0 28.3359 -0.335938 45.0029 -1.00293s35 -1.66699 55 -3s40.667 -3.33301 62 -6l-4 -31c-14.667 1.33301 -28.667 2.33301 -42 3s-26.5 1.16699 -39.5 1.5s-27.167 0.5 -42.5 0.5h-52c-48.667 0 -82.167 -10.667 -100.5 -32
s-26.5 -56.666 -24.5 -105.999l14 -279c1.33301 -31.333 0.5 -60.333 -2.5 -87s-9.83301 -50.5 -20.5 -71.5s-27.334 -39.167 -50.001 -54.5c10.667 0 21 0.166992 31 0.5s20.333 0.5 31 0.5h326v-36h-436v36c35.333 21.333 58.333 50 69 86s14.667 78 12 126l-14 277
c-2 39.333 1.16699 70.833 9.5 94.5s20.666 41.334 36.999 53.001s36.166 19.334 59.499 23.001s49 5.5 77 5.5zM424.003 377.997l-2 -30h-359v30h361z" />
    <glyph glyph-name="currency" unicode="&#xa4;" horiz-adv-x="600" 
d="M299 516c-30 0 -57.333 -7.33301 -82 -22s-44.334 -34.5 -59.001 -59.5s-22 -52.5 -22 -82.5s7.33301 -57.5 22 -82.5s34.334 -44.667 59.001 -59s52 -21.5 82 -21.5s57.167 7.16699 81.5 21.5s43.833 34 58.5 59s22 52.5 22 82.5s-7.33301 57.5 -22 82.5
s-34.167 44.833 -58.5 59.5s-51.5 22 -81.5 22zM100 572l82 -83l-20 -20l-82 82zM499 572l20 -21l-80 -80l-20 20zM165 239l21 -20l-86 -87l-21 21zM434 237l86 -85l-21 -20l-85 85zM299 544c36 0 68.333 -8.5 97 -25.5s51.667 -40 69 -69s26 -61.5 26 -97.5
c0 -35.333 -8.66699 -67.5 -26 -96.5s-40.5 -52.167 -69.5 -69.5s-61.167 -26 -96.5 -26s-67.666 8.66699 -96.999 26s-52.5 40.5 -69.5 69.5s-25.5 61.167 -25.5 96.5c0 36 8.5 68.5 25.5 97.5s40.167 52 69.5 69s61.666 25.5 96.999 25.5z" />
    <glyph glyph-name="yen" unicode="&#xa5;" horiz-adv-x="606" 
d="M557 690l-238.001 -415.999h-33l-238 416h44l169 -296c6.66699 -10.667 13.334 -22.334 20.001 -35.001l19 -36h6l19 35.5l19 34.5l168 297h45zM322.999 313.001v-313h-41v313h41zM515.999 200.001v-28h-422v28h422zM515.999 310.001v-28h-422v28h422z" />
    <glyph glyph-name="brokenbar" unicode="&#xa6;" horiz-adv-x="239" 
d="M136 781v-400h-33v400h33zM136 231v-400h-33v400h33z" />
    <glyph glyph-name="section" unicode="&#xa7;" horiz-adv-x="543" 
d="M116 409c-2.66699 -30 -2.83496 -56.668 -0.501953 -80.001s8.83301 -43.5 19.5 -60.5s26.334 -31.5 47.001 -43.5l188 -106c24 -13.333 43.5 -27.333 58.5 -42s26.167 -30.834 33.5 -48.501s11 -37.834 11 -60.501c0 -37.333 -8.16699 -64.166 -24.5 -80.499
s-38.166 -26.5 -65.499 -30.5s-58.333 -6 -93 -6c-22 0.666992 -44.833 1.5 -68.5 2.5s-47.834 2.33301 -72.501 4s-49.667 3.5 -75 5.5l4 31c25.333 -1.33301 49.333 -2.5 72 -3.5s45.167 -1.83301 67.5 -2.5l67.5 -2c28 0 53 1.16699 75 3.5s39.333 9.33301 52 21
s19 31.167 19 58.5c0 28.667 -7.16699 51.834 -21.5 69.501s-32.5 32.5 -54.5 44.5l-183 104c-29.333 16 -51.166 34.333 -65.499 55s-22.833 44.834 -25.5 72.501s-1.66699 59.167 3 94.5h32zM252.999 701.999c24.667 0 49.502 -0.498047 74.502 -1.49805
s49.667 -2.33301 74 -4s47.166 -3.83398 68.499 -6.50098l-4 -30c-21.333 1.33301 -41.166 2.5 -59.499 3.5s-38.833 1.83301 -61.5 2.5s-51.334 1 -86.001 1c-28.667 0.666992 -54 -0.333008 -76 -3s-39.167 -9.5 -51.5 -20.5s-18.5 -29.5 -18.5 -55.5
c0 -28.667 7 -51.667 21 -69s32.333 -32.333 55 -45l184 -104c29.333 -16.667 51 -35.667 65 -57s22.333 -45.666 25 -72.999s1.66699 -59 -3 -95h-33c4 30.667 4.33301 57.834 1 81.501s-10.333 44.167 -21 61.5s-26 32 -46 44l-187 107c-24.667 14.667 -44.667 29 -60 43
s-26.333 29.667 -33 47s-10 37 -10 59c0 33.333 7.33301 58.166 22 74.499s35.667 27.166 63 32.499s59.666 7.66602 96.999 6.99902z" />
    <glyph glyph-name="dieresis" unicode="&#xa8;" horiz-adv-x="402" 
d="M297 678c9.33301 0 14 -4.66699 14 -14v-56c0 -9.33301 -4.66699 -14 -14 -14h-15c-8.66699 0 -13 4.66699 -13 14v56c0 9.33301 4.33301 14 13 14h15zM120 678c8.66699 0 13 -4.66699 13 -14v-56c0 -9.33301 -4.33301 -14 -13 -14h-15c-8.66699 0 -13 4.66699 -13 14v56
c0 9.33301 4.33301 14 13 14h15z" />
    <glyph glyph-name="copyright" unicode="&#xa9;" horiz-adv-x="852" 
d="M426 702c49.333 0 95.666 -8.83105 138.999 -26.498s81.5 -42.334 114.5 -74.001s58.667 -69.334 77 -113.001s27.5 -91.5 27.5 -143.5s-9.16699 -99.833 -27.5 -143.5s-44 -81.334 -77 -113.001s-71.167 -56.334 -114.5 -74.001s-89.666 -26.5 -138.999 -26.5
s-95.5 8.83301 -138.5 26.5s-80.833 42.334 -113.5 74.001s-58.334 69.334 -77.001 113.001s-28 91.5 -28 143.5s9.33301 99.667 28 143s44.334 81 77.001 113s70.5 56.833 113.5 74.5s89.167 26.5 138.5 26.5zM431 577.002c30.667 0 55.6689 -0.833008 75.002 -2.5
s39 -5.16699 59 -10.5l-6 -23c-21.333 2 -40.833 3.33301 -58.5 4s-40.834 1 -69.501 1c-40 0 -71.833 -6.16699 -95.5 -18.5s-40.5 -33 -50.5 -62s-15 -68.167 -15 -117.5s5 -88.5 15 -117.5s26.833 -49.833 50.5 -62.5s55.5 -19 95.5 -19c31.333 0 57.5 0.5 78.5 1.5
s41.5 2.83301 61.5 5.5l4 -24c-20 -4.66699 -40.833 -8 -62.5 -10s-48.834 -3 -81.501 -3c-48 0 -86.167 7.5 -114.5 22.5s-48.833 39 -61.5 72s-19 77.833 -19 134.5c0 56 6.33301 100.667 19 134s33.167 57.5 61.5 72.5s66.5 22.5 114.5 22.5zM426.002 675.002
c-45.333 0 -87.833 -8.16699 -127.5 -24.5s-74.667 -39.5 -105 -69.5s-54.166 -64.833 -71.499 -104.5s-26 -83.5 -26 -131.5c0 -47.333 8.66699 -91 26 -131s41.166 -75 71.499 -105s65.333 -53.167 105 -69.5s82.167 -24.5 127.5 -24.5s88 8.16699 128 24.5
s75.167 39.5 105.5 69.5s54 65 71 105s25.5 83.667 25.5 131c0 48 -8.5 91.833 -25.5 131.5s-40.667 74.5 -71 104.5s-65.5 53.167 -105.5 69.5s-82.667 24.5 -128 24.5z" />
    <glyph glyph-name="ordfeminine" unicode="&#xaa;" horiz-adv-x="443" 
d="M257 602c31.333 0 56.001 -7.16602 74.001 -21.499s27 -39.166 27 -74.499v-235h-25l-7 71v6v158c0 18.667 -5.33301 34.5 -16 47.5s-30 19.5 -58 19.5c-24.667 0 -50.834 -0.833008 -78.501 -2.5s-54.5 -3.83398 -80.5 -6.50098l-4 24c16 2 32.333 4.16699 49 6.5
s35 4.16602 55 5.49902s41.333 2 64 2zM340.001 467.001l-1 -21.001l-171 -5c-20 -0.666992 -35 -5.5 -45 -14.5s-15 -21.833 -15 -38.5v-34c0 -20 5.66699 -34.667 17 -44s28 -14.333 50 -15c18 0 36.833 3.16699 56.5 9.5s38.667 14.833 57 25.5s33.5 21.667 45.5 33v-23
c-6 -7.33301 -14.833 -15.166 -26.5 -23.499s-25 -16.333 -40 -24s-31 -14 -48 -19s-34.5 -7.5 -52.5 -7.5c-28.667 0 -51.167 7.16699 -67.5 21.5s-24.5 34.833 -24.5 61.5v41c0 24 7.5 42.833 22.5 56.5s36.167 20.5 63.5 20.5h179z" />
    <glyph glyph-name="guillemotleft" unicode="&#xab;" horiz-adv-x="461" 
d="M375 455l21 -15l-143 -189l144 -192l-21 -15l-163 201v12zM211 455l21 -15l-143 -189l144 -192l-21 -15l-163 201v12z" />
    <glyph glyph-name="logicalnot" unicode="&#xac;" horiz-adv-x="592" 
d="M505 313v-33h-422v33h422zM505 301v-171h-34v171h34z" />
    <glyph glyph-name="uni00AD" unicode="&#xad;" horiz-adv-x="474" 
d="M392 268v-33h-310v33h310z" />
    <glyph glyph-name="registered" unicode="&#xae;" horiz-adv-x="574" 
d="M287 701c41.333 0 78.666 -10 111.999 -30s60 -46.667 80 -80s30 -70.666 30 -111.999s-10 -78.833 -30 -112.5s-46.667 -60.5 -80 -80.5s-70.666 -30 -111.999 -30s-78.833 10 -112.5 30s-60.5 46.833 -80.5 80.5s-30 71.167 -30 112.5s10 78.666 30 111.999
s46.833 60 80.5 80s71.167 30 112.5 30zM210 617v-277h-23v277h23zM287 682c-36.667 0 -70.334 -9.16699 -101.001 -27.5s-55 -42.833 -73 -73.5s-27 -64.667 -27 -102c0 -36.667 9 -70.5 27 -101.5s42.333 -55.667 73 -74s64.334 -27.5 101.001 -27.5
c37.333 0 71.166 9.16699 101.499 27.5s54.5 43 72.5 74s27 64.833 27 101.5c0 37.333 -9 71.333 -27 102s-42.167 55.167 -72.5 73.5s-64.166 27.5 -101.499 27.5zM298 620c37.333 0 63.6709 -5.49805 79.0039 -16.498s23 -31.833 23 -62.5
c0 -23.333 -4.83301 -40.5 -14.5 -51.5s-25.834 -17.833 -48.501 -20.5v-2c8.66699 -1.33301 16.5 -5.5 23.5 -12.5s12.167 -15.833 15.5 -26.5l36 -88h-26l-34 86c-4.66699 12.667 -11.334 21.5 -20.001 26.5s-19 7.5 -31 7.5c-29.333 0 -53.333 0.166992 -72 0.5
s-31 0.833008 -37 1.5l1 16h105c28.667 0.666992 48.834 5.16699 60.501 13.5s17.5 24.166 17.5 47.499c0 24.667 -5.83301 41 -17.5 49s-31.834 12 -60.501 12h-66c-18.667 0 -31.334 -0.333008 -38.001 -1l-7 18c17.333 1.33301 33.666 2.16602 48.999 2.49902
s36 0.5 62 0.5z" />
    <glyph glyph-name="macron" unicode="&#xaf;" horiz-adv-x="400" 
d="M332 654v-33h-264v33h264z" />
    <glyph glyph-name="degree" unicode="&#xb0;" horiz-adv-x="378" 
d="M190 702c22.667 0 43.333 -5.66699 62 -17s33.667 -26.333 45 -45s17 -39.334 17 -62.001s-5.66699 -43.5 -17 -62.5s-26.333 -34.167 -45 -45.5s-39.667 -17 -63 -17c-22.667 0 -43.5 5.66699 -62.5 17s-34.167 26.5 -45.5 45.5s-17 39.833 -17 62.5
s5.66699 43.334 17 62.001s26.5 33.667 45.5 45s40.167 17 63.5 17zM188.999 674c-26 0 -48.499 -9.16699 -67.499 -27.5s-28.5 -41.166 -28.5 -68.499c0 -16.667 4.33301 -32.5 13 -47.5s20.167 -27 34.5 -36s30.5 -13.5 48.5 -13.5s34.167 4.5 48.5 13.5
s25.833 21 34.5 36s13 30.833 13 47.5c0 27.333 -9.33301 50.166 -28 68.499s-41.334 27.5 -68.001 27.5z" />
    <glyph glyph-name="plusminus" unicode="&#xb1;" horiz-adv-x="596" 
d="M509 367v-33h-422v33h422zM509 121v-33h-422v33h422zM315 510l-1 -320h-32l-1 320h34z" />
    <glyph glyph-name="uni00B2" unicode="&#xb2;" horiz-adv-x="377" 
d="M193 758c26 0 48.168 -2.66602 66.501 -7.99902s32.5 -14.5 42.5 -27.5s15 -30.833 15 -53.5c0 -27.333 -7.5 -52.333 -22.5 -75s-36.5 -49 -64.5 -79l-124 -131c12 0.666992 22.833 1 32.5 1h32.5l165 -1v-28h-279v15c0 2.66699 0.666992 5 2 7l4 6l140 149
c18.667 19.333 33.5 36 44.5 50s19 27.5 24 40.5s7.5 27.167 7.5 42.5c-0.666992 25.333 -8.5 42.166 -23.5 50.499s-35.167 12.5 -60.5 12.5c-19.333 0 -39 -1.16699 -59 -3.5s-42.667 -6.16602 -68 -11.499l-4 26c27.333 7.33301 51.666 12.166 72.999 14.499
s40 3.5 56 3.5z" />
    <glyph glyph-name="uni00B3" unicode="&#xb3;" horiz-adv-x="392" 
d="M179 758c46 0 79.1699 -6.66797 99.5029 -20.001s30.5 -37 30.5 -71c0 -25.333 -4.83301 -46.666 -14.5 -63.999s-25.5 -29.333 -47.5 -36v-2c26 -5.33301 44.333 -16.333 55 -33s16.334 -39 17.001 -67c0.666992 -39.333 -9.33301 -68.666 -30 -87.999s-54 -29 -100 -29
c-23.333 0 -46.5 1.5 -69.5 4.5s-43.833 6.83301 -62.5 11.5l7 25c12 -2 24.667 -3.83301 38 -5.5s27 -3 41 -4s27.667 -1.5 41 -1.5c35.333 0 60.5 6.66699 75.5 20s22.5 36.333 22.5 69c0 15.333 -2 29.166 -6 41.499s-12.5 22.166 -25.5 29.499s-32.5 11 -58.5 11l-84 1
v26l84 2c25.333 0 43.666 4.66699 54.999 14s18.666 20.5 21.999 33.5s4.66602 25.5 3.99902 37.5c-0.666992 26.667 -7.83398 44.334 -21.501 53.001s-38.5 13 -74.5 13c-18.667 0 -38 -1.33301 -58 -4s-37 -5.66699 -51 -9l-5 26c19.333 4.66699 39 8.5 59 11.5
s39 4.5 57 4.5z" />
    <glyph glyph-name="acute" unicode="&#xb4;" horiz-adv-x="287" 
d="M212 714l26 -30l-163 -135l-18 19z" />
    <glyph glyph-name="uni00B5" unicode="&#xb5;" horiz-adv-x="573" 
d="M129 482v-352.001c0 -36.667 8.66699 -63.334 26 -80.001s43.333 -25 78 -25c35.333 0 68.5 8.83301 99.5 26.5s56.5 41.334 76.5 71.001s30.333 62.167 31 97.5l3 -89c-13.333 -31.333 -31.666 -57.666 -54.999 -78.999s-48.833 -37.333 -76.5 -48
s-54.834 -16 -81.501 -16c-29.333 0 -54.333 4.83301 -75 14.5s-36.5 24.5 -47.5 44.5s-16.5 45.333 -16.5 76v359h38zM129 82.999v-181l-7 -110h-31v353zM480 481.999l-0.00195312 -386.999c0 -12 0.333008 -23.333 1 -34s3.33398 -19.334 8.00098 -26.001
s12.667 -10 24 -10h37l4 -24c-8 -2.66699 -16.5 -4.66699 -25.5 -6s-18.5 -2 -28.5 -2c-23.333 0 -38.666 8.33301 -45.999 25s-11 38 -11 64v49l-3 16v335h40z" />
    <glyph glyph-name="paragraph" unicode="&#xb6;" horiz-adv-x="596" 
d="M351 702c18.667 0 41.1699 -1.16992 67.5029 -3.50293s50.166 -6.83301 71.499 -13.5l-6 -27c-16.667 3.33301 -35.834 5.83301 -57.501 7.5s-42.834 2.83398 -63.501 3.50098s-38.667 1 -54 1l-17 -470c-86.667 6.66699 -148.667 29.334 -186 68.001
s-56 99.334 -56 182.001c0 62 10.167 111.333 30.5 148s52.5 63.167 96.5 79.5s102 24.5 174 24.5zM317.003 684.997v-895h-35v895h35zM490.003 684.997v-685h-35v685h35z" />
    <glyph glyph-name="periodcentered" unicode="&#xb7;" horiz-adv-x="214" 
d="M114 304c6 0 10.333 -1.33301 13 -4s4 -7 4 -13v-60c0 -6 -1.33301 -10.333 -4 -13s-7 -4 -13 -4h-14c-6 0 -10.5 1.33301 -13.5 4s-4.5 7 -4.5 13v60c0 6 1.5 10.333 4.5 13s7.5 4 13.5 4h14z" />
    <glyph glyph-name="cedilla" unicode="&#xb8;" horiz-adv-x="223" 
d="M100 -47c19.333 1.33301 35.502 -0.00195312 48.502 -4.00195s22.667 -11 29 -21s9.16602 -23.333 8.49902 -40c0 -24 -6.16699 -45 -18.5 -63s-29.333 -31.167 -51 -39.5s-47.167 -10.833 -76.5 -7.5l6 23c33.333 -1.33301 59.666 6.5 78.999 23.5s29 37.5 29 61.5
c0 16.667 -4.16699 28.334 -12.5 35.001s-23.833 10.334 -46.5 11.001z" />
    <glyph glyph-name="uni00B9" unicode="&#xb9;" horiz-adv-x="289" 
d="M178 752v-396.001h-33v336c0 4.66699 0.166992 9.33398 0.5 14.001s0.833008 9.66699 1.5 15l-110 -34l-5 23l113 42h33z" />
    <glyph glyph-name="ordmasculine" unicode="&#xba;" horiz-adv-x="448" 
d="M224 602c56 0 95.499 -12.667 118.499 -38s34.5 -69.333 34.5 -132c0 -41.333 -5 -74.333 -15 -99s-26 -42.5 -48 -53.5s-52.333 -16.5 -91 -16.5c-56 0 -95.333 12.667 -118 38s-34 69 -34 131c0 62.667 11.333 106.667 34 132s62.334 38 119.001 38zM222.999 574
c-43.333 0 -73.833 -10 -91.5 -30s-26.5 -57.333 -26.5 -112c0 -54 8.83301 -91 26.5 -111s48.167 -30 91.5 -30c44 0 74.667 10 92 30s26 57 26 111c0 54.667 -8.66699 92 -26 112s-48 30 -92 30z" />
    <glyph glyph-name="guillemotright" unicode="&#xbb;" horiz-adv-x="461" 
d="M85 455l162 -198v-12l-163 -201l-21 15l144 192l-143 189zM249 455l162 -198v-12l-163 -201l-20 15l143 192l-142 189z" />
    <glyph glyph-name="onequarter" unicode="&#xbc;" horiz-adv-x="846" 
d="M634 690l-472 -690h-33l471 690h34zM206 690v-413.998h-32v351c0 5.33301 0.166992 10.666 0.5 15.999s0.833008 10.666 1.5 15.999l-121 -35l-5 22l124 44h32zM642 414.002l-141.999 -249c-4 -6.66699 -4 -13 0 -19s10.333 -9 19 -9h278v-23l-63 -4h-235
c-14.667 0 -25.834 5.33301 -33.501 16s-7.5 23 0.5 37l142 251h34zM751.001 336.002v-336h-32v266l7 70h25z" />
    <glyph glyph-name="onehalf" unicode="&#xbd;" horiz-adv-x="875" 
d="M632 690l-471 -690h-34l472 690h33zM206 690v-413.998h-32v351c0 5.33301 0.166992 10.666 0.5 15.999s0.833008 10.666 1.5 15.999l-121 -35l-5 22l124 44h32zM660 421.002c29.333 0 54.332 -2.16797 74.999 -6.50098s36.334 -12.666 47.001 -24.999
s16 -30.833 16 -55.5c0 -26 -7.16699 -50.833 -21.5 -74.5s-36.833 -51.167 -67.5 -82.5l-146 -148c13.333 0.666992 26.166 1 38.499 1h38.5l179 -1l-1 -29h-297v19c0 3.33301 0.5 6.16602 1.5 8.49902s2.16699 4.5 3.5 6.5l151 152c30 30.667 52 57.5 66 80.5
s20.667 45.833 20 68.5c-0.666992 26 -10.5 42 -29.5 48s-43.5 9 -73.5 9c-20.667 0 -40.5 -0.666992 -59.5 -2s-42.833 -4.66602 -71.5 -9.99902l-4 25c32 7.33301 57.833 11.833 77.5 13.5s38.834 2.5 57.501 2.5z" />
    <glyph glyph-name="threequarters" unicode="&#xbe;" horiz-adv-x="936" 
d="M737 690l-471 -690h-34l472 690h33zM195 695c53.333 0 90.3262 -6.83398 110.993 -20.501s31 -38.5 31 -74.5c0 -25.333 -5.16699 -47.833 -15.5 -67.5s-30.166 -32.167 -59.499 -37.5v-2c32.667 -4.66699 55 -16.167 67 -34.5s18.333 -41.5 19 -69.5
c1.33301 -41.333 -8.66699 -72 -30 -92s-58.666 -30 -111.999 -30c-24 0 -48 1 -72 3s-47 4.33301 -69 7l4 25c14 -1.33301 28.167 -2.5 42.5 -3.5s28.833 -1.83301 43.5 -2.5s29.667 -1 45 -1c40.667 0 69.834 7.33301 87.501 22s26.5 39.667 26.5 75
c0 15.333 -2.66699 29.5 -8 42.5s-15.5 23.667 -30.5 32s-37.167 12.5 -66.5 12.5l-86 1v23l86 2c29.333 0.666992 50.833 5.83398 64.5 15.501s22.334 21.167 26.001 34.5s5.5 26 5.5 38c-0.666992 29.333 -9 49 -25 59s-45.333 15 -88 15
c-21.333 0 -42.166 -0.666992 -62.499 -2s-38.166 -3 -53.499 -5l-4 25c22 3.33301 42.833 5.83301 62.5 7.5s39.834 2.5 60.501 2.5zM730.993 413.999l-141.998 -249c-3.33301 -6.66699 -3 -13 1 -19s10.333 -9 19 -9h277v-23l-62 -4h-235
c-14.667 0 -25.834 5.33301 -33.501 16s-7.83398 23 -0.500977 37l143 251h33zM831.995 335.999v-336h-32v266l7 70h25z" />
    <glyph glyph-name="questiondown" unicode="&#xbf;" horiz-adv-x="503" 
d="M277 287c0 -38 -6.00391 -70.332 -18.0039 -96.999s-27.167 -49.834 -45.5 -69.501s-36.666 -38.167 -54.999 -55.5s-33.666 -35.833 -45.999 -55.5s-18.5 -43.167 -18.5 -70.5c-0.666992 -42 12 -73.167 38 -93.5s66.667 -30.5 122 -30.5c34 0 61.333 0.5 82 1.5
s39.667 2.5 57 4.5l59 7l5 -29c-16 -2.66699 -30.667 -5 -44 -7l-41.5 -6c-14.333 -2 -31.166 -3.5 -50.499 -4.5s-43 -1.5 -71 -1.5c-64.667 0 -113.834 12.667 -147.501 38s-50.5 64.333 -50.5 117c0 30.667 6.33301 57 19 79s28.334 42.333 47.001 61l56 56.5
c18.667 19 34.334 41 47.001 66s19 54.833 19 89.5h37zM265.996 492.001c6 0 10.333 -1.33301 13 -4s4 -7 4 -13v-60c0 -6 -1.33301 -10.333 -4 -13s-7 -4 -13 -4h-13c-6 0 -10.333 1.33301 -13 4s-4 7 -4 13v60c0 6 1.33301 10.333 4 13s7 4 13 4h13z" />
    <glyph glyph-name="Agrave" unicode="&#xc0;" horiz-adv-x="608" 
d="M332 690c4.66699 0 8.50098 -1 11.501 -3s5.16699 -5.33301 6.5 -10l241 -677h-43l-210 600l-10 28l-10 28h-28l-10 -28l-10 -28l-210 -600h-43l241 677c1.33301 4.66699 3.66602 8 6.99902 10s7 3 11 3h56zM478.001 279v-36h-350v36h350zM193.001 897l155 -145l-18 -20
l-163 135z" />
    <glyph glyph-name="Aacute" unicode="&#xc1;" horiz-adv-x="608" 
d="M332 690c4.66699 0 8.50098 -1 11.501 -3s5.16699 -5.33301 6.5 -10l241 -677h-43l-210 600l-10 28l-10 28h-28l-10 -28l-10 -28l-210 -600h-43l241 677c1.33301 4.66699 3.66602 8 6.99902 10s7 3 11 3h56zM478.001 279v-36h-350v36h350zM405.001 899l26 -30l-163 -135
l-18 19z" />
    <glyph glyph-name="Acircumflex" unicode="&#xc2;" horiz-adv-x="608" 
d="M332 690c4.66699 0 8.50098 -1 11.501 -3s5.16699 -5.33301 6.5 -10l241 -677h-43l-210 600l-10 28l-10 28h-28l-10 -28l-10 -28l-210 -600h-43l241 677c1.33301 4.66699 3.66602 8 6.99902 10s7 3 11 3h56zM478.001 279v-36h-350v36h350zM318.001 882l136 -119l-16 -19
l-130 101h-8l-129 -101l-17 19l135 119h29z" />
    <glyph glyph-name="Atilde" unicode="&#xc3;" horiz-adv-x="608" 
d="M332 690c4.66699 0 8.50098 -1 11.501 -3s5.16699 -5.33301 6.5 -10l241 -677h-43l-210 600l-10 28l-10 28h-28l-10 -28l-10 -28l-210 -600h-43l241 677c1.33301 4.66699 3.66602 8 6.99902 10s7 3 11 3h56zM478.001 279v-36h-350v36h350zM232.001 867
c14.667 -1.33301 27.6689 -5.1709 39.002 -11.5039s22.166 -13.333 32.499 -21s21.166 -14.5 32.499 -20.5s24 -10 38 -12c20.667 -1.33301 35.167 2.83398 43.5 12.501s12.5 25.5 12.5 47.5h23c2 -30.667 -4.16699 -54.167 -18.5 -70.5s-33.5 -23.5 -57.5 -21.5
c-22 2 -40.5 8 -55.5 18s-29.167 20 -42.5 30s-28.333 15.667 -45 17c-20 2 -34.167 -2.16699 -42.5 -12.5s-12.5 -27.166 -12.5 -50.499h-23c-1.33301 22 1.16699 40.333 7.5 55s15.5 25.334 27.5 32.001s25.667 9.33398 41 8.00098z" />
    <glyph glyph-name="Adieresis" unicode="&#xc4;" horiz-adv-x="608" 
d="M332 690c4.66699 0 8.50098 -1 11.501 -3s5.16699 -5.33301 6.5 -10l241 -677h-43l-210 600l-10 28l-10 28h-28l-10 -28l-10 -28l-210 -600h-43l241 677c1.33301 4.66699 3.66602 8 6.99902 10s7 3 11 3h56zM478.001 279v-36h-350v36h350zM400.001 858
c9.33301 0 14 -4.66699 14 -14v-56c0 -9.33301 -4.66699 -14 -14 -14h-15c-8.66699 0 -13 4.66699 -13 14v56c0 9.33301 4.33301 14 13 14h15zM223.001 858c8.66699 0 13 -4.66699 13 -14v-56c0 -9.33301 -4.33301 -14 -13 -14h-15c-8.66699 0 -13 4.66699 -13 14v56
c0 9.33301 4.33301 14 13 14h15z" />
    <glyph glyph-name="Aring" unicode="&#xc5;" horiz-adv-x="608" 
d="M332 690c4.66699 0 8.50098 -1 11.501 -3s5.16699 -5.33301 6.5 -10l241 -677h-43l-210 600l-10 28l-10 28h-28l-10 -28l-10 -28l-210 -600h-43l241 677c1.33301 4.66699 3.66602 8 6.99902 10s7 3 11 3h56zM478.001 279v-36h-350v36h350zM304.001 913
c18.667 0 35.333 -4.33301 50 -13s26.5 -20.334 35.5 -35.001s13.5 -31 13.5 -49c0 -17.333 -4.33301 -33.5 -13 -48.5s-20.5 -27 -35.5 -36s-31.833 -13.5 -50.5 -13.5c-18 0 -34.5 4.33301 -49.5 13s-27 20.5 -36 35.5s-13.5 31.5 -13.5 49.5s4.5 34.333 13.5 49
s21 26.334 36 35.001s31.5 13 49.5 13zM304 888c-20 0 -36.833 -6.83301 -50.5 -20.5s-20.5 -31.167 -20.5 -52.5c0 -20.667 6.83301 -37.834 20.5 -51.501s30.5 -20.5 50.5 -20.5c20.667 0 37.667 6.83301 51 20.5s20 30.834 20 51.501c0 21.333 -6.66699 38.833 -20 52.5
s-30.333 20.5 -51 20.5z" />
    <glyph glyph-name="AE" unicode="&#xc6;" horiz-adv-x="907" 
d="M573 690c62 0 114.167 -0.332031 156.5 -0.999023s82.833 -1.66699 121.5 -3l-1 -32h-265c-24 0 -43.167 -7 -57.5 -21s-21.5 -33 -21.5 -57v-462c0 -24 7.16699 -43.167 21.5 -57.5s33.5 -21.5 57.5 -21.5h265l1 -31c-46.667 -2 -93.167 -3.16699 -139.5 -3.5
s-92.833 -0.5 -139.5 -0.5c-30.667 0 -56 10 -76 30s-30 45.333 -30 76v474c0 14.667 4 29.667 12 45s17 25.333 27 30h-6c-10.667 -4.66699 -22.167 -12.667 -34.5 -24s-24.833 -26.333 -37.5 -45l-373 -586h-46l384 599c12 19.333 24.5 35 37.5 47
s26.833 21.167 41.5 27.5s30.5 10.666 47.5 12.999s35.167 3.5 54.5 3.5zM481 295.001v-35h-282l11 35h271zM483 386.001l325 -1v-33l-325 -1v35z" />
    <glyph glyph-name="Ccedilla" unicode="&#xc7;" horiz-adv-x="563" 
d="M331 702c28 0 51.832 -0.668945 71.499 -2.00195s37.834 -3.33301 54.501 -6s34 -6 52 -10l-7 -30c-18.667 2.66699 -36.167 4.83398 -52.5 6.50098s-33.833 2.83398 -52.5 3.50098s-40.667 1 -66 1c-53.333 0 -95.666 -10.167 -126.999 -30.5s-54 -53.833 -68 -100.5
s-21 -109.667 -21 -189s7 -142.333 21 -189s36.667 -80.167 68 -100.5s73.666 -30.5 126.999 -30.5c40.667 0 75 1 103 3s55.333 5.33301 82 10l7 -31c-27.333 -6.66699 -55.333 -11.5 -84 -14.5s-64.667 -4.5 -108 -4.5c-63.333 0 -114 11.5 -152 34.5
s-65.333 60.5 -82 112.5s-25 122 -25 210s8.33301 158 25 210s44 89.5 82 112.5s88.667 34.5 152 34.5zM296.999 -59.002c19.333 1.33301 35.502 -0.00195312 48.502 -4.00195s22.667 -11 29 -21s9.16602 -23.333 8.49902 -40c0 -24 -6.16699 -45 -18.5 -63
s-29.333 -31.167 -51 -39.5s-47.167 -10.833 -76.5 -7.5l6 23c33.333 -1.33301 59.666 6.5 78.999 23.5s29 37.5 29 61.5c0 16.667 -4.16699 28.334 -12.5 35.001s-23.833 10.334 -46.5 11.001z" />
    <glyph glyph-name="Egrave" unicode="&#xc8;" horiz-adv-x="553" 
d="M203 690l98.5 -0.00195312c33 0 65.833 -0.333008 98.5 -1s65 -1.66699 97 -3l-2 -31h-285c-22.667 0 -41 -7.16699 -55 -21.5s-21 -33.166 -21 -56.499v-464c0 -23.333 7 -42.166 21 -56.499s32.333 -21.5 55 -21.5h285l2 -31c-32 -1.33301 -64.333 -2.33301 -97 -3
s-65.5 -1 -98.5 -1h-98.5c-32.667 0 -59.167 10 -79.5 30s-30.5 45.333 -30.5 76v478c0 31.333 10.167 56.833 30.5 76.5s46.833 29.5 79.5 29.5zM110 385.998l344 -1v-33l-344 -1v35zM198 920.998l155 -145l-18 -20l-163 135z" />
    <glyph glyph-name="Eacute" unicode="&#xc9;" horiz-adv-x="553" 
d="M203 690l98.5 -0.00195312c33 0 65.833 -0.333008 98.5 -1s65 -1.66699 97 -3l-2 -31h-285c-22.667 0 -41 -7.16699 -55 -21.5s-21 -33.166 -21 -56.499v-464c0 -23.333 7 -42.166 21 -56.499s32.333 -21.5 55 -21.5h285l2 -31c-32 -1.33301 -64.333 -2.33301 -97 -3
s-65.5 -1 -98.5 -1h-98.5c-32.667 0 -59.167 10 -79.5 30s-30.5 45.333 -30.5 76v478c0 31.333 10.167 56.833 30.5 76.5s46.833 29.5 79.5 29.5zM110 385.998l344 -1v-33l-344 -1v35zM411 922.998l26 -30l-163 -135l-18 19z" />
    <glyph glyph-name="Ecircumflex" unicode="&#xca;" horiz-adv-x="553" 
d="M203 690l98.5 -0.00195312c33 0 65.833 -0.333008 98.5 -1s65 -1.66699 97 -3l-2 -31h-285c-22.667 0 -41 -7.16699 -55 -21.5s-21 -33.166 -21 -56.499v-464c0 -23.333 7 -42.166 21 -56.499s32.333 -21.5 55 -21.5h285l2 -31c-32 -1.33301 -64.333 -2.33301 -97 -3
s-65.5 -1 -98.5 -1h-98.5c-32.667 0 -59.167 10 -79.5 30s-30.5 45.333 -30.5 76v478c0 31.333 10.167 56.833 30.5 76.5s46.833 29.5 79.5 29.5zM110 385.998l344 -1v-33l-344 -1v35zM323 905.998l136 -119l-16 -19l-130 101h-8l-129 -101l-17 19l135 119h29z" />
    <glyph glyph-name="Edieresis" unicode="&#xcb;" horiz-adv-x="553" 
d="M203 690l98.5 -0.00195312c33 0 65.833 -0.333008 98.5 -1s65 -1.66699 97 -3l-2 -31h-285c-22.667 0 -41 -7.16699 -55 -21.5s-21 -33.166 -21 -56.499v-464c0 -23.333 7 -42.166 21 -56.499s32.333 -21.5 55 -21.5h285l2 -31c-32 -1.33301 -64.333 -2.33301 -97 -3
s-65.5 -1 -98.5 -1h-98.5c-32.667 0 -59.167 10 -79.5 30s-30.5 45.333 -30.5 76v478c0 31.333 10.167 56.833 30.5 76.5s46.833 29.5 79.5 29.5zM110 385.998l344 -1v-33l-344 -1v35zM405 880.998c9.33301 0 14 -4.66699 14 -14v-56c0 -9.33301 -4.66699 -14 -14 -14h-15
c-8.66699 0 -13 4.66699 -13 14v56c0 9.33301 4.33301 14 13 14h15zM228 880.998c8.66699 0 13 -4.66699 13 -14v-56c0 -9.33301 -4.33301 -14 -13 -14h-15c-8.66699 0 -13 4.66699 -13 14v56c0 9.33301 4.33301 14 13 14h15z" />
    <glyph glyph-name="Igrave" unicode="&#xcc;" horiz-adv-x="239" 
d="M140 690v-690h-41v690h41zM7 899l155 -145l-18 -20l-163 135z" />
    <glyph glyph-name="Iacute" unicode="&#xcd;" horiz-adv-x="239" 
d="M140 690v-690h-41v690h41zM220 901l26 -30l-163 -135l-18 19z" />
    <glyph glyph-name="Icircumflex" unicode="&#xce;" horiz-adv-x="239" 
d="M140 690v-690h-41v690h41zM133 884l136 -119l-16 -19l-130 101h-8l-129 -101l-17 19l135 119h29z" />
    <glyph glyph-name="Idieresis" unicode="&#xcf;" horiz-adv-x="239" 
d="M140 690v-690h-41v690h41zM214 859c9.33301 0 14 -4.66699 14 -14v-56c0 -9.33301 -4.66699 -14 -14 -14h-15c-8.66699 0 -13 4.66699 -13 14v56c0 9.33301 4.33301 14 13 14h15zM37 859c8.66699 0 13 -4.66699 13 -14v-56c0 -9.33301 -4.33301 -14 -13 -14h-15
c-8.66699 0 -13 4.66699 -13 14v56c0 9.33301 4.33301 14 13 14h15z" />
    <glyph glyph-name="Eth" unicode="&#xd0;" 
d="M318 384v-28h-293v28h293zM336 699c46.667 0 86.3311 -6.16895 118.998 -18.502s59 -32.333 79 -60s34.5 -64 43.5 -109s13.5 -100.5 13.5 -166.5c0 -65.333 -4.5 -120.666 -13.5 -165.999s-23.5 -81.833 -43.5 -109.5s-46.333 -47.667 -79 -60
s-72.334 -18.5 -119.001 -18.5c-45.333 0 -87.166 0.833008 -125.499 2.5s-74.5 3.83398 -108.5 6.50098l20 31c30.667 -0.666992 63.334 -1.33398 98.001 -2.00098s73.334 -1 116.001 -1c52 0 93.667 10 125 30s53.666 53.167 66.999 99.5s20 108.833 20 187.5
s-6.66699 141.167 -20 187.5s-35.666 79.5 -66.999 99.5s-73 30 -125 30c-42.667 0 -81.334 -0.333008 -116.001 -1l-101 -2l-17 31c34 2.66699 70.333 4.83398 109 6.50098s80.334 2.5 125.001 2.5zM142.997 689.998v-690h-41v690h41z" />
    <glyph glyph-name="Ntilde" unicode="&#xd1;" horiz-adv-x="692" 
d="M594 690v-670c0 -13.333 -6.66699 -20 -20 -20h-54c-5.33301 0 -9.83301 1.16699 -13.5 3.5s-6.83398 6.16602 -9.50098 11.499l-298 564l-19 36c-6.66699 12.667 -12.667 25.334 -18 38.001h-23c0.666992 -12.667 1 -25.334 1 -38.001v-37v-578h-41v670
c0 13.333 6.66699 20 20 20h50c6 0 10.833 -1.16699 14.5 -3.5s6.83398 -6.16602 9.50098 -11.499l290 -551l22.5 -42l22.5 -44h25v47.5v46.5v558h41zM287 869c14.667 -1.33301 27.6689 -5.1709 39.002 -11.5039s22.166 -13.333 32.499 -21s21.166 -14.5 32.499 -20.5
s24 -10 38 -12c20.667 -1.33301 35.167 2.83398 43.5 12.501s12.5 25.5 12.5 47.5h23c2 -30.667 -4.16699 -54.167 -18.5 -70.5s-33.5 -23.5 -57.5 -21.5c-22 2 -40.5 8 -55.5 18s-29.167 20 -42.5 30s-28.333 15.667 -45 17c-20 2 -34.167 -2.16699 -42.5 -12.5
s-12.5 -27.166 -12.5 -50.499h-23c-1.33301 22 1.16699 40.333 7.5 55s15.5 25.334 27.5 32.001s25.667 9.33398 41 8.00098z" />
    <glyph glyph-name="Ograve" unicode="&#xd2;" 
d="M332 702c48 0 88.667 -6.16699 122 -18.5s60 -32.5 80 -60.5s34.5 -64.667 43.5 -110s13.5 -101.333 13.5 -168s-4.5 -122.667 -13.5 -168s-23.5 -82 -43.5 -110s-46.667 -48.167 -80 -60.5s-74 -18.5 -122 -18.5s-88.667 6.16699 -122 18.5s-60 32.5 -80 60.5
s-34.667 64.667 -44 110s-14 101.333 -14 168s4.66699 122.667 14 168s24 82 44 110s46.667 48.167 80 60.5s74 18.5 122 18.5zM332 665c-54 0 -96.667 -10.167 -128 -30.5s-54 -53.833 -68 -100.5s-21 -109.667 -21 -189s7 -142.333 21 -189s36.667 -80.167 68 -100.5
s74 -30.5 128 -30.5c53.333 0 95.833 10.167 127.5 30.5s54.334 53.833 68.001 100.5s20.5 109.667 20.5 189s-6.83301 142.333 -20.5 189s-36.334 80.167 -68.001 100.5s-74.167 30.5 -127.5 30.5zM221 899l155 -145l-18 -20l-163 135z" />
    <glyph glyph-name="Oacute" unicode="&#xd3;" 
d="M332 702c48 0 88.667 -6.16699 122 -18.5s60 -32.5 80 -60.5s34.5 -64.667 43.5 -110s13.5 -101.333 13.5 -168s-4.5 -122.667 -13.5 -168s-23.5 -82 -43.5 -110s-46.667 -48.167 -80 -60.5s-74 -18.5 -122 -18.5s-88.667 6.16699 -122 18.5s-60 32.5 -80 60.5
s-34.667 64.667 -44 110s-14 101.333 -14 168s4.66699 122.667 14 168s24 82 44 110s46.667 48.167 80 60.5s74 18.5 122 18.5zM332 665c-54 0 -96.667 -10.167 -128 -30.5s-54 -53.833 -68 -100.5s-21 -109.667 -21 -189s7 -142.333 21 -189s36.667 -80.167 68 -100.5
s74 -30.5 128 -30.5c53.333 0 95.833 10.167 127.5 30.5s54.334 53.833 68.001 100.5s20.5 109.667 20.5 189s-6.83301 142.333 -20.5 189s-36.334 80.167 -68.001 100.5s-74.167 30.5 -127.5 30.5zM434 901l26 -30l-163 -135l-18 19z" />
    <glyph glyph-name="Ocircumflex" unicode="&#xd4;" 
d="M332 702c48 0 88.667 -6.16699 122 -18.5s60 -32.5 80 -60.5s34.5 -64.667 43.5 -110s13.5 -101.333 13.5 -168s-4.5 -122.667 -13.5 -168s-23.5 -82 -43.5 -110s-46.667 -48.167 -80 -60.5s-74 -18.5 -122 -18.5s-88.667 6.16699 -122 18.5s-60 32.5 -80 60.5
s-34.667 64.667 -44 110s-14 101.333 -14 168s4.66699 122.667 14 168s24 82 44 110s46.667 48.167 80 60.5s74 18.5 122 18.5zM332 665c-54 0 -96.667 -10.167 -128 -30.5s-54 -53.833 -68 -100.5s-21 -109.667 -21 -189s7 -142.333 21 -189s36.667 -80.167 68 -100.5
s74 -30.5 128 -30.5c53.333 0 95.833 10.167 127.5 30.5s54.334 53.833 68.001 100.5s20.5 109.667 20.5 189s-6.83301 142.333 -20.5 189s-36.334 80.167 -68.001 100.5s-74.167 30.5 -127.5 30.5zM346 884l136 -119l-16 -19l-130 101h-8l-129 -101l-17 19l135 119h29z" />
    <glyph glyph-name="Otilde" unicode="&#xd5;" 
d="M332 702c48 0 88.667 -6.16699 122 -18.5s60 -32.5 80 -60.5s34.5 -64.667 43.5 -110s13.5 -101.333 13.5 -168s-4.5 -122.667 -13.5 -168s-23.5 -82 -43.5 -110s-46.667 -48.167 -80 -60.5s-74 -18.5 -122 -18.5s-88.667 6.16699 -122 18.5s-60 32.5 -80 60.5
s-34.667 64.667 -44 110s-14 101.333 -14 168s4.66699 122.667 14 168s24 82 44 110s46.667 48.167 80 60.5s74 18.5 122 18.5zM332 665c-54 0 -96.667 -10.167 -128 -30.5s-54 -53.833 -68 -100.5s-21 -109.667 -21 -189s7 -142.333 21 -189s36.667 -80.167 68 -100.5
s74 -30.5 128 -30.5c53.333 0 95.833 10.167 127.5 30.5s54.334 53.833 68.001 100.5s20.5 109.667 20.5 189s-6.83301 142.333 -20.5 189s-36.334 80.167 -68.001 100.5s-74.167 30.5 -127.5 30.5zM260 869c14.667 -1.33301 27.6689 -5.1709 39.002 -11.5039
s22.166 -13.333 32.499 -21s21.166 -14.5 32.499 -20.5s24 -10 38 -12c20.667 -1.33301 35.167 2.83398 43.5 12.501s12.5 25.5 12.5 47.5h23c2 -30.667 -4.16699 -54.167 -18.5 -70.5s-33.5 -23.5 -57.5 -21.5c-22 2 -40.5 8 -55.5 18s-29.167 20 -42.5 30
s-28.333 15.667 -45 17c-20 2 -34.167 -2.16699 -42.5 -12.5s-12.5 -27.166 -12.5 -50.499h-23c-1.33301 22 1.16699 40.333 7.5 55s15.5 25.334 27.5 32.001s25.667 9.33398 41 8.00098z" />
    <glyph glyph-name="Odieresis" unicode="&#xd6;" 
d="M332 702c48 0 88.667 -6.16699 122 -18.5s60 -32.5 80 -60.5s34.5 -64.667 43.5 -110s13.5 -101.333 13.5 -168s-4.5 -122.667 -13.5 -168s-23.5 -82 -43.5 -110s-46.667 -48.167 -80 -60.5s-74 -18.5 -122 -18.5s-88.667 6.16699 -122 18.5s-60 32.5 -80 60.5
s-34.667 64.667 -44 110s-14 101.333 -14 168s4.66699 122.667 14 168s24 82 44 110s46.667 48.167 80 60.5s74 18.5 122 18.5zM332 665c-54 0 -96.667 -10.167 -128 -30.5s-54 -53.833 -68 -100.5s-21 -109.667 -21 -189s7 -142.333 21 -189s36.667 -80.167 68 -100.5
s74 -30.5 128 -30.5c53.333 0 95.833 10.167 127.5 30.5s54.334 53.833 68.001 100.5s20.5 109.667 20.5 189s-6.83301 142.333 -20.5 189s-36.334 80.167 -68.001 100.5s-74.167 30.5 -127.5 30.5zM428 859c9.33301 0 14 -4.66699 14 -14v-56
c0 -9.33301 -4.66699 -14 -14 -14h-15c-8.66699 0 -13 4.66699 -13 14v56c0 9.33301 4.33301 14 13 14h15zM251 859c8.66699 0 13 -4.66699 13 -14v-56c0 -9.33301 -4.33301 -14 -13 -14h-15c-8.66699 0 -13 4.66699 -13 14v56c0 9.33301 4.33301 14 13 14h15z" />
    <glyph glyph-name="multiply" unicode="&#xd7;" horiz-adv-x="487" 
d="M412 459l-352 -316l21 -26l352 317zM81 459l-21 -26l352 -316l21 26z" />
    <glyph glyph-name="Oslash" unicode="&#xd8;" 
d="M494 743l28 -12l-368 -784l-27 13zM332 702c48 0 88.667 -6.16699 122 -18.5s60 -32.5 80 -60.5s34.5 -64.667 43.5 -110s13.5 -101.333 13.5 -168s-4.5 -122.667 -13.5 -168s-23.5 -82 -43.5 -110s-46.667 -48.167 -80 -60.5s-74 -18.5 -122 -18.5
s-88.667 6.16699 -122 18.5s-60 32.5 -80 60.5s-34.667 64.667 -44 110s-14 101.333 -14 168s4.66699 122.667 14 168s24 82 44 110s46.667 48.167 80 60.5s74 18.5 122 18.5zM332 665c-54 0 -96.667 -10.167 -128 -30.5s-54 -53.833 -68 -100.5s-21 -109.667 -21 -189
s7 -142.333 21 -189s36.667 -80.167 68 -100.5s74 -30.5 128 -30.5c53.333 0 95.833 10.167 127.5 30.5s54.334 53.833 68.001 100.5s20.5 109.667 20.5 189s-6.83301 142.333 -20.5 189s-36.334 80.167 -68.001 100.5s-74.167 30.5 -127.5 30.5z" />
    <glyph glyph-name="Ugrave" unicode="&#xd9;" horiz-adv-x="667" 
d="M573 690l0.000976562 -433c0 -64.667 -7.83301 -116.667 -23.5 -156s-40.834 -68 -75.501 -86s-81 -27 -139 -27c-59.333 0 -106.5 9 -141.5 27s-60.333 46.667 -76 86s-23.5 91.333 -23.5 156v433h41v-433c0 -56.667 6.5 -102 19.5 -136s34 -58.5 63 -73.5
s67.833 -22.5 116.5 -22.5c48 0 86.5 7.5 115.5 22.5s50 39.5 63 73.5s19.5 79.333 19.5 136v433h41zM223.001 899l155 -145l-18 -20l-163 135z" />
    <glyph glyph-name="Uacute" unicode="&#xda;" horiz-adv-x="667" 
d="M573 690l0.000976562 -433c0 -64.667 -7.83301 -116.667 -23.5 -156s-40.834 -68 -75.501 -86s-81 -27 -139 -27c-59.333 0 -106.5 9 -141.5 27s-60.333 46.667 -76 86s-23.5 91.333 -23.5 156v433h41v-433c0 -56.667 6.5 -102 19.5 -136s34 -58.5 63 -73.5
s67.833 -22.5 116.5 -22.5c48 0 86.5 7.5 115.5 22.5s50 39.5 63 73.5s19.5 79.333 19.5 136v433h41zM436.001 901l26 -30l-163 -135l-18 19z" />
    <glyph glyph-name="Ucircumflex" unicode="&#xdb;" horiz-adv-x="667" 
d="M573 690l0.000976562 -433c0 -64.667 -7.83301 -116.667 -23.5 -156s-40.834 -68 -75.501 -86s-81 -27 -139 -27c-59.333 0 -106.5 9 -141.5 27s-60.333 46.667 -76 86s-23.5 91.333 -23.5 156v433h41v-433c0 -56.667 6.5 -102 19.5 -136s34 -58.5 63 -73.5
s67.833 -22.5 116.5 -22.5c48 0 86.5 7.5 115.5 22.5s50 39.5 63 73.5s19.5 79.333 19.5 136v433h41zM348.001 884l136 -119l-16 -19l-130 101h-8l-129 -101l-17 19l135 119h29z" />
    <glyph glyph-name="Udieresis" unicode="&#xdc;" horiz-adv-x="667" 
d="M573 690l0.000976562 -433c0 -64.667 -7.83301 -116.667 -23.5 -156s-40.834 -68 -75.501 -86s-81 -27 -139 -27c-59.333 0 -106.5 9 -141.5 27s-60.333 46.667 -76 86s-23.5 91.333 -23.5 156v433h41v-433c0 -56.667 6.5 -102 19.5 -136s34 -58.5 63 -73.5
s67.833 -22.5 116.5 -22.5c48 0 86.5 7.5 115.5 22.5s50 39.5 63 73.5s19.5 79.333 19.5 136v433h41zM430.001 859c9.33301 0 14 -4.66699 14 -14v-56c0 -9.33301 -4.66699 -14 -14 -14h-15c-8.66699 0 -13 4.66699 -13 14v56c0 9.33301 4.33301 14 13 14h15zM253.001 859
c8.66699 0 13 -4.66699 13 -14v-56c0 -9.33301 -4.33301 -14 -13 -14h-15c-8.66699 0 -13 4.66699 -13 14v56c0 9.33301 4.33301 14 13 14h15z" />
    <glyph glyph-name="Yacute" unicode="&#xdd;" horiz-adv-x="548" 
d="M528 690l-236.998 -444h-33l-239 444h45l171 -322l18 -35l18 -36h6c5.33301 12 11.166 23.833 17.499 35.5s12.166 23.167 17.499 34.5l171 323h45zM295.002 285v-285h-42v285h42zM376.002 898l26 -30l-163 -135l-18 19z" />
    <glyph glyph-name="Thorn" unicode="&#xde;" horiz-adv-x="585" 
d="M324 558c50.667 0 90.8281 -6.00098 120.495 -18.001s51.167 -33 64.5 -63s20 -72 20 -126s-6.66699 -96 -20 -126s-34.666 -51 -63.999 -63s-68.666 -18 -117.999 -18c-27.333 0 -52.833 0.333008 -76.5 1s-45.167 1.5 -64.5 2.5s-35.666 2 -48.999 3
s-22.666 2.16699 -27.999 3.5l3 27h104.5h107.5c40 0.666992 71.833 5.66699 95.5 15s40.834 26.333 51.501 51s16 59.334 16 104.001c0 46 -5.33301 81.167 -16 105.5s-27.834 41.333 -51.501 51s-55.5 14.5 -95.5 14.5c-52 0 -96.833 -0.333008 -134.5 -1
s-63.167 -1.66699 -76.5 -3l-14 32c24 2.66699 46.5 4.5 67.5 5.5s43.833 1.66699 68.5 2s54.334 0.5 89.001 0.5zM139.994 689.999v-690h-41v690h41z" />
    <glyph glyph-name="germandbls" unicode="&#xdf;" horiz-adv-x="657" 
d="M332 714c45.333 0 83.8291 -3.33301 115.496 -10s55.667 -18.334 72 -35.001s24.5 -40.334 24.5 -71.001c0 -25.333 -3.33301 -46 -10 -62s-17.167 -29.167 -31.5 -39.5s-33.166 -20.166 -56.499 -29.499l-68 -25.5c-18 -7 -31.5 -15.833 -40.5 -26.5
s-13.5 -27 -13.5 -49c0 -23.333 6 -40.333 18 -51s28 -19.334 48 -26.001l125 -42c20 -6.66699 37 -14.834 51 -24.501s24.833 -22.334 32.5 -38.001s11.5 -36.167 11.5 -61.5c0 -40 -6.83301 -69.5 -20.5 -88.5s-32.667 -31.333 -57 -37s-53.166 -8.5 -86.499 -8.5
c-21.333 0 -45.5 0.666992 -72.5 2s-57.5 4.33301 -91.5 9l3 30c28.667 -2.66699 55.834 -4.5 81.501 -5.5s50.834 -1.5 75.501 -1.5c28.667 0.666992 52.5 3.33398 71.5 8.00098s33.167 13.834 42.5 27.501s14 35.5 14 65.5c0 21.333 -3.16699 37.833 -9.5 49.5
s-15 20.667 -26 27s-23.5 11.833 -37.5 16.5l-125 42c-26.667 8.66699 -47.834 20.834 -63.501 36.501s-23.5 38.834 -23.5 69.501c0 28 6 49.333 18 64s29 26.334 51 35.001l76 30c30 11.333 50.333 24 61 38s16 35.667 16 65c0 21.333 -6.66699 38 -20 50
s-32.833 20.5 -58.5 25.5s-57.5 7.5 -95.5 7.5c-43.333 0 -77.5 -4 -102.5 -12s-42.833 -22.667 -53.5 -44s-16 -52 -16 -92v-532h-40v534c0 41.333 5.16699 74.166 15.5 98.499s25 42.333 44 54s41.333 19.167 67 22.5s53.834 5 84.501 5zM143.996 482v-34h-110v30l93 4h17
z" />
    <glyph glyph-name="agrave" unicode="&#xe0;" horiz-adv-x="541" 
d="M312 494c30 0 55.667 -4.66797 77 -14.001s37.5 -24.166 48.5 -44.499s16.5 -47.5 16.5 -81.5v-354h-30l-8 106l-2 7v241c0 30.667 -7.33301 55.667 -22 75s-43 29 -85 29c-33.333 0 -69.5 -1.5 -108.5 -4.5s-76.5 -6.5 -112.5 -10.5l-4 30
c21.333 3.33301 43.833 6.5 67.5 9.5s49 5.66699 76 8s55.833 3.5 86.5 3.5zM429 292.999l-0.99707 -32.001l-242 -3c-28 -0.666992 -48.833 -8 -62.5 -22s-20.5 -34.333 -20.5 -61v-54c0 -30 7.83301 -52.5 23.5 -67.5s39.167 -22.833 70.5 -23.5
c24 -0.666992 50 3.5 78 12.5s55.333 21.5 82 37.5s49.334 33.667 68.001 53v-35c-9.33301 -10.667 -22 -21.834 -38 -33.501s-34.333 -23 -55 -34s-42.834 -20 -66.501 -27s-47.834 -10.5 -72.501 -10.5c-26.667 0 -49.834 4.83301 -69.501 14.5
s-34.834 23.834 -45.501 42.501s-16 41.334 -16 68.001v60c0 36.667 10.5 65 31.5 85s50.5 30 88.5 30h247zM157.003 717.998l155 -145l-18 -20l-163 135z" />
    <glyph glyph-name="aacute" unicode="&#xe1;" horiz-adv-x="541" 
d="M312 494c30 0 55.667 -4.66797 77 -14.001s37.5 -24.166 48.5 -44.499s16.5 -47.5 16.5 -81.5v-354h-30l-8 106l-2 7v241c0 30.667 -7.33301 55.667 -22 75s-43 29 -85 29c-33.333 0 -69.5 -1.5 -108.5 -4.5s-76.5 -6.5 -112.5 -10.5l-4 30
c21.333 3.33301 43.833 6.5 67.5 9.5s49 5.66699 76 8s55.833 3.5 86.5 3.5zM429 292.999l-0.99707 -32.001l-242 -3c-28 -0.666992 -48.833 -8 -62.5 -22s-20.5 -34.333 -20.5 -61v-54c0 -30 7.83301 -52.5 23.5 -67.5s39.167 -22.833 70.5 -23.5
c24 -0.666992 50 3.5 78 12.5s55.333 21.5 82 37.5s49.334 33.667 68.001 53v-35c-9.33301 -10.667 -22 -21.834 -38 -33.501s-34.333 -23 -55 -34s-42.834 -20 -66.501 -27s-47.834 -10.5 -72.501 -10.5c-26.667 0 -49.834 4.83301 -69.501 14.5
s-34.834 23.834 -45.501 42.501s-16 41.334 -16 68.001v60c0 36.667 10.5 65 31.5 85s50.5 30 88.5 30h247zM369.003 719.998l26 -30l-163 -135l-18 19z" />
    <glyph glyph-name="acircumflex" unicode="&#xe2;" horiz-adv-x="541" 
d="M312 494c30 0 55.667 -4.66797 77 -14.001s37.5 -24.166 48.5 -44.499s16.5 -47.5 16.5 -81.5v-354h-30l-8 106l-2 7v241c0 30.667 -7.33301 55.667 -22 75s-43 29 -85 29c-33.333 0 -69.5 -1.5 -108.5 -4.5s-76.5 -6.5 -112.5 -10.5l-4 30
c21.333 3.33301 43.833 6.5 67.5 9.5s49 5.66699 76 8s55.833 3.5 86.5 3.5zM429 292.999l-0.99707 -32.001l-242 -3c-28 -0.666992 -48.833 -8 -62.5 -22s-20.5 -34.333 -20.5 -61v-54c0 -30 7.83301 -52.5 23.5 -67.5s39.167 -22.833 70.5 -23.5
c24 -0.666992 50 3.5 78 12.5s55.333 21.5 82 37.5s49.334 33.667 68.001 53v-35c-9.33301 -10.667 -22 -21.834 -38 -33.501s-34.333 -23 -55 -34s-42.834 -20 -66.501 -27s-47.834 -10.5 -72.501 -10.5c-26.667 0 -49.834 4.83301 -69.501 14.5
s-34.834 23.834 -45.501 42.501s-16 41.334 -16 68.001v60c0 36.667 10.5 65 31.5 85s50.5 30 88.5 30h247zM282.003 701.998l136 -119l-16 -19l-130 101h-8l-129 -101l-17 19l135 119h29z" />
    <glyph glyph-name="atilde" unicode="&#xe3;" horiz-adv-x="541" 
d="M312 494c30 0 55.667 -4.66797 77 -14.001s37.5 -24.166 48.5 -44.499s16.5 -47.5 16.5 -81.5v-354h-30l-8 106l-2 7v241c0 30.667 -7.33301 55.667 -22 75s-43 29 -85 29c-33.333 0 -69.5 -1.5 -108.5 -4.5s-76.5 -6.5 -112.5 -10.5l-4 30
c21.333 3.33301 43.833 6.5 67.5 9.5s49 5.66699 76 8s55.833 3.5 86.5 3.5zM429 292.999l-0.99707 -32.001l-242 -3c-28 -0.666992 -48.833 -8 -62.5 -22s-20.5 -34.333 -20.5 -61v-54c0 -30 7.83301 -52.5 23.5 -67.5s39.167 -22.833 70.5 -23.5
c24 -0.666992 50 3.5 78 12.5s55.333 21.5 82 37.5s49.334 33.667 68.001 53v-35c-9.33301 -10.667 -22 -21.834 -38 -33.501s-34.333 -23 -55 -34s-42.834 -20 -66.501 -27s-47.834 -10.5 -72.501 -10.5c-26.667 0 -49.834 4.83301 -69.501 14.5
s-34.834 23.834 -45.501 42.501s-16 41.334 -16 68.001v60c0 36.667 10.5 65 31.5 85s50.5 30 88.5 30h247zM196.003 687.998c14.667 -1.33301 27.6689 -5.1709 39.002 -11.5039s22.166 -13.333 32.499 -21s21.166 -14.5 32.499 -20.5s24 -10 38 -12
c20.667 -1.33301 35.167 2.83398 43.5 12.501s12.5 25.5 12.5 47.5h23c2 -30.667 -4.16699 -54.167 -18.5 -70.5s-33.5 -23.5 -57.5 -21.5c-22 2 -40.5 8 -55.5 18s-29.167 20 -42.5 30s-28.333 15.667 -45 17c-20 2 -34.167 -2.16699 -42.5 -12.5
s-12.5 -27.166 -12.5 -50.499h-23c-1.33301 22 1.16699 40.333 7.5 55s15.5 25.334 27.5 32.001s25.667 9.33398 41 8.00098z" />
    <glyph glyph-name="adieresis" unicode="&#xe4;" horiz-adv-x="541" 
d="M312 494c30 0 55.667 -4.66797 77 -14.001s37.5 -24.166 48.5 -44.499s16.5 -47.5 16.5 -81.5v-354h-30l-8 106l-2 7v241c0 30.667 -7.33301 55.667 -22 75s-43 29 -85 29c-33.333 0 -69.5 -1.5 -108.5 -4.5s-76.5 -6.5 -112.5 -10.5l-4 30
c21.333 3.33301 43.833 6.5 67.5 9.5s49 5.66699 76 8s55.833 3.5 86.5 3.5zM429 292.999l-0.99707 -32.001l-242 -3c-28 -0.666992 -48.833 -8 -62.5 -22s-20.5 -34.333 -20.5 -61v-54c0 -30 7.83301 -52.5 23.5 -67.5s39.167 -22.833 70.5 -23.5
c24 -0.666992 50 3.5 78 12.5s55.333 21.5 82 37.5s49.334 33.667 68.001 53v-35c-9.33301 -10.667 -22 -21.834 -38 -33.501s-34.333 -23 -55 -34s-42.834 -20 -66.501 -27s-47.834 -10.5 -72.501 -10.5c-26.667 0 -49.834 4.83301 -69.501 14.5
s-34.834 23.834 -45.501 42.501s-16 41.334 -16 68.001v60c0 36.667 10.5 65 31.5 85s50.5 30 88.5 30h247zM364.003 677.998c9.33301 0 14 -4.66699 14 -14v-56c0 -9.33301 -4.66699 -14 -14 -14h-15c-8.66699 0 -13 4.66699 -13 14v56c0 9.33301 4.33301 14 13 14h15z
M187.003 677.998c8.66699 0 13 -4.66699 13 -14v-56c0 -9.33301 -4.33301 -14 -13 -14h-15c-8.66699 0 -13 4.66699 -13 14v56c0 9.33301 4.33301 14 13 14h15z" />
    <glyph glyph-name="aring" unicode="&#xe5;" horiz-adv-x="541" 
d="M312 494c30 0 55.667 -4.66797 77 -14.001s37.5 -24.166 48.5 -44.499s16.5 -47.5 16.5 -81.5v-354h-30l-8 106l-2 7v241c0 30.667 -7.33301 55.667 -22 75s-43 29 -85 29c-33.333 0 -69.5 -1.5 -108.5 -4.5s-76.5 -6.5 -112.5 -10.5l-4 30
c21.333 3.33301 43.833 6.5 67.5 9.5s49 5.66699 76 8s55.833 3.5 86.5 3.5zM429 292.999l-0.99707 -32.001l-242 -3c-28 -0.666992 -48.833 -8 -62.5 -22s-20.5 -34.333 -20.5 -61v-54c0 -30 7.83301 -52.5 23.5 -67.5s39.167 -22.833 70.5 -23.5
c24 -0.666992 50 3.5 78 12.5s55.333 21.5 82 37.5s49.334 33.667 68.001 53v-35c-9.33301 -10.667 -22 -21.834 -38 -33.501s-34.333 -23 -55 -34s-42.834 -20 -66.501 -27s-47.834 -10.5 -72.501 -10.5c-26.667 0 -49.834 4.83301 -69.501 14.5
s-34.834 23.834 -45.501 42.501s-16 41.334 -16 68.001v60c0 36.667 10.5 65 31.5 85s50.5 30 88.5 30h247zM269.003 732.998c18.667 0 35.333 -4.33301 50 -13s26.5 -20.334 35.5 -35.001s13.5 -31 13.5 -49c0 -17.333 -4.33301 -33.5 -13 -48.5s-20.5 -27 -35.5 -36
s-31.833 -13.5 -50.5 -13.5c-18 0 -34.5 4.33301 -49.5 13s-27 20.5 -36 35.5s-13.5 31.5 -13.5 49.5s4.5 34.333 13.5 49s21 26.334 36 35.001s31.5 13 49.5 13zM269.002 707.998c-20 0 -36.833 -6.83301 -50.5 -20.5s-20.5 -31.167 -20.5 -52.5
c0 -20.667 6.83301 -37.834 20.5 -51.501s30.5 -20.5 50.5 -20.5c20.667 0 37.667 6.83301 51 20.5s20 30.834 20 51.501c0 21.333 -6.66699 38.833 -20 52.5s-30.333 20.5 -51 20.5z" />
    <glyph glyph-name="ae" unicode="&#xe6;" horiz-adv-x="878" 
d="M625 494c65.333 0 113.829 -11.8359 145.496 -35.5029s47.834 -59.167 48.501 -106.5c0.666992 -31.333 -3.66602 -56.666 -12.999 -75.999s-24.166 -33.333 -44.499 -42s-47.5 -13 -81.5 -13h-247v33h241c39.333 0 66.833 7.66699 82.5 23s22.834 39.666 21.501 72.999
c0 36.667 -12.5 63.834 -37.5 81.501s-63.167 26.5 -114.5 26.5c-42 0 -75.5 -6.66699 -100.5 -20s-43 -35.666 -54 -66.999s-16.5 -73.333 -16.5 -126c0 -56 6.33301 -100.167 19 -132.5s32.5 -55.166 59.5 -68.499s61.833 -20 104.5 -20c31.333 0 61.5 1.33301 90.5 4
s53.833 5.33398 74.5 8.00098l5 -28c-12 -4 -28.5 -7.5 -49.5 -10.5s-42.833 -5.33301 -65.5 -7s-42.667 -2.5 -60 -2.5c-52 0 -94 8.5 -126 25.5s-55.5 44.167 -70.5 81.5s-22.5 86.666 -22.5 147.999c0 62 7.16699 111.333 21.5 148s37 63 68 79s71.5 24 121.5 24z
M428.996 292.997l-0.998047 -32.002l-242 -3c-28 -0.666992 -48.833 -8 -62.5 -22s-20.5 -34.333 -20.5 -61v-54c0 -30 7.83301 -52.5 23.5 -67.5s39.167 -22.833 70.5 -23.5c26 -0.666992 54 3.83301 84 13.5s59.333 23 88 40s52.667 36.167 72 57.5v-35
c-10 -11.333 -23.667 -23.333 -41 -36s-37 -25 -59 -37s-45.667 -21.667 -71 -29s-51 -11 -77 -11c-26.667 0 -49.834 4.83301 -69.501 14.5s-34.834 23.834 -45.501 42.501s-16 41.334 -16 68.001v60c0 36.667 10.5 65 31.5 85s50.5 30 88.5 30h247zM311.998 493.995
c30 0 55.667 -4.66797 77 -14.001s37.5 -24.166 48.5 -44.499s16.5 -47.5 16.5 -81.5v-125l-40 -1v126c0 30.667 -7.33301 55.667 -22 75s-43 29 -85 29c-33.333 0 -69.5 -1.5 -108.5 -4.5s-76.5 -6.5 -112.5 -10.5l-4 30c21.333 3.33301 43.833 6.5 67.5 9.5
s49 5.66699 76 8s55.833 3.5 86.5 3.5z" />
    <glyph glyph-name="ccedilla" unicode="&#xe7;" horiz-adv-x="481" 
d="M287 494c13.333 0 28.001 -0.499023 44.001 -1.49902s32.5 -2.83301 49.5 -5.5s32.833 -6.66699 47.5 -12l-7 -27c-18.667 4 -40.334 6.66699 -65.001 8s-45.334 2 -62.001 2c-45.333 0 -81.666 -6.5 -108.999 -19.5s-47.166 -35.167 -59.499 -66.5s-18.5 -75 -18.5 -131
s6.16699 -99.833 18.5 -131.5s32.166 -53.834 59.499 -66.501s63.666 -19 108.999 -19c9.33301 0 22 0.333008 38 1s33.167 1.83398 51.5 3.50098s34.833 3.83398 49.5 6.50098l6 -28c-22.667 -5.33301 -47.167 -9.83301 -73.5 -13.5s-52.166 -5.5 -77.499 -5.5
c-54 0 -97.333 8.16699 -130 24.5s-56.334 43.166 -71.001 80.499s-22 86.666 -22 147.999c0 62 7.33301 111.5 22 148.5s38.334 63.667 71.001 80s75.667 24.5 129 24.5zM252.001 -58.999c19.333 1.33301 35.502 -0.00195312 48.502 -4.00195s22.667 -11 29 -21
s9.16602 -23.333 8.49902 -40c0 -24 -6.16699 -45 -18.5 -63s-29.333 -31.167 -51 -39.5s-47.167 -10.833 -76.5 -7.5l6 23c33.333 -1.33301 59.666 6.5 78.999 23.5s29 37.5 29 61.5c0 16.667 -4.16699 28.334 -12.5 35.001s-23.833 10.334 -46.5 11.001z" />
    <glyph glyph-name="egrave" unicode="&#xe8;" horiz-adv-x="530" 
d="M276 494c65.333 0 113.833 -11.834 145.5 -35.501s47.834 -59.167 48.501 -106.5c1.33301 -42.667 -6.16699 -75.167 -22.5 -97.5s-44.166 -33.5 -83.499 -33.5h-280v33h274c27.333 0 46.333 8.66699 57 26s15.334 40.666 14.001 69.999
c-0.666992 38 -13.334 65.5 -38.001 82.5s-62.334 25.5 -113.001 25.5c-42.667 0 -76.5 -6.66699 -101.5 -20s-42.833 -35.666 -53.5 -66.999s-16 -73.333 -16 -126c0 -56 6.16699 -100.167 18.5 -132.5s32 -55.166 59 -68.499s61.833 -20 104.5 -20
c31.333 0 61.5 1.33301 90.5 4s53.833 5.33398 74.5 8.00098l5 -28c-12 -4 -28.333 -7.5 -49 -10.5s-42.334 -5.33301 -65.001 -7s-43 -2.5 -61 -2.5c-52 0 -94 8.5 -126 25.5s-55.5 44.167 -70.5 81.5s-22.5 86.666 -22.5 147.999c0 62 7.16699 111.333 21.5 148
s37 63 68 79s71.5 24 121.5 24zM166 717.999l155 -145l-18 -20l-163 135z" />
    <glyph glyph-name="eacute" unicode="&#xe9;" horiz-adv-x="530" 
d="M276 494c65.333 0 113.833 -11.834 145.5 -35.501s47.834 -59.167 48.501 -106.5c1.33301 -42.667 -6.16699 -75.167 -22.5 -97.5s-44.166 -33.5 -83.499 -33.5h-280v33h274c27.333 0 46.333 8.66699 57 26s15.334 40.666 14.001 69.999
c-0.666992 38 -13.334 65.5 -38.001 82.5s-62.334 25.5 -113.001 25.5c-42.667 0 -76.5 -6.66699 -101.5 -20s-42.833 -35.666 -53.5 -66.999s-16 -73.333 -16 -126c0 -56 6.16699 -100.167 18.5 -132.5s32 -55.166 59 -68.499s61.833 -20 104.5 -20
c31.333 0 61.5 1.33301 90.5 4s53.833 5.33398 74.5 8.00098l5 -28c-12 -4 -28.333 -7.5 -49 -10.5s-42.334 -5.33301 -65.001 -7s-43 -2.5 -61 -2.5c-52 0 -94 8.5 -126 25.5s-55.5 44.167 -70.5 81.5s-22.5 86.666 -22.5 147.999c0 62 7.16699 111.333 21.5 148
s37 63 68 79s71.5 24 121.5 24zM379 719.999l26 -30l-163 -135l-18 19z" />
    <glyph glyph-name="ecircumflex" unicode="&#xea;" horiz-adv-x="530" 
d="M276 494c65.333 0 113.833 -11.834 145.5 -35.501s47.834 -59.167 48.501 -106.5c1.33301 -42.667 -6.16699 -75.167 -22.5 -97.5s-44.166 -33.5 -83.499 -33.5h-280v33h274c27.333 0 46.333 8.66699 57 26s15.334 40.666 14.001 69.999
c-0.666992 38 -13.334 65.5 -38.001 82.5s-62.334 25.5 -113.001 25.5c-42.667 0 -76.5 -6.66699 -101.5 -20s-42.833 -35.666 -53.5 -66.999s-16 -73.333 -16 -126c0 -56 6.16699 -100.167 18.5 -132.5s32 -55.166 59 -68.499s61.833 -20 104.5 -20
c31.333 0 61.5 1.33301 90.5 4s53.833 5.33398 74.5 8.00098l5 -28c-12 -4 -28.333 -7.5 -49 -10.5s-42.334 -5.33301 -65.001 -7s-43 -2.5 -61 -2.5c-52 0 -94 8.5 -126 25.5s-55.5 44.167 -70.5 81.5s-22.5 86.666 -22.5 147.999c0 62 7.16699 111.333 21.5 148
s37 63 68 79s71.5 24 121.5 24zM292 701.999l136 -119l-16 -19l-130 101h-8l-129 -101l-17 19l135 119h29z" />
    <glyph glyph-name="edieresis" unicode="&#xeb;" horiz-adv-x="530" 
d="M276 494c65.333 0 113.833 -11.834 145.5 -35.501s47.834 -59.167 48.501 -106.5c1.33301 -42.667 -6.16699 -75.167 -22.5 -97.5s-44.166 -33.5 -83.499 -33.5h-280v33h274c27.333 0 46.333 8.66699 57 26s15.334 40.666 14.001 69.999
c-0.666992 38 -13.334 65.5 -38.001 82.5s-62.334 25.5 -113.001 25.5c-42.667 0 -76.5 -6.66699 -101.5 -20s-42.833 -35.666 -53.5 -66.999s-16 -73.333 -16 -126c0 -56 6.16699 -100.167 18.5 -132.5s32 -55.166 59 -68.499s61.833 -20 104.5 -20
c31.333 0 61.5 1.33301 90.5 4s53.833 5.33398 74.5 8.00098l5 -28c-12 -4 -28.333 -7.5 -49 -10.5s-42.334 -5.33301 -65.001 -7s-43 -2.5 -61 -2.5c-52 0 -94 8.5 -126 25.5s-55.5 44.167 -70.5 81.5s-22.5 86.666 -22.5 147.999c0 62 7.16699 111.333 21.5 148
s37 63 68 79s71.5 24 121.5 24zM373 677.999c9.33301 0 14 -4.66699 14 -14v-56c0 -9.33301 -4.66699 -14 -14 -14h-15c-8.66699 0 -13 4.66699 -13 14v56c0 9.33301 4.33301 14 13 14h15zM196 677.999c8.66699 0 13 -4.66699 13 -14v-56c0 -9.33301 -4.33301 -14 -13 -14
h-15c-8.66699 0 -13 4.66699 -13 14v56c0 9.33301 4.33301 14 13 14h15z" />
    <glyph glyph-name="igrave" unicode="&#xec;" horiz-adv-x="227" 
d="M134 482v-482h-40v482h40zM1 718l155 -145l-18 -20l-163 135z" />
    <glyph glyph-name="iacute" unicode="&#xed;" horiz-adv-x="227" 
d="M134 482v-482h-40v482h40zM214 720l26 -30l-163 -135l-18 19z" />
    <glyph glyph-name="icircumflex" unicode="&#xee;" horiz-adv-x="227" 
d="M134 482v-482h-40v482h40zM127 702l136 -119l-16 -19l-130 101h-8l-129 -101l-17 19l135 119h29z" />
    <glyph glyph-name="idieresis" unicode="&#xef;" horiz-adv-x="227" 
d="M134 482v-482h-40v482h40zM208 678c9.33301 0 14 -4.66699 14 -14v-56c0 -9.33301 -4.66699 -14 -14 -14h-15c-8.66699 0 -13 4.66699 -13 14v56c0 9.33301 4.33301 14 13 14h15zM31 678c8.66699 0 13 -4.66699 13 -14v-56c0 -9.33301 -4.33301 -14 -13 -14h-15
c-8.66699 0 -13 4.66699 -13 14v56c0 9.33301 4.33301 14 13 14h15z" />
    <glyph glyph-name="eth" unicode="&#xf0;" horiz-adv-x="551" 
d="M124 698c27.333 1.33301 56.9941 -1.00391 88.9941 -7.00391s63.333 -17.167 94 -33.5s58.667 -40.166 84 -71.499s45.5 -71.833 60.5 -121.5s22.5 -111.167 22.5 -184.5c0 -39.333 -2.16699 -76.5 -6.5 -111.5s-13.166 -66.167 -26.499 -93.5
s-33.666 -48.666 -60.999 -63.999s-63.666 -23 -108.999 -23c-69.333 0 -120.833 18.333 -154.5 55s-50.5 95.667 -50.5 177c0 47.333 6.5 87.833 19.5 121.5s34.167 59.667 63.5 78s68.666 27.5 117.999 27.5c18.667 0 37.834 -2 57.501 -6s40.334 -11 62.001 -21
s43.834 -24 66.501 -42l-7 -21c-34 21.333 -64.667 35.833 -92 43.5s-56.666 11.5 -87.999 11.5c-40.667 0 -72.5 -8.16699 -95.5 -24.5s-39.167 -39 -48.5 -68s-14 -62.167 -14 -99.5c0 -72 13.5 -122.833 40.5 -152.5s68.167 -44.5 123.5 -44.5
c47.333 0 82.5 10.833 105.5 32.5s38.167 52.334 45.5 92.001s11 85.834 11 138.501c0 70.667 -7.33301 129.167 -22 175.5s-34 83.5 -58 111.5s-50 48.833 -78 62.5s-56 22.667 -84 27s-53 6.5 -75 6.5zM413.994 701.996l16 -23l-195 -139l-16 23z" />
    <glyph glyph-name="ntilde" unicode="&#xf1;" horiz-adv-x="573" 
d="M356 494c86.667 0 129.999 -44 129.999 -132v-362h-40v354c0 36.667 -8 63.167 -24 79.5s-41 24.5 -75 24.5c-35.333 0 -69.666 -8 -102.999 -24s-72.666 -39.667 -117.999 -71l-1 33c40 32 79.167 56.333 117.5 73s76.166 25 113.499 25zM122.999 482l4 -89l3 -16v-377
h-39v482h32zM222.999 688c14.667 -1.33301 27.6689 -5.1709 39.002 -11.5039s22.166 -13.333 32.499 -21s21.166 -14.5 32.499 -20.5s24 -10 38 -12c20.667 -1.33301 35.167 2.83398 43.5 12.501s12.5 25.5 12.5 47.5h23c2 -30.667 -4.16699 -54.167 -18.5 -70.5
s-33.5 -23.5 -57.5 -21.5c-22 2 -40.5 8 -55.5 18s-29.167 20 -42.5 30s-28.333 15.667 -45 17c-20 2 -34.167 -2.16699 -42.5 -12.5s-12.5 -27.166 -12.5 -50.499h-23c-1.33301 22 1.16699 40.333 7.5 55s15.5 25.334 27.5 32.001s25.667 9.33398 41 8.00098z" />
    <glyph glyph-name="ograve" unicode="&#xf2;" horiz-adv-x="562" 
d="M281 494c53.333 0 95.666 -8.16699 126.999 -24.5s53.833 -43 67.5 -80s20.5 -86.5 20.5 -148.5c0 -61.333 -6.83301 -110.666 -20.5 -147.999s-36.167 -64.166 -67.5 -80.499s-73.666 -24.5 -126.999 -24.5c-52 0 -94 8.16699 -126 24.5s-54.833 43.166 -68.5 80.499
s-20.5 86.666 -20.5 147.999c0 62 6.83301 111.5 20.5 148.5s36.5 63.667 68.5 80s74 24.5 126 24.5zM281 458c-42.667 0 -76.667 -6.66699 -102 -20s-43.5 -35.666 -54.5 -66.999s-16.5 -74.666 -16.5 -129.999c0 -54.667 5.5 -98 16.5 -130s29.167 -54.667 54.5 -68
s59.333 -20 102 -20s76.667 6.66699 102 20s43.666 36 54.999 68s17 75.333 17 130c0 55.333 -5.66699 98.666 -17 129.999s-29.666 53.666 -54.999 66.999s-59.333 20 -102 20zM169 717l155 -145l-18 -20l-163 135z" />
    <glyph glyph-name="oacute" unicode="&#xf3;" horiz-adv-x="562" 
d="M281 494c53.333 0 95.666 -8.16699 126.999 -24.5s53.833 -43 67.5 -80s20.5 -86.5 20.5 -148.5c0 -61.333 -6.83301 -110.666 -20.5 -147.999s-36.167 -64.166 -67.5 -80.499s-73.666 -24.5 -126.999 -24.5c-52 0 -94 8.16699 -126 24.5s-54.833 43.166 -68.5 80.499
s-20.5 86.666 -20.5 147.999c0 62 6.83301 111.5 20.5 148.5s36.5 63.667 68.5 80s74 24.5 126 24.5zM281 458c-42.667 0 -76.667 -6.66699 -102 -20s-43.5 -35.666 -54.5 -66.999s-16.5 -74.666 -16.5 -129.999c0 -54.667 5.5 -98 16.5 -130s29.167 -54.667 54.5 -68
s59.333 -20 102 -20s76.667 6.66699 102 20s43.666 36 54.999 68s17 75.333 17 130c0 55.333 -5.66699 98.666 -17 129.999s-29.666 53.666 -54.999 66.999s-59.333 20 -102 20zM381 719l26 -30l-163 -135l-18 19z" />
    <glyph glyph-name="ocircumflex" unicode="&#xf4;" horiz-adv-x="562" 
d="M281 494c53.333 0 95.666 -8.16699 126.999 -24.5s53.833 -43 67.5 -80s20.5 -86.5 20.5 -148.5c0 -61.333 -6.83301 -110.666 -20.5 -147.999s-36.167 -64.166 -67.5 -80.499s-73.666 -24.5 -126.999 -24.5c-52 0 -94 8.16699 -126 24.5s-54.833 43.166 -68.5 80.499
s-20.5 86.666 -20.5 147.999c0 62 6.83301 111.5 20.5 148.5s36.5 63.667 68.5 80s74 24.5 126 24.5zM281 458c-42.667 0 -76.667 -6.66699 -102 -20s-43.5 -35.666 -54.5 -66.999s-16.5 -74.666 -16.5 -129.999c0 -54.667 5.5 -98 16.5 -130s29.167 -54.667 54.5 -68
s59.333 -20 102 -20s76.667 6.66699 102 20s43.666 36 54.999 68s17 75.333 17 130c0 55.333 -5.66699 98.666 -17 129.999s-29.666 53.666 -54.999 66.999s-59.333 20 -102 20zM294 701l136 -119l-16 -19l-130 101h-8l-129 -101l-17 19l135 119h29z" />
    <glyph glyph-name="otilde" unicode="&#xf5;" horiz-adv-x="562" 
d="M281 494c53.333 0 95.666 -8.16699 126.999 -24.5s53.833 -43 67.5 -80s20.5 -86.5 20.5 -148.5c0 -61.333 -6.83301 -110.666 -20.5 -147.999s-36.167 -64.166 -67.5 -80.499s-73.666 -24.5 -126.999 -24.5c-52 0 -94 8.16699 -126 24.5s-54.833 43.166 -68.5 80.499
s-20.5 86.666 -20.5 147.999c0 62 6.83301 111.5 20.5 148.5s36.5 63.667 68.5 80s74 24.5 126 24.5zM281 458c-42.667 0 -76.667 -6.66699 -102 -20s-43.5 -35.666 -54.5 -66.999s-16.5 -74.666 -16.5 -129.999c0 -54.667 5.5 -98 16.5 -130s29.167 -54.667 54.5 -68
s59.333 -20 102 -20s76.667 6.66699 102 20s43.666 36 54.999 68s17 75.333 17 130c0 55.333 -5.66699 98.666 -17 129.999s-29.666 53.666 -54.999 66.999s-59.333 20 -102 20zM208 687c14.667 -1.33301 27.6689 -5.1709 39.002 -11.5039s22.166 -13.333 32.499 -21
s21.166 -14.5 32.499 -20.5s24 -10 38 -12c20.667 -1.33301 35.167 2.83398 43.5 12.501s12.5 25.5 12.5 47.5h23c2 -30.667 -4.16699 -54.167 -18.5 -70.5s-33.5 -23.5 -57.5 -21.5c-22 2 -40.5 8 -55.5 18s-29.167 20 -42.5 30s-28.333 15.667 -45 17
c-20 2 -34.167 -2.16699 -42.5 -12.5s-12.5 -27.166 -12.5 -50.499h-23c-1.33301 22 1.16699 40.333 7.5 55s15.5 25.334 27.5 32.001s25.667 9.33398 41 8.00098z" />
    <glyph glyph-name="odieresis" unicode="&#xf6;" horiz-adv-x="562" 
d="M281 494c53.333 0 95.666 -8.16699 126.999 -24.5s53.833 -43 67.5 -80s20.5 -86.5 20.5 -148.5c0 -61.333 -6.83301 -110.666 -20.5 -147.999s-36.167 -64.166 -67.5 -80.499s-73.666 -24.5 -126.999 -24.5c-52 0 -94 8.16699 -126 24.5s-54.833 43.166 -68.5 80.499
s-20.5 86.666 -20.5 147.999c0 62 6.83301 111.5 20.5 148.5s36.5 63.667 68.5 80s74 24.5 126 24.5zM281 458c-42.667 0 -76.667 -6.66699 -102 -20s-43.5 -35.666 -54.5 -66.999s-16.5 -74.666 -16.5 -129.999c0 -54.667 5.5 -98 16.5 -130s29.167 -54.667 54.5 -68
s59.333 -20 102 -20s76.667 6.66699 102 20s43.666 36 54.999 68s17 75.333 17 130c0 55.333 -5.66699 98.666 -17 129.999s-29.666 53.666 -54.999 66.999s-59.333 20 -102 20zM376 677c9.33301 0 14 -4.66699 14 -14v-56c0 -9.33301 -4.66699 -14 -14 -14h-15
c-8.66699 0 -13 4.66699 -13 14v56c0 9.33301 4.33301 14 13 14h15zM199 677c8.66699 0 13 -4.66699 13 -14v-56c0 -9.33301 -4.33301 -14 -13 -14h-15c-8.66699 0 -13 4.66699 -13 14v56c0 9.33301 4.33301 14 13 14h15z" />
    <glyph glyph-name="divide" unicode="&#xf7;" horiz-adv-x="584" 
d="M503 312v-33h-422v33h422zM297 176c6 0 10.333 -1.33301 13 -4s4 -7 4 -13v-59c0 -6 -1.33301 -10.333 -4 -13s-7 -4 -13 -4h-13c-6 0 -10.333 1.33301 -13 4s-4 7 -4 13v59c0 6 1.33301 10.333 4 13s7 4 13 4h13zM297 508c6 0 10.333 -1.33301 13 -4s4 -7 4 -13v-59
c0 -6 -1.33301 -10.333 -4 -13s-7 -4 -13 -4h-13c-6 0 -10.333 1.33301 -13 4s-4 7 -4 13v59c0 6 1.33301 10.333 4 13s7 4 13 4h13z" />
    <glyph glyph-name="oslash" unicode="&#xf8;" horiz-adv-x="562" 
d="M404 544l24 -11l-278 -598l-25 12zM281 494c53.333 0 95.666 -8.16699 126.999 -24.5s53.833 -43 67.5 -80s20.5 -86.5 20.5 -148.5c0 -61.333 -6.83301 -110.666 -20.5 -147.999s-36.167 -64.166 -67.5 -80.499s-73.666 -24.5 -126.999 -24.5
c-52.667 0 -94.834 8.16699 -126.501 24.5s-54.334 43.166 -68.001 80.499s-20.5 86.666 -20.5 147.999c0 62 6.83301 111.5 20.5 148.5s36.334 63.667 68.001 80s73.834 24.5 126.501 24.5zM281 458c-42.667 0 -76.667 -6.66699 -102 -20s-43.5 -35.666 -54.5 -66.999
s-16.5 -74.666 -16.5 -129.999c0 -54.667 5.5 -98 16.5 -130s29.167 -54.667 54.5 -68s59.333 -20 102 -20s76.667 6.66699 102 20s43.666 36 54.999 68s17 75.333 17 130c0 55.333 -5.66699 98.666 -17 129.999s-29.666 53.666 -54.999 66.999s-59.333 20 -102 20z" />
    <glyph glyph-name="ugrave" unicode="&#xf9;" horiz-adv-x="563" 
d="M127 482l0.000976562 -354c-0.666992 -36 7.33301 -62.333 24 -79s42.334 -25 77.001 -25c33.333 0 65.666 8 96.999 24s68.666 39.333 111.999 70l3 -33c-39.333 -32 -77.333 -56.167 -114 -72.5s-73 -24.5 -109 -24.5c-86.667 0 -130 44 -130 132v362h40zM472.001 482
v-482h-31l-4 89l-5 16v377h40zM170.001 718l155 -145l-18 -20l-163 135z" />
    <glyph glyph-name="uacute" unicode="&#xfa;" horiz-adv-x="563" 
d="M127 482l0.000976562 -354c-0.666992 -36 7.33301 -62.333 24 -79s42.334 -25 77.001 -25c33.333 0 65.666 8 96.999 24s68.666 39.333 111.999 70l3 -33c-39.333 -32 -77.333 -56.167 -114 -72.5s-73 -24.5 -109 -24.5c-86.667 0 -130 44 -130 132v362h40zM472.001 482
v-482h-31l-4 89l-5 16v377h40zM382.001 720l26 -30l-163 -135l-18 19z" />
    <glyph glyph-name="ucircumflex" unicode="&#xfb;" horiz-adv-x="563" 
d="M127 482l0.000976562 -354c-0.666992 -36 7.33301 -62.333 24 -79s42.334 -25 77.001 -25c33.333 0 65.666 8 96.999 24s68.666 39.333 111.999 70l3 -33c-39.333 -32 -77.333 -56.167 -114 -72.5s-73 -24.5 -109 -24.5c-86.667 0 -130 44 -130 132v362h40zM472.001 482
v-482h-31l-4 89l-5 16v377h40zM295.001 703l136 -119l-16 -19l-130 101h-8l-129 -101l-17 19l135 119h29z" />
    <glyph glyph-name="udieresis" unicode="&#xfc;" horiz-adv-x="563" 
d="M127 482l0.000976562 -354c-0.666992 -36 7.33301 -62.333 24 -79s42.334 -25 77.001 -25c33.333 0 65.666 8 96.999 24s68.666 39.333 111.999 70l3 -33c-39.333 -32 -77.333 -56.167 -114 -72.5s-73 -24.5 -109 -24.5c-86.667 0 -130 44 -130 132v362h40zM472.001 482
v-482h-31l-4 89l-5 16v377h40zM377.001 679c9.33301 0 14 -4.66699 14 -14v-56c0 -9.33301 -4.66699 -14 -14 -14h-15c-8.66699 0 -13 4.66699 -13 14v56c0 9.33301 4.33301 14 13 14h15zM200.001 679c8.66699 0 13 -4.66699 13 -14v-56c0 -9.33301 -4.33301 -14 -13 -14
h-15c-8.66699 0 -13 4.66699 -13 14v56c0 9.33301 4.33301 14 13 14h15z" />
    <glyph glyph-name="yacute" unicode="&#xfd;" horiz-adv-x="512" 
d="M486 482l-215.003 -524c-8.66699 -20 -17.834 -39 -27.501 -57s-21.167 -34.5 -34.5 -49.5s-28.666 -27.667 -45.999 -38s-38 -17.833 -62 -22.5l-6 25c39.333 14.667 69.333 35 90 61s37.334 55.667 50.001 89l21 50c4.66699 11.333 9.33398 23.5 14.001 36.5
s9.33398 24.833 14.001 35.5l158 394h44zM69.9971 482l157.998 -395c3.33301 -9.33301 7 -18.333 11 -27s7.33301 -17.667 10 -27h20l-14 -33h-19c-3.33301 0 -6.66602 1 -9.99902 3s-5.66602 5 -6.99902 9l-192 470h43zM359.995 720l26 -30l-163 -135l-18 19z" />
    <glyph glyph-name="thorn" unicode="&#xfe;" horiz-adv-x="565" 
d="M323 494c63.333 0 108.166 -19.5 134.499 -58.5s39.5 -104.167 39.5 -195.5c0 -61.333 -6 -110.5 -18 -147.5s-30.667 -63.667 -56 -80s-59 -24.5 -101 -24.5c-33.333 0 -66.666 4.66699 -99.999 14s-67 23 -101 41l4 28c38.667 -16 72.5 -28 101.5 -36
s58.5 -12 88.5 -12c34 0 61.333 7 82 21s35.667 36.833 45 68.5s14 74.167 14 127.5c0 54 -4.66699 96.833 -14 128.5s-24.333 54.5 -45 68.5s-47.667 21 -81 21c-30 0 -59.5 -7 -88.5 -21s-62.833 -35.333 -101.5 -64l-5 32c34 28.667 67.5 50.667 100.5 66
s66.833 23 101.5 23zM130 700v-195v-49c0 -14.667 -1 -30.667 -3 -48l3 -12v-340l-3 -12c2 -18 3 -34.333 3 -49v-48v-155h-39v908h39z" />
    <glyph glyph-name="ydieresis" unicode="&#xff;" horiz-adv-x="512" 
d="M486 482l-215.003 -524c-8.66699 -20 -17.834 -39 -27.501 -57s-21.167 -34.5 -34.5 -49.5s-28.666 -27.667 -45.999 -38s-38 -17.833 -62 -22.5l-6 25c39.333 14.667 69.333 35 90 61s37.334 55.667 50.001 89l21 50c4.66699 11.333 9.33398 23.5 14.001 36.5
s9.33398 24.833 14.001 35.5l158 394h44zM69.9971 482l157.998 -395c3.33301 -9.33301 7 -18.333 11 -27s7.33301 -17.667 10 -27h20l-14 -33h-19c-3.33301 0 -6.66602 1 -9.99902 3s-5.66602 5 -6.99902 9l-192 470h43zM353.995 678c9.33301 0 14 -4.66699 14 -14v-56
c0 -9.33301 -4.66699 -14 -14 -14h-15c-8.66699 0 -13 4.66699 -13 14v56c0 9.33301 4.33301 14 13 14h15zM176.995 678c8.66699 0 13 -4.66699 13 -14v-56c0 -9.33301 -4.33301 -14 -13 -14h-15c-8.66699 0 -13 4.66699 -13 14v56c0 9.33301 4.33301 14 13 14h15z" />
    <glyph glyph-name="Amacron" unicode="&#x100;" horiz-adv-x="608" 
d="M332 690c4.66699 0 8.50098 -1 11.501 -3s5.16699 -5.33301 6.5 -10l241 -677h-43l-210 600l-10 28l-10 28h-28l-10 -28l-10 -28l-210 -600h-43l241 677c1.33301 4.66699 3.66602 8 6.99902 10s7 3 11 3h56zM478.001 279v-36h-350v36h350zM436.001 831v-33h-264v33h264z
" />
    <glyph glyph-name="amacron" unicode="&#x101;" horiz-adv-x="541" 
d="M312 494c30 0 55.667 -4.66797 77 -14.001s37.5 -24.166 48.5 -44.499s16.5 -47.5 16.5 -81.5v-354h-30l-8 106l-2 7v241c0 30.667 -7.33301 55.667 -22 75s-43 29 -85 29c-33.333 0 -69.5 -1.5 -108.5 -4.5s-76.5 -6.5 -112.5 -10.5l-4 30
c21.333 3.33301 43.833 6.5 67.5 9.5s49 5.66699 76 8s55.833 3.5 86.5 3.5zM429 292.999l-0.99707 -32.001l-242 -3c-28 -0.666992 -48.833 -8 -62.5 -22s-20.5 -34.333 -20.5 -61v-54c0 -30 7.83301 -52.5 23.5 -67.5s39.167 -22.833 70.5 -23.5
c24 -0.666992 50 3.5 78 12.5s55.333 21.5 82 37.5s49.334 33.667 68.001 53v-35c-9.33301 -10.667 -22 -21.834 -38 -33.501s-34.333 -23 -55 -34s-42.834 -20 -66.501 -27s-47.834 -10.5 -72.501 -10.5c-26.667 0 -49.834 4.83301 -69.501 14.5
s-34.834 23.834 -45.501 42.501s-16 41.334 -16 68.001v60c0 36.667 10.5 65 31.5 85s50.5 30 88.5 30h247zM401.003 650.998v-33h-264v33h264z" />
    <glyph glyph-name="Abreve" unicode="&#x102;" horiz-adv-x="608" 
d="M332 690c4.66699 0 8.50098 -1 11.501 -3s5.16699 -5.33301 6.5 -10l241 -677h-43l-210 600l-10 28l-10 28h-28l-10 -28l-10 -28l-210 -600h-43l241 677c1.33301 4.66699 3.66602 8 6.99902 10s7 3 11 3h56zM478.001 279v-36h-350v36h350zM418.001 873l24.998 -4
c0.666992 -24 -4.66602 -45 -15.999 -63s-27.333 -31.833 -48 -41.5s-45.667 -14.5 -75 -14.5c-28.667 0 -53.667 4.83301 -75 14.5s-37.666 23.5 -48.999 41.5s-16.666 39 -15.999 63l24 4c0 -28 10.333 -49.833 31 -65.5s49 -23.5 85 -23.5
c35.333 0 63.166 7.83301 83.499 23.5s30.5 37.5 30.5 65.5z" />
    <glyph glyph-name="abreve" unicode="&#x103;" horiz-adv-x="541" 
d="M312 494c30 0 55.667 -4.66797 77 -14.001s37.5 -24.166 48.5 -44.499s16.5 -47.5 16.5 -81.5v-354h-30l-8 106l-2 7v241c0 30.667 -7.33301 55.667 -22 75s-43 29 -85 29c-33.333 0 -69.5 -1.5 -108.5 -4.5s-76.5 -6.5 -112.5 -10.5l-4 30
c21.333 3.33301 43.833 6.5 67.5 9.5s49 5.66699 76 8s55.833 3.5 86.5 3.5zM429 292.999l-0.99707 -32.001l-242 -3c-28 -0.666992 -48.833 -8 -62.5 -22s-20.5 -34.333 -20.5 -61v-54c0 -30 7.83301 -52.5 23.5 -67.5s39.167 -22.833 70.5 -23.5
c24 -0.666992 50 3.5 78 12.5s55.333 21.5 82 37.5s49.334 33.667 68.001 53v-35c-9.33301 -10.667 -22 -21.834 -38 -33.501s-34.333 -23 -55 -34s-42.834 -20 -66.501 -27s-47.834 -10.5 -72.501 -10.5c-26.667 0 -49.834 4.83301 -69.501 14.5
s-34.834 23.834 -45.501 42.501s-16 41.334 -16 68.001v60c0 36.667 10.5 65 31.5 85s50.5 30 88.5 30h247zM382.003 693.998l24.998 -4c0.666992 -24 -4.66602 -45 -15.999 -63s-27.333 -31.833 -48 -41.5s-45.667 -14.5 -75 -14.5c-28.667 0 -53.667 4.83301 -75 14.5
s-37.666 23.5 -48.999 41.5s-16.666 39 -15.999 63l24 4c0 -28 10.333 -49.833 31 -65.5s49 -23.5 85 -23.5c35.333 0 63.166 7.83301 83.499 23.5s30.5 37.5 30.5 65.5z" />
    <glyph glyph-name="Aogonek" unicode="&#x104;" horiz-adv-x="608" 
d="M332 690c4.66699 0 8.50098 -1 11.501 -3s5.16699 -5.33301 6.5 -10l241 -677h-43l-210 600l-10 28l-10 28h-28l-10 -28l-10 -28l-210 -600h-43l241 677c1.33301 4.66699 3.66602 8 6.99902 10s7 3 11 3h56zM478.001 279v-36h-350v36h350zM567.001 2l23.999 -2.00098
c-17.333 -17.333 -33.333 -36 -48 -56s-26.667 -42.333 -36 -67c-10.667 -29.333 -7.5 -48.666 9.5 -57.999s43.5 -7.66602 79.5 5.00098l5 -18c-27.333 -12 -50.333 -18.333 -69 -19s-33.167 3.16602 -43.5 11.499s-16.666 19.5 -18.999 33.5s-0.5 29.333 5.5 46
c6 17.333 16.167 36.333 30.5 57s34.833 43 61.5 67z" />
    <glyph glyph-name="aogonek" unicode="&#x105;" horiz-adv-x="541" 
d="M312 494c30 0 55.667 -4.66797 77 -14.001s37.5 -24.166 48.5 -44.499s16.5 -47.5 16.5 -81.5v-354h-30l-8 106l-2 7v241c0 30.667 -7.33301 55.667 -22 75s-43 29 -85 29c-33.333 0 -69.5 -1.5 -108.5 -4.5s-76.5 -6.5 -112.5 -10.5l-4 30
c21.333 3.33301 43.833 6.5 67.5 9.5s49 5.66699 76 8s55.833 3.5 86.5 3.5zM429 292.999l-0.99707 -32.001l-242 -3c-28 -0.666992 -48.833 -8 -62.5 -22s-20.5 -34.333 -20.5 -61v-54c0 -30 7.83301 -52.5 23.5 -67.5s39.167 -22.833 70.5 -23.5
c24 -0.666992 50 3.5 78 12.5s55.333 21.5 82 37.5s49.334 33.667 68.001 53v-35c-9.33301 -10.667 -22 -21.834 -38 -33.501s-34.333 -23 -55 -34s-42.834 -20 -66.501 -27s-47.834 -10.5 -72.501 -10.5c-26.667 0 -49.834 4.83301 -69.501 14.5
s-34.834 23.834 -45.501 42.501s-16 41.334 -16 68.001v60c0 36.667 10.5 65 31.5 85s50.5 30 88.5 30h247zM430.003 1.99805l23.999 -2.00098c-17.333 -17.333 -33.333 -36 -48 -56s-26.667 -42.333 -36 -67c-10.667 -29.333 -7.5 -48.666 9.5 -57.999
s43.5 -7.66602 79.5 5.00098l5 -18c-27.333 -12 -50.333 -18.333 -69 -19s-33.167 3.16602 -43.5 11.499s-16.666 19.5 -18.999 33.5s-0.5 29.333 5.5 46c6 17.333 16.167 36.333 30.5 57s34.833 43 61.5 67z" />
    <glyph glyph-name="Cacute" unicode="&#x106;" horiz-adv-x="563" 
d="M331 702c28 0 51.832 -0.668945 71.499 -2.00195s37.834 -3.33301 54.501 -6s34 -6 52 -10l-7 -30c-18.667 2.66699 -36.167 4.83398 -52.5 6.50098s-33.833 2.83398 -52.5 3.50098s-40.667 1 -66 1c-53.333 0 -95.666 -10.167 -126.999 -30.5s-54 -53.833 -68 -100.5
s-21 -109.667 -21 -189s7 -142.333 21 -189s36.667 -80.167 68 -100.5s73.666 -30.5 126.999 -30.5c40.667 0 75 1 103 3s55.333 5.33301 82 10l7 -31c-27.333 -6.66699 -55.333 -11.5 -84 -14.5s-64.667 -4.5 -108 -4.5c-63.333 0 -114 11.5 -152 34.5
s-65.333 60.5 -82 112.5s-25 122 -25 210s8.33301 158 25 210s44 89.5 82 112.5s88.667 34.5 152 34.5zM421.999 900.998l26 -30l-163 -135l-18 19z" />
    <glyph glyph-name="cacute" unicode="&#x107;" horiz-adv-x="481" 
d="M287 494c13.333 0 28.001 -0.499023 44.001 -1.49902s32.5 -2.83301 49.5 -5.5s32.833 -6.66699 47.5 -12l-7 -27c-18.667 4 -40.334 6.66699 -65.001 8s-45.334 2 -62.001 2c-45.333 0 -81.666 -6.5 -108.999 -19.5s-47.166 -35.167 -59.499 -66.5s-18.5 -75 -18.5 -131
s6.16699 -99.833 18.5 -131.5s32.166 -53.834 59.499 -66.501s63.666 -19 108.999 -19c9.33301 0 22 0.333008 38 1s33.167 1.83398 51.5 3.50098s34.833 3.83398 49.5 6.50098l6 -28c-22.667 -5.33301 -47.167 -9.83301 -73.5 -13.5s-52.166 -5.5 -77.499 -5.5
c-54 0 -97.333 8.16699 -130 24.5s-56.334 43.166 -71.001 80.499s-22 86.666 -22 147.999c0 62 7.33301 111.5 22 148.5s38.334 63.667 71.001 80s75.667 24.5 129 24.5zM372.001 720.001l26 -30l-163 -135l-18 19z" />
    <glyph glyph-name="Ccircumflex" unicode="&#x108;" horiz-adv-x="563" 
d="M331 702c28 0 51.832 -0.668945 71.499 -2.00195s37.834 -3.33301 54.501 -6s34 -6 52 -10l-7 -30c-18.667 2.66699 -36.167 4.83398 -52.5 6.50098s-33.833 2.83398 -52.5 3.50098s-40.667 1 -66 1c-53.333 0 -95.666 -10.167 -126.999 -30.5s-54 -53.833 -68 -100.5
s-21 -109.667 -21 -189s7 -142.333 21 -189s36.667 -80.167 68 -100.5s73.666 -30.5 126.999 -30.5c40.667 0 75 1 103 3s55.333 5.33301 82 10l7 -31c-27.333 -6.66699 -55.333 -11.5 -84 -14.5s-64.667 -4.5 -108 -4.5c-63.333 0 -114 11.5 -152 34.5
s-65.333 60.5 -82 112.5s-25 122 -25 210s8.33301 158 25 210s44 89.5 82 112.5s88.667 34.5 152 34.5zM334.999 883.998l136 -119l-16 -19l-130 101h-8l-129 -101l-17 19l135 119h29z" />
    <glyph glyph-name="ccircumflex" unicode="&#x109;" horiz-adv-x="481" 
d="M287 494c13.333 0 28.001 -0.499023 44.001 -1.49902s32.5 -2.83301 49.5 -5.5s32.833 -6.66699 47.5 -12l-7 -27c-18.667 4 -40.334 6.66699 -65.001 8s-45.334 2 -62.001 2c-45.333 0 -81.666 -6.5 -108.999 -19.5s-47.166 -35.167 -59.499 -66.5s-18.5 -75 -18.5 -131
s6.16699 -99.833 18.5 -131.5s32.166 -53.834 59.499 -66.501s63.666 -19 108.999 -19c9.33301 0 22 0.333008 38 1s33.167 1.83398 51.5 3.50098s34.833 3.83398 49.5 6.50098l6 -28c-22.667 -5.33301 -47.167 -9.83301 -73.5 -13.5s-52.166 -5.5 -77.499 -5.5
c-54 0 -97.333 8.16699 -130 24.5s-56.334 43.166 -71.001 80.499s-22 86.666 -22 147.999c0 62 7.33301 111.5 22 148.5s38.334 63.667 71.001 80s75.667 24.5 129 24.5zM285.001 702.001l136 -119l-16 -19l-130 101h-8l-129 -101l-17 19l135 119h29z" />
    <glyph glyph-name="Cdotaccent" unicode="&#x10a;" horiz-adv-x="563" 
d="M331 702c28 0 51.832 -0.668945 71.499 -2.00195s37.834 -3.33301 54.501 -6s34 -6 52 -10l-7 -30c-18.667 2.66699 -36.167 4.83398 -52.5 6.50098s-33.833 2.83398 -52.5 3.50098s-40.667 1 -66 1c-53.333 0 -95.666 -10.167 -126.999 -30.5s-54 -53.833 -68 -100.5
s-21 -109.667 -21 -189s7 -142.333 21 -189s36.667 -80.167 68 -100.5s73.666 -30.5 126.999 -30.5c40.667 0 75 1 103 3s55.333 5.33301 82 10l7 -31c-27.333 -6.66699 -55.333 -11.5 -84 -14.5s-64.667 -4.5 -108 -4.5c-63.333 0 -114 11.5 -152 34.5
s-65.333 60.5 -82 112.5s-25 122 -25 210s8.33301 158 25 210s44 89.5 82 112.5s88.667 34.5 152 34.5zM328.999 860.998c10.667 0 16 -5 16 -15v-61c0 -10 -5.33301 -15 -16 -15h-14c-10.667 0 -16 5 -16 15v61c0 10 5.33301 15 16 15h14z" />
    <glyph glyph-name="cdotaccent" unicode="&#x10b;" horiz-adv-x="481" 
d="M287 494c13.333 0 28.001 -0.499023 44.001 -1.49902s32.5 -2.83301 49.5 -5.5s32.833 -6.66699 47.5 -12l-7 -27c-18.667 4 -40.334 6.66699 -65.001 8s-45.334 2 -62.001 2c-45.333 0 -81.666 -6.5 -108.999 -19.5s-47.166 -35.167 -59.499 -66.5s-18.5 -75 -18.5 -131
s6.16699 -99.833 18.5 -131.5s32.166 -53.834 59.499 -66.501s63.666 -19 108.999 -19c9.33301 0 22 0.333008 38 1s33.167 1.83398 51.5 3.50098s34.833 3.83398 49.5 6.50098l6 -28c-22.667 -5.33301 -47.167 -9.83301 -73.5 -13.5s-52.166 -5.5 -77.499 -5.5
c-54 0 -97.333 8.16699 -130 24.5s-56.334 43.166 -71.001 80.499s-22 86.666 -22 147.999c0 62 7.33301 111.5 22 148.5s38.334 63.667 71.001 80s75.667 24.5 129 24.5zM279.001 680.001c10.667 0 16 -5 16 -15v-61c0 -10 -5.33301 -15 -16 -15h-14
c-10.667 0 -16 5 -16 15v61c0 10 5.33301 15 16 15h14z" />
    <glyph glyph-name="Ccaron" unicode="&#x10c;" horiz-adv-x="563" 
d="M331 702c28 0 51.832 -0.668945 71.499 -2.00195s37.834 -3.33301 54.501 -6s34 -6 52 -10l-7 -30c-18.667 2.66699 -36.167 4.83398 -52.5 6.50098s-33.833 2.83398 -52.5 3.50098s-40.667 1 -66 1c-53.333 0 -95.666 -10.167 -126.999 -30.5s-54 -53.833 -68 -100.5
s-21 -109.667 -21 -189s7 -142.333 21 -189s36.667 -80.167 68 -100.5s73.666 -30.5 126.999 -30.5c40.667 0 75 1 103 3s55.333 5.33301 82 10l7 -31c-27.333 -6.66699 -55.333 -11.5 -84 -14.5s-64.667 -4.5 -108 -4.5c-63.333 0 -114 11.5 -152 34.5
s-65.333 60.5 -82 112.5s-25 122 -25 210s8.33301 158 25 210s44 89.5 82 112.5s88.667 34.5 152 34.5zM456.999 887.998l16 -18l-138 -120h-24l-139 120l18 18l129 -98h8z" />
    <glyph glyph-name="ccaron" unicode="&#x10d;" horiz-adv-x="481" 
d="M287 494c13.333 0 28.001 -0.499023 44.001 -1.49902s32.5 -2.83301 49.5 -5.5s32.833 -6.66699 47.5 -12l-7 -27c-18.667 4 -40.334 6.66699 -65.001 8s-45.334 2 -62.001 2c-45.333 0 -81.666 -6.5 -108.999 -19.5s-47.166 -35.167 -59.499 -66.5s-18.5 -75 -18.5 -131
s6.16699 -99.833 18.5 -131.5s32.166 -53.834 59.499 -66.501s63.666 -19 108.999 -19c9.33301 0 22 0.333008 38 1s33.167 1.83398 51.5 3.50098s34.833 3.83398 49.5 6.50098l6 -28c-22.667 -5.33301 -47.167 -9.83301 -73.5 -13.5s-52.166 -5.5 -77.499 -5.5
c-54 0 -97.333 8.16699 -130 24.5s-56.334 43.166 -71.001 80.499s-22 86.666 -22 147.999c0 62 7.33301 111.5 22 148.5s38.334 63.667 71.001 80s75.667 24.5 129 24.5zM407.001 706.001l16 -18l-138 -120h-24l-139 120l18 18l129 -98h8z" />
    <glyph glyph-name="Dcaron" unicode="&#x10e;" horiz-adv-x="660" 
d="M332 699c47.333 0 87.166 -6.16895 119.499 -18.502s58.5 -32.333 78.5 -60s34.667 -64 44 -109s14 -100.5 14 -166.5c0 -65.333 -4.66699 -120.666 -14 -165.999s-24 -81.833 -44 -109.5s-46.167 -47.667 -78.5 -60s-72.166 -18.5 -119.499 -18.5
c-44.667 0 -86.167 0.833008 -124.5 2.5s-74.5 3.83398 -108.5 6.50098l19 31c31.333 -0.666992 64.333 -1.33398 99 -2.00098s73 -1 115 -1c52.667 0 94.5 10 125.5 30s53.333 53.167 67 99.5s20.5 108.833 20.5 187.5s-6.83301 141.167 -20.5 187.5s-36 79.5 -67 99.5
s-72.833 30 -125.5 30c-42 0 -80.333 -0.333008 -115 -1l-101 -2l-17 31c34 2.66699 70.333 4.83398 109 6.50098s80 2.5 124 2.5zM140 689.998v-690h-41v690h41zM458 887.998l16 -18l-138 -120h-24l-139 120l18 18l129 -98h8z" />
    <glyph glyph-name="dcaron" unicode="&#x10f;" horiz-adv-x="564" 
d="M244 494c32.667 0 65.166 -4.50195 97.499 -13.502s65.5 -21.167 99.5 -36.5l-2 -31c-38 14.667 -71.5 25.834 -100.5 33.501s-58.833 11.5 -89.5 11.5c-33.333 0 -60.333 -6.66699 -81 -20s-35.834 -36 -45.501 -68s-14.5 -74.667 -14.5 -128
c0 -54 4.66699 -96.833 14 -128.5s24.333 -54.5 45 -68.5s47.667 -21 81 -21c20.667 0 40.5 3.33301 59.5 10s39.167 16.834 60.5 30.501s45 31.167 71 52.5l1 -35c-33.333 -29.333 -66.166 -52.333 -98.499 -69s-66.166 -25 -101.499 -25c-62 0 -106.333 20 -133 60
s-40 104.333 -40 193c0 61.333 6 110.5 18 147.5s31 63.833 57 80.5s60 25 102 25zM472.999 699.998v-700h-30l-6 84l-4 5v337l4 16c-2 17.333 -3.16699 33.333 -3.5 48s-0.5 31 -0.5 49v161h40zM552.999 701.998c5.33301 0 9.16699 -1.33301 11.5 -4
s3.83301 -6.33398 4.5 -11.001l-1 -55c-0.666992 -17.333 -2.66699 -36.333 -6 -57s-7.66602 -39.667 -12.999 -57l-17 5l3.5 45.5c1 13 1.5 30.5 1.5 52.5c-7.33301 0 -10.666 4 -9.99902 12l1 54c-0.666992 4.66699 0.166016 8.33398 2.49902 11.001s6.16602 4 11.499 4
h11z" />
    <glyph glyph-name="Dcroat" unicode="&#x110;" 
d="M318 384v-28h-293v28h293zM336 699c46.667 0 86.3311 -6.16895 118.998 -18.502s59 -32.333 79 -60s34.5 -64 43.5 -109s13.5 -100.5 13.5 -166.5c0 -65.333 -4.5 -120.666 -13.5 -165.999s-23.5 -81.833 -43.5 -109.5s-46.333 -47.667 -79 -60
s-72.334 -18.5 -119.001 -18.5c-45.333 0 -87.166 0.833008 -125.499 2.5s-74.5 3.83398 -108.5 6.50098l20 31c30.667 -0.666992 63.334 -1.33398 98.001 -2.00098s73.334 -1 116.001 -1c52 0 93.667 10 125 30s53.666 53.167 66.999 99.5s20 108.833 20 187.5
s-6.66699 141.167 -20 187.5s-35.666 79.5 -66.999 99.5s-73 30 -125 30c-42.667 0 -81.334 -0.333008 -116.001 -1l-101 -2l-17 31c34 2.66699 70.333 4.83398 109 6.50098s80.334 2.5 125.001 2.5zM142.997 689.998v-690h-41v690h41z" />
    <glyph glyph-name="dcroat" unicode="&#x111;" horiz-adv-x="557" 
d="M546 613v-27h-283v27h283zM244 494c32.667 0 65.166 -4.50195 97.499 -13.502s65.5 -21.167 99.5 -36.5l-2 -31c-38 14.667 -71.5 25.834 -100.5 33.501s-58.833 11.5 -89.5 11.5c-33.333 0 -60.333 -6.66699 -81 -20s-35.834 -36 -45.501 -68s-14.5 -74.667 -14.5 -128
c0 -54 4.66699 -96.833 14 -128.5s24.333 -54.5 45 -68.5s47.667 -21 81 -21c20.667 0 40.5 3.33301 59.5 10s39.167 16.834 60.5 30.501s45 31.167 71 52.5l1 -35c-33.333 -29.333 -66.166 -52.333 -98.499 -69s-66.166 -25 -101.499 -25c-62 0 -106.333 20 -133 60
s-40 104.333 -40 193c0 61.333 6 110.5 18 147.5s31 63.833 57 80.5s60 25 102 25zM472.999 699.998v-700h-30l-6 84l-4 5v337l4 16c-2 17.333 -3.16699 33.333 -3.5 48s-0.5 31 -0.5 49v161h40z" />
    <glyph glyph-name="Emacron" unicode="&#x112;" horiz-adv-x="553" 
d="M203 690l98.5 -0.00195312c33 0 65.833 -0.333008 98.5 -1s65 -1.66699 97 -3l-2 -31h-285c-22.667 0 -41 -7.16699 -55 -21.5s-21 -33.166 -21 -56.499v-464c0 -23.333 7 -42.166 21 -56.499s32.333 -21.5 55 -21.5h285l2 -31c-32 -1.33301 -64.333 -2.33301 -97 -3
s-65.5 -1 -98.5 -1h-98.5c-32.667 0 -59.167 10 -79.5 30s-30.5 45.333 -30.5 76v478c0 31.333 10.167 56.833 30.5 76.5s46.833 29.5 79.5 29.5zM110 385.998l344 -1v-33l-344 -1v35zM442 853.998v-33h-264v33h264z" />
    <glyph glyph-name="emacron" unicode="&#x113;" horiz-adv-x="530" 
d="M276 494c65.333 0 113.833 -11.834 145.5 -35.501s47.834 -59.167 48.501 -106.5c1.33301 -42.667 -6.16699 -75.167 -22.5 -97.5s-44.166 -33.5 -83.499 -33.5h-280v33h274c27.333 0 46.333 8.66699 57 26s15.334 40.666 14.001 69.999
c-0.666992 38 -13.334 65.5 -38.001 82.5s-62.334 25.5 -113.001 25.5c-42.667 0 -76.5 -6.66699 -101.5 -20s-42.833 -35.666 -53.5 -66.999s-16 -73.333 -16 -126c0 -56 6.16699 -100.167 18.5 -132.5s32 -55.166 59 -68.499s61.833 -20 104.5 -20
c31.333 0 61.5 1.33301 90.5 4s53.833 5.33398 74.5 8.00098l5 -28c-12 -4 -28.333 -7.5 -49 -10.5s-42.334 -5.33301 -65.001 -7s-43 -2.5 -61 -2.5c-52 0 -94 8.5 -126 25.5s-55.5 44.167 -70.5 81.5s-22.5 86.666 -22.5 147.999c0 62 7.16699 111.333 21.5 148
s37 63 68 79s71.5 24 121.5 24zM410 650.999v-33h-264v33h264z" />
    <glyph glyph-name="Ebreve" unicode="&#x114;" horiz-adv-x="553" 
d="M203 690l98.5 -0.00195312c33 0 65.833 -0.333008 98.5 -1s65 -1.66699 97 -3l-2 -31h-285c-22.667 0 -41 -7.16699 -55 -21.5s-21 -33.166 -21 -56.499v-464c0 -23.333 7 -42.166 21 -56.499s32.333 -21.5 55 -21.5h285l2 -31c-32 -1.33301 -64.333 -2.33301 -97 -3
s-65.5 -1 -98.5 -1h-98.5c-32.667 0 -59.167 10 -79.5 30s-30.5 45.333 -30.5 76v478c0 31.333 10.167 56.833 30.5 76.5s46.833 29.5 79.5 29.5zM110 385.998l344 -1v-33l-344 -1v35zM424 896.998l24.998 -4c0.666992 -24 -4.66602 -45 -15.999 -63
s-27.333 -31.833 -48 -41.5s-45.667 -14.5 -75 -14.5c-28.667 0 -53.667 4.83301 -75 14.5s-37.666 23.5 -48.999 41.5s-16.666 39 -15.999 63l24 4c0 -28 10.333 -49.833 31 -65.5s49 -23.5 85 -23.5c35.333 0 63.166 7.83301 83.499 23.5s30.5 37.5 30.5 65.5z" />
    <glyph glyph-name="ebreve" unicode="&#x115;" horiz-adv-x="530" 
d="M276 494c65.333 0 113.833 -11.834 145.5 -35.501s47.834 -59.167 48.501 -106.5c1.33301 -42.667 -6.16699 -75.167 -22.5 -97.5s-44.166 -33.5 -83.499 -33.5h-280v33h274c27.333 0 46.333 8.66699 57 26s15.334 40.666 14.001 69.999
c-0.666992 38 -13.334 65.5 -38.001 82.5s-62.334 25.5 -113.001 25.5c-42.667 0 -76.5 -6.66699 -101.5 -20s-42.833 -35.666 -53.5 -66.999s-16 -73.333 -16 -126c0 -56 6.16699 -100.167 18.5 -132.5s32 -55.166 59 -68.499s61.833 -20 104.5 -20
c31.333 0 61.5 1.33301 90.5 4s53.833 5.33398 74.5 8.00098l5 -28c-12 -4 -28.333 -7.5 -49 -10.5s-42.334 -5.33301 -65.001 -7s-43 -2.5 -61 -2.5c-52 0 -94 8.5 -126 25.5s-55.5 44.167 -70.5 81.5s-22.5 86.666 -22.5 147.999c0 62 7.16699 111.333 21.5 148
s37 63 68 79s71.5 24 121.5 24zM392 693.999l24.998 -4c0.666992 -24 -4.66602 -45 -15.999 -63s-27.333 -31.833 -48 -41.5s-45.667 -14.5 -75 -14.5c-28.667 0 -53.667 4.83301 -75 14.5s-37.666 23.5 -48.999 41.5s-16.666 39 -15.999 63l24 4
c0 -28 10.333 -49.833 31 -65.5s49 -23.5 85 -23.5c35.333 0 63.166 7.83301 83.499 23.5s30.5 37.5 30.5 65.5z" />
    <glyph glyph-name="Edotaccent" unicode="&#x116;" horiz-adv-x="553" 
d="M203 690l98.5 -0.00195312c33 0 65.833 -0.333008 98.5 -1s65 -1.66699 97 -3l-2 -31h-285c-22.667 0 -41 -7.16699 -55 -21.5s-21 -33.166 -21 -56.499v-464c0 -23.333 7 -42.166 21 -56.499s32.333 -21.5 55 -21.5h285l2 -31c-32 -1.33301 -64.333 -2.33301 -97 -3
s-65.5 -1 -98.5 -1h-98.5c-32.667 0 -59.167 10 -79.5 30s-30.5 45.333 -30.5 76v478c0 31.333 10.167 56.833 30.5 76.5s46.833 29.5 79.5 29.5zM110 385.998l344 -1v-33l-344 -1v35zM317 882.998c10.667 0 16 -5 16 -15v-61c0 -10 -5.33301 -15 -16 -15h-14
c-10.667 0 -16 5 -16 15v61c0 10 5.33301 15 16 15h14z" />
    <glyph glyph-name="edotaccent" unicode="&#x117;" horiz-adv-x="530" 
d="M276 494c65.333 0 113.833 -11.834 145.5 -35.501s47.834 -59.167 48.501 -106.5c1.33301 -42.667 -6.16699 -75.167 -22.5 -97.5s-44.166 -33.5 -83.499 -33.5h-280v33h274c27.333 0 46.333 8.66699 57 26s15.334 40.666 14.001 69.999
c-0.666992 38 -13.334 65.5 -38.001 82.5s-62.334 25.5 -113.001 25.5c-42.667 0 -76.5 -6.66699 -101.5 -20s-42.833 -35.666 -53.5 -66.999s-16 -73.333 -16 -126c0 -56 6.16699 -100.167 18.5 -132.5s32 -55.166 59 -68.499s61.833 -20 104.5 -20
c31.333 0 61.5 1.33301 90.5 4s53.833 5.33398 74.5 8.00098l5 -28c-12 -4 -28.333 -7.5 -49 -10.5s-42.334 -5.33301 -65.001 -7s-43 -2.5 -61 -2.5c-52 0 -94 8.5 -126 25.5s-55.5 44.167 -70.5 81.5s-22.5 86.666 -22.5 147.999c0 62 7.16699 111.333 21.5 148
s37 63 68 79s71.5 24 121.5 24zM285 679.999c10.667 0 16 -5 16 -15v-61c0 -10 -5.33301 -15 -16 -15h-14c-10.667 0 -16 5 -16 15v61c0 10 5.33301 15 16 15h14z" />
    <glyph glyph-name="Eogonek" unicode="&#x118;" horiz-adv-x="553" 
d="M203 690l98.5 -0.00195312c33 0 65.833 -0.333008 98.5 -1s65 -1.66699 97 -3l-2 -31h-285c-22.667 0 -41 -7.16699 -55 -21.5s-21 -33.166 -21 -56.499v-464c0 -23.333 7 -42.166 21 -56.499s32.333 -21.5 55 -21.5h285l2 -31c-32 -1.33301 -64.333 -2.33301 -97 -3
s-65.5 -1 -98.5 -1h-98.5c-32.667 0 -59.167 10 -79.5 30s-30.5 45.333 -30.5 76v478c0 31.333 10.167 56.833 30.5 76.5s46.833 29.5 79.5 29.5zM110 385.998l344 -1v-33l-344 -1v35zM474 5.99805l23.999 -2.00098c-17.333 -17.333 -33.333 -36 -48 -56
s-26.667 -42.333 -36 -67c-10.667 -29.333 -7.5 -48.666 9.5 -57.999s43.5 -7.66602 79.5 5.00098l5 -18c-27.333 -12 -50.333 -18.333 -69 -19s-33.167 3.16602 -43.5 11.499s-16.666 19.5 -18.999 33.5s-0.5 29.333 5.5 46c6 17.333 16.167 36.333 30.5 57
s34.833 43 61.5 67z" />
    <glyph glyph-name="eogonek" unicode="&#x119;" horiz-adv-x="530" 
d="M276 494c65.333 0 113.833 -11.834 145.5 -35.501s47.834 -59.167 48.501 -106.5c1.33301 -42.667 -6.16699 -75.167 -22.5 -97.5s-44.166 -33.5 -83.499 -33.5h-280v33h274c27.333 0 46.333 8.66699 57 26s15.334 40.666 14.001 69.999
c-0.666992 38 -13.334 65.5 -38.001 82.5s-62.334 25.5 -113.001 25.5c-42.667 0 -76.5 -6.66699 -101.5 -20s-42.833 -35.666 -53.5 -66.999s-16 -73.333 -16 -126c0 -56 6.16699 -100.167 18.5 -132.5s32 -55.166 59 -68.499s61.833 -20 104.5 -20
c31.333 0 61.5 1.33301 90.5 4s53.833 5.33398 74.5 8.00098l5 -28c-12 -4 -28.333 -7.5 -49 -10.5s-42.334 -5.33301 -65.001 -7s-43 -2.5 -61 -2.5c-52 0 -94 8.5 -126 25.5s-55.5 44.167 -70.5 81.5s-22.5 86.666 -22.5 147.999c0 62 7.16699 111.333 21.5 148
s37 63 68 79s71.5 24 121.5 24zM435 10.999l23.999 -2.00098c-17.333 -17.333 -33.333 -36 -48 -56s-26.667 -42.333 -36 -67c-10.667 -29.333 -7.5 -48.666 9.5 -57.999s43.5 -7.66602 79.5 5.00098l5 -18c-27.333 -12 -50.333 -18.333 -69 -19
s-33.167 3.16602 -43.5 11.499s-16.666 19.5 -18.999 33.5s-0.5 29.333 5.5 46c6 17.333 16.167 36.333 30.5 57s34.833 43 61.5 67z" />
    <glyph glyph-name="Ecaron" unicode="&#x11a;" horiz-adv-x="553" 
d="M203 690l98.5 -0.00195312c33 0 65.833 -0.333008 98.5 -1s65 -1.66699 97 -3l-2 -31h-285c-22.667 0 -41 -7.16699 -55 -21.5s-21 -33.166 -21 -56.499v-464c0 -23.333 7 -42.166 21 -56.499s32.333 -21.5 55 -21.5h285l2 -31c-32 -1.33301 -64.333 -2.33301 -97 -3
s-65.5 -1 -98.5 -1h-98.5c-32.667 0 -59.167 10 -79.5 30s-30.5 45.333 -30.5 76v478c0 31.333 10.167 56.833 30.5 76.5s46.833 29.5 79.5 29.5zM110 385.998l344 -1v-33l-344 -1v35zM445 909.998l16 -18l-138 -120h-24l-139 120l18 18l129 -98h8z" />
    <glyph glyph-name="ecaron" unicode="&#x11b;" horiz-adv-x="530" 
d="M276 494c65.333 0 113.833 -11.834 145.5 -35.501s47.834 -59.167 48.501 -106.5c1.33301 -42.667 -6.16699 -75.167 -22.5 -97.5s-44.166 -33.5 -83.499 -33.5h-280v33h274c27.333 0 46.333 8.66699 57 26s15.334 40.666 14.001 69.999
c-0.666992 38 -13.334 65.5 -38.001 82.5s-62.334 25.5 -113.001 25.5c-42.667 0 -76.5 -6.66699 -101.5 -20s-42.833 -35.666 -53.5 -66.999s-16 -73.333 -16 -126c0 -56 6.16699 -100.167 18.5 -132.5s32 -55.166 59 -68.499s61.833 -20 104.5 -20
c31.333 0 61.5 1.33301 90.5 4s53.833 5.33398 74.5 8.00098l5 -28c-12 -4 -28.333 -7.5 -49 -10.5s-42.334 -5.33301 -65.001 -7s-43 -2.5 -61 -2.5c-52 0 -94 8.5 -126 25.5s-55.5 44.167 -70.5 81.5s-22.5 86.666 -22.5 147.999c0 62 7.16699 111.333 21.5 148
s37 63 68 79s71.5 24 121.5 24zM413 705.999l16 -18l-138 -120h-24l-139 120l18 18l129 -98h8z" />
    <glyph glyph-name="Gcircumflex" unicode="&#x11c;" horiz-adv-x="624" 
d="M338 702c28.667 0 53.999 -0.672852 75.999 -2.00586s42.5 -3.16602 61.5 -5.49902s38.167 -5.83301 57.5 -10.5l-7 -30c-20.667 2.66699 -40.5 4.83398 -59.5 6.50098s-38.667 2.83398 -59 3.50098s-43.166 1 -68.499 1c-41.333 0 -76.333 -5.33301 -105 -16
s-51.667 -28.167 -69 -52.5s-29.833 -57.166 -37.5 -98.499s-11.5 -92.666 -11.5 -153.999c0 -75.333 6.16699 -136.5 18.5 -183.5s32.333 -81.333 60 -103s64.5 -32.5 110.5 -32.5c31.333 0 59 4.83301 83 14.5s46 21.834 66 36.501s38.667 29.667 56 45l7 -28
c-16 -18.667 -35.167 -36 -57.5 -52s-46.833 -28.833 -73.5 -38.5s-56 -14.5 -88 -14.5c-54 0 -97.5 12.5 -130.5 37.5s-57.167 63.833 -72.5 116.5s-23 120.667 -23 204c0 88.667 8.5 159 25.5 211s45 89.167 84 111.5s91.167 33.5 156.5 33.5zM545.999 399.994v-400h-29
l-9 100l-3 14v286h41zM337.999 885.994l136 -119l-16 -19l-130 101h-8l-129 -101l-17 19l135 119h29z" />
    <glyph glyph-name="gcircumflex" unicode="&#x11d;" horiz-adv-x="548" 
d="M270 494c47.333 0 85.167 -5.66699 113.5 -17s48.833 -28 61.5 -50s19 -50 19 -84c0 -33.333 -6.33301 -61.166 -19 -83.499s-33.167 -38.833 -61.5 -49.5s-66.5 -16 -114.5 -16c-46.667 0 -84.5 5.33301 -113.5 16s-50 27.167 -63 49.5s-19.5 50.166 -19.5 83.499
c0 34 6.5 62 19.5 84s33.833 38.667 62.5 50s67 17 115 17zM269.001 461c-58 0 -98.833 -9.66699 -122.5 -29s-35.5 -49 -35.5 -89s12 -69.333 36 -88s64.667 -28 122 -28c58.667 0 99.5 9.33301 122.5 28s34.5 48 34.5 88s-11.5 69.667 -34.5 89s-63.833 29 -122.5 29z
M521.001 482l-3 -26l-120 -5l-35 31h158zM135.001 228l27.9961 -4.00586c-16.667 -15.333 -27.834 -32.166 -33.501 -50.499s-3.83398 -34.833 5.49902 -49.5s28.333 -24.667 57 -30l190 -32c43.333 -7.33301 72.333 -21.166 87 -41.499s22 -49.833 22 -88.5
c0 -35.333 -7 -63.166 -21 -83.499s-37 -35 -69 -44s-74 -13.5 -126 -13.5c-41.333 0 -76.166 2.5 -104.499 7.5s-51.166 12.833 -68.499 23.5s-29.833 25 -37.5 43s-11.5 40 -11.5 66c0 22.667 2 41.834 6 57.501s11.333 29.667 22 42s25.334 23.5 44.001 33.5l47 26l28 -9
l-50 -32c-15.333 -10 -27.166 -20.167 -35.499 -30.5s-14.166 -22.166 -17.499 -35.499s-5 -30 -5 -50c0 -26.667 5.83301 -47.834 17.5 -63.501s30.834 -26.834 57.501 -33.501s62.334 -10 107.001 -10c44 0 79 3.33301 105 10s44.667 17.834 56 33.501
s17 36.834 17 63.501c0 20 -2.16699 36.333 -6.5 49s-12.833 22.834 -25.5 30.501s-31 13.5 -55 17.5l-192 32c-20.667 3.33301 -37.334 9.83301 -50.001 19.5s-21.667 21 -27 34s-7 26.333 -5 40s6.66699 27 14 40s17.333 23.833 30 32.5zM283.997 701.994l136 -119
l-16 -19l-130 101h-8l-129 -101l-17 19l135 119h29z" />
    <glyph glyph-name="Gbreve" unicode="&#x11e;" horiz-adv-x="624" 
d="M338 702c28.667 0 53.999 -0.672852 75.999 -2.00586s42.5 -3.16602 61.5 -5.49902s38.167 -5.83301 57.5 -10.5l-7 -30c-20.667 2.66699 -40.5 4.83398 -59.5 6.50098s-38.667 2.83398 -59 3.50098s-43.166 1 -68.499 1c-41.333 0 -76.333 -5.33301 -105 -16
s-51.667 -28.167 -69 -52.5s-29.833 -57.166 -37.5 -98.499s-11.5 -92.666 -11.5 -153.999c0 -75.333 6.16699 -136.5 18.5 -183.5s32.333 -81.333 60 -103s64.5 -32.5 110.5 -32.5c31.333 0 59 4.83301 83 14.5s46 21.834 66 36.501s38.667 29.667 56 45l7 -28
c-16 -18.667 -35.167 -36 -57.5 -52s-46.833 -28.833 -73.5 -38.5s-56 -14.5 -88 -14.5c-54 0 -97.5 12.5 -130.5 37.5s-57.167 63.833 -72.5 116.5s-23 120.667 -23 204c0 88.667 8.5 159 25.5 211s45 89.167 84 111.5s91.167 33.5 156.5 33.5zM545.999 399.994v-400h-29
l-9 100l-3 14v286h41zM438.999 876.994l24.998 -4c0.666992 -24 -4.66602 -45 -15.999 -63s-27.333 -31.833 -48 -41.5s-45.667 -14.5 -75 -14.5c-28.667 0 -53.667 4.83301 -75 14.5s-37.666 23.5 -48.999 41.5s-16.666 39 -15.999 63l24 4c0 -28 10.333 -49.833 31 -65.5
s49 -23.5 85 -23.5c35.333 0 63.166 7.83301 83.499 23.5s30.5 37.5 30.5 65.5z" />
    <glyph glyph-name="gbreve" unicode="&#x11f;" horiz-adv-x="548" 
d="M270 494c47.333 0 85.167 -5.66699 113.5 -17s48.833 -28 61.5 -50s19 -50 19 -84c0 -33.333 -6.33301 -61.166 -19 -83.499s-33.167 -38.833 -61.5 -49.5s-66.5 -16 -114.5 -16c-46.667 0 -84.5 5.33301 -113.5 16s-50 27.167 -63 49.5s-19.5 50.166 -19.5 83.499
c0 34 6.5 62 19.5 84s33.833 38.667 62.5 50s67 17 115 17zM269.001 461c-58 0 -98.833 -9.66699 -122.5 -29s-35.5 -49 -35.5 -89s12 -69.333 36 -88s64.667 -28 122 -28c58.667 0 99.5 9.33301 122.5 28s34.5 48 34.5 88s-11.5 69.667 -34.5 89s-63.833 29 -122.5 29z
M521.001 482l-3 -26l-120 -5l-35 31h158zM135.001 228l27.9961 -4.00586c-16.667 -15.333 -27.834 -32.166 -33.501 -50.499s-3.83398 -34.833 5.49902 -49.5s28.333 -24.667 57 -30l190 -32c43.333 -7.33301 72.333 -21.166 87 -41.499s22 -49.833 22 -88.5
c0 -35.333 -7 -63.166 -21 -83.499s-37 -35 -69 -44s-74 -13.5 -126 -13.5c-41.333 0 -76.166 2.5 -104.499 7.5s-51.166 12.833 -68.499 23.5s-29.833 25 -37.5 43s-11.5 40 -11.5 66c0 22.667 2 41.834 6 57.501s11.333 29.667 22 42s25.334 23.5 44.001 33.5l47 26l28 -9
l-50 -32c-15.333 -10 -27.166 -20.167 -35.499 -30.5s-14.166 -22.166 -17.499 -35.499s-5 -30 -5 -50c0 -26.667 5.83301 -47.834 17.5 -63.501s30.834 -26.834 57.501 -33.501s62.334 -10 107.001 -10c44 0 79 3.33301 105 10s44.667 17.834 56 33.501
s17 36.834 17 63.501c0 20 -2.16699 36.333 -6.5 49s-12.833 22.834 -25.5 30.501s-31 13.5 -55 17.5l-192 32c-20.667 3.33301 -37.334 9.83301 -50.001 19.5s-21.667 21 -27 34s-7 26.333 -5 40s6.66699 27 14 40s17.333 23.833 30 32.5zM383.997 693.994l24.998 -4
c0.666992 -24 -4.66602 -45 -15.999 -63s-27.333 -31.833 -48 -41.5s-45.667 -14.5 -75 -14.5c-28.667 0 -53.667 4.83301 -75 14.5s-37.666 23.5 -48.999 41.5s-16.666 39 -15.999 63l24 4c0 -28 10.333 -49.833 31 -65.5s49 -23.5 85 -23.5
c35.333 0 63.166 7.83301 83.499 23.5s30.5 37.5 30.5 65.5z" />
    <glyph glyph-name="Gdotaccent" unicode="&#x120;" horiz-adv-x="624" 
d="M338 702c28.667 0 53.999 -0.672852 75.999 -2.00586s42.5 -3.16602 61.5 -5.49902s38.167 -5.83301 57.5 -10.5l-7 -30c-20.667 2.66699 -40.5 4.83398 -59.5 6.50098s-38.667 2.83398 -59 3.50098s-43.166 1 -68.499 1c-41.333 0 -76.333 -5.33301 -105 -16
s-51.667 -28.167 -69 -52.5s-29.833 -57.166 -37.5 -98.499s-11.5 -92.666 -11.5 -153.999c0 -75.333 6.16699 -136.5 18.5 -183.5s32.333 -81.333 60 -103s64.5 -32.5 110.5 -32.5c31.333 0 59 4.83301 83 14.5s46 21.834 66 36.501s38.667 29.667 56 45l7 -28
c-16 -18.667 -35.167 -36 -57.5 -52s-46.833 -28.833 -73.5 -38.5s-56 -14.5 -88 -14.5c-54 0 -97.5 12.5 -130.5 37.5s-57.167 63.833 -72.5 116.5s-23 120.667 -23 204c0 88.667 8.5 159 25.5 211s45 89.167 84 111.5s91.167 33.5 156.5 33.5zM545.999 399.994v-400h-29
l-9 100l-3 14v286h41zM331.999 862.994c10.667 0 16 -5 16 -15v-61c0 -10 -5.33301 -15 -16 -15h-14c-10.667 0 -16 5 -16 15v61c0 10 5.33301 15 16 15h14z" />
    <glyph glyph-name="gdotaccent" unicode="&#x121;" horiz-adv-x="548" 
d="M270 494c47.333 0 85.167 -5.66699 113.5 -17s48.833 -28 61.5 -50s19 -50 19 -84c0 -33.333 -6.33301 -61.166 -19 -83.499s-33.167 -38.833 -61.5 -49.5s-66.5 -16 -114.5 -16c-46.667 0 -84.5 5.33301 -113.5 16s-50 27.167 -63 49.5s-19.5 50.166 -19.5 83.499
c0 34 6.5 62 19.5 84s33.833 38.667 62.5 50s67 17 115 17zM269.001 461c-58 0 -98.833 -9.66699 -122.5 -29s-35.5 -49 -35.5 -89s12 -69.333 36 -88s64.667 -28 122 -28c58.667 0 99.5 9.33301 122.5 28s34.5 48 34.5 88s-11.5 69.667 -34.5 89s-63.833 29 -122.5 29z
M521.001 482l-3 -26l-120 -5l-35 31h158zM135.001 228l27.9961 -4.00586c-16.667 -15.333 -27.834 -32.166 -33.501 -50.499s-3.83398 -34.833 5.49902 -49.5s28.333 -24.667 57 -30l190 -32c43.333 -7.33301 72.333 -21.166 87 -41.499s22 -49.833 22 -88.5
c0 -35.333 -7 -63.166 -21 -83.499s-37 -35 -69 -44s-74 -13.5 -126 -13.5c-41.333 0 -76.166 2.5 -104.499 7.5s-51.166 12.833 -68.499 23.5s-29.833 25 -37.5 43s-11.5 40 -11.5 66c0 22.667 2 41.834 6 57.501s11.333 29.667 22 42s25.334 23.5 44.001 33.5l47 26l28 -9
l-50 -32c-15.333 -10 -27.166 -20.167 -35.499 -30.5s-14.166 -22.166 -17.499 -35.499s-5 -30 -5 -50c0 -26.667 5.83301 -47.834 17.5 -63.501s30.834 -26.834 57.501 -33.501s62.334 -10 107.001 -10c44 0 79 3.33301 105 10s44.667 17.834 56 33.501
s17 36.834 17 63.501c0 20 -2.16699 36.333 -6.5 49s-12.833 22.834 -25.5 30.501s-31 13.5 -55 17.5l-192 32c-20.667 3.33301 -37.334 9.83301 -50.001 19.5s-21.667 21 -27 34s-7 26.333 -5 40s6.66699 27 14 40s17.333 23.833 30 32.5zM277.997 679.994
c10.667 0 16 -5 16 -15v-61c0 -10 -5.33301 -15 -16 -15h-14c-10.667 0 -16 5 -16 15v61c0 10 5.33301 15 16 15h14z" />
    <glyph glyph-name="uni0122" unicode="&#x122;" horiz-adv-x="624" 
d="M329 -63c5.33301 0 9.16602 -1.16797 11.499 -3.50098s3.83301 -6.5 4.5 -12.5l-1 -57c0 -12 -0.833008 -24.833 -2.5 -38.5s-4 -27.667 -7 -42s-6.5 -27.166 -10.5 -38.499l-18 5c2 18 3.33301 33.833 4 47.5s1 32.167 1 55.5c-7.33301 0 -10.666 4 -9.99902 12l1 56
c-0.666992 6 0.333008 10.167 3 12.5s6.66699 3.5 12 3.5h12zM338 701.999c28.667 0 53.999 -0.672852 75.999 -2.00586s42.5 -3.16602 61.5 -5.49902s38.167 -5.83301 57.5 -10.5l-7 -30c-20.667 2.66699 -40.5 4.83398 -59.5 6.50098s-38.667 2.83398 -59 3.50098
s-43.166 1 -68.499 1c-41.333 0 -76.333 -5.33301 -105 -16s-51.667 -28.167 -69 -52.5s-29.833 -57.166 -37.5 -98.499s-11.5 -92.666 -11.5 -153.999c0 -75.333 6.16699 -136.5 18.5 -183.5s32.333 -81.333 60 -103s64.5 -32.5 110.5 -32.5c31.333 0 59 4.83301 83 14.5
s46 21.834 66 36.501s38.667 29.667 56 45l7 -28c-16 -18.667 -35.167 -36 -57.5 -52s-46.833 -28.833 -73.5 -38.5s-56 -14.5 -88 -14.5c-54 0 -97.5 12.5 -130.5 37.5s-57.167 63.833 -72.5 116.5s-23 120.667 -23 204c0 88.667 8.5 159 25.5 211s45 89.167 84 111.5
s91.167 33.5 156.5 33.5zM545.999 399.993v-400h-29l-9 100l-3 14v286h41z" />
    <glyph glyph-name="uni0123" unicode="&#x123;" horiz-adv-x="548" 
d="M271 564c-6 0 -10.167 1.16699 -12.5 3.5s-3.83301 6.16602 -4.5 11.499l1 57c0 12.667 0.833008 25.834 2.5 39.501s4 27.5 7 41.5s6.5 27 10.5 39l18 -6c-2 -18 -3.33301 -33.833 -4 -47.5s-1 -31.834 -1 -54.501c8 0 11.333 -4.33301 10 -13v-56
c0 -5.33301 -1.16699 -9.16602 -3.5 -11.499s-6.5 -3.5 -12.5 -3.5h-11zM270 494c47.333 0 85.167 -5.66699 113.5 -17s48.833 -28 61.5 -50s19 -50 19 -84c0 -33.333 -6.33301 -61.166 -19 -83.499s-33.167 -38.833 -61.5 -49.5s-66.5 -16 -114.5 -16
c-46.667 0 -84.5 5.33301 -113.5 16s-50 27.167 -63 49.5s-19.5 50.166 -19.5 83.499c0 34 6.5 62 19.5 84s33.833 38.667 62.5 50s67 17 115 17zM269.001 461c-58 0 -98.833 -9.66699 -122.5 -29s-35.5 -49 -35.5 -89s12 -69.333 36 -88s64.667 -28 122 -28
c58.667 0 99.5 9.33301 122.5 28s34.5 48 34.5 88s-11.5 69.667 -34.5 89s-63.833 29 -122.5 29zM521.001 482l-3 -26l-120 -5l-35 31h158zM135.001 228l27.9961 -4.00586c-16.667 -15.333 -27.834 -32.166 -33.501 -50.499s-3.83398 -34.833 5.49902 -49.5
s28.333 -24.667 57 -30l190 -32c43.333 -7.33301 72.333 -21.166 87 -41.499s22 -49.833 22 -88.5c0 -35.333 -7 -63.166 -21 -83.499s-37 -35 -69 -44s-74 -13.5 -126 -13.5c-41.333 0 -76.166 2.5 -104.499 7.5s-51.166 12.833 -68.499 23.5s-29.833 25 -37.5 43
s-11.5 40 -11.5 66c0 22.667 2 41.834 6 57.501s11.333 29.667 22 42s25.334 23.5 44.001 33.5l47 26l28 -9l-50 -32c-15.333 -10 -27.166 -20.167 -35.499 -30.5s-14.166 -22.166 -17.499 -35.499s-5 -30 -5 -50c0 -26.667 5.83301 -47.834 17.5 -63.501
s30.834 -26.834 57.501 -33.501s62.334 -10 107.001 -10c44 0 79 3.33301 105 10s44.667 17.834 56 33.501s17 36.834 17 63.501c0 20 -2.16699 36.333 -6.5 49s-12.833 22.834 -25.5 30.501s-31 13.5 -55 17.5l-192 32c-20.667 3.33301 -37.334 9.83301 -50.001 19.5
s-21.667 21 -27 34s-7 26.333 -5 40s6.66699 27 14 40s17.333 23.833 30 32.5z" />
    <glyph glyph-name="Hcircumflex" unicode="&#x124;" horiz-adv-x="660" 
d="M140 690v-690h-41v690h41zM531 388v-36h-399v36h399zM561 690v-690h-41v690h41zM345 890l136 -119l-16 -19l-130 101h-8l-129 -101l-17 19l135 119h29z" />
    <glyph glyph-name="hcircumflex" unicode="&#x125;" horiz-adv-x="572" 
d="M355 494c86.667 0 130 -44 130 -132v-362h-40v354c0 36.667 -8 63.167 -24 79.5s-41 24.5 -75 24.5c-35.333 0 -69.5 -8 -102.5 -24s-72.5 -39.667 -118.5 -71l-1 33c40.667 30.667 80.167 54.667 118.5 72s75.833 26 112.5 26zM130 700l1.00098 -208.999
c0 -18.667 -0.333008 -36.334 -1 -53.001s-2.33398 -31.667 -5.00098 -45l5 -16v-377h-40v700h40zM122.001 851.001l136 -119l-16 -19l-130 101h-8l-129 -101l-17 19l135 119h29z" />
    <glyph glyph-name="Hbar" unicode="&#x126;" horiz-adv-x="668" 
d="M642 550v-27h-617v27h617zM144 690v-690h-41v690h41zM535 388v-36h-399v36h399zM565 690v-690h-41v690h41z" />
    <glyph glyph-name="hbar" unicode="&#x127;" horiz-adv-x="576" 
d="M294 613v-27h-283v27h283zM359 494c86.667 0 130 -44 130 -132v-362h-40v354c0 36.667 -8 63.167 -24 79.5s-41 24.5 -75 24.5c-35.333 0 -69.5 -8 -102.5 -24s-72.5 -39.667 -118.5 -71l-1 33c40.667 30.667 80.167 54.667 118.5 72s75.833 26 112.5 26zM134 700
l1.00098 -208.999c0 -18.667 -0.333008 -36.334 -1 -53.001s-2.33398 -31.667 -5.00098 -45l5 -16v-377h-40v700h40z" />
    <glyph glyph-name="Itilde" unicode="&#x128;" horiz-adv-x="239" 
d="M140 690v-690h-41v690h41zM47 869c14.667 -1.33301 27.6689 -5.1709 39.002 -11.5039s22.166 -13.333 32.499 -21s21.166 -14.5 32.499 -20.5s24 -10 38 -12c20.667 -1.33301 35.167 2.83398 43.5 12.501s12.5 25.5 12.5 47.5h23c2 -30.667 -4.16699 -54.167 -18.5 -70.5
s-33.5 -23.5 -57.5 -21.5c-22 2 -40.5 8 -55.5 18s-29.167 20 -42.5 30s-28.333 15.667 -45 17c-20 2 -34.167 -2.16699 -42.5 -12.5s-12.5 -27.166 -12.5 -50.499h-23c-1.33301 22 1.16699 40.333 7.5 55s15.5 25.334 27.5 32.001s25.667 9.33398 41 8.00098z" />
    <glyph glyph-name="itilde" unicode="&#x129;" horiz-adv-x="227" 
d="M134 482v-482h-40v482h40zM41 688c14.667 -1.33301 27.6689 -5.1709 39.002 -11.5039s22.166 -13.333 32.499 -21s21.166 -14.5 32.499 -20.5s24 -10 38 -12c20.667 -1.33301 35.167 2.83398 43.5 12.501s12.5 25.5 12.5 47.5h23c2 -30.667 -4.16699 -54.167 -18.5 -70.5
s-33.5 -23.5 -57.5 -21.5c-22 2 -40.5 8 -55.5 18s-29.167 20 -42.5 30s-28.333 15.667 -45 17c-20 2 -34.167 -2.16699 -42.5 -12.5s-12.5 -27.166 -12.5 -50.499h-23c-1.33301 22 1.16699 40.333 7.5 55s15.5 25.334 27.5 32.001s25.667 9.33398 41 8.00098z" />
    <glyph glyph-name="Imacron" unicode="&#x12a;" horiz-adv-x="239" 
d="M140 690v-690h-41v690h41zM251 832v-33h-264v33h264z" />
    <glyph glyph-name="imacron" unicode="&#x12b;" horiz-adv-x="227" 
d="M134 482v-482h-40v482h40zM245 651v-33h-264v33h264z" />
    <glyph glyph-name="Ibreve" unicode="&#x12c;" horiz-adv-x="239" 
d="M140 690v-690h-41v690h41zM233 875l24.998 -4c0.666992 -24 -4.66602 -45 -15.999 -63s-27.333 -31.833 -48 -41.5s-45.667 -14.5 -75 -14.5c-28.667 0 -53.667 4.83301 -75 14.5s-37.666 23.5 -48.999 41.5s-16.666 39 -15.999 63l24 4c0 -28 10.333 -49.833 31 -65.5
s49 -23.5 85 -23.5c35.333 0 63.166 7.83301 83.499 23.5s30.5 37.5 30.5 65.5z" />
    <glyph glyph-name="ibreve" unicode="&#x12d;" horiz-adv-x="227" 
d="M134 482v-482h-40v482h40zM227 694l24.998 -4c0.666992 -24 -4.66602 -45 -15.999 -63s-27.333 -31.833 -48 -41.5s-45.667 -14.5 -75 -14.5c-28.667 0 -53.667 4.83301 -75 14.5s-37.666 23.5 -48.999 41.5s-16.666 39 -15.999 63l24 4c0 -28 10.333 -49.833 31 -65.5
s49 -23.5 85 -23.5c35.333 0 63.166 7.83301 83.499 23.5s30.5 37.5 30.5 65.5z" />
    <glyph glyph-name="Iogonek" unicode="&#x12e;" horiz-adv-x="239" 
d="M140 690v-690h-41v690h41zM114 2l23.999 -2.00098c-17.333 -17.333 -33.333 -36 -48 -56s-26.667 -42.333 -36 -67c-10.667 -29.333 -7.5 -48.666 9.5 -57.999s43.5 -7.66602 79.5 5.00098l5 -18c-27.333 -12 -50.333 -18.333 -69 -19s-33.167 3.16602 -43.5 11.499
s-16.666 19.5 -18.999 33.5s-0.5 29.333 5.5 46c6 17.333 16.167 36.333 30.5 57s34.833 43 61.5 67z" />
    <glyph glyph-name="iogonek" unicode="&#x12f;" horiz-adv-x="227" 
d="M134 482v-482h-40v482h40zM120 680c10.667 0 16 -5 16 -15v-61c0 -10 -5.33301 -15 -16 -15h-14c-10.667 0 -16 5 -16 15v61c0 10 5.33301 15 16 15h14zM108 2l23.999 -2.00098c-17.333 -17.333 -33.333 -36 -48 -56s-26.667 -42.333 -36 -67
c-10.667 -29.333 -7.5 -48.666 9.5 -57.999s43.5 -7.66602 79.5 5.00098l5 -18c-27.333 -12 -50.333 -18.333 -69 -19s-33.167 3.16602 -43.5 11.499s-16.666 19.5 -18.999 33.5s-0.5 29.333 5.5 46c6 17.333 16.167 36.333 30.5 57s34.833 43 61.5 67z" />
    <glyph glyph-name="Idotaccent" unicode="&#x130;" horiz-adv-x="239" 
d="M140 690v-690h-41v690h41zM126 861c10.667 0 16 -5 16 -15v-61c0 -10 -5.33301 -15 -16 -15h-14c-10.667 0 -16 5 -16 15v61c0 10 5.33301 15 16 15h14z" />
    <glyph glyph-name="dotlessi" unicode="&#x131;" horiz-adv-x="227" 
d="M134 482v-482h-40v482h40z" />
    <glyph glyph-name="IJ" unicode="&#x132;" horiz-adv-x="567" 
d="M140 690v-690h-41v690h41zM471 690l0.00195312 -567c0 -42.667 -10.333 -75.167 -31 -97.5s-52 -33.166 -94 -32.499c-6.66699 0 -14.334 0.333008 -23.001 1s-17.334 1.66699 -26.001 3s-16 2.66602 -22 3.99902l5 28h56c62.667 0 94 31.333 94 94v567h41z" />
    <glyph glyph-name="ij" unicode="&#x133;" horiz-adv-x="455" 
d="M133 482v-482h-39v482h39zM122 683c10.667 0 16 -5.33301 16 -16v-60c0 -10.667 -5.33301 -16 -16 -16h-17c-10.667 0 -16 5.33301 -16 16v60c0 10.667 5.33301 16 16 16h17zM361 482v-519.002c0 -22.667 -3 -44.167 -9 -64.5s-14.5 -39.333 -25.5 -57
s-23.833 -34.167 -38.5 -49.5l-22 17c18 22.667 31.667 45.834 41 69.501s14 51.834 14 84.501v519h40zM350 682.998c10 0 15 -5.33301 15 -16v-60c0 -10.667 -5 -16 -15 -16h-18c-10 0 -15 5.33301 -15 16v60c0 10.667 5 16 15 16h18z" />
    <glyph glyph-name="Jcircumflex" unicode="&#x134;" horiz-adv-x="328" 
d="M232 690l0.00195312 -567c0 -42.667 -10.333 -75.167 -31 -97.5s-52 -33.166 -94 -32.499c-6.66699 0 -14.334 0.333008 -23.001 1s-17.334 1.66699 -26.001 3s-16 2.66602 -22 3.99902l5 28h56c62.667 0 94 31.333 94 94v567h41zM222.002 888l136 -119l-16 -19l-130 101
h-8l-129 -101l-17 19l135 119h29z" />
    <glyph glyph-name="jcircumflex" unicode="&#x135;" horiz-adv-x="228" 
d="M134 482v-519.002c0 -22.667 -3 -44.167 -9 -64.5s-14.5 -39.333 -25.5 -57s-23.833 -34.167 -38.5 -49.5l-22 17c18 22.667 31.667 45.834 41 69.501s14 51.834 14 84.501v519h40zM127 701.998l136 -119l-16 -19l-130 101h-8l-129 -101l-17 19l135 119h29z" />
    <glyph glyph-name="uni0136" unicode="&#x136;" horiz-adv-x="569" 
d="M313 -63c6 0 10.168 -1.16797 12.501 -3.50098s3.83301 -6.5 4.5 -12.5l-1 -57c0 -12 -0.833008 -24.833 -2.5 -38.5s-4 -27.667 -7 -42s-6.5 -27.166 -10.5 -38.499l-18 5c2 18 3.33301 33.833 4 47.5s1 32.167 1 55.5c-8 0 -11.333 4 -10 12l1 56
c-0.666992 6 0.166016 10.167 2.49902 12.5s6.5 3.5 12.5 3.5h11zM524.001 689.999l-223.002 -300c-4.66699 -6 -9.16699 -11.5 -13.5 -16.5s-8.83301 -9.16699 -13.5 -12.5v-2c4.66699 -4 9.33398 -8.5 14.001 -13.5s9.33398 -10.5 14.001 -16.5l238 -329h-48l-262 360
l247 330h47zM138.999 689.999v-231c0 -18 -0.333008 -34.333 -1 -49s-2 -31 -4 -49c2 -18 3.33301 -35.167 4 -51.5s1 -32.833 1 -49.5v-260h-40v690h40zM261.999 376.999v-34h-142v34h142z" />
    <glyph glyph-name="uni0137" unicode="&#x137;" horiz-adv-x="482" 
d="M270 -63c6 0 10.167 -1.16797 12.5 -3.50098s3.5 -6.5 3.5 -12.5v-57c-0.666992 -12 -1.66699 -24.833 -3 -38.5s-3.5 -27.667 -6.5 -42s-6.83301 -27.166 -11.5 -38.499l-17 5c2 18 3.33301 33.833 4 47.5s1 32.167 1 55.5c-8 0 -11.667 4 -11 12l1 56
c-0.666992 6 0.333008 10.167 3 12.5s6.66699 3.5 12 3.5h12zM437 481.999l-173 -183.998c-3.33301 -3.33301 -7.66602 -7.33301 -12.999 -12s-9.66602 -8.33398 -12.999 -11.001v-2c3.33301 -2.66699 7.66602 -6.83398 12.999 -12.501s9.66602 -11.167 12.999 -16.5
l189 -244h-48l-213 277l196 205h49zM130 700.001l1.00098 -327c0 -18 -0.333008 -34.333 -1 -49s-2.33398 -31 -5.00098 -49c2 -18 3.33301 -35.167 4 -51.5s1 -32.833 1 -49.5v-174h-40v700h40zM225.001 291.001v-32h-114v32h114z" />
    <glyph glyph-name="kgreenlandic" unicode="&#x138;" horiz-adv-x="482" 
d="M437 482l-174.002 -200c-3.33301 -4 -7.66602 -8.5 -12.999 -13.5s-9.66602 -8.5 -12.999 -10.5v-2c3.33301 -2.66699 7.5 -7 12.5 -13l13.5 -16l190 -227h-48l-213 255l196 227h49zM129.998 482l1 -129.999c0.666992 -18.667 0.5 -35.334 -0.5 -50.001
s-2.83301 -31 -5.5 -49c2 -18 3.33301 -35 4 -51s1 -32.667 1 -50v-152h-40v482h40zM224.998 269.001v-32h-114v32h114z" />
    <glyph glyph-name="Lacute" unicode="&#x139;" horiz-adv-x="509" 
d="M137 690l0.000976562 -577.001c0 -23.333 7.16699 -42.166 21.5 -56.499s33.166 -21.5 56.499 -21.5h266l1 -30c-45.333 -2.66699 -91 -4.16699 -137 -4.5s-91.667 -0.5 -137 -0.5c-34.667 -0 -62 10.333 -82 31s-30 46.667 -30 78v581h41zM221.001 904.999l26 -30
l-163 -135l-18 19z" />
    <glyph glyph-name="lacute" unicode="&#x13a;" horiz-adv-x="277" 
d="M131 700l-0.999023 -594.001c0 -25.333 6.66699 -44.333 20 -57s32.333 -19 57 -19h55l5 -29c-4.66699 -1.33301 -11.334 -2.66602 -20.001 -3.99902s-17.667 -2.33301 -27 -3s-17 -1 -23 -1c-32 0 -57.667 9.16699 -77 27.5s-29 44.833 -29 79.5v600h40z
M212.001 921.999l26 -30l-163 -135l-18 19z" />
    <glyph glyph-name="uni013B" unicode="&#x13b;" horiz-adv-x="509" 
d="M306 -71c5.33301 0 9.16602 -1.16797 11.499 -3.50098s3.83301 -6.5 4.5 -12.5l-1 -57c0 -12 -0.833008 -24.833 -2.5 -38.5s-4 -27.667 -7 -42s-6.5 -27.166 -10.5 -38.499l-18 5c2 18 3.33301 33.833 4 47.5s1 32.167 1 55.5c-7.33301 0 -10.666 4.33301 -9.99902 13
l1 55c-0.666992 6 0.333008 10.167 3 12.5s6.66699 3.5 12 3.5h12zM137 689.999l0.000976562 -577.001c0 -23.333 7.16699 -42.166 21.5 -56.499s33.166 -21.5 56.499 -21.5h266l1 -30c-45.333 -2.66699 -91 -4.16699 -137 -4.5s-91.667 -0.5 -137 -0.5
c-34.667 0 -62 10.333 -82 31s-30 46.667 -30 78v581h41z" />
    <glyph glyph-name="uni013C" unicode="&#x13c;" horiz-adv-x="277" 
d="M173 -71c6 0 10.166 -1.16797 12.499 -3.50098s3.83301 -6.5 4.5 -12.5l-1 -57c0 -12 -0.833008 -24.833 -2.5 -38.5s-4 -27.667 -7 -42s-6.5 -27.166 -10.5 -38.499l-18 5c2 18 3.33301 33.833 4 47.5s1 32.167 1 55.5c-7.33301 0 -10.666 4.33301 -9.99902 13l1 55
c-0.666992 6 0.333008 10.167 3 12.5s6.66699 3.5 12 3.5h11zM130.999 699.999l-0.999023 -594.001c0 -25.333 6.66699 -44.333 20 -57s32.333 -19 57 -19h55l5 -29c-4.66699 -1.33301 -11.334 -2.66602 -20.001 -3.99902s-17.667 -2.33301 -27 -3s-17 -1 -23 -1
c-32 0 -57.667 9.16699 -77 27.5s-29 44.833 -29 79.5v600h40z" />
    <glyph glyph-name="Lcaron" unicode="&#x13d;" horiz-adv-x="509" 
d="M137 690l0.000976562 -577.001c0 -23.333 7.16699 -42.166 21.5 -56.499s33.166 -21.5 56.499 -21.5h266l1 -30c-45.333 -2.66699 -91 -4.16699 -137 -4.5s-91.667 -0.5 -137 -0.5c-34.667 -0 -62 10.333 -82 31s-30 46.667 -30 78v581h41zM307.001 690.999
c5.33301 0 9.16699 -1.33301 11.5 -4s3.83301 -6.33398 4.5 -11.001l-1 -55c-0.666992 -17.333 -2.66699 -36.333 -6 -57s-7.66602 -39.667 -12.999 -57l-17 5l3.5 45.5c1 13 1.5 30.5 1.5 52.5c-7.33301 0 -10.666 4 -9.99902 12l1 54
c-0.666992 4.66699 0.166016 8.33398 2.49902 11.001s6.16602 4 11.499 4h11z" />
    <glyph glyph-name="lcaron" unicode="&#x13e;" horiz-adv-x="277" 
d="M131 700l-0.999023 -594.001c0 -25.333 6.66699 -44.333 20 -57s32.333 -19 57 -19h55l5 -29c-4.66699 -1.33301 -11.334 -2.66602 -20.001 -3.99902s-17.667 -2.33301 -27 -3s-17 -1 -23 -1c-32 0 -57.667 9.16699 -77 27.5s-29 44.833 -29 79.5v600h40z
M235.001 701.999c5.33301 0 9.16699 -1.33301 11.5 -4s3.83301 -6.33398 4.5 -11.001l-1 -55c-0.666992 -17.333 -2.66699 -36.333 -6 -57s-7.66602 -39.667 -12.999 -57l-17 5l3.5 45.5c1 13 1.5 30.5 1.5 52.5c-7.33301 0 -10.666 4 -9.99902 12l1 54
c-0.666992 4.66699 0.166016 8.33398 2.49902 11.001s6.16602 4 11.499 4h11z" />
    <glyph glyph-name="Ldot" unicode="&#x13f;" horiz-adv-x="509" 
d="M352 342c-10.667 0 -16 5 -16 15v61c0 10 5.33301 15 16 15h14c10.667 0 16 -5 16 -15v-61c0 -10 -5.33301 -15 -16 -15h-14zM137 690l0.000976562 -577.001c0 -23.333 7.16699 -42.166 21.5 -56.499s33.166 -21.5 56.499 -21.5h266l1 -30
c-45.333 -2.66699 -91 -4.16699 -137 -4.5s-91.667 -0.5 -137 -0.5c-34.667 -0 -62 10.333 -82 31s-30 46.667 -30 78v581h41z" />
    <glyph glyph-name="ldot" unicode="&#x140;" horiz-adv-x="297" 
d="M248 344c-10.667 0 -16 5.33301 -16 16v60c0 10.667 5.33301 16 16 16h14c10.667 0 16 -5.33301 16 -16v-60c0 -10.667 -5.33301 -16 -16 -16h-14zM131 700l-0.999023 -594.001c0 -25.333 6.66699 -44.333 20 -57s32.333 -19 57 -19h55l5 -29
c-4.66699 -1.33301 -11.334 -2.66602 -20.001 -3.99902s-17.667 -2.33301 -27 -3s-17 -1 -23 -1c-32 0 -57.667 9.16699 -77 27.5s-29 44.833 -29 79.5v600h40z" />
    <glyph glyph-name="Lslash" unicode="&#x141;" horiz-adv-x="513" 
d="M267 453v-29l-242 -106v30zM142 690l0.000976562 -577.001c0 -23.333 7 -42.166 21 -56.499s33 -21.5 57 -21.5h266l1 -30c-45.333 -2.66699 -91 -4.16699 -137 -4.5s-92 -0.5 -138 -0.5c-34.667 -0 -61.834 10.333 -81.501 31s-29.5 46.667 -29.5 78v581h41z" />
    <glyph glyph-name="lslash" unicode="&#x142;" horiz-adv-x="309" 
d="M270 453v-30l-242 -105v30zM154 700l0.000976562 -594.001c0 -25.333 6.66699 -44.333 20 -57s32 -19 56 -19h56l4 -29c-4.66699 -1.33301 -11.334 -2.66602 -20.001 -3.99902s-17.667 -2.33301 -27 -3s-17 -1 -23 -1c-32 0 -57.667 9.16699 -77 27.5
s-29 44.833 -29 79.5v600h40z" />
    <glyph glyph-name="Nacute" unicode="&#x143;" horiz-adv-x="692" 
d="M594 690v-670c0 -13.333 -6.66699 -20 -20 -20h-54c-5.33301 0 -9.83301 1.16699 -13.5 3.5s-6.83398 6.16602 -9.50098 11.499l-298 564l-19 36c-6.66699 12.667 -12.667 25.334 -18 38.001h-23c0.666992 -12.667 1 -25.334 1 -38.001v-37v-578h-41v670
c0 13.333 6.66699 20 20 20h50c6 0 10.833 -1.16699 14.5 -3.5s6.83398 -6.16602 9.50098 -11.499l290 -551l22.5 -42l22.5 -44h25v47.5v46.5v558h41zM460 901l26 -30l-163 -135l-18 19z" />
    <glyph glyph-name="nacute" unicode="&#x144;" horiz-adv-x="573" 
d="M356 494c86.667 0 129.999 -44 129.999 -132v-362h-40v354c0 36.667 -8 63.167 -24 79.5s-41 24.5 -75 24.5c-35.333 0 -69.666 -8 -102.999 -24s-72.666 -39.667 -117.999 -71l-1 33c40 32 79.167 56.333 117.5 73s76.166 25 113.499 25zM122.999 482l4 -89l3 -16v-377
h-39v482h32zM395.999 720l26 -30l-163 -135l-18 19z" />
    <glyph glyph-name="uni0145" unicode="&#x145;" horiz-adv-x="692" 
d="M338 -63c6 0 10.168 -1.16797 12.501 -3.50098s3.83301 -6.5 4.5 -12.5l-1 -57c0 -12 -0.833008 -24.833 -2.5 -38.5s-4 -27.667 -7 -42s-6.5 -27.166 -10.5 -38.499l-18 5c2 18 3.33301 33.833 4 47.5s1 32.167 1 55.5c-8 0 -11.333 4 -10 12l1 56
c-0.666992 6 0.166016 10.167 2.49902 12.5s6.5 3.5 12.5 3.5h11zM594.001 689.999v-670c0 -13.333 -6.66699 -20 -20 -20h-54c-5.33301 0 -9.83301 1.16699 -13.5 3.5s-6.83398 6.16602 -9.50098 11.499l-298 564l-19 36c-6.66699 12.667 -12.667 25.334 -18 38.001h-23
c0.666992 -12.667 1 -25.334 1 -38.001v-37v-578h-41v670c0 13.333 6.66699 20 20 20h50c6 0 10.833 -1.16699 14.5 -3.5s6.83398 -6.16602 9.50098 -11.499l290 -551l22.5 -42l22.5 -44h25v47.5v46.5v558h41z" />
    <glyph glyph-name="uni0146" unicode="&#x146;" horiz-adv-x="573" 
d="M296 -63c6 0 10.168 -1.16797 12.501 -3.50098s3.5 -6.5 3.5 -12.5v-57c-0.666992 -12 -1.66699 -24.833 -3 -38.5s-3.5 -27.667 -6.5 -42s-6.5 -27.166 -10.5 -38.499l-18 5c2 18 3.33301 33.833 4 47.5s1 32.167 1 55.5c-8 0 -11.333 4 -10 12v56
c0 6 1.16699 10.167 3.5 12.5s6.16602 3.5 11.499 3.5h12zM356.001 493.999c86.667 0 129.999 -44 129.999 -132v-362h-40v354c0 36.667 -8 63.167 -24 79.5s-41 24.5 -75 24.5c-35.333 0 -69.666 -8 -102.999 -24s-72.666 -39.667 -117.999 -71l-1 33
c40 32 79.167 56.333 117.5 73s76.166 25 113.499 25zM123 481.999l4 -89l3 -16v-377h-39v482h32z" />
    <glyph glyph-name="Ncaron" unicode="&#x147;" horiz-adv-x="692" 
d="M594 690v-670c0 -13.333 -6.66699 -20 -20 -20h-54c-5.33301 0 -9.83301 1.16699 -13.5 3.5s-6.83398 6.16602 -9.50098 11.499l-298 564l-19 36c-6.66699 12.667 -12.667 25.334 -18 38.001h-23c0.666992 -12.667 1 -25.334 1 -38.001v-37v-578h-41v670
c0 13.333 6.66699 20 20 20h50c6 0 10.833 -1.16699 14.5 -3.5s6.83398 -6.16602 9.50098 -11.499l290 -551l22.5 -42l22.5 -44h25v47.5v46.5v558h41zM495 888l16 -18l-138 -120h-24l-139 120l18 18l129 -98h8z" />
    <glyph glyph-name="ncaron" unicode="&#x148;" horiz-adv-x="573" 
d="M356 494c86.667 0 129.999 -44 129.999 -132v-362h-40v354c0 36.667 -8 63.167 -24 79.5s-41 24.5 -75 24.5c-35.333 0 -69.666 -8 -102.999 -24s-72.666 -39.667 -117.999 -71l-1 33c40 32 79.167 56.333 117.5 73s76.166 25 113.499 25zM122.999 482l4 -89l3 -16v-377
h-39v482h32zM430.999 706l16 -18l-138 -120h-24l-139 120l18 18l129 -98h8z" />
    <glyph glyph-name="Eng" unicode="&#x14a;" horiz-adv-x="692" 
d="M594 690l-0.00195312 -785.002c0 -41.333 -10.667 -72.666 -32 -93.999s-52.666 -31.666 -93.999 -30.999c-9.33301 0 -20.833 0.666992 -34.5 2s-25.5 3 -35.5 5l5 26h55c64 0 96 31.333 96 94v93h-33c-4.66699 -0 -8.66699 1.33301 -12 4s-6 6.33398 -8 11.001
l-302 560l-19 36.5l-19 37.5h-22c0.666992 -12.667 1 -25.334 1 -38.001v-38v-573h-41v670c0 13.333 6.66699 20 20 20h46c6 0 10.833 -1.16699 14.5 -3.5s6.83398 -6.16602 9.50098 -11.499l294 -547l22.5 -42l22.5 -44h25c0 16 -0.166992 31.667 -0.5 47
s-0.5 30.666 -0.5 45.999v555h42z" />
    <glyph glyph-name="eng" unicode="&#x14b;" horiz-adv-x="573" 
d="M356 494c86.667 0 130 -43.999 130 -131.999v-446c0 -40.667 -9.5 -71.834 -28.5 -93.501s-47.5 -32.167 -85.5 -31.5c-6 0 -12.167 0.5 -18.5 1.5s-13 2 -20 3l-24.5 3.5l5 26h47c56.667 0 85 31.333 85 94v435c0 35.333 -8 61.333 -24 78s-41.333 25 -76 25
c-33.333 0 -66.833 -7.83301 -100.5 -23.5s-72.167 -38.167 -115.5 -67.5v-366h-39v482h30l4 -86c40.667 32.667 80.167 57.167 118.5 73.5s75.833 24.5 112.5 24.5z" />
    <glyph glyph-name="Omacron" unicode="&#x14c;" 
d="M332 702c48 0 88.667 -6.16699 122 -18.5s60 -32.5 80 -60.5s34.5 -64.667 43.5 -110s13.5 -101.333 13.5 -168s-4.5 -122.667 -13.5 -168s-23.5 -82 -43.5 -110s-46.667 -48.167 -80 -60.5s-74 -18.5 -122 -18.5s-88.667 6.16699 -122 18.5s-60 32.5 -80 60.5
s-34.667 64.667 -44 110s-14 101.333 -14 168s4.66699 122.667 14 168s24 82 44 110s46.667 48.167 80 60.5s74 18.5 122 18.5zM332 665c-54 0 -96.667 -10.167 -128 -30.5s-54 -53.833 -68 -100.5s-21 -109.667 -21 -189s7 -142.333 21 -189s36.667 -80.167 68 -100.5
s74 -30.5 128 -30.5c53.333 0 95.833 10.167 127.5 30.5s54.334 53.833 68.001 100.5s20.5 109.667 20.5 189s-6.83301 142.333 -20.5 189s-36.334 80.167 -68.001 100.5s-74.167 30.5 -127.5 30.5zM465 832v-33h-264v33h264z" />
    <glyph glyph-name="omacron" unicode="&#x14d;" horiz-adv-x="562" 
d="M281 494c53.333 0 95.666 -8.16699 126.999 -24.5s53.833 -43 67.5 -80s20.5 -86.5 20.5 -148.5c0 -61.333 -6.83301 -110.666 -20.5 -147.999s-36.167 -64.166 -67.5 -80.499s-73.666 -24.5 -126.999 -24.5c-52 0 -94 8.16699 -126 24.5s-54.833 43.166 -68.5 80.499
s-20.5 86.666 -20.5 147.999c0 62 6.83301 111.5 20.5 148.5s36.5 63.667 68.5 80s74 24.5 126 24.5zM281 458c-42.667 0 -76.667 -6.66699 -102 -20s-43.5 -35.666 -54.5 -66.999s-16.5 -74.666 -16.5 -129.999c0 -54.667 5.5 -98 16.5 -130s29.167 -54.667 54.5 -68
s59.333 -20 102 -20s76.667 6.66699 102 20s43.666 36 54.999 68s17 75.333 17 130c0 55.333 -5.66699 98.666 -17 129.999s-29.666 53.666 -54.999 66.999s-59.333 20 -102 20zM413 650v-33h-264v33h264z" />
    <glyph glyph-name="Obreve" unicode="&#x14e;" 
d="M332 702c48 0 88.667 -6.16699 122 -18.5s60 -32.5 80 -60.5s34.5 -64.667 43.5 -110s13.5 -101.333 13.5 -168s-4.5 -122.667 -13.5 -168s-23.5 -82 -43.5 -110s-46.667 -48.167 -80 -60.5s-74 -18.5 -122 -18.5s-88.667 6.16699 -122 18.5s-60 32.5 -80 60.5
s-34.667 64.667 -44 110s-14 101.333 -14 168s4.66699 122.667 14 168s24 82 44 110s46.667 48.167 80 60.5s74 18.5 122 18.5zM332 665c-54 0 -96.667 -10.167 -128 -30.5s-54 -53.833 -68 -100.5s-21 -109.667 -21 -189s7 -142.333 21 -189s36.667 -80.167 68 -100.5
s74 -30.5 128 -30.5c53.333 0 95.833 10.167 127.5 30.5s54.334 53.833 68.001 100.5s20.5 109.667 20.5 189s-6.83301 142.333 -20.5 189s-36.334 80.167 -68.001 100.5s-74.167 30.5 -127.5 30.5zM447 875l24.998 -4c0.666992 -24 -4.66602 -45 -15.999 -63
s-27.333 -31.833 -48 -41.5s-45.667 -14.5 -75 -14.5c-28.667 0 -53.667 4.83301 -75 14.5s-37.666 23.5 -48.999 41.5s-16.666 39 -15.999 63l24 4c0 -28 10.333 -49.833 31 -65.5s49 -23.5 85 -23.5c35.333 0 63.166 7.83301 83.499 23.5s30.5 37.5 30.5 65.5z" />
    <glyph glyph-name="obreve" unicode="&#x14f;" horiz-adv-x="562" 
d="M281 494c53.333 0 95.666 -8.16699 126.999 -24.5s53.833 -43 67.5 -80s20.5 -86.5 20.5 -148.5c0 -61.333 -6.83301 -110.666 -20.5 -147.999s-36.167 -64.166 -67.5 -80.499s-73.666 -24.5 -126.999 -24.5c-52 0 -94 8.16699 -126 24.5s-54.833 43.166 -68.5 80.499
s-20.5 86.666 -20.5 147.999c0 62 6.83301 111.5 20.5 148.5s36.5 63.667 68.5 80s74 24.5 126 24.5zM281 458c-42.667 0 -76.667 -6.66699 -102 -20s-43.5 -35.666 -54.5 -66.999s-16.5 -74.666 -16.5 -129.999c0 -54.667 5.5 -98 16.5 -130s29.167 -54.667 54.5 -68
s59.333 -20 102 -20s76.667 6.66699 102 20s43.666 36 54.999 68s17 75.333 17 130c0 55.333 -5.66699 98.666 -17 129.999s-29.666 53.666 -54.999 66.999s-59.333 20 -102 20zM394 693l24.998 -4c0.666992 -24 -4.66602 -45 -15.999 -63s-27.333 -31.833 -48 -41.5
s-45.667 -14.5 -75 -14.5c-28.667 0 -53.667 4.83301 -75 14.5s-37.666 23.5 -48.999 41.5s-16.666 39 -15.999 63l24 4c0 -28 10.333 -49.833 31 -65.5s49 -23.5 85 -23.5c35.333 0 63.166 7.83301 83.499 23.5s30.5 37.5 30.5 65.5z" />
    <glyph glyph-name="Ohungarumlaut" unicode="&#x150;" 
d="M332 702c48 0 88.667 -6.16699 122 -18.5s60 -32.5 80 -60.5s34.5 -64.667 43.5 -110s13.5 -101.333 13.5 -168s-4.5 -122.667 -13.5 -168s-23.5 -82 -43.5 -110s-46.667 -48.167 -80 -60.5s-74 -18.5 -122 -18.5s-88.667 6.16699 -122 18.5s-60 32.5 -80 60.5
s-34.667 64.667 -44 110s-14 101.333 -14 168s4.66699 122.667 14 168s24 82 44 110s46.667 48.167 80 60.5s74 18.5 122 18.5zM332 665c-54 0 -96.667 -10.167 -128 -30.5s-54 -53.833 -68 -100.5s-21 -109.667 -21 -189s7 -142.333 21 -189s36.667 -80.167 68 -100.5
s74 -30.5 128 -30.5c53.333 0 95.833 10.167 127.5 30.5s54.334 53.833 68.001 100.5s20.5 109.667 20.5 189s-6.83301 142.333 -20.5 189s-36.334 80.167 -68.001 100.5s-74.167 30.5 -127.5 30.5zM336 909l32 -22l-121 -154l-22 14zM482 909l32 -22l-121 -154l-22 14z" />
    <glyph glyph-name="ohungarumlaut" unicode="&#x151;" horiz-adv-x="562" 
d="M281 494c53.333 0 95.666 -8.16699 126.999 -24.5s53.833 -43 67.5 -80s20.5 -86.5 20.5 -148.5c0 -61.333 -6.83301 -110.666 -20.5 -147.999s-36.167 -64.166 -67.5 -80.499s-73.666 -24.5 -126.999 -24.5c-52 0 -94 8.16699 -126 24.5s-54.833 43.166 -68.5 80.499
s-20.5 86.666 -20.5 147.999c0 62 6.83301 111.5 20.5 148.5s36.5 63.667 68.5 80s74 24.5 126 24.5zM281 458c-42.667 0 -76.667 -6.66699 -102 -20s-43.5 -35.666 -54.5 -66.999s-16.5 -74.666 -16.5 -129.999c0 -54.667 5.5 -98 16.5 -130s29.167 -54.667 54.5 -68
s59.333 -20 102 -20s76.667 6.66699 102 20s43.666 36 54.999 68s17 75.333 17 130c0 55.333 -5.66699 98.666 -17 129.999s-29.666 53.666 -54.999 66.999s-59.333 20 -102 20zM284 727l32 -22l-121 -154l-22 14zM430 727l32 -22l-121 -154l-22 14z" />
    <glyph glyph-name="OE" unicode="&#x152;" horiz-adv-x="895" 
d="M332 702c24 0 44.667 -1.16309 62 -3.49609s34.333 -6 51 -11s35 -11.833 55 -20.5l-14 -33c-18 7.33301 -34.333 13.166 -49 17.499s-30.167 7.66602 -46.5 9.99902s-35.833 3.5 -58.5 3.5c-54 0 -96.667 -9.83301 -128 -29.5s-54 -52.834 -68 -99.501
s-21 -110.334 -21 -191.001c0 -79.333 7 -142.333 21 -189s36.667 -80.167 68 -100.5s74 -30.5 128 -30.5c24 0 44 1.16699 60 3.5s31.5 5.83301 46.5 10.5s31.833 10.667 50.5 18l16 -31c-20 -9.33301 -38.5 -16.833 -55.5 -22.5s-34.667 -9.66699 -53 -12
s-39.833 -3.5 -64.5 -3.5c-48 0 -88.667 6.16699 -122 18.5s-60 32.5 -80 60.5s-34.667 64.667 -44 110s-14 101.333 -14 168s4.66699 122.667 14 168s24 82 44 110s46.667 48.167 80 60.5s74 18.5 122 18.5zM561 690.004l93.5 -0.00195312c31 0 61.833 -0.333008 92.5 -1
s61.334 -1.66699 92.001 -3l-1 -31h-266c-23.333 0 -42.166 -7.16699 -56.499 -21.5s-21.5 -33.166 -21.5 -56.499v-464c0 -23.333 7.16699 -42.166 21.5 -56.499s33.166 -21.5 56.499 -21.5h266l1 -31c-30.667 -1.33301 -61.5 -2.33301 -92.5 -3s-62.167 -1 -93.5 -1h-94
c-30.667 0 -56 10.167 -76 30.5s-30 46.5 -30 78.5v472c0 32 10.167 58.167 30.5 78.5s46.166 30.5 77.499 30.5zM470 386.002l326 -1v-33l-326 -1v35z" />
    <glyph glyph-name="oe" unicode="&#x153;" horiz-adv-x="918" 
d="M281 -12c-52.667 0 -94.834 8.16699 -126.501 24.5s-54.334 43.166 -68.001 80.499s-20.5 86.666 -20.5 147.999c0 62 6.83301 111.5 20.5 148.5s36.334 63.667 68.001 80s73.834 24.5 126.501 24.5c53.333 0 95.666 -8.16699 126.999 -24.5s53.833 -43 67.5 -80
s20.5 -86.5 20.5 -148.5c0 -61.333 -6.83301 -110.666 -20.5 -147.999s-36.167 -64.166 -67.5 -80.499s-73.666 -24.5 -126.999 -24.5zM281 23c42.667 0 76.667 6.66699 102 20s43.666 36 54.999 68s17 75.333 17 130c0 55.333 -5.66699 98.666 -17 129.999
s-29.666 53.666 -54.999 66.999s-59.333 20 -102 20s-76.667 -6.66699 -102 -20s-43.5 -35.666 -54.5 -66.999s-16.5 -74.666 -16.5 -129.999c0 -54.667 5.5 -98 16.5 -130s29.167 -54.667 54.5 -68s59.333 -20 102 -20zM673 -12c-52 0 -94 8.49609 -126 25.4961
s-55.5 44.333 -70.5 82s-22.5 86.834 -22.5 147.501c0 62 7 111.333 21 148s36.5 63 67.5 79s71.5 24 121.5 24c66 0 114.833 -11.833 146.5 -35.5s47.834 -58.5 48.501 -104.5c0.666992 -32.667 -3.83301 -58.667 -13.5 -78s-25 -33.166 -46 -41.499
s-49.5 -12.5 -85.5 -12.5h-241v32h240c39.333 0 67.166 7.33301 83.499 22s23.833 40.334 22.5 77.001c-1.33301 35.333 -14.666 61.666 -39.999 78.999s-63.333 26 -114 26c-42 0 -75.333 -6.83301 -100 -20.5s-42.334 -36 -53.001 -67s-16 -72.833 -16 -125.5
c0 -56 6.33301 -100.167 19 -132.5s32.334 -55.166 59.001 -68.499s61.667 -20 105 -20c30.667 0 60.667 1.33301 90 4s54 5.33398 74 8.00098l5 -28c-12 -4 -28.333 -7.5 -49 -10.5s-42.334 -5.33301 -65.001 -7s-43 -2.5 -61 -2.5z" />
    <glyph glyph-name="Racute" unicode="&#x154;" horiz-adv-x="610" 
d="M324 698c50 0 90.001 -5.50195 120.001 -16.502s51.667 -30.667 65 -59s20 -68.166 20 -119.499c0 -40 -4.33301 -72.833 -13 -98.5s-22.334 -45 -41.001 -58s-43 -21.5 -73 -25.5v-5c12 -2.66699 22.833 -8.66699 32.5 -18s18.5 -20.5 26.5 -33.5
s14.667 -27.833 20 -44.5l73 -220h-45l-70 217c-10.667 32 -24.834 54.5 -42.501 67.5s-39.5 19.5 -65.5 19.5c-38.667 0 -73.167 0.333008 -103.5 1s-55.5 1.33398 -75.5 2.00098s-34.333 1.33398 -43 2.00098l3 32h212c40 0.666992 71.833 5.66699 95.5 15
s40.834 25.5 51.501 48.5s16 55.5 16 97.5s-5.33301 74.5 -16 97.5s-27.834 39.167 -51.501 48.5s-55.5 14 -95.5 14c-52 0 -96.833 -0.333008 -134.5 -1s-63.167 -1.33398 -76.5 -2.00098l-14 31c24 2.66699 46.5 4.5 67.5 5.5s43.833 1.66699 68.5 2
s54.334 0.5 89.001 0.5zM140.001 689.998v-690h-41v690h41zM404.001 900.998l26 -30l-163 -135l-18 19z" />
    <glyph glyph-name="racute" unicode="&#x155;" horiz-adv-x="388" 
d="M121 482l5 -89l4 -16v-377h-39v482h30zM366 494l-6 -37.999h-20c-33.333 0 -66.333 -8 -99 -24s-71 -38.333 -115 -67l-2 30c38.667 31.333 76.5 55.666 113.5 72.999s73.167 26 108.5 26h20zM322 720.001l26 -30l-163 -135l-18 19z" />
    <glyph glyph-name="uni0156" unicode="&#x156;" horiz-adv-x="610" 
d="M334 -63c6 0 10.001 -1.16797 12.001 -3.50098s3.33301 -6.5 4 -12.5l-1 -57c0 -12 -0.833008 -24.833 -2.5 -38.5s-3.83398 -27.667 -6.50098 -42s-6.33398 -27.166 -11.001 -38.499l-17 5c1.33301 18 2.33301 33.833 3 47.5s1 32.167 1 55.5
c-7.33301 0 -10.666 4 -9.99902 12l1 56c-0.666992 6 0.333008 10.167 3 12.5s6.66699 3.5 12 3.5h12zM324.001 697.999c50 0 90.001 -5.50195 120.001 -16.502s51.667 -30.667 65 -59s20 -68.166 20 -119.499c0 -40 -4.33301 -72.833 -13 -98.5s-22.334 -45 -41.001 -58
s-43 -21.5 -73 -25.5v-5c12 -2.66699 22.833 -8.66699 32.5 -18s18.5 -20.5 26.5 -33.5s14.667 -27.833 20 -44.5l73 -220h-45l-70 217c-10.667 32 -24.834 54.5 -42.501 67.5s-39.5 19.5 -65.5 19.5c-38.667 0 -73.167 0.333008 -103.5 1s-55.5 1.33398 -75.5 2.00098
s-34.333 1.33398 -43 2.00098l3 32h212c40 0.666992 71.833 5.66699 95.5 15s40.834 25.5 51.501 48.5s16 55.5 16 97.5s-5.33301 74.5 -16 97.5s-27.834 39.167 -51.501 48.5s-55.5 14 -95.5 14c-52 0 -96.833 -0.333008 -134.5 -1s-63.167 -1.33398 -76.5 -2.00098l-14 31
c24 2.66699 46.5 4.5 67.5 5.5s43.833 1.66699 68.5 2s54.334 0.5 89.001 0.5zM140.002 689.997v-690h-41v690h41z" />
    <glyph glyph-name="uni0157" unicode="&#x157;" horiz-adv-x="388" 
d="M110 -63c6 0 10.167 -1.16797 12.5 -3.50098s3.5 -6.5 3.5 -12.5v-57c-0.666992 -12 -1.66699 -24.833 -3 -38.5s-3.5 -27.667 -6.5 -42s-6.83301 -27.166 -11.5 -38.499l-17 5l3.5 47.5c1 13.667 1.5 32.167 1.5 55.5c-8 0 -11.667 4 -11 12l1 56
c-0.666992 6 0.333008 10.167 3 12.5s6.66699 3.5 12 3.5h12zM121 481.999l5 -89l4 -16v-377h-39v482h30zM366 493.999l-6 -37.999h-20c-33.333 0 -66.333 -8 -99 -24s-71 -38.333 -115 -67l-2 30c38.667 31.333 76.5 55.666 113.5 72.999s73.167 26 108.5 26h20z" />
    <glyph glyph-name="Rcaron" unicode="&#x158;" horiz-adv-x="610" 
d="M324 698c50 0 90.001 -5.50195 120.001 -16.502s51.667 -30.667 65 -59s20 -68.166 20 -119.499c0 -40 -4.33301 -72.833 -13 -98.5s-22.334 -45 -41.001 -58s-43 -21.5 -73 -25.5v-5c12 -2.66699 22.833 -8.66699 32.5 -18s18.5 -20.5 26.5 -33.5
s14.667 -27.833 20 -44.5l73 -220h-45l-70 217c-10.667 32 -24.834 54.5 -42.501 67.5s-39.5 19.5 -65.5 19.5c-38.667 0 -73.167 0.333008 -103.5 1s-55.5 1.33398 -75.5 2.00098s-34.333 1.33398 -43 2.00098l3 32h212c40 0.666992 71.833 5.66699 95.5 15
s40.834 25.5 51.501 48.5s16 55.5 16 97.5s-5.33301 74.5 -16 97.5s-27.834 39.167 -51.501 48.5s-55.5 14 -95.5 14c-52 0 -96.833 -0.333008 -134.5 -1s-63.167 -1.33398 -76.5 -2.00098l-14 31c24 2.66699 46.5 4.5 67.5 5.5s43.833 1.66699 68.5 2
s54.334 0.5 89.001 0.5zM140.001 689.998v-690h-41v690h41zM438.001 887.998l16 -18l-138 -120h-24l-139 120l18 18l129 -98h8z" />
    <glyph glyph-name="rcaron" unicode="&#x159;" horiz-adv-x="388" 
d="M121 482l5 -89l4 -16v-377h-39v482h30zM366 494l-6 -37.999h-20c-33.333 0 -66.333 -8 -99 -24s-71 -38.333 -115 -67l-2 30c38.667 31.333 76.5 55.666 113.5 72.999s73.167 26 108.5 26h20zM356 706.001l16 -18l-138 -120h-24l-139 120l18 18l129 -98h8z" />
    <glyph glyph-name="Sacute" unicode="&#x15a;" horiz-adv-x="556" 
d="M275 701c32 -0.666992 64.167 -2.00098 96.5 -4.00098s64.166 -5.33301 95.499 -10l-4 -30c-29.333 1.33301 -59.833 2.83301 -91.5 4.5s-63.5 2.5 -95.5 2.5c-30 0 -55.833 -1 -77.5 -3s-39.5 -7.33301 -53.5 -16s-24.167 -22.5 -30.5 -41.5s-9.5 -46.167 -9.5 -81.5
c0 -47.333 7.83301 -81.333 23.5 -102s42.167 -34 79.5 -40l150 -25c51.333 -7.33301 87.333 -25.166 108 -53.499s31 -71.833 31 -130.5c0 -40.667 -4.66699 -73.167 -14 -97.5s-23 -42.5 -41 -54.5s-40.333 -20 -67 -24s-58 -6 -94 -6c-26 0 -56 0.666992 -90 2
s-72.667 5 -116 11l3 31c29.333 -2 54.833 -3.5 76.5 -4.5s42.5 -1.66699 62.5 -2s42 -0.5 66 -0.5c42 0.666992 75.5 4.33398 100.5 11.001s43.167 20.334 54.5 41.001s17 51.667 17 93c0 34 -3.5 60.833 -10.5 80.5s-18.333 34.667 -34 45s-36.5 17.166 -62.5 20.499
l-150 25c-49.333 7.33301 -84.166 25.5 -104.499 54.5s-30.5 71.167 -30.5 126.5c0 40.667 4.33301 73.167 13 97.5s21.667 42.333 39 54s39.5 19.167 66.5 22.5s58.167 4.66602 93.5 3.99902zM382 900.999l26 -30l-163 -135l-18 19z" />
    <glyph glyph-name="sacute" unicode="&#x15b;" horiz-adv-x="501" 
d="M239 494c20 0 41 -0.49707 63 -1.49707s44 -2.5 66 -4.5s42.667 -4.33301 62 -7l-4 -29l-91.5 4c-31.667 1.33301 -62.167 2.33301 -91.5 3c-34 0.666992 -61.667 -0.333008 -83 -3s-37 -10.667 -47 -24s-15 -35.666 -15 -66.999c0 -32.667 6.83301 -55.334 20.5 -68.001
s32.834 -21 57.501 -25l157 -23c36 -6 63.333 -18.667 82 -38s28 -48.333 28 -87c0 -40.667 -7.5 -70.5 -22.5 -89.5s-36.833 -31.333 -65.5 -37s-64 -8.5 -106 -8.5c-22 0 -47.833 0.666992 -77.5 2s-63.5 4.66602 -101.5 9.99902l4 29c20 -1.33301 39 -2.5 57 -3.5
s36.167 -1.66699 54.5 -2s38.166 -0.5 59.499 -0.5c39.333 0.666992 70.5 3.16699 93.5 7.5s39.667 13.666 50 27.999s15.5 35.833 15.5 64.5c0 32 -7.83301 54.333 -23.5 67s-35.5 20.667 -59.5 24l-157 23c-22.667 3.33301 -42 9.83301 -58 19.5
s-27.833 23.167 -35.5 40.5s-11.5 39.666 -11.5 66.999c0 40 6.66699 69.167 20 87.5s33.333 30 60 35s60 7.16699 100 6.5zM355 720.003l26 -30l-163 -135l-18 19z" />
    <glyph glyph-name="Scircumflex" unicode="&#x15c;" horiz-adv-x="556" 
d="M275 701c32 -0.666992 64.167 -2.00098 96.5 -4.00098s64.166 -5.33301 95.499 -10l-4 -30c-29.333 1.33301 -59.833 2.83301 -91.5 4.5s-63.5 2.5 -95.5 2.5c-30 0 -55.833 -1 -77.5 -3s-39.5 -7.33301 -53.5 -16s-24.167 -22.5 -30.5 -41.5s-9.5 -46.167 -9.5 -81.5
c0 -47.333 7.83301 -81.333 23.5 -102s42.167 -34 79.5 -40l150 -25c51.333 -7.33301 87.333 -25.166 108 -53.499s31 -71.833 31 -130.5c0 -40.667 -4.66699 -73.167 -14 -97.5s-23 -42.5 -41 -54.5s-40.333 -20 -67 -24s-58 -6 -94 -6c-26 0 -56 0.666992 -90 2
s-72.667 5 -116 11l3 31c29.333 -2 54.833 -3.5 76.5 -4.5s42.5 -1.66699 62.5 -2s42 -0.5 66 -0.5c42 0.666992 75.5 4.33398 100.5 11.001s43.167 20.334 54.5 41.001s17 51.667 17 93c0 34 -3.5 60.833 -10.5 80.5s-18.333 34.667 -34 45s-36.5 17.166 -62.5 20.499
l-150 25c-49.333 7.33301 -84.166 25.5 -104.499 54.5s-30.5 71.167 -30.5 126.5c0 40.667 4.33301 73.167 13 97.5s21.667 42.333 39 54s39.5 19.167 66.5 22.5s58.167 4.66602 93.5 3.99902zM295 883.999l136 -119l-16 -19l-130 101h-8l-129 -101l-17 19l135 119h29z" />
    <glyph glyph-name="scircumflex" unicode="&#x15d;" horiz-adv-x="501" 
d="M239 494c20 0 41 -0.49707 63 -1.49707s44 -2.5 66 -4.5s42.667 -4.33301 62 -7l-4 -29l-91.5 4c-31.667 1.33301 -62.167 2.33301 -91.5 3c-34 0.666992 -61.667 -0.333008 -83 -3s-37 -10.667 -47 -24s-15 -35.666 -15 -66.999c0 -32.667 6.83301 -55.334 20.5 -68.001
s32.834 -21 57.501 -25l157 -23c36 -6 63.333 -18.667 82 -38s28 -48.333 28 -87c0 -40.667 -7.5 -70.5 -22.5 -89.5s-36.833 -31.333 -65.5 -37s-64 -8.5 -106 -8.5c-22 0 -47.833 0.666992 -77.5 2s-63.5 4.66602 -101.5 9.99902l4 29c20 -1.33301 39 -2.5 57 -3.5
s36.167 -1.66699 54.5 -2s38.166 -0.5 59.499 -0.5c39.333 0.666992 70.5 3.16699 93.5 7.5s39.667 13.666 50 27.999s15.5 35.833 15.5 64.5c0 32 -7.83301 54.333 -23.5 67s-35.5 20.667 -59.5 24l-157 23c-22.667 3.33301 -42 9.83301 -58 19.5
s-27.833 23.167 -35.5 40.5s-11.5 39.666 -11.5 66.999c0 40 6.66699 69.167 20 87.5s33.333 30 60 35s60 7.16699 100 6.5zM268 702.003l136 -119l-16 -19l-130 101h-8l-129 -101l-17 19l135 119h29z" />
    <glyph glyph-name="Scedilla" unicode="&#x15e;" horiz-adv-x="556" 
d="M275 701c32 -0.666992 64.167 -2.00098 96.5 -4.00098s64.166 -5.33301 95.499 -10l-4 -30c-29.333 1.33301 -59.833 2.83301 -91.5 4.5s-63.5 2.5 -95.5 2.5c-30 0 -55.833 -1 -77.5 -3s-39.5 -7.33301 -53.5 -16s-24.167 -22.5 -30.5 -41.5s-9.5 -46.167 -9.5 -81.5
c0 -47.333 7.83301 -81.333 23.5 -102s42.167 -34 79.5 -40l150 -25c51.333 -7.33301 87.333 -25.166 108 -53.499s31 -71.833 31 -130.5c0 -40.667 -4.66699 -73.167 -14 -97.5s-23 -42.5 -41 -54.5s-40.333 -20 -67 -24s-58 -6 -94 -6c-26 0 -56 0.666992 -90 2
s-72.667 5 -116 11l3 31c29.333 -2 54.833 -3.5 76.5 -4.5s42.5 -1.66699 62.5 -2s42 -0.5 66 -0.5c42 0.666992 75.5 4.33398 100.5 11.001s43.167 20.334 54.5 41.001s17 51.667 17 93c0 34 -3.5 60.833 -10.5 80.5s-18.333 34.667 -34 45s-36.5 17.166 -62.5 20.499
l-150 25c-49.333 7.33301 -84.166 25.5 -104.499 54.5s-30.5 71.167 -30.5 126.5c0 40.667 4.33301 73.167 13 97.5s21.667 42.333 39 54s39.5 19.167 66.5 22.5s58.167 4.66602 93.5 3.99902zM250 -58.001c19.333 1.33301 35.502 -0.00195312 48.502 -4.00195
s22.667 -11 29 -21s9.16602 -23.333 8.49902 -40c0 -24 -6.16699 -45 -18.5 -63s-29.333 -31.167 -51 -39.5s-47.167 -10.833 -76.5 -7.5l6 23c33.333 -1.33301 59.666 6.5 78.999 23.5s29 37.5 29 61.5c0 16.667 -4.16699 28.334 -12.5 35.001s-23.833 10.334 -46.5 11.001
z" />
    <glyph glyph-name="scedilla" unicode="&#x15f;" horiz-adv-x="501" 
d="M239 494c20 0 41 -0.49707 63 -1.49707s44 -2.5 66 -4.5s42.667 -4.33301 62 -7l-4 -29l-91.5 4c-31.667 1.33301 -62.167 2.33301 -91.5 3c-34 0.666992 -61.667 -0.333008 -83 -3s-37 -10.667 -47 -24s-15 -35.666 -15 -66.999c0 -32.667 6.83301 -55.334 20.5 -68.001
s32.834 -21 57.501 -25l157 -23c36 -6 63.333 -18.667 82 -38s28 -48.333 28 -87c0 -40.667 -7.5 -70.5 -22.5 -89.5s-36.833 -31.333 -65.5 -37s-64 -8.5 -106 -8.5c-22 0 -47.833 0.666992 -77.5 2s-63.5 4.66602 -101.5 9.99902l4 29c20 -1.33301 39 -2.5 57 -3.5
s36.167 -1.66699 54.5 -2s38.166 -0.5 59.499 -0.5c39.333 0.666992 70.5 3.16699 93.5 7.5s39.667 13.666 50 27.999s15.5 35.833 15.5 64.5c0 32 -7.83301 54.333 -23.5 67s-35.5 20.667 -59.5 24l-157 23c-22.667 3.33301 -42 9.83301 -58 19.5
s-27.833 23.167 -35.5 40.5s-11.5 39.666 -11.5 66.999c0 40 6.66699 69.167 20 87.5s33.333 30 60 35s60 7.16699 100 6.5zM216 -57.9971c19.333 1.33301 35.502 -0.00195312 48.502 -4.00195s22.667 -11 29 -21s9.16602 -23.333 8.49902 -40c0 -24 -6.16699 -45 -18.5 -63
s-29.333 -31.167 -51 -39.5s-47.167 -10.833 -76.5 -7.5l6 23c33.333 -1.33301 59.666 6.5 78.999 23.5s29 37.5 29 61.5c0 16.667 -4.16699 28.334 -12.5 35.001s-23.833 10.334 -46.5 11.001z" />
    <glyph glyph-name="Scaron" unicode="&#x160;" horiz-adv-x="556" 
d="M275 701c32 -0.666992 64.167 -2.00098 96.5 -4.00098s64.166 -5.33301 95.499 -10l-4 -30c-29.333 1.33301 -59.833 2.83301 -91.5 4.5s-63.5 2.5 -95.5 2.5c-30 0 -55.833 -1 -77.5 -3s-39.5 -7.33301 -53.5 -16s-24.167 -22.5 -30.5 -41.5s-9.5 -46.167 -9.5 -81.5
c0 -47.333 7.83301 -81.333 23.5 -102s42.167 -34 79.5 -40l150 -25c51.333 -7.33301 87.333 -25.166 108 -53.499s31 -71.833 31 -130.5c0 -40.667 -4.66699 -73.167 -14 -97.5s-23 -42.5 -41 -54.5s-40.333 -20 -67 -24s-58 -6 -94 -6c-26 0 -56 0.666992 -90 2
s-72.667 5 -116 11l3 31c29.333 -2 54.833 -3.5 76.5 -4.5s42.5 -1.66699 62.5 -2s42 -0.5 66 -0.5c42 0.666992 75.5 4.33398 100.5 11.001s43.167 20.334 54.5 41.001s17 51.667 17 93c0 34 -3.5 60.833 -10.5 80.5s-18.333 34.667 -34 45s-36.5 17.166 -62.5 20.499
l-150 25c-49.333 7.33301 -84.166 25.5 -104.499 54.5s-30.5 71.167 -30.5 126.5c0 40.667 4.33301 73.167 13 97.5s21.667 42.333 39 54s39.5 19.167 66.5 22.5s58.167 4.66602 93.5 3.99902zM417 887.999l16 -18l-138 -120h-24l-139 120l18 18l129 -98h8z" />
    <glyph glyph-name="scaron" unicode="&#x161;" horiz-adv-x="501" 
d="M239 494c20 0 41 -0.49707 63 -1.49707s44 -2.5 66 -4.5s42.667 -4.33301 62 -7l-4 -29l-91.5 4c-31.667 1.33301 -62.167 2.33301 -91.5 3c-34 0.666992 -61.667 -0.333008 -83 -3s-37 -10.667 -47 -24s-15 -35.666 -15 -66.999c0 -32.667 6.83301 -55.334 20.5 -68.001
s32.834 -21 57.501 -25l157 -23c36 -6 63.333 -18.667 82 -38s28 -48.333 28 -87c0 -40.667 -7.5 -70.5 -22.5 -89.5s-36.833 -31.333 -65.5 -37s-64 -8.5 -106 -8.5c-22 0 -47.833 0.666992 -77.5 2s-63.5 4.66602 -101.5 9.99902l4 29c20 -1.33301 39 -2.5 57 -3.5
s36.167 -1.66699 54.5 -2s38.166 -0.5 59.499 -0.5c39.333 0.666992 70.5 3.16699 93.5 7.5s39.667 13.666 50 27.999s15.5 35.833 15.5 64.5c0 32 -7.83301 54.333 -23.5 67s-35.5 20.667 -59.5 24l-157 23c-22.667 3.33301 -42 9.83301 -58 19.5
s-27.833 23.167 -35.5 40.5s-11.5 39.666 -11.5 66.999c0 40 6.66699 69.167 20 87.5s33.333 30 60 35s60 7.16699 100 6.5zM390 706.003l16 -18l-138 -120h-24l-139 120l18 18l129 -98h8z" />
    <glyph glyph-name="uni0162" unicode="&#x162;" horiz-adv-x="568" 
d="M304 690v-690h-41v690h41zM542 690v-36h-516v36h516zM252 -47c19.333 1.33301 35.502 -0.00195312 48.502 -4.00195s22.667 -11 29 -21s9.16602 -23.333 8.49902 -40c0 -24 -6.16699 -45 -18.5 -63s-29.333 -31.167 -51 -39.5s-47.167 -10.833 -76.5 -7.5l6 23
c33.333 -1.33301 59.666 6.5 78.999 23.5s29 37.5 29 61.5c0 16.667 -4.16699 28.334 -12.5 35.001s-23.833 10.334 -46.5 11.001z" />
    <glyph glyph-name="uni0163" unicode="&#x163;" horiz-adv-x="356" 
d="M159 631v-525.001c0 -26 6.5 -45.167 19.5 -57.5s32.167 -18.5 57.5 -18.5h84l5 -29c-9.33301 -1.33301 -20 -2.66602 -32 -3.99902s-23.333 -2.33301 -34 -3s-19.334 -1 -26.001 -1c-37.333 0 -65.666 9.33301 -84.999 28s-29 45.667 -29 81v529h40zM331 481.999v-34
h-299v29l94 5h205zM202 -54.001c19.333 1.33301 35.502 -0.00195312 48.502 -4.00195s22.667 -11 29 -21s9.16602 -23.333 8.49902 -40c0 -24 -6.16699 -45 -18.5 -63s-29.333 -31.167 -51 -39.5s-47.167 -10.833 -76.5 -7.5l6 23c33.333 -1.33301 59.666 6.5 78.999 23.5
s29 37.5 29 61.5c0 16.667 -4.16699 28.334 -12.5 35.001s-23.833 10.334 -46.5 11.001z" />
    <glyph glyph-name="Tcaron" unicode="&#x164;" horiz-adv-x="568" 
d="M304 690v-690h-41v690h41zM542 690v-36h-516v36h516zM420 888l16 -18l-138 -120h-24l-139 120l18 18l129 -98h8z" />
    <glyph glyph-name="tcaron" unicode="&#x165;" horiz-adv-x="356" 
d="M159 631v-525.001c0 -26 6.5 -45.167 19.5 -57.5s32.167 -18.5 57.5 -18.5h84l5 -29c-9.33301 -1.33301 -20 -2.66602 -32 -3.99902s-23.333 -2.33301 -34 -3s-19.334 -1 -26.001 -1c-37.333 0 -65.666 9.33301 -84.999 28s-29 45.667 -29 81v529h40zM331 481.999v-34
h-299v29l94 5h205zM285 749.999c5.33301 0 9.16699 -1.33301 11.5 -4s3.83301 -6.33398 4.5 -11.001l-1 -55c-0.666992 -17.333 -2.66699 -36.333 -6 -57s-7.66602 -39.667 -12.999 -57l-17 5l3.5 45.5c1 13 1.5 30.5 1.5 52.5c-7.33301 0 -10.666 4 -9.99902 12l1 54
c-0.666992 4.66699 0.166016 8.33398 2.49902 11.001s6.16602 4 11.499 4h11z" />
    <glyph glyph-name="Tbar" unicode="&#x166;" horiz-adv-x="568" 
d="M451 404v-28h-339v28h339zM304 690v-690h-41v690h41zM542 690v-36h-516v36h516z" />
    <glyph glyph-name="tbar" unicode="&#x167;" horiz-adv-x="356" 
d="M309 316v-27h-261v27h261zM159 631v-525.001c0 -26 6.5 -45.167 19.5 -57.5s32.167 -18.5 57.5 -18.5h84l5 -29c-9.33301 -1.33301 -20 -2.66602 -32 -3.99902s-23.333 -2.33301 -34 -3s-19.334 -1 -26.001 -1c-37.333 0 -65.666 9.33301 -84.999 28s-29 45.667 -29 81
v529h40zM331 481.999v-34h-299v29l94 5h205z" />
    <glyph glyph-name="Utilde" unicode="&#x168;" horiz-adv-x="667" 
d="M573 690l0.000976562 -433c0 -64.667 -7.83301 -116.667 -23.5 -156s-40.834 -68 -75.501 -86s-81 -27 -139 -27c-59.333 0 -106.5 9 -141.5 27s-60.333 46.667 -76 86s-23.5 91.333 -23.5 156v433h41v-433c0 -56.667 6.5 -102 19.5 -136s34 -58.5 63 -73.5
s67.833 -22.5 116.5 -22.5c48 0 86.5 7.5 115.5 22.5s50 39.5 63 73.5s19.5 79.333 19.5 136v433h41zM262.001 869c14.667 -1.33301 27.6689 -5.1709 39.002 -11.5039s22.166 -13.333 32.499 -21s21.166 -14.5 32.499 -20.5s24 -10 38 -12
c20.667 -1.33301 35.167 2.83398 43.5 12.501s12.5 25.5 12.5 47.5h23c2 -30.667 -4.16699 -54.167 -18.5 -70.5s-33.5 -23.5 -57.5 -21.5c-22 2 -40.5 8 -55.5 18s-29.167 20 -42.5 30s-28.333 15.667 -45 17c-20 2 -34.167 -2.16699 -42.5 -12.5
s-12.5 -27.166 -12.5 -50.499h-23c-1.33301 22 1.16699 40.333 7.5 55s15.5 25.334 27.5 32.001s25.667 9.33398 41 8.00098z" />
    <glyph glyph-name="utilde" unicode="&#x169;" horiz-adv-x="563" 
d="M127 482l0.000976562 -354c-0.666992 -36 7.33301 -62.333 24 -79s42.334 -25 77.001 -25c33.333 0 65.666 8 96.999 24s68.666 39.333 111.999 70l3 -33c-39.333 -32 -77.333 -56.167 -114 -72.5s-73 -24.5 -109 -24.5c-86.667 0 -130 44 -130 132v362h40zM472.001 482
v-482h-31l-4 89l-5 16v377h40zM209.001 689c14.667 -1.33301 27.6689 -5.1709 39.002 -11.5039s22.166 -13.333 32.499 -21s21.166 -14.5 32.499 -20.5s24 -10 38 -12c20.667 -1.33301 35.167 2.83398 43.5 12.501s12.5 25.5 12.5 47.5h23
c2 -30.667 -4.16699 -54.167 -18.5 -70.5s-33.5 -23.5 -57.5 -21.5c-22 2 -40.5 8 -55.5 18s-29.167 20 -42.5 30s-28.333 15.667 -45 17c-20 2 -34.167 -2.16699 -42.5 -12.5s-12.5 -27.166 -12.5 -50.499h-23c-1.33301 22 1.16699 40.333 7.5 55s15.5 25.334 27.5 32.001
s25.667 9.33398 41 8.00098z" />
    <glyph glyph-name="Umacron" unicode="&#x16a;" horiz-adv-x="667" 
d="M573 690l0.000976562 -433c0 -64.667 -7.83301 -116.667 -23.5 -156s-40.834 -68 -75.501 -86s-81 -27 -139 -27c-59.333 0 -106.5 9 -141.5 27s-60.333 46.667 -76 86s-23.5 91.333 -23.5 156v433h41v-433c0 -56.667 6.5 -102 19.5 -136s34 -58.5 63 -73.5
s67.833 -22.5 116.5 -22.5c48 0 86.5 7.5 115.5 22.5s50 39.5 63 73.5s19.5 79.333 19.5 136v433h41zM467.001 832v-33h-264v33h264z" />
    <glyph glyph-name="umacron" unicode="&#x16b;" horiz-adv-x="563" 
d="M127 482l0.000976562 -354c-0.666992 -36 7.33301 -62.333 24 -79s42.334 -25 77.001 -25c33.333 0 65.666 8 96.999 24s68.666 39.333 111.999 70l3 -33c-39.333 -32 -77.333 -56.167 -114 -72.5s-73 -24.5 -109 -24.5c-86.667 0 -130 44 -130 132v362h40zM472.001 482
v-482h-31l-4 89l-5 16v377h40zM413.001 652v-33h-264v33h264z" />
    <glyph glyph-name="Ubreve" unicode="&#x16c;" horiz-adv-x="667" 
d="M573 690l0.000976562 -433c0 -64.667 -7.83301 -116.667 -23.5 -156s-40.834 -68 -75.501 -86s-81 -27 -139 -27c-59.333 0 -106.5 9 -141.5 27s-60.333 46.667 -76 86s-23.5 91.333 -23.5 156v433h41v-433c0 -56.667 6.5 -102 19.5 -136s34 -58.5 63 -73.5
s67.833 -22.5 116.5 -22.5c48 0 86.5 7.5 115.5 22.5s50 39.5 63 73.5s19.5 79.333 19.5 136v433h41zM449.001 875l24.998 -4c0.666992 -24 -4.66602 -45 -15.999 -63s-27.333 -31.833 -48 -41.5s-45.667 -14.5 -75 -14.5c-28.667 0 -53.667 4.83301 -75 14.5
s-37.666 23.5 -48.999 41.5s-16.666 39 -15.999 63l24 4c0 -28 10.333 -49.833 31 -65.5s49 -23.5 85 -23.5c35.333 0 63.166 7.83301 83.499 23.5s30.5 37.5 30.5 65.5z" />
    <glyph glyph-name="ubreve" unicode="&#x16d;" horiz-adv-x="563" 
d="M127 482l0.000976562 -354c-0.666992 -36 7.33301 -62.333 24 -79s42.334 -25 77.001 -25c33.333 0 65.666 8 96.999 24s68.666 39.333 111.999 70l3 -33c-39.333 -32 -77.333 -56.167 -114 -72.5s-73 -24.5 -109 -24.5c-86.667 0 -130 44 -130 132v362h40zM472.001 482
v-482h-31l-4 89l-5 16v377h40zM395.001 695l24.998 -4c0.666992 -24 -4.66602 -45 -15.999 -63s-27.333 -31.833 -48 -41.5s-45.667 -14.5 -75 -14.5c-28.667 0 -53.667 4.83301 -75 14.5s-37.666 23.5 -48.999 41.5s-16.666 39 -15.999 63l24 4
c0 -28 10.333 -49.833 31 -65.5s49 -23.5 85 -23.5c35.333 0 63.166 7.83301 83.499 23.5s30.5 37.5 30.5 65.5z" />
    <glyph glyph-name="Uring" unicode="&#x16e;" horiz-adv-x="667" 
d="M573 690l0.000976562 -433c0 -64.667 -7.83301 -116.667 -23.5 -156s-40.834 -68 -75.501 -86s-81 -27 -139 -27c-59.333 0 -106.5 9 -141.5 27s-60.333 46.667 -76 86s-23.5 91.333 -23.5 156v433h41v-433c0 -56.667 6.5 -102 19.5 -136s34 -58.5 63 -73.5
s67.833 -22.5 116.5 -22.5c48 0 86.5 7.5 115.5 22.5s50 39.5 63 73.5s19.5 79.333 19.5 136v433h41zM335.001 915c18.667 0 35.333 -4.33301 50 -13s26.5 -20.334 35.5 -35.001s13.5 -31 13.5 -49c0 -17.333 -4.33301 -33.5 -13 -48.5s-20.5 -27 -35.5 -36
s-31.833 -13.5 -50.5 -13.5c-18 0 -34.5 4.33301 -49.5 13s-27 20.5 -36 35.5s-13.5 31.5 -13.5 49.5s4.5 34.333 13.5 49s21 26.334 36 35.001s31.5 13 49.5 13zM335 890c-20 0 -36.833 -6.83301 -50.5 -20.5s-20.5 -31.167 -20.5 -52.5
c0 -20.667 6.83301 -37.834 20.5 -51.501s30.5 -20.5 50.5 -20.5c20.667 0 37.667 6.83301 51 20.5s20 30.834 20 51.501c0 21.333 -6.66699 38.833 -20 52.5s-30.333 20.5 -51 20.5z" />
    <glyph glyph-name="uring" unicode="&#x16f;" horiz-adv-x="563" 
d="M127 482l0.000976562 -354c-0.666992 -36 7.33301 -62.333 24 -79s42.334 -25 77.001 -25c33.333 0 65.666 8 96.999 24s68.666 39.333 111.999 70l3 -33c-39.333 -32 -77.333 -56.167 -114 -72.5s-73 -24.5 -109 -24.5c-86.667 0 -130 44 -130 132v362h40zM472.001 482
v-482h-31l-4 89l-5 16v377h40zM281.001 734c18.667 0 35.333 -4.33301 50 -13s26.5 -20.334 35.5 -35.001s13.5 -31 13.5 -49c0 -17.333 -4.33301 -33.5 -13 -48.5s-20.5 -27 -35.5 -36s-31.833 -13.5 -50.5 -13.5c-18 0 -34.5 4.33301 -49.5 13s-27 20.5 -36 35.5
s-13.5 31.5 -13.5 49.5s4.5 34.333 13.5 49s21 26.334 36 35.001s31.5 13 49.5 13zM281 709c-20 0 -36.833 -6.83301 -50.5 -20.5s-20.5 -31.167 -20.5 -52.5c0 -20.667 6.83301 -37.834 20.5 -51.501s30.5 -20.5 50.5 -20.5c20.667 0 37.667 6.83301 51 20.5
s20 30.834 20 51.501c0 21.333 -6.66699 38.833 -20 52.5s-30.333 20.5 -51 20.5z" />
    <glyph glyph-name="Uhungarumlaut" unicode="&#x170;" horiz-adv-x="667" 
d="M573 690l0.000976562 -433c0 -64.667 -7.83301 -116.667 -23.5 -156s-40.834 -68 -75.501 -86s-81 -27 -139 -27c-59.333 0 -106.5 9 -141.5 27s-60.333 46.667 -76 86s-23.5 91.333 -23.5 156v433h41v-433c0 -56.667 6.5 -102 19.5 -136s34 -58.5 63 -73.5
s67.833 -22.5 116.5 -22.5c48 0 86.5 7.5 115.5 22.5s50 39.5 63 73.5s19.5 79.333 19.5 136v433h41zM338.001 909l32 -22l-121 -154l-22 14zM484.001 909l32 -22l-121 -154l-22 14z" />
    <glyph glyph-name="uhungarumlaut" unicode="&#x171;" horiz-adv-x="563" 
d="M127 482l0.000976562 -354c-0.666992 -36 7.33301 -62.333 24 -79s42.334 -25 77.001 -25c33.333 0 65.666 8 96.999 24s68.666 39.333 111.999 70l3 -33c-39.333 -32 -77.333 -56.167 -114 -72.5s-73 -24.5 -109 -24.5c-86.667 0 -130 44 -130 132v362h40zM472.001 482
v-482h-31l-4 89l-5 16v377h40zM284.001 728l32 -22l-121 -154l-22 14zM430.001 728l32 -22l-121 -154l-22 14z" />
    <glyph glyph-name="Uogonek" unicode="&#x172;" horiz-adv-x="667" 
d="M573 690l0.000976562 -433c0 -64.667 -7.83301 -116.667 -23.5 -156s-40.834 -68 -75.501 -86s-81 -27 -139 -27c-59.333 0 -106.5 9 -141.5 27s-60.333 46.667 -76 86s-23.5 91.333 -23.5 156v433h41v-433c0 -56.667 6.5 -102 19.5 -136s34 -58.5 63 -73.5
s67.833 -22.5 116.5 -22.5c48 0 86.5 7.5 115.5 22.5s50 39.5 63 73.5s19.5 79.333 19.5 136v433h41zM350.001 -7l23.999 -2.00098c-17.333 -17.333 -33.333 -36 -48 -56s-26.667 -42.333 -36 -67c-10.667 -29.333 -7.5 -48.666 9.5 -57.999s43.5 -7.66602 79.5 5.00098
l5 -18c-27.333 -12 -50.333 -18.333 -69 -19s-33.167 3.16602 -43.5 11.499s-16.666 19.5 -18.999 33.5s-0.5 29.333 5.5 46c6 17.333 16.167 36.333 30.5 57s34.833 43 61.5 67z" />
    <glyph glyph-name="uogonek" unicode="&#x173;" horiz-adv-x="563" 
d="M127 482l0.000976562 -354c-0.666992 -36 7.33301 -62.333 24 -79s42.334 -25 77.001 -25c33.333 0 65.666 8 96.999 24s68.666 39.333 111.999 70l3 -33c-39.333 -32 -77.333 -56.167 -114 -72.5s-73 -24.5 -109 -24.5c-86.667 0 -130 44 -130 132v362h40zM472.001 482
v-482h-31l-4 89l-5 16v377h40zM449.001 2l23.999 -2.00098c-17.333 -17.333 -33.333 -36 -48 -56s-26.667 -42.333 -36 -67c-10.667 -29.333 -7.5 -48.666 9.5 -57.999s43.5 -7.66602 79.5 5.00098l5 -18c-27.333 -12 -50.333 -18.333 -69 -19s-33.167 3.16602 -43.5 11.499
s-16.666 19.5 -18.999 33.5s-0.5 29.333 5.5 46c6 17.333 16.167 36.333 30.5 57s34.833 43 61.5 67z" />
    <glyph glyph-name="Wcircumflex" unicode="&#x174;" horiz-adv-x="935" 
d="M902 690l-171.997 -676c-0.666992 -4 -2.83398 -7.33301 -6.50098 -10s-7.83398 -4 -12.501 -4h-57c-4.66699 -0 -8.66699 1.33301 -12 4s-5.66602 6.33398 -6.99902 11.001l-137 564l-9.5 39.5c-3 13 -6.16699 25.833 -9.5 38.5h-23
c-3.33301 -12.667 -6.5 -25.5 -9.5 -38.5l-9.5 -39.5l-137 -564c-0.666992 -4.66699 -2.83398 -8.33398 -6.50098 -11.001s-7.83398 -4 -12.501 -4h-57c-5.33301 -0 -9.66602 1.33301 -12.999 4s-5.66602 6 -6.99902 10l-172 676h44l146 -583
c3.33301 -12 6.33301 -24.167 9 -36.5l8 -36.5h27c3.33301 12 6.33301 24 9 36l8 36l139 568c1.33301 4.66699 3.66602 8.5 6.99902 11.5s7.33301 4.5 12 4.5h53c4.66699 0 8.66699 -1.5 12 -4.5s5.66602 -6.83301 6.99902 -11.5l139 -567
c3.33301 -12.667 6.33301 -25 9 -37s5 -24 7 -36h27c3.33301 12 6.33301 24 9 36l8 36l147 584h43zM482.003 884l136 -119l-16 -19l-130 101h-8l-129 -101l-17 19l135 119h29z" />
    <glyph glyph-name="wcircumflex" unicode="&#x175;" horiz-adv-x="815" 
d="M783 482l-160.003 -469c-1.33301 -4 -3.5 -7.16699 -6.5 -9.5s-6.83301 -3.5 -11.5 -3.5h-39c-4.66699 -0 -8.66699 1.33301 -12 4s-5.66602 6 -6.99902 10l-113 365l-10 36.5c-3.33301 12.333 -7 24.5 -11 36.5h-11l-10.5 -36.5
c-3.66699 -12.333 -7.5 -24.5 -11.5 -36.5l-112 -365c-1.33301 -4 -3.66602 -7.33301 -6.99902 -10s-7.33301 -4 -12 -4h-39c-4 0 -7.66699 1.16699 -11 3.5s-5.66602 5.5 -6.99902 9.5l-160 469h42l128 -385c4 -11.333 7.5 -22.5 10.5 -33.5s6.5 -21.833 10.5 -32.5h13
c3.33301 11.333 6.83301 22.5 10.5 33.5s7.16699 22.167 10.5 33.5l114 370c1.33301 4 3.66602 7.33301 6.99902 10s7 4 11 4h38c4 0 7.66699 -1.33301 11 -4s5.33301 -6 6 -10l115 -370c2.66699 -11.333 5.83398 -22.5 9.50098 -33.5s7.16699 -22.167 10.5 -33.5h13
c4 11.333 7.5 22.5 10.5 33.5s6.5 22.167 10.5 33.5l128 384h42zM420.997 702l136 -119l-16 -19l-130 101h-8l-129 -101l-17 19l135 119h29z" />
    <glyph glyph-name="Ycircumflex" unicode="&#x176;" horiz-adv-x="548" 
d="M528 690l-236.998 -444h-33l-239 444h45l171 -322l18 -35l18 -36h6c5.33301 12 11.166 23.833 17.499 35.5s12.166 23.167 17.499 34.5l171 323h45zM295.002 285v-285h-42v285h42zM288.002 881l136 -119l-16 -19l-130 101h-8l-129 -101l-17 19l135 119h29z" />
    <glyph glyph-name="ycircumflex" unicode="&#x177;" horiz-adv-x="512" 
d="M486 482l-215.003 -524c-8.66699 -20 -17.834 -39 -27.501 -57s-21.167 -34.5 -34.5 -49.5s-28.666 -27.667 -45.999 -38s-38 -17.833 -62 -22.5l-6 25c39.333 14.667 69.333 35 90 61s37.334 55.667 50.001 89l21 50c4.66699 11.333 9.33398 23.5 14.001 36.5
s9.33398 24.833 14.001 35.5l158 394h44zM69.9971 482l157.998 -395c3.33301 -9.33301 7 -18.333 11 -27s7.33301 -17.667 10 -27h20l-14 -33h-19c-3.33301 0 -6.66602 1 -9.99902 3s-5.66602 5 -6.99902 9l-192 470h43zM271.995 702l136 -119l-16 -19l-130 101h-8
l-129 -101l-17 19l135 119h29z" />
    <glyph glyph-name="Ydieresis" unicode="&#x178;" horiz-adv-x="548" 
d="M528 690l-236.998 -444h-33l-239 444h45l171 -322l18 -35l18 -36h6c5.33301 12 11.166 23.833 17.499 35.5s12.166 23.167 17.499 34.5l171 323h45zM295.002 285v-285h-42v285h42zM370.002 857c9.33301 0 14 -4.66699 14 -14v-56c0 -9.33301 -4.66699 -14 -14 -14h-15
c-8.66699 0 -13 4.66699 -13 14v56c0 9.33301 4.33301 14 13 14h15zM193.002 857c8.66699 0 13 -4.66699 13 -14v-56c0 -9.33301 -4.33301 -14 -13 -14h-15c-8.66699 0 -13 4.66699 -13 14v56c0 9.33301 4.33301 14 13 14h15z" />
    <glyph glyph-name="Zacute" unicode="&#x179;" horiz-adv-x="560" 
d="M459 655l46 -1l-408 -619l-46 1zM510 36v-36h-459v36h459zM505 690v-36h-450v36h450zM380 901l26 -30l-163 -135l-18 19z" />
    <glyph glyph-name="zacute" unicode="&#x17a;" horiz-adv-x="502" 
d="M400 448l47 -1l-348 -414l-47 1zM450 34v-34h-398v34h398zM447 482v-35h-392v35h392zM348 720l26 -30l-163 -135l-18 19z" />
    <glyph glyph-name="Zdotaccent" unicode="&#x17b;" horiz-adv-x="560" 
d="M459 655l46 -1l-408 -619l-46 1zM510 36v-36h-459v36h459zM505 690v-36h-450v36h450zM287 861c10.667 0 16 -5 16 -15v-61c0 -10 -5.33301 -15 -16 -15h-14c-10.667 0 -16 5 -16 15v61c0 10 5.33301 15 16 15h14z" />
    <glyph glyph-name="zdotaccent" unicode="&#x17c;" horiz-adv-x="502" 
d="M400 448l47 -1l-348 -414l-47 1zM450 34v-34h-398v34h398zM447 482v-35h-392v35h392zM255 680c10.667 0 16 -5 16 -15v-61c0 -10 -5.33301 -15 -16 -15h-14c-10.667 0 -16 5 -16 15v61c0 10 5.33301 15 16 15h14z" />
    <glyph glyph-name="Zcaron" unicode="&#x17d;" horiz-adv-x="560" 
d="M459 655l46 -1l-408 -619l-46 1zM510 36v-36h-459v36h459zM505 690v-36h-450v36h450zM415 888l16 -18l-138 -120h-24l-139 120l18 18l129 -98h8z" />
    <glyph glyph-name="zcaron" unicode="&#x17e;" horiz-adv-x="502" 
d="M400 448l47 -1l-348 -414l-47 1zM450 34v-34h-398v34h398zM447 482v-35h-392v35h392zM383 706l16 -18l-138 -120h-24l-139 120l18 18l129 -98h8z" />
    </font>
</defs>
</svg>
