<?xml version="1.0" standalone="no"?>
<!DOCTYPE svg PUBLIC "-//W3C//DTD SVG 1.1//EN" "http://www.w3.org/Graphics/SVG/1.1/DTD/svg11.dtd" >
<svg>
<metadata>
Created by FontForge 20090914 at Fri Feb  3 23:26:37 2023
 By www-data
Copyright 2013 The Exo 2 Project Authors (https://github.com/NDISCOVER/Exo-2.0)
</metadata>
<defs>
<font id="Exo2-Bold" horiz-adv-x="590" >
  <font-face 
    font-family="Exo 2"
    font-weight="700"
    font-stretch="normal"
    units-per-em="1000"
    panose-1="0 0 0 0 0 0 0 0 0 0"
    ascent="800"
    descent="-200"
    x-height="494"
    cap-height="690"
    bbox="-461 -291.999 1266 1101"
    underline-thickness="50"
    underline-position="-50"
    unicode-range="U+000D-U+FB02"
  />
<missing-glyph 
d="M121 690v-690h-41v690h41zM510 690v-690h-41v690h41zM80 690h430v-41h-430v41zM80 41h430v-41h-430v41z" />
    <glyph glyph-name="fi" unicode="fi" horiz-adv-x="667" 
d="M266 721c16.667 0 37.999 -0.832031 63.999 -2.49902s49 -4.5 69 -8.5v-95h-80c-25.333 0 -42.833 -5.33301 -52.5 -16s-14.5 -29.334 -14.5 -56.001v-543h-149v562c0 32 5.33301 60 16 84s27.834 42.5 51.501 55.5s55.5 19.5 95.5 19.5zM459.999 494.001v-97h-442v92
l88 5h354zM601.999 494.001v-494h-147v494h147zM559.999 717.001c29.333 0 44 -14.667 44 -44v-54c0 -30 -14.667 -45 -44 -45h-63c-29.333 0 -44 15 -44 45v54c0 29.333 14.667 44 44 44h63z" />
    <glyph glyph-name="fl" unicode="fl" horiz-adv-x="721" 
d="M264 721l44.499 -0.00195312c19.667 0 42.5 -0.333008 68.5 -1s53 -1.66699 81 -3s55.167 -3.16602 81.5 -5.49902s49.5 -5.5 69.5 -9.5v-549c0 -17.333 4.5 -30.166 13.5 -38.499s22.5 -12.5 40.5 -12.5h37l16 -94c-7.33301 -4 -18.166 -7.5 -32.499 -10.5
s-29.166 -5.33301 -44.499 -7s-28 -2.5 -38 -2.5c-43.333 0 -77.333 11.333 -102 34s-37 54 -37 94v501h-145c-24.667 0.666992 -41.834 -4.5 -51.501 -15.5s-14.5 -30.5 -14.5 -58.5v-543h-149v562c0 32 5.16699 60 15.5 84s27.333 42.5 51 55.5s55.5 19.5 95.5 19.5z
M375.999 493.998v-97h-358v92l87 5h271z" />
    <glyph glyph-name="f_f" unicode="ff" horiz-adv-x="757" 
d="M266 709c10.667 0 24.665 -0.332031 41.998 -0.999023s35.166 -1.66699 53.499 -3s33.833 -3.33301 46.5 -6l-13 -95h-79c-25.333 0 -43 -4.66699 -53 -14s-15 -27 -15 -53v-537h-144v556c0.666992 30.667 6.33398 57.667 17.001 81s27.834 41.166 51.501 53.499
s54.834 18.5 93.501 18.5zM619.998 721.001c12 0 27.666 -0.331055 46.999 -0.998047s39.333 -1.83398 60 -3.50098s38.334 -3.83398 53.001 -6.50098l-13 -95h-97c-25.333 0 -42.833 -5 -52.5 -15s-14.5 -27.333 -14.5 -52v-548h-145v567c0 31.333 5.33301 58.333 16 81
s27.667 40.5 51 53.5s55 19.5 95 19.5zM741.997 494.003v-97h-724v92l89 5h635z" />
    <glyph glyph-name="f_f_i" unicode="ffi" horiz-adv-x="1015" 
d="M262 709c10.667 0 24.6689 -0.332031 42.002 -0.999023s35.166 -1.66699 53.499 -3s34.166 -3.33301 47.499 -6l-14 -95h-79c-25.333 0 -42.833 -4.66699 -52.5 -14s-14.5 -27 -14.5 -53v-537h-145v556c0.666992 30.667 6.5 57.667 17.5 81s28.333 41.166 52 53.499
s54.5 18.5 92.5 18.5zM808.002 494.001v-97h-790v92l89 5h701zM618.002 721.001c16.667 0 37.666 -0.832031 62.999 -2.49902s48 -4.5 68 -8.5v-95h-79c-27.333 0 -46 -5.33301 -56 -16s-15 -29.334 -15 -56.001v-543h-144v562c0 32 5.33301 60 16 84
s27.834 42.5 51.501 55.5s55.5 19.5 95.5 19.5zM950.001 494.002v-494h-147v494h147zM908.001 717.002c29.333 0 44 -14.667 44 -44v-54c0 -30 -14.667 -45 -44 -45h-63c-29.333 0 -44 15 -44 45v54c0 29.333 14.667 44 44 44h63z" />
    <glyph glyph-name="f_f_l" unicode="ffl" horiz-adv-x="1076" 
d="M266 709c10.667 0 24.665 -0.332031 41.998 -0.999023s35.166 -1.66699 53.499 -3s33.833 -3.33301 46.5 -6l-13 -95h-79c-25.333 0 -43 -4.66699 -53 -14s-15 -27 -15 -53v-537h-144v556c0.666992 30.667 6.33398 57.667 17.001 81s27.834 41.166 51.501 53.499
s54.834 18.5 93.501 18.5zM619.998 721.001l43.999 -0.00195312c20 0 42.833 -0.333008 68.5 -1s52.5 -1.66699 80.5 -3s55.167 -3.16602 81.5 -5.49902s49.833 -5.5 70.5 -9.5v-549c0 -17.333 4.5 -30.166 13.5 -38.499s22.167 -12.5 39.5 -12.5h37l17 -94
c-8 -4 -19.167 -7.5 -33.5 -10.5s-29 -5.33301 -44 -7s-27.833 -2.5 -38.5 -2.5c-42.667 0 -76.5 11.333 -101.5 34s-37.5 54 -37.5 94v501h-148c-23.333 0.666992 -40.166 -4.5 -50.499 -15.5s-15.5 -30.5 -15.5 -58.5v-543h-145v562c0 32 5.16699 60 15.5 84
s27.333 42.5 51 55.5s55.5 19.5 95.5 19.5zM732.997 493.999v-97h-715v92l89 5h626z" />
    <glyph glyph-name=".notdef" 
d="M121 690v-690h-41v690h41zM510 690v-690h-41v690h41zM80 690h430v-41h-430v41zM80 41h430v-41h-430v41z" />
    <glyph glyph-name="CR" unicode="&#xd;" horiz-adv-x="216" 
 />
    <glyph glyph-name="space" unicode=" " horiz-adv-x="216" 
 />
    <glyph glyph-name="exclam" unicode="!" horiz-adv-x="301" 
d="M224 695v-270l-15 -206h-117l-15 206v270h147zM168 152c19.333 0 32.833 -3.83301 40.5 -11.5s11.5 -21.167 11.5 -40.5v-48c0 -19.333 -3.83301 -32.833 -11.5 -40.5s-21.167 -11.5 -40.5 -11.5h-34c-20 -0 -33.667 3.83301 -41 11.5s-11 21.167 -11 40.5v48
c0 19.333 3.66699 32.833 11 40.5s21 11.5 41 11.5h34z" />
    <glyph glyph-name="quotedbl" unicode="&#x22;" horiz-adv-x="373" 
d="M321 690l-9 -222h-89l-9 222h107zM160 690l-9 -222h-90l-9 222h108z" />
    <glyph glyph-name="numbersign" unicode="#" horiz-adv-x="713" 
d="M347 690l-120 -690h-112l120 690h112zM598 690l-120 -690h-112l120 690h112zM680 515l-18 -89h-587l17 89h588zM638 286l-18 -89h-587l17 89h588z" />
    <glyph glyph-name="dollar" unicode="$" horiz-adv-x="580" 
d="M295 703c34 0 70.667 -1.83203 110 -5.49902s77.666 -11.167 114.999 -22.5l-10 -101c-28.667 0.666992 -62.5 1.33398 -101.5 2.00098s-77.167 1 -114.5 1c-18 0 -33.333 -0.5 -46 -1.5s-23 -3.66699 -31 -8s-13.667 -10.833 -17 -19.5s-5 -20.667 -5 -36
c0 -23.333 5.5 -40.333 16.5 -51s30.167 -20.334 57.5 -29.001l129 -43c54 -18.667 91.667 -44 113 -76s32 -74 32 -126c0 -39.333 -4.5 -72 -13.5 -98s-23.5 -46.333 -43.5 -61s-46 -25.167 -78 -31.5s-71.333 -9.5 -118 -9.5c-22.667 0 -54.667 1.5 -96 4.5
s-88.666 10.5 -141.999 22.5l9 109c38.667 -0.666992 72.334 -1.5 101.001 -2.5s53.334 -1.5 74.001 -1.5h53c26 0 46.5 1.66699 61.5 5s25.5 9.66602 31.5 18.999s9 23.333 9 42c0 16 -2.16699 28.833 -6.5 38.5s-11.333 17.334 -21 23.001s-22.834 10.834 -39.501 15.501
l-137 48c-52 19.333 -88.833 44.666 -110.5 75.999s-32.5 72.666 -32.5 123.999c0 40 4.66699 72.5 14 97.5s24.166 44.5 44.499 58.5s46.5 23.667 78.5 29s70 8 114 8zM262 358.001l49 -1l-42 -475h-49zM369 794.001l-43 -437l-50 1l43 436h50z" />
    <glyph glyph-name="percent" unicode="%" horiz-adv-x="908" 
d="M205 704c42.667 0 76.667 -6.5 102 -19.5s43.333 -34.5 54 -64.5s16 -70.667 16 -122c0 -50.667 -5.33301 -91 -16 -121s-28.667 -51.667 -54 -65s-59.333 -20 -102 -20c-42 0 -75.5 6.66699 -100.5 20s-43 35 -54 65s-16.5 70.333 -16.5 121c0 51.333 5.5 92 16.5 122
s29 51.5 54 64.5s58.5 19.5 100.5 19.5zM205 622c-16 0 -28.333 -3.33301 -37 -10s-14.834 -18.834 -18.501 -36.501s-5.5 -43.5 -5.5 -77.5s1.83301 -59.833 5.5 -77.5s9.83398 -29.834 18.501 -36.501s21 -10 37 -10c16.667 0 29.334 3.33301 38.001 10
s14.834 18.834 18.501 36.501s5.5 43.5 5.5 77.5s-1.83301 59.833 -5.5 77.5s-9.83398 29.834 -18.501 36.501s-21.334 10 -38.001 10zM706 690l-413 -690h-93l413 690h93zM702 399c42.667 0 76.5 -6.5 101.5 -19.5s42.833 -34.333 53.5 -64s16 -70.167 16 -121.5
c0 -50.667 -5.33301 -91.167 -16 -121.5s-28.5 -52 -53.5 -65s-58.833 -19.5 -101.5 -19.5c-42 0 -75.5 6.5 -100.5 19.5s-43 34.667 -54 65s-16.5 70.833 -16.5 121.5c0 51.333 5.5 91.833 16.5 121.5s29 51 54 64s58.5 19.5 100.5 19.5zM701 317
c-16 0 -28.5 -3.16699 -37.5 -9.5s-15.167 -18.333 -18.5 -36s-5 -43.5 -5 -77.5s1.66699 -60 5 -78s9.5 -30.167 18.5 -36.5s21.5 -9.5 37.5 -9.5c16.667 0 29.334 3.16699 38.001 9.5s15 18.5 19 36.5s6 44 6 78s-2 59.833 -6 77.5s-10.333 29.667 -19 36
s-21.334 9.5 -38.001 9.5z" />
    <glyph glyph-name="ampersand" unicode="&#x26;" horiz-adv-x="766" 
d="M341 702c21.333 0 46.333 -0.500977 75 -1.50098s58 -4.5 88 -10.5l-18 -103c-8 0.666992 -17.667 1.16699 -29 1.5s-23.666 0.666016 -36.999 0.999023s-27 0.5 -41 0.5h-42c-28 0 -50.167 -2.16699 -66.5 -6.5s-27.833 -13.166 -34.5 -26.499s-10 -33.333 -10 -60
c0 -24 2.83301 -42.667 8.5 -56s15.334 -22.666 29.001 -27.999s32.5 -8 56.5 -8h393v-99h-401c-26 0 -46.333 -3 -61 -9s-24.834 -16 -30.501 -30s-8.5 -34.667 -8.5 -62c0 -25.333 2.5 -45 7.5 -59s14.167 -23.833 27.5 -29.5s32 -8.5 56 -8.5
c34.667 0.666992 67.667 5.66699 99 15s58 23 80 41l14 -83c-19.333 -22 -40 -40 -62 -54s-46.833 -24 -74.5 -30s-60.834 -9 -99.501 -9c-49.333 0 -89.5 6 -120.5 18s-53.5 31.667 -67.5 59s-21 64.333 -21 111c0 52.667 10 94.5 30 125.5s55.333 48.833 106 53.5v6
c-42 4 -71.667 19 -89 45s-26 64 -26 114c0 40.667 5 73.167 15 97.5s25.833 42.5 47.5 54.5s49.5 20 83.5 24s75 6 123 6zM607 512.999l0.000976562 -356c0 -18 3.66699 -31 11 -39s19.666 -12 36.999 -12h62l17 -98c-11.333 -4 -25.166 -7.5 -41.499 -10.5
s-32.333 -5.33301 -48 -7s-28.834 -2.5 -39.501 -2.5c-44 0 -77.833 11.333 -101.5 34s-35.5 54 -35.5 94v244l14 153h125z" />
    <glyph glyph-name="quotesingle" unicode="'" horiz-adv-x="212" 
d="M160 690l-9 -222h-90l-9 222h108z" />
    <glyph glyph-name="parenleft" unicode="(" horiz-adv-x="366" 
d="M330 790l17 -65c-59.333 -26.667 -101.5 -75.167 -126.5 -145.5s-37.5 -159.166 -37.5 -266.499c0 -70 5.5 -132.667 16.5 -188s28.5 -101.833 52.5 -139.5s55.667 -66.167 95 -85.5l-17 -65c-100.667 32 -174.334 86.5 -221.001 163.5s-70 181.5 -70 313.5
c0 132.667 23.333 237.667 70 315s120.334 131.666 221.001 162.999z" />
    <glyph glyph-name="parenright" unicode=")" horiz-adv-x="366" 
d="M36 790c100.667 -31.333 174.334 -85.666 221.001 -162.999s70 -182.333 70 -315c0 -132 -23.333 -236.5 -70 -313.5s-120.334 -131.5 -221.001 -163.5l-17 65c39.333 19.333 71 47.833 95 85.5s41.5 84.167 52.5 139.5s16.5 118 16.5 188
c0 107.333 -12.5 196.166 -37.5 266.499s-67.167 118.833 -126.5 145.5z" />
    <glyph glyph-name="asterisk" unicode="*" horiz-adv-x="453" 
d="M268 692l-12 -169l106 -129l-65 -48l-70 121l-70 -120l-67 48l108 128l-13 169h83zM64 612l116 -49l-1 -36l-18 -22l-123 29zM390 612l25 -79l-122 -28l-19 22l-1 36z" />
    <glyph glyph-name="plus" unicode="+" horiz-adv-x="537" 
d="M496 356v-110h-455v110h455zM323 523v-444h-109l-1 444h110z" />
    <glyph glyph-name="comma" unicode="," horiz-adv-x="242" 
d="M137 152c19.333 0 32.6641 -3.83203 39.9971 -11.499s11.333 -21.167 12 -40.5v-64c0 -26 -2.16699 -49.667 -6.5 -71s-10.166 -41 -17.499 -59s-16.333 -35.667 -27 -53l-60 18c5.33301 22 9 43.167 11 63.5s3.33301 42.166 4 65.499c-28 -0 -42.333 15.333 -43 46l2 54
c0.666992 19.333 4.83398 32.833 12.501 40.5s20.834 11.5 39.501 11.5h33z" />
    <glyph glyph-name="hyphen" unicode="-" horiz-adv-x="414" 
d="M356 302v-94h-298v94h298z" />
    <glyph glyph-name="period" unicode="." horiz-adv-x="244" 
d="M141 152c19.333 0 32.833 -3.83301 40.5 -11.5s11.5 -21.167 11.5 -40.5v-48c0 -19.333 -3.83301 -32.833 -11.5 -40.5s-21.167 -11.5 -40.5 -11.5h-38c-19.333 -0 -32.833 3.83301 -40.5 11.5s-11.5 21.167 -11.5 40.5v48c0 19.333 3.83301 32.833 11.5 40.5
s21.167 11.5 40.5 11.5h38z" />
    <glyph glyph-name="slash" unicode="/" horiz-adv-x="553" 
d="M532 690l-393 -763h-118l393 763h118z" />
    <glyph glyph-name="zero" unicode="0" horiz-adv-x="631" 
d="M315 704c66 0 118.5 -11.667 157.5 -35s67 -61.166 84 -113.499s25.5 -122.5 25.5 -210.5s-8.5 -158.167 -25.5 -210.5s-45 -90.166 -84 -113.499s-91.5 -35 -157.5 -35s-118.5 11.667 -157.5 35s-66.833 61.166 -83.5 113.499s-25 122.5 -25 210.5
s8.33301 158.167 25 210.5s44.5 90.166 83.5 113.499s91.5 35 157.5 35zM314 584c-22 0 -40.333 -3.66699 -55 -11s-26.334 -19.666 -35.001 -36.999s-14.834 -41.5 -18.501 -72.5s-5.5 -70.5 -5.5 -118.5c0 -47.333 1.83301 -86.666 5.5 -117.999
s9.83398 -55.666 18.501 -72.999s20.334 -29.666 35.001 -36.999s33 -11 55 -11c22.667 0 41.5 3.66699 56.5 11s27 19.666 36 36.999s15.333 41.666 19 72.999s5.5 70.666 5.5 117.999c0 48 -1.83301 87.5 -5.5 118.5s-10 55.167 -19 72.5s-21 29.666 -36 36.999
s-33.833 11 -56.5 11z" />
    <glyph glyph-name="one" unicode="1" horiz-adv-x="432" 
d="M340 690l-0.000976562 -690h-152v489c0 12.667 0.333008 25.167 1 37.5s2.33398 24.833 5.00098 37.5l-164 -42l-18 99l176 69h152z" />
    <glyph glyph-name="two" unicode="2" horiz-adv-x="581" 
d="M284 702c48 0 89.3311 -4.16895 123.998 -12.502s61.667 -24.166 81 -47.499s29 -57 29 -101c0 -26 -3.16699 -50.167 -9.5 -72.5s-17.666 -45.5 -33.999 -69.5s-39.833 -52.333 -70.5 -85l-181 -187c16.667 2.66699 33.5 4.5 50.5 5.5s34.167 1.5 51.5 1.5h213v-134
h-494v82c0 12 1.66699 23.167 5 33.5s8.66602 19.833 15.999 28.5l172 184c40.667 42 71.834 79.333 93.501 112s32.167 61 31.5 85c-0.666992 14.667 -4.5 25.334 -11.5 32.001s-17.5 11 -31.5 13s-31.333 3 -52 3c-23.333 0 -45.166 -0.166992 -65.499 -0.5
s-42 -1.16602 -65 -2.49902s-49.833 -3.33301 -80.5 -6l-6 114c32.667 7.33301 62.167 12.666 88.5 15.999s51.333 5.5 75 6.5s47.167 1.5 70.5 1.5z" />
    <glyph glyph-name="three" unicode="3" horiz-adv-x="567" 
d="M272 704c54.667 0 98.498 -4.83203 131.498 -14.499s57 -26.167 72 -49.5s22.5 -55.666 22.5 -96.999c0 -32 -3 -60.167 -9 -84.5s-16.667 -44.166 -32 -59.499s-37.333 -25.333 -66 -30v-4c47.333 -7.33301 80 -25.333 98 -54s27.333 -68.334 28 -119.001
c0.666992 -48 -6.66602 -87.167 -21.999 -117.5s-40.5 -52.666 -75.5 -66.999s-81.833 -21.5 -140.5 -21.5c-40 0 -80.333 1.83301 -121 5.5s-80 8.16699 -118 13.5l6 112c26.667 -2 50.5 -3.5 71.5 -4.5s41.167 -1.83301 60.5 -2.5s39 -1 59 -1
c32.667 0 58.334 2.83301 77.001 8.5s32 16 40 31s12 36.167 12 63.5c0 21.333 -2.83301 39.166 -8.5 53.499s-16.167 25.333 -31.5 33s-37.666 11.167 -66.999 10.5l-131 -1v101h131c22 0 39.333 2.5 52 7.5s22.167 11.667 28.5 20s10.5 18.166 12.5 29.499
s3 23.666 3 36.999c-0.666992 22 -4.16699 38.667 -10.5 50s-17.333 19 -33 23s-37.5 6 -65.5 6c-34.667 0 -68.167 -0.5 -100.5 -1.5s-60.833 -1.83301 -85.5 -2.5l-7 107c37.333 6.66699 74.166 11.5 110.499 14.5s72.5 4.5 108.5 4.5z" />
    <glyph glyph-name="four" unicode="4" horiz-adv-x="637" 
d="M356 690l-166.001 -396.998c-4.66699 -10.667 -4.66699 -18.834 0 -24.501s11.667 -8.5 21 -8.5h396v-91l-85 -15h-421c-18.667 0 -34.667 5.16699 -48 15.5s-22.166 23.666 -26.499 39.999s-2.83301 32.833 4.5 49.5l181 431h144zM522.999 556.002v-556h-141v446l25 110
h116z" />
    <glyph glyph-name="five" unicode="5" horiz-adv-x="552" 
d="M490 690l-5.00098 -115.003h-287l-8 -130l101 -11c42 -4 77.167 -12 105.5 -24s50.833 -27.667 67.5 -47s28.667 -41.666 36 -66.999s11 -53.666 11 -84.999c0 -30 -3.66699 -58.5 -11 -85.5s-19.833 -50.833 -37.5 -71.5s-42.167 -36.834 -73.5 -48.501
s-71.333 -17.5 -120 -17.5c-32 0 -68.167 1.83301 -108.5 5.5s-81.166 8.83398 -122.499 15.501l14 117c32.667 -3.33301 64.5 -6.16602 95.5 -8.49902s58.5 -3.5 82.5 -3.5c35.333 0 62 3.66699 80 11s30.5 18.5 37.5 33.5s11.167 33.833 12.5 56.5
c0.666992 22 -1.83301 39.5 -7.5 52.5s-15 23.167 -28 30.5s-30 12.5 -51 15.5s-46.833 5.5 -77.5 7.5l-86 10c-14 2 -25.333 7.83301 -34 17.5s-12.667 21.5 -12 35.5l17 306h409z" />
    <glyph glyph-name="six" unicode="6" 
d="M341 702c16.667 0 40.0029 -0.833008 70.0029 -2.5s61.333 -7.16699 94 -16.5l-8 -96c-17.333 0.666992 -33.333 1.16699 -48 1.5s-30.334 0.5 -47.001 0.5h-61c-29.333 0 -53.5 -3.16699 -72.5 -9.5s-33.667 -18.5 -44 -36.5s-17.333 -44.5 -21 -79.5
s-5.5 -80.833 -5.5 -137.5c0 -46 1 -83.667 3 -113s6.5 -52.166 13.5 -68.499s17.833 -27.666 32.5 -33.999s35 -9.5 61 -9.5c30 0 52 4.66699 66 14s23 23.666 27 42.999s6 44 6 74c0 29.333 -2.66699 52.333 -8 69s-15.166 28.334 -29.499 35.001s-34.5 10 -60.5 10
c-18.667 0 -35.834 -2.33301 -51.501 -7s-32.334 -12.5 -50.001 -23.5s-39.5 -26.5 -65.5 -46.5l-4 58c22 33.333 43 59.166 63 77.499s42 31 66 38s52.667 10.5 86 10.5c51.333 0 91.166 -7.33301 119.499 -22s48.333 -37.834 60 -69.501s17.5 -73.834 17.5 -126.501
c0 -40.667 -3.16699 -76.5 -9.5 -107.5s-18.333 -56.833 -36 -77.5s-42.334 -36.167 -74.001 -46.5s-73.167 -15.5 -124.5 -15.5c-50 0 -91.667 5.33301 -125 16s-59.5 28.834 -78.5 54.501s-32.5 61 -40.5 106s-12 101.5 -12 169.5c0 80 6 144.333 18 193s30 85.667 54 111
s54.333 42.333 91 51s79.334 13 128.001 13z" />
    <glyph glyph-name="seven" unicode="7" horiz-adv-x="528" 
d="M443 690c16.667 0 30.499 -3.66797 41.499 -11.001s18.5 -17 22.5 -29s3.33301 -25.667 -2 -41l-211 -609h-150l176 501c4 11.333 8.33301 22.333 13 33s10.334 21.334 17.001 32.001h-317l-7 124h417z" />
    <glyph glyph-name="eight" unicode="8" horiz-adv-x="623" 
d="M312 702c50 0 90.665 -3.66699 121.998 -11s55.833 -18.333 73.5 -33s29.834 -33.667 36.501 -57s10 -51 10 -83c0 -26.667 -3.5 -51.5 -10.5 -74.5s-18 -42 -33 -57s-34.833 -23.833 -59.5 -26.5v-4c32 -2.66699 56.667 -12.5 74 -29.5s29.333 -38.833 36 -65.5
s10 -56.334 10 -89.001c0 -44 -7 -79.667 -21 -107s-39.667 -47 -77 -59s-91 -18 -161 -18c-68.667 0 -121.667 6 -159 18s-63.333 31.667 -78 59s-22 63 -22 107c0 32.667 3.33301 62.334 10 89.001s18.667 48.5 36 65.5s42 26.833 74 29.5v4
c-24.667 2.66699 -44.667 11.5 -60 26.5s-26.5 34 -33.5 57s-10.5 47.833 -10.5 74.5c0 32 3.5 59.667 10.5 83s19.333 42.333 37 57s42.334 25.667 74.001 33s72.167 11 121.5 11zM313.998 307c-24 0 -43.666 -1.5 -58.999 -4.5s-27.333 -8.33301 -36 -16
s-14.667 -18.334 -18 -32.001s-5 -31.5 -5 -53.5c0 -25.333 3.16699 -45.333 9.5 -60s18 -24.834 35 -30.501s41.167 -8.5 72.5 -8.5c30.667 0 54.167 2.83301 70.5 8.5s27.5 15.834 33.5 30.501s9 34.667 9 60c0 22 -1.66699 39.833 -5 53.5s-9 24.334 -17 32.001
s-19.333 13 -34 16s-33.334 4.5 -56.001 4.5zM312.999 596c-28.667 0 -50.502 -2.66699 -65.502 -8s-25.5 -15 -31.5 -29s-9 -34 -9 -60c0 -24.667 3 -43.5 9 -56.5s16.833 -21.833 32.5 -26.5s37.834 -7 66.501 -7s50.334 2.5 65.001 7.5s24.5 14 29.5 27
s7.5 31.5 7.5 55.5c0 26 -2.66699 46 -8 60s-15.5 23.667 -30.5 29s-36.833 8 -65.5 8z" />
    <glyph glyph-name="nine" unicode="9" 
d="M286 702c53.333 0 96.4971 -5.5 129.497 -16.5s58.333 -29.5 76 -55.5s29.834 -61.5 36.501 -106.5s10 -102.167 10 -171.5c0 -78 -5.33301 -141 -16 -189s-27.334 -84.667 -50.001 -110s-52.5 -42.5 -89.5 -51.5s-81.833 -13.5 -134.5 -13.5
c-18 0 -42.833 0.833008 -74.5 2.5s-65.834 7.16699 -102.501 16.5l8 97c19.333 -0.666992 36.5 -1.16699 51.5 -1.5s31.5 -0.5 49.5 -0.5h68c30 0 54.333 3.66699 73 11s33.167 20.5 43.5 39.5s17.333 45.333 21 79s5.5 76.5 5.5 128.5c0 46.667 -0.833008 85 -2.5 115
s-5.83398 53.333 -12.501 70s-17.167 28.167 -31.5 34.5s-34.166 9.5 -59.499 9.5c-29.333 0 -51.166 -4.66699 -65.499 -14s-23.666 -23.833 -27.999 -43.5s-6.5 -44.5 -6.5 -74.5c0 -26.667 2.66699 -48.5 8 -65.5s15 -29.333 29 -37s33.667 -11.5 59 -11.5
c18.667 0 35.5 2.5 50.5 7.5s31.333 13.167 49 24.5s39.5 26.666 65.5 45.999l4 -58c-22 -33.333 -43.167 -59.166 -63.5 -77.499s-42.166 -31 -65.499 -38s-51.666 -10.5 -84.999 -10.5c-50 0 -89.167 9.16699 -117.5 27.5s-48.333 43.833 -60 76.5
s-17.5 70.334 -17.5 113.001c0 57.333 7.16699 104.166 21.5 140.499s39.333 63.333 75 81s85.167 26.5 148.5 26.5z" />
    <glyph glyph-name="colon" unicode=":" horiz-adv-x="257" 
d="M142 451c19.333 0 32.833 -3.83301 40.5 -11.5s11.5 -21.167 11.5 -40.5v-48c0 -19.333 -3.83301 -32.833 -11.5 -40.5s-21.167 -11.5 -40.5 -11.5h-38c-19.333 0 -32.833 3.83301 -40.5 11.5s-11.5 21.167 -11.5 40.5v48c0 19.333 3.83301 32.833 11.5 40.5
s21.167 11.5 40.5 11.5h38zM142 153c19.333 0 32.833 -3.83301 40.5 -11.5s11.5 -21.167 11.5 -40.5v-48c0 -19.333 -3.83301 -32.833 -11.5 -40.5s-21.167 -11.5 -40.5 -11.5h-38c-19.333 0 -32.833 3.83301 -40.5 11.5s-11.5 21.167 -11.5 40.5v48
c0 19.333 3.83301 32.833 11.5 40.5s21.167 11.5 40.5 11.5h38z" />
    <glyph glyph-name="semicolon" unicode=";" horiz-adv-x="257" 
d="M149 451c19.333 0 32.833 -3.83301 40.5 -11.5s11.5 -21.167 11.5 -40.5v-48c0 -19.333 -3.83301 -32.833 -11.5 -40.5s-21.167 -11.5 -40.5 -11.5h-38c-19.333 0 -32.833 3.83301 -40.5 11.5s-11.5 21.167 -11.5 40.5v48c0 19.333 3.83301 32.833 11.5 40.5
s21.167 11.5 40.5 11.5h38zM145 152c19.333 0 32.6641 -3.83203 39.9971 -11.499s11.333 -21.167 12 -40.5v-64c0 -26 -2.16699 -49.667 -6.5 -71s-10.166 -41 -17.499 -59s-16.333 -35.667 -27 -53l-60 18c5.33301 22 9 43.167 11 63.5s3.33301 42.166 4 65.499
c-28 -0 -42.333 15.333 -43 46l2 54c0.666992 19.333 4.83398 32.833 12.501 40.5s20.834 11.5 39.501 11.5h33z" />
    <glyph glyph-name="less" unicode="&#x3c;" horiz-adv-x="517" 
d="M460 524v-116l-295 -107l295 -106v-116l-421 164v115z" />
    <glyph glyph-name="equal" unicode="=" horiz-adv-x="578" 
d="M519 457v-105h-460v105h460zM519 243v-105h-460v105h460z" />
    <glyph glyph-name="greater" unicode="&#x3e;" horiz-adv-x="516" 
d="M57 524l419 -166v-115l-419 -164v116l294 106l-294 107v116z" />
    <glyph glyph-name="question" unicode="?" horiz-adv-x="521" 
d="M274 712c72.667 0 126.669 -12.498 162.002 -37.498s53 -64.167 53 -117.5c0 -29.333 -5.83301 -54.666 -17.5 -75.999s-26 -40.833 -43 -58.5l-52 -54c-17.667 -18.333 -33 -39.333 -46 -63s-20.833 -52.5 -23.5 -86.5h-119
c-1.33301 35.333 2.33398 66.166 11.001 92.499s20.167 49.5 34.5 69.5s28.833 38.167 43.5 54.5s27.167 31.833 37.5 46.5s16.166 29.667 17.499 45c2 23.333 -4.33301 40.166 -19 50.499s-39.334 15.5 -74.001 15.5c-33.333 0 -60.833 -0.166992 -82.5 -0.5
s-41.334 -1 -59.001 -2s-37.834 -1.83301 -60.501 -2.5l-5 99c18.667 4 35.834 7.33301 51.501 10s32 5.16699 49 7.5s36.667 4.16602 59 5.49902s49.833 2 82.5 2zM265.002 152.002c19.333 0 32.666 -3.83301 39.999 -11.5s11 -21.167 11 -40.5v-48
c0 -19.333 -3.66699 -32.833 -11 -40.5s-20.666 -11.5 -39.999 -11.5h-36c-19.333 0 -32.666 3.83301 -39.999 11.5s-11 21.167 -11 40.5v48c0 19.333 3.66699 32.833 11 40.5s20.666 11.5 39.999 11.5h36z" />
    <glyph glyph-name="at" unicode="@" horiz-adv-x="760" 
d="M528 601c56 0 99.168 -12.165 129.501 -36.498s45.5 -67.5 45.5 -129.5v-300h-109l-12 69c-10.667 -12.667 -24.834 -25.167 -42.501 -37.5s-37.834 -22.333 -60.501 -30s-47.334 -11.5 -74.001 -11.5s-50.834 4.66699 -72.501 14s-38.834 23.166 -51.501 41.499
s-19 40.833 -19 67.5v48c0 34.667 11.333 61.834 34 81.501s55 29.5 97 29.5h174v27c0 21.333 -4.83301 36.666 -14.5 45.999s-27.5 14 -53.5 14h-123c-40.667 0 -73.167 -1.66699 -97.5 -5s-42.666 -11.833 -54.999 -25.5s-20.5 -36 -24.5 -67s-6 -73.833 -6 -128.5
c0 -45.333 1.5 -82.5 4.5 -111.5s8.66699 -51.5 17 -67.5s20.833 -27.5 37.5 -34.5s38.5 -11.167 65.5 -12.5s60.5 -2 100.5 -2h284v-96c-46.667 -4 -93.667 -7.16699 -141 -9.5s-94.666 -3.5 -141.999 -3.5c-65.333 0 -119.666 2.33301 -162.999 7s-78.5 13.5 -105.5 26.5
s-47.167 31.833 -60.5 56.5s-22.166 57.167 -26.499 97.5s-6.5 90.166 -6.5 149.499c0 58.667 1.83301 107.667 5.5 147s11.5 71.333 23.5 96s29.667 43.5 53 56.5s54.333 21.833 93 26.5s86.667 7 144 7h152zM567.001 337.002l-124.002 -4.99902
c-16.667 -0.666992 -29 -4.5 -37 -11.5s-12 -17.167 -12 -30.5v-20c0 -16 4.5 -27.833 13.5 -35.5s21.833 -11.5 38.5 -11.5c12.667 0 26.334 1.83301 41.001 5.5s28.834 8.66699 42.501 15s26.167 14.166 37.5 23.499v70z" />
    <glyph glyph-name="A" unicode="A" horiz-adv-x="653" 
d="M399 690c12.667 0 23.8311 -3.66797 33.498 -11.001s16.167 -17 19.5 -29l200 -650h-156l-141 507l-8 34.5c-2.66699 11.667 -5 22.834 -7 33.501h-27l-6.5 -33.5c-2.33301 -11.667 -5.16602 -23.167 -8.49902 -34.5l-141 -507h-157l201 650
c3.33301 12 9.83301 21.667 19.5 29s20.834 11 33.501 11h145zM504.997 296.999v-115h-358v115h358z" />
    <glyph glyph-name="B" unicode="B" horiz-adv-x="640" 
d="M331 698c60 0 107.831 -5.16602 143.498 -15.499s61.5 -28.5 77.5 -54.5s24 -62.667 24 -110c0 -49.333 -9.5 -86.833 -28.5 -112.5s-50.167 -40.5 -93.5 -44.5v-6c53.333 -4.66699 90.666 -22.5 111.999 -53.5s32 -74.167 32 -129.5c0 -47.333 -8.16699 -84 -24.5 -110
s-41.666 -44.167 -75.999 -54.5s-79.166 -15.5 -134.499 -15.5c-44.667 0 -83.5 0.166992 -116.5 0.5s-63.5 1.16602 -91.5 2.49902s-56.667 3 -86 5l15 106c16 -0.666992 46.833 -1.33398 92.5 -2.00098s98.834 -1 159.501 -1c28 0 50 2.66699 66 8
s27.167 15.166 33.5 29.499s9.5 34.833 9.5 61.5c0 28.667 -3.33301 50.5 -10 65.5s-18.167 25.5 -34.5 31.5s-38.833 9.33301 -67.5 10h-250v97h248c24.667 0.666992 44.167 3.33398 58.5 8.00098s24.5 13.667 30.5 27s9 32 9 56c0 24.667 -3.16699 43.5 -9.5 56.5
s-17.166 21.833 -32.499 26.5s-36.666 7 -63.999 7h-99c-28.667 0 -54.334 -0.166992 -77.001 -0.5s-43.667 -1.16602 -63 -2.49902l-15 106c26.667 2.66699 52.5 4.5 77.5 5.5s52.167 1.66699 81.5 2s63.666 0.5 102.999 0.5zM218.998 690.001v-690h-150v690h150z" />
    <glyph glyph-name="C" unicode="C" horiz-adv-x="588" 
d="M339 702c32.667 0 60.499 -0.832031 83.499 -2.49902s44.167 -4.16699 63.5 -7.5s39.333 -8 60 -14l-12 -112c-22 1.33301 -42.167 2.33301 -60.5 3s-38 1.16699 -59 1.5s-46.167 0.5 -75.5 0.5c-34 0 -60.5 -6.66699 -79.5 -20s-32.5 -36.5 -40.5 -69.5
s-12 -78.5 -12 -136.5s4 -103.5 12 -136.5s21.5 -56.167 40.5 -69.5s45.5 -20 79.5 -20c46 0 84.667 0.666992 116 2s62.333 3.66602 93 6.99902l13 -112c-32 -10 -64.667 -17.167 -98 -21.5s-74.666 -6.5 -123.999 -6.5c-71.333 0 -128.5 11.5 -171.5 34.5
s-74 60.5 -93 112.5s-28.5 122 -28.5 210s9.5 158 28.5 210s50 89.5 93 112.5s100.167 34.5 171.5 34.5z" />
    <glyph glyph-name="D" unicode="D" horiz-adv-x="683" 
d="M340 700c54.667 0 100.834 -5.82812 138.501 -17.4951s68 -30.834 91 -57.501s39.833 -62.834 50.5 -108.501s16 -102.834 16 -171.501s-5.33301 -125.834 -16 -171.501s-27.5 -81.834 -50.5 -108.501s-53.333 -45.834 -91 -57.501s-83.834 -17.5 -138.501 -17.5
c-52.667 0 -101 1 -145 3s-86 4.33301 -126 7l64 113c25.333 -1.33301 55.5 -2.5 90.5 -3.5s73.833 -1.5 116.5 -1.5c34 0 60.833 6.83301 80.5 20.5s33.667 37.834 42 72.501s12.5 82.667 12.5 144s-4.16699 109.333 -12.5 144s-22.333 59 -42 73s-46.5 21 -80.5 21
c-40.667 0 -77 -0.166992 -109 -0.5s-63.333 -0.5 -94 -0.5l-68 108c40 2.66699 81.833 5 125.5 7s92.167 3 145.5 3zM222 690.005v-690h-153v690h153z" />
    <glyph glyph-name="E" unicode="E" horiz-adv-x="578" 
d="M211 693c37.333 0 75 -0.166016 113 -0.499023s75.333 -1.16602 112 -2.49902s71 -3.66602 103 -6.99902l-7 -111h-265c-16.667 0 -29.167 -4.33301 -37.5 -13s-12.5 -21.334 -12.5 -38.001v-352c0 -16.667 4.16699 -29.334 12.5 -38.001s20.833 -13 37.5 -13h265l7 -111
c-32 -2.66699 -66.333 -4.83398 -103 -6.50098s-74 -2.66699 -112 -3s-75.667 -0.5 -113 -0.5c-44 0 -79.5 12.833 -106.5 38.5s-40.5 59.167 -40.5 100.5v418c0 42 13.5 75.667 40.5 101s62.5 38 106.5 38zM82 413.001h413v-108h-413v108z" />
    <glyph glyph-name="F" unicode="F" horiz-adv-x="557" 
d="M216 693c35.333 0 71.499 -0.166992 108.499 -0.5s73.333 -1.33301 109 -3s68.834 -4.16699 99.501 -7.5l-8 -110h-250c-18 0 -31.667 -4.33301 -41 -13s-14 -21.334 -14 -38.001v-521h-153v552c0 42.667 13.667 76.834 41 102.501s63.333 38.5 108 38.5zM84.999 401h403
v-108h-403v108z" />
    <glyph glyph-name="G" unicode="G" horiz-adv-x="648" 
d="M354 704c30 0 57.3359 -1.00098 82.0029 -3.00098s48.167 -4.66699 70.5 -8s44.166 -8.33301 65.499 -15l-12 -111c-23.333 1.33301 -46 2.33301 -68 3s-44 1.16699 -66 1.5s-45 0.5 -69 0.5c-28.667 0 -52.5 -3 -71.5 -9s-34.167 -17.167 -45.5 -33.5
s-19.5 -39.666 -24.5 -69.999s-7.5 -69.166 -7.5 -116.499c0 -57.333 3.66699 -102.333 11 -135s19.666 -55.834 36.999 -69.501s40.666 -20.5 69.999 -20.5c20 0 38.333 2 55 6s32 9.5 46 16.5s27 13.833 39 20.5l16 -72c-10 -14 -24.833 -29 -44.5 -45
s-43.5 -29.667 -71.5 -41s-60 -17 -96 -17c-52 0 -94.5 12.333 -127.5 37s-57.167 63.5 -72.5 116.5s-23 121.833 -23 206.5c0 90 9.83301 161 29.5 213s52 89.167 97 111.5s105.167 33.5 180.5 33.5zM596.003 397.999v-398h-113l-21 105l-14 28v265h148z" />
    <glyph glyph-name="H" unicode="H" horiz-adv-x="691" 
d="M223 690v-690h-153v690h153zM479 425v-115h-264v115h264zM621 690v-690h-153v690h153z" />
    <glyph glyph-name="I" unicode="I" horiz-adv-x="292" 
d="M222 690v-690h-152v690h152z" />
    <glyph glyph-name="J" unicode="J" horiz-adv-x="372" 
d="M305 690l-0.00195312 -554c0 -48 -13.833 -84.667 -41.5 -110s-66.5 -38 -116.5 -38c-12 0 -26.167 0.833008 -42.5 2.5s-32.166 4 -47.499 7s-27.666 6.5 -36.999 10.5l16 99h49c45.333 0 68 18.667 68 56v527h152z" />
    <glyph glyph-name="K" unicode="K" horiz-adv-x="634" 
d="M617 690l-180 -278c-7.33301 -12 -15.333 -22.333 -24 -31s-17.334 -16 -26.001 -22v-3c9.33301 -5.33301 19.333 -13.333 30 -24s19.334 -22 26.001 -34l186 -298h-171l-213 361l207 329h165zM222 690v-194.999c0 -22.667 -1.66699 -45.167 -5 -67.5
s-8.66602 -44.166 -15.999 -65.499c5.33301 -20.667 10.166 -41.834 14.499 -63.501s6.5 -41.834 6.5 -60.501v-238h-152v690h152zM300 412.001v-106h-124v106h124z" />
    <glyph glyph-name="L" unicode="L" horiz-adv-x="536" 
d="M220 690l0.000976562 -515.999c0 -16.667 4.66699 -29.334 14 -38.001s22.666 -13 39.999 -13h241l7 -115c-47.333 -5.33301 -96.833 -8.5 -148.5 -9.5s-103.167 -1.5 -154.5 -1.5c-50 0 -87.833 13.5 -113.5 40.5s-38.5 61.5 -38.5 103.5v549h153z" />
    <glyph glyph-name="M" unicode="M" horiz-adv-x="915" 
d="M776 690c36 0 54.667 -18.667 56 -56l26 -634h-141l-23 572h-18l-111 -430c-6 -32 -26 -48 -60 -48h-96c-34 0 -54.667 16 -62 48l-111 430h-17l-21 -572h-142l26 634c1.33301 37.333 20.333 56 57 56h143c32.667 0 52.667 -16.333 60 -49l89 -347
c4 -16 7.33301 -32.167 10 -48.5s5.66699 -32.833 9 -49.5h13l9.5 49.5l9.5 49.5l88 346c6.66699 32.667 26.667 49 60 49h146z" />
    <glyph glyph-name="N" unicode="N" horiz-adv-x="722" 
d="M653 690l0.000976562 -635c0 -36.667 -18.333 -55 -55 -55h-84c-16.667 -0 -29.334 3.83301 -38.001 11.5s-16.667 19.167 -24 34.5l-191 362c-8 15.333 -15.833 32.333 -23.5 51s-14.167 36.667 -19.5 54h-11c2 -18 3.66699 -36.167 5 -54.5s2 -36.5 2 -54.5v-404h-145
v635c0 36.667 18.667 55 56 55h83c16 0 28.167 -3.83301 36.5 -11.5s16.5 -19.167 24.5 -34.5l185 -351c8 -15.333 16.333 -32.333 25 -51s17 -38 25 -58h12c-2 20 -3.5 39.5 -4.5 58.5s-1.5 37.833 -1.5 56.5l-1 391h144z" />
    <glyph glyph-name="O" unicode="O" horiz-adv-x="688" 
d="M344 704c54.667 0 101 -5.83301 139 -17.5s68.5 -31 91.5 -58s39.833 -63.667 50.5 -110s16 -104.166 16 -173.499s-5.33301 -127.166 -16 -173.499s-27.5 -83 -50.5 -110s-53.5 -46.333 -91.5 -58s-84.333 -17.5 -139 -17.5s-101 5.83301 -139 17.5s-68.667 31 -92 58
s-40.333 63.667 -51 110s-16 104.166 -16 173.499s5.33301 127.166 16 173.499s27.667 83 51 110s54 46.333 92 58s84.333 17.5 139 17.5zM344 583c-35.333 0 -62.833 -7 -82.5 -21s-33.667 -38.167 -42 -72.5s-12.5 -82.5 -12.5 -144.5
c0 -61.333 4.16699 -109.333 12.5 -144s22.333 -59 42 -73s47.167 -21 82.5 -21c34.667 0 61.834 7 81.501 21s33.667 38.333 42 73s12.5 82.667 12.5 144c0 62 -4.16699 110.167 -12.5 144.5s-22.333 58.5 -42 72.5s-46.834 21 -81.501 21z" />
    <glyph glyph-name="P" unicode="P" horiz-adv-x="618" 
d="M334 700c64.667 0 115.331 -6.66309 151.998 -19.9961s62.834 -36.333 78.501 -69s23.5 -78.334 23.5 -137.001s-7.5 -104.334 -22.5 -137.001s-39.5 -55.5 -73.5 -68.5s-80 -19.5 -138 -19.5c-30.667 0 -60.667 1.33301 -90 4s-56.666 6 -81.999 10
s-47 8.16699 -65 12.5s-30.333 8.5 -37 12.5l3 76h122.5h125.5c26.667 0.666992 47.5 4 62.5 10s25.667 17 32 33s9.5 38.333 9.5 67c0 29.333 -3.16699 52 -9.5 68s-17 27.167 -32 33.5s-35.833 9.5 -62.5 9.5c-61.333 0 -114 -0.333008 -158 -1s-73.667 -2 -89 -4l-15 110
c28 3.33301 54.333 5.66602 79 6.99902s51.5 2.16602 80.5 2.49902s64.167 0.5 105.5 0.5zM221.997 690.004v-690h-153v690h153z" />
    <glyph glyph-name="Q" unicode="Q" horiz-adv-x="688" 
d="M344 704c54.667 0 101 -5.83301 139 -17.5s68.667 -31 92 -58s40.166 -63.667 50.499 -110s15.5 -104.166 15.5 -173.499s-5.16699 -127.166 -15.5 -173.499s-27.166 -83 -50.499 -110s-54 -46.333 -92 -58s-84.333 -17.5 -139 -17.5s-101 5.83301 -139 17.5
s-68.667 31 -92 58s-40.166 63.667 -50.499 110s-15.5 104.166 -15.5 173.499s5.16699 127.166 15.5 173.499s27.166 83 50.499 110s54 46.333 92 58s84.333 17.5 139 17.5zM294 -34c44.667 -18 91.333 -32.5 140 -43.5s101 -20.5 157 -28.5l-40 -132
c-60 14.667 -114.333 33 -163 55s-92 45.333 -130 70zM343.999 583c-34.667 0 -62 -7 -82 -21s-34 -38.167 -42 -72.5s-12 -82.5 -12 -144.5c0 -61.333 4 -109.333 12 -144s22 -59 42 -73s47.333 -21 82 -21s61.834 7 81.501 21s33.667 38.333 42 73s12.5 82.667 12.5 144
c0 62 -4.16699 110.167 -12.5 144.5s-22.333 58.5 -42 72.5s-46.834 21 -81.501 21z" />
    <glyph glyph-name="R" unicode="R" horiz-adv-x="647" 
d="M335 700c60.667 0 109.833 -6.16797 147.5 -18.501s65.334 -33.333 83.001 -63s26.5 -70.834 26.5 -123.501c0 -32 -4.16699 -60.167 -12.5 -84.5s-22.166 -43.833 -41.499 -58.5s-45.666 -24 -78.999 -28v-5c12 -2 24.5 -6.66699 37.5 -14s25.167 -18.166 36.5 -32.499
s19.666 -33.5 24.999 -57.5l60 -215h-161l-53 210c-6 22.667 -14.833 38.334 -26.5 47.001s-27.834 13 -48.501 13c-45.333 0 -83.5 0.166992 -114.5 0.5s-57 0.833008 -78 1.5s-39.833 1.33398 -56.5 2.00098l3 111h249c26.667 0 47.834 2.83301 63.501 8.5
s26.667 15.834 33 30.501s9.5 35 9.5 61c0 26.667 -3.16699 47.167 -9.5 61.5s-17.333 24.333 -33 30s-36.834 8.5 -63.501 8.5c-62.667 0 -115.667 -0.333008 -159 -1s-73 -1.66699 -89 -3l-15 109c28 3.33301 54.333 5.66602 79 6.99902s51.667 2.16602 81 2.49902
s64.666 0.5 105.999 0.5zM219.999 689.999v-690h-151v690h151z" />
    <glyph glyph-name="S" unicode="S" horiz-adv-x="586" 
d="M297 703c34 0 71.0029 -1.83301 111.003 -5.5s79 -11.167 117 -22.5l-10 -101c-29.333 0.666992 -63.666 1.33398 -102.999 2.00098s-78 1 -116 1c-18.667 0 -34.5 -0.5 -47.5 -1.5s-23.5 -3.66699 -31.5 -8s-13.667 -10.833 -17 -19.5s-5 -20.667 -5 -36
c0 -23.333 5.5 -40.333 16.5 -51s29.833 -20.334 56.5 -29.001l133 -43c55.333 -18.667 93.666 -44 114.999 -76s32 -74 32 -126c0 -39.333 -4.66699 -72 -14 -98s-24 -46.333 -44 -61s-46.333 -25.167 -79 -31.5s-72.667 -9.5 -120 -9.5c-22.667 0 -55 1.5 -97 4.5
s-90 10.5 -144 22.5l10 108c39.333 -0.666992 73.5 -1.5 102.5 -2.5s53.833 -1.66699 74.5 -2s38.667 -0.5 54 -0.5c26.667 0 47.5 1.66699 62.5 5s25.5 10 31.5 20s9 24.333 9 43c0 16 -2.16699 28.833 -6.5 38.5s-11.333 17.334 -21 23.001s-22.834 10.834 -39.501 15.501
l-140 48c-52.667 19.333 -90 44.666 -112 75.999s-33 72.666 -33 123.999c0 40 4.83301 72.5 14.5 97.5s24.667 44.5 45 58.5s46.666 23.667 78.999 29s71.166 8 116.499 8z" />
    <glyph glyph-name="T" unicode="T" horiz-adv-x="602" 
d="M377 690v-690h-153v690h153zM585 690v-120h-568v120h568z" />
    <glyph glyph-name="U" unicode="U" horiz-adv-x="686" 
d="M621 690v-415c0 -70 -8.66699 -126.167 -26 -168.5s-45.833 -73 -85.5 -92s-92.5 -28.5 -158.5 -28.5c-70 0 -126 9.5 -168 28.5s-72.333 49.667 -91 92s-28 98.5 -28 168.5v415h153v-415c0 -43.333 3.83301 -77.166 11.5 -101.499s20.834 -41.5 39.501 -51.5
s43.667 -15 75 -15s56.166 5 74.499 15s31.333 27.167 39 51.5s11.5 58.166 11.5 101.499v415h153z" />
    <glyph glyph-name="V" unicode="V" horiz-adv-x="640" 
d="M632 690l-187.999 -648c-3.33301 -12 -9.83301 -22 -19.5 -30s-21.167 -12 -34.5 -12h-140c-14 0 -25.833 4 -35.5 12s-15.834 18 -18.501 30l-189 648h158l126 -498l8.5 -38.5c3 -13 5.5 -25.833 7.5 -38.5h26c2 12.667 4.5 25.667 7.5 39s6.16699 26.333 9.5 39
l125 497h157z" />
    <glyph glyph-name="W" unicode="W" horiz-adv-x="976" 
d="M950 690l-113.002 -647.998c-2 -12 -8 -22 -18 -30s-22 -12 -36 -12h-143c-13.333 0 -25.166 4 -35.499 12s-16.5 18.333 -18.5 31l-77 449l-6 45.5l-6 44.5h-19c-1.33301 -14.667 -3 -29.667 -5 -45l-6 -45l-77 -449c-2 -12.667 -8.16699 -23 -18.5 -31
s-22.166 -12 -35.499 -12h-144c-13.333 0 -25.166 4 -35.499 12s-16.5 18 -18.5 30l-113 648h154l72 -480c2 -14.667 3.66699 -30.334 5 -47.001s2.66602 -34.334 3.99902 -53.001h19l8.5 50.5c3 17.667 5.5 34.167 7.5 49.5l76 433c2 14 8 25.333 18 34s22 13 36 13h126
c14 0 25.833 -4.33301 35.5 -13s15.5 -20 17.5 -34l77 -434l8 -49.5c2.66699 -17 5 -33.5 7 -49.5h20c1.33301 16 2.83301 32.667 4.5 50l4.5 48l71 482h154z" />
    <glyph glyph-name="X" unicode="X" horiz-adv-x="644" 
d="M621 690l-170 -336l183 -354h-156l-172 354l160 336h155zM178 690l160 -336l-172 -354h-156l182 354l-169 336h155zM396 403v-94h-157v94h157z" />
    <glyph glyph-name="Y" unicode="Y" horiz-adv-x="612" 
d="M611 690l-233 -471h-144l-234 471h159l116 -254c6 -13.333 11 -27.666 15 -42.999l11 -44h10l12 44c4 15.333 8.66699 29.666 14 42.999l115 254h159zM382 312v-312h-153v312h153z" />
    <glyph glyph-name="Z" unicode="Z" horiz-adv-x="586" 
d="M372 577l168 -1l-333 -463l-169 1zM548 114v-114h-510v114h510zM540 690v-114h-494v114h494z" />
    <glyph glyph-name="bracketleft" unicode="[" horiz-adv-x="346" 
d="M314 768v-91.998h-81c-12 0 -18 -6.33301 -18 -19v-711c0 -12.667 6 -19 18 -19h81v-92h-160c-23.333 0 -42.166 5.66699 -56.499 17s-21.5 31.666 -21.5 60.999v777c0 23.333 7.16699 42.166 21.5 56.499s33.166 21.5 56.499 21.5h160z" />
    <glyph glyph-name="backslash" unicode="\" horiz-adv-x="553" 
d="M139 690l393 -763h-118l-393 763h118z" />
    <glyph glyph-name="bracketright" unicode="]" horiz-adv-x="346" 
d="M192 768c22.667 0 41.334 -7.16895 56.001 -21.502s22 -33.166 22 -56.499v-777c0 -23.333 -7.33301 -42.166 -22 -56.499s-33.334 -21.5 -56.001 -21.5h-160v92h81c12 0 18 6.33301 18 19v711c0 12.667 -6 19 -18 19h-81v92h160z" />
    <glyph glyph-name="asciicircum" unicode="^" horiz-adv-x="462" 
d="M285 627l147 -225l-58 -32l-138 165h-8l-140 -165l-58 32l148 225h107z" />
    <glyph glyph-name="underscore" unicode="_" horiz-adv-x="445" 
d="M445 0v-94h-445v94h445z" />
    <glyph glyph-name="grave" unicode="`" horiz-adv-x="354" 
d="M102 745l203 -148l-43 -63l-224 112z" />
    <glyph glyph-name="a" unicode="a" horiz-adv-x="570" 
d="M321 507c41.333 0 76.334 -5.49805 105.001 -16.498s50.5 -29.667 65.5 -56s22.5 -62.5 22.5 -108.5v-326h-118l-21 107l-10 15v205c0 23.333 -5.5 40.333 -16.5 51s-31.833 16 -62.5 16c-25.333 0 -57 -0.833008 -95 -2.5s-77 -3.83398 -117 -6.50098l-14 98
c24 4.66699 51.667 8.66699 83 12s62.666 6.16602 93.999 8.49902s59.333 3.5 84 3.5zM453.001 304.002l-1 -83l-220 -1c-18 0 -30.833 -4.33301 -38.5 -13s-11.5 -20.334 -11.5 -35.001v-24c0 -16.667 4.66699 -29.5 14 -38.5s24.333 -13.5 45 -13.5
c17.333 0 36.166 3.66699 56.499 11s40.5 17.666 60.5 30.999s37.667 29 53 47v-64c-6 -10 -14.833 -22.5 -26.5 -37.5s-26.5 -29.667 -44.5 -44s-39 -26.5 -63 -36.5s-51.333 -15 -82 -15c-30 0 -57 5.33301 -81 16s-43 26.334 -57 47.001s-21 46.334 -21 77.001v51
c0 39.333 13.333 70 40 92s63.334 33 110.001 33h267z" />
    <glyph glyph-name="b" unicode="b" horiz-adv-x="594" 
d="M371 507c65.333 0 112.166 -19.834 140.499 -59.501s42.5 -105.167 42.5 -196.5c0 -38 -3.5 -73 -10.5 -105s-19.333 -59.833 -37 -83.5s-42.167 -42 -73.5 -55s-72 -19.5 -122 -19.5c-17.333 0 -37.333 0.833008 -60 2.5s-45.834 4 -69.501 7s-46.167 7 -67.5 12
s-39.666 10.833 -54.999 17.5l118 85c12.667 -4 26.667 -7.5 42 -10.5s31 -5 47 -6s30 -1.16699 42 -0.5c22.667 0.666992 40.834 5.5 54.501 14.5s23.5 24.667 29.5 47s9 53.5 9 93.5c0 36.667 -2.5 65.167 -7.5 85.5s-14 34.666 -27 42.999s-31.167 12.5 -54.5 12.5
c-22 0 -42 -4.66699 -60 -14s-38 -21.666 -60 -36.999l-11 70c17.333 18.667 36 35.334 56 50.001s41.333 26.167 64 34.5s46 12.5 70 12.5zM207 699.999l1 -160c0 -22.667 -1.16699 -44.5 -3.5 -65.5s-6.5 -41.5 -12.5 -61.5l14 -13l1 -380l-148 7v673h148z" />
    <glyph glyph-name="c" unicode="c" horiz-adv-x="509" 
d="M290 507c18 0 37.6631 -0.832031 58.9961 -2.49902s42.833 -4.66699 64.5 -9s41.5 -10.5 59.5 -18.5l-16 -93l-76.5 2c-24.333 0.666992 -46.166 1 -65.499 1c-30 0 -53.667 -4 -71 -12s-29.833 -22.167 -37.5 -42.5s-11.5 -48.5 -11.5 -84.5
c0 -36.667 3.83301 -65.334 11.5 -86.001s20.167 -35 37.5 -43s41 -12 71 -12c10.667 0 24.334 0.333008 41.001 1s34.667 1.5 54 2.5s38.333 2.83301 57 5.5l14 -94c-26.667 -12 -57 -20.667 -91 -26s-67.667 -8 -101 -8c-61.333 0 -110.166 8.5 -146.499 25.5
s-62.5 44.5 -78.5 82.5s-24 88.667 -24 152s8.16699 114 24.5 152s42.833 65.333 79.5 82s85.334 25 146.001 25z" />
    <glyph glyph-name="d" unicode="d" horiz-adv-x="597" 
d="M229 507c34.667 0 68.168 -5.00293 100.501 -15.0029s60.833 -26.333 85.5 -49l-10 -68l-61 18c-18 5.33301 -39 8 -63 8c-20.667 0 -37.334 -3.66699 -50.001 -11s-22 -21.666 -28 -42.999s-9 -53 -9 -95c0 -39.333 2.83301 -69.166 8.5 -89.499s14.667 -34.333 27 -42
s28.166 -11.5 47.499 -11.5c17.333 0 32.333 1.83301 45 5.5s25.334 9.33398 38.001 17.001s27 17.167 43 28.5l11 -73c-20 -28 -46 -51.5 -78 -70.5s-71.333 -28.5 -118 -28.5c-63.333 0 -108.5 22.667 -135.5 68s-40.5 110.333 -40.5 195c0 66 6.83301 117.5 20.5 154.5
s34.5 63.167 62.5 78.5s62.667 23 104 23zM536.001 699.997v-700h-117l-15 91l-16 11v324l6 13c-2 20.667 -3.5 41.5 -4.5 62.5s-1.5 42.5 -1.5 64.5v134h148z" />
    <glyph glyph-name="e" unicode="e" horiz-adv-x="564" 
d="M294 507c83.333 0 143.164 -14.1709 179.497 -42.5039s54.5 -70.5 54.5 -126.5c0.666992 -45.333 -10.666 -79.166 -33.999 -101.499s-63.666 -33.5 -120.999 -33.5h-276v83h235c22.667 0 37.167 4.83301 43.5 14.5s9.5 23.167 9.5 40.5
c-0.666992 23.333 -7.5 39.5 -20.5 48.5s-34.833 13.5 -65.5 13.5c-27.333 0 -48.666 -3.66699 -63.999 -11s-26 -21.333 -32 -42s-9 -50.667 -9 -90c0 -41.333 3.66699 -73.166 11 -95.499s19.833 -37.833 37.5 -46.5s42.167 -13 73.5 -13
c22.667 0 50.834 0.833008 84.501 2.5s67.5 4.5 101.5 8.5l14 -91c-19.333 -9.33301 -41.333 -16.666 -66 -21.999s-50 -9.16602 -76 -11.499s-51 -3.5 -75 -3.5c-62.667 0 -113.167 9.16699 -151.5 27.5s-66 46.5 -83 84.5s-25.5 86.667 -25.5 146
c0 64.667 8.66699 116 26 154s44.666 65.333 81.999 82s86.333 25 147 25z" />
    <glyph glyph-name="f" unicode="f" horiz-adv-x="404" 
d="M267 721c12 0 27.833 -0.331055 47.5 -0.998047s39.667 -1.83398 60 -3.50098s37.833 -3.83398 52.5 -6.50098l-13 -95h-94c-25.333 0 -43 -5 -53 -15s-15 -27.333 -15 -52v-548h-148v567c0 31.333 5.16699 58.333 15.5 81s27.5 40.5 51.5 53.5s56 19.5 96 19.5z
M390 494.002v-97h-372v92l89 5h283z" />
    <glyph glyph-name="g" unicode="g" horiz-adv-x="581" 
d="M280 507c57.333 0 102.831 -5.33301 136.498 -16s58 -27.334 73 -50.001s22.5 -53 22.5 -91c0 -36.667 -7.33301 -66.5 -22 -89.5s-39.167 -39.833 -73.5 -50.5s-80.166 -16 -137.499 -16s-103.166 5.33301 -137.499 16s-59 27.334 -74 50.001s-22.5 52.667 -22.5 90
s7.5 67.5 22.5 90.5s39.833 39.833 74.5 50.5s80.667 16 138 16zM278.998 416c-36.667 0 -62 -4.83301 -76 -14.5s-21 -26.834 -21 -51.501s7 -42 21 -52s39.333 -15 76 -15s61.667 5 75 15s20 27.333 20 52s-6.66699 41.834 -20 51.501s-38.333 14.5 -75 14.5zM568.998 494
l-8 -63l-132 -17l-36 80h176zM129.998 224l74.001 -12.999c-9.33301 -5.33301 -15.833 -13.666 -19.5 -24.999s-2.83398 -22 2.49902 -32s17 -16 35 -18l182 -21c52 -5.33301 88.667 -19.833 110 -43.5s32 -58.167 32 -103.5c0 -42.667 -8.66699 -75.5 -26 -98.5
s-45 -38.833 -83 -47.5s-88.667 -13 -152 -13c-52 0 -94.833 2.5 -128.5 7.5s-60.334 13.167 -80.001 24.5s-33.334 26.166 -41.001 44.499s-11.5 41.166 -11.5 68.499c0 20.667 3.66699 38.5 11 53.5s19.833 28.5 37.5 40.5s42.5 23 74.5 33l73 26l53 -21l-40 -26
c-16.667 -12 -30.167 -22.167 -40.5 -30.5s-17.666 -16.5 -21.999 -24.5s-6.5 -18.667 -6.5 -32c0 -15.333 3.33301 -27.166 10 -35.499s18.834 -14 36.501 -17s41.834 -4.5 72.501 -4.5c32 0 57 1.5 75 4.5s30.5 8.5 37.5 16.5s10.5 19.333 10.5 34
c0 12.667 -2.5 22 -7.5 28s-13.333 10.5 -25 13.5s-27.834 5.83301 -48.501 8.5l-155 17c-26 2.66699 -46.333 9.66699 -61 21s-24.834 25.166 -30.501 41.499s-7.16699 32.833 -4.5 49.5s8.83398 31.667 18.501 45s22.167 23 37.5 29z" />
    <glyph glyph-name="h" unicode="h" horiz-adv-x="601" 
d="M404 507c93.333 0 140 -45.667 140 -137v-370h-149v324c0 22 -3.83301 37.167 -11.5 45.5s-21.167 12.5 -40.5 12.5c-21.333 0 -43.333 -4 -66 -12s-50.667 -21 -84 -39l-13 77c36.667 32 74 56.5 112 73.5s75.333 25.5 112 25.5zM208 700l1 -171
c0 -26 -1.5 -50.667 -4.5 -74s-6.5 -43 -10.5 -59l14 -13v-383h-148v700h148z" />
    <glyph glyph-name="i" unicode="i" horiz-adv-x="276" 
d="M211 494v-494h-147v494h147zM170 712c29.333 0 44 -15 44 -45v-53c0 -30 -14.667 -45 -44 -45h-64c-29.333 0 -44 15 -44 45v53c0 30 14.667 45 44 45h64z" />
    <glyph glyph-name="j" unicode="j" horiz-adv-x="277" 
d="M213 494v-471c0 -30 -5.16699 -59.167 -15.5 -87.5s-25 -53.833 -44 -76.5s-41.833 -41 -68.5 -55l-82 64c22.667 25.333 38.667 50 48 74s14 51 14 81v471h148zM170 717c28.667 0 43 -14.667 43 -44v-54c0 -30 -14.333 -45 -43 -45h-65c-28.667 0 -43 15 -43 45v54
c0 29.333 14.333 44 43 44h65z" />
    <glyph glyph-name="k" unicode="k" horiz-adv-x="559" 
d="M538 494l-129 -171.999c-6 -9.33301 -13.667 -18.333 -23 -27s-17 -15 -23 -19v-4c6 -3.33301 13.667 -10.333 23 -21s17 -21.334 23 -32.001l146 -219h-165l-169 278l152 216h165zM208 700.001l0.999023 -288.998c0 -23.333 -1.33301 -46 -4 -68
s-6.66699 -43.667 -12 -65c4.66699 -20.667 8.33398 -41.834 11.001 -63.501s4 -41.834 4 -60.501v-154h-148v700h148zM276.999 320.003v-90h-115v90h115z" />
    <glyph glyph-name="l" unicode="l" horiz-adv-x="328" 
d="M209 700l-1 -542c0 -16.667 5 -29.167 15 -37.5s24.667 -12.5 44 -12.5h40l17 -100c-8 -4 -19.333 -7.5 -34 -10.5s-29.667 -5.33301 -45 -7s-28.333 -2.5 -39 -2.5c-44.667 0 -80 11.667 -106 35s-39 56 -39 98v579h148z" />
    <glyph glyph-name="m" unicode="m" horiz-adv-x="881" 
d="M686 507c44.667 0 78.667 -11.668 102 -35.001s35 -57.333 35 -102v-370h-147v324c0 20.667 -4 35.5 -12 44.5s-22 13.5 -42 13.5c-12 0 -23.333 -1.66699 -34 -5s-23 -8.66602 -37 -15.999s-31 -17.333 -51 -30l-8 82c32 31.333 63.5 54.833 94.5 70.5
s64.167 23.5 99.5 23.5zM178 493.999l15 -98l15 -13v-383h-148v494h118zM378 506.999c44 0 77.499 -11.501 100.499 -34.501s34.5 -57.167 34.5 -102.5v-370h-142v324c0 21.333 -4.5 36.333 -13.5 45s-22.833 13 -41.5 13c-11.333 0 -22.5 -1.5 -33.5 -4.5
s-23.667 -8.16699 -38 -15.5s-31.833 -17.666 -52.5 -30.999l-9 82c32.667 31.333 64.334 54.833 95.001 70.5s64 23.5 100 23.5z" />
    <glyph glyph-name="n" unicode="n" horiz-adv-x="601" 
d="M404 507c93.333 0 140 -45.668 140 -137.001v-370h-148v324c0 22 -4 37.167 -12 45.5s-21.667 12.5 -41 12.5c-21.333 0 -43.333 -4.16699 -66 -12.5s-50.667 -21.166 -84 -38.499l-7 83c35.333 30 71.5 53 108.5 69s73.5 24 109.5 24zM179 493.999l17 -98l12 -13v-383
h-148v494h119z" />
    <glyph glyph-name="o" unicode="o" 
d="M295 507c62 0 111.667 -8.5 149 -25.5s64.166 -44.5 80.499 -82.5s24.5 -89 24.5 -153c0 -62.667 -8.16699 -113 -24.5 -151s-43.166 -65.333 -80.499 -82s-87 -25 -149 -25c-61.333 0 -110.833 8.33301 -148.5 25s-64.834 44 -81.501 82s-25 88.333 -25 151
c0 64 8.33301 115 25 153s43.834 65.5 81.501 82.5s87.167 25.5 148.5 25.5zM295 399c-25.333 0 -45.333 -4.33301 -60 -13s-25 -24 -31 -46s-9 -53.333 -9 -94c0 -40 3 -71 9 -93s16.333 -37.167 31 -45.5s34.667 -12.5 60 -12.5s45.333 4.16699 60 12.5s25 23.5 31 45.5
s9 53 9 93c0 40.667 -3 72 -9 94s-16.333 37.333 -31 46s-34.667 13 -60 13z" />
    <glyph glyph-name="p" unicode="p" horiz-adv-x="600" 
d="M385 506c62 0 106.334 -22.6689 133.001 -68.002s40 -110.333 40 -195c0 -66 -6.83301 -117.667 -20.5 -155s-34.334 -63.5 -62.001 -78.5s-62.167 -22.5 -103.5 -22.5c-35.333 0 -69 5 -101 15s-60.333 26.667 -85 50l10 66c22 -6.66699 42.167 -12.5 60.5 -17.5
s39.166 -7.5 62.499 -7.5c21.333 0 38.333 3.66699 51 11s21.834 21.833 27.501 43.5s8.5 53.167 8.5 94.5c0 40.667 -2.66699 71.834 -8 93.501s-14 36.667 -26 45s-27.667 12.5 -47 12.5c-21.333 0 -41 -4.16699 -59 -12.5s-38.333 -20.166 -61 -35.499l-19 68
c13.333 18 30.5 34 51.5 48s44.167 25 69.5 33s51.333 12 78 12zM180.001 493.998l14 -90l14 -15v-321l-5 -12c2 -20 3.5 -40.833 4.5 -62.5s1.16699 -43.167 0.5 -64.5v-119h-148v684h120z" />
    <glyph glyph-name="q" unicode="q" horiz-adv-x="594" 
d="M285 507c16.667 0 36.1699 -0.833008 58.5029 -2.5s45.333 -4 69 -7s46.167 -7 67.5 -12s39.666 -10.5 54.999 -16.5l-119 -87c-11.333 4 -24.833 7.5 -40.5 10.5s-31.334 5.16699 -47.001 6.5s-29.5 1.66602 -41.5 0.999023c-23.333 -0.666992 -42 -5.5 -56 -14.5
s-23.833 -24.833 -29.5 -47.5s-8.5 -54.667 -8.5 -96c0 -49.333 5.66699 -83.833 17 -103.5s33.666 -29.5 66.999 -29.5c24 0 45.5 4.33301 64.5 13s39.833 19.667 62.5 33l13 -64c-15.333 -17.333 -33.333 -33.833 -54 -49.5s-43.167 -28.5 -67.5 -38.5
s-50.166 -15 -77.499 -15c-62.667 0 -107.834 21.5 -135.501 64.5s-41.5 106.833 -41.5 191.5c0 40 3.5 76.333 10.5 109s19.333 60.334 37 83.001s42.5 40.167 74.5 52.5s72.667 18.5 122 18.5zM387.003 475l148 -5.99902v-659h-148v148
c-0.666992 22.667 0.333008 44.667 3 66s6.66699 41.666 12 60.999l-15 13v377z" />
    <glyph glyph-name="r" unicode="r" horiz-adv-x="427" 
d="M176 494l18 -98l14 -13v-383h-148v494h116zM417 507l-14 -137h-41c-23.333 0 -47.666 -3.33301 -72.999 -10s-57.333 -16.667 -96 -30l-10 83c34.667 30.667 69.667 54 105 70s69.666 24 102.999 24h26z" />
    <glyph glyph-name="s" unicode="s" horiz-adv-x="531" 
d="M248 507c24 0 49.999 -0.831055 77.999 -2.49805s55.333 -3.83398 82 -6.50098s50.334 -6 71.001 -10l-10 -92c-32 0.666992 -64.167 1.16699 -96.5 1.5s-63.833 0.5 -94.5 0.5c-26 0.666992 -46 0.333984 -60 -0.999023s-23.833 -4.5 -29.5 -9.5
s-8.5 -13.833 -8.5 -26.5c0 -14.667 5 -24.5 15 -29.5s26.667 -10.5 50 -16.5l129 -31c41.333 -10.667 72 -26.5 92 -47.5s30 -52.5 30 -94.5c0 -41.333 -7.66699 -73 -23 -95s-39.666 -37.167 -72.999 -45.5s-76.333 -12.5 -129 -12.5c-20.667 0 -51.334 1 -92.001 3
s-85.334 7 -134.001 15l10 92c12 -0.666992 27.333 -1.16699 46 -1.5s39 -0.5 61 -0.5h66c34 0 60 0.833008 78 2.5s30.333 5.5 37 11.5s10 15 10 27c0 14.667 -5.66699 24.667 -17 30s-29.333 11 -54 17l-125 31c-31.333 8.66699 -55.666 19.667 -72.999 33
s-29.5 29.666 -36.5 48.999s-10.5 42.333 -10.5 69c0 34 6.83301 61.167 20.5 81.5s36 35.166 67 44.499s72.167 14 123.5 14z" />
    <glyph glyph-name="t" unicode="t" horiz-adv-x="410" 
d="M253 631v-473c0 -18 4.16699 -30.833 12.5 -38.5s22.166 -11.5 41.499 -11.5h64l16 -100c-12 -4 -26.667 -7.5 -44 -10.5s-34.666 -5.33301 -51.999 -7s-32 -2.5 -44 -2.5c-44.667 0 -79.5 12 -104.5 36s-37.5 57.667 -37.5 101l-1 506h149zM391 494v-97h-373v92l96 5
h277z" />
    <glyph glyph-name="u" unicode="u" horiz-adv-x="593" 
d="M205 494l0.000976562 -325.001c0 -20.667 4.5 -35.334 13.5 -44.001s23.5 -13 43.5 -13c20.667 0 41.167 3.83301 61.5 11.5s45.5 19.834 75.5 36.501l12 -81c-36 -31.333 -71.333 -54.666 -106 -69.999s-70.334 -23 -107.001 -23c-94 0 -141 46 -141 138v370h148z
M532.001 493.999v-494h-117l-17 97l-14 14v383h148z" />
    <glyph glyph-name="v" unicode="v" horiz-adv-x="566" 
d="M558 494l-163.002 -459c-4 -10.667 -10.167 -19.167 -18.5 -25.5s-18.166 -9.5 -29.499 -9.5h-129c-11.333 0 -21.166 3.16699 -29.499 9.5s-14.5 14.833 -18.5 25.5l-163 459h157l91 -309c4 -14.667 7.66699 -29.667 11 -45l10 -44h13c4 14.667 7.83301 29.5 11.5 44.5
s7.5 29.833 11.5 44.5l89 309h157z" />
    <glyph glyph-name="w" unicode="w" horiz-adv-x="850" 
d="M834 494l-122.002 -455c-2.66699 -12 -8.66699 -21.5 -18 -28.5s-20.333 -10.5 -33 -10.5h-112c-13.333 0 -25 4.16699 -35 12.5s-16 19.166 -18 32.499l-54 278c-2 14 -3.66699 27.833 -5 41.5s-3.33301 27.5 -6 41.5h-12l-6 -41.5l-6 -41.5l-54 -278
c-2 -13.333 -8 -24.166 -18 -32.499s-21.667 -12.5 -35 -12.5h-111c-12.667 0 -23.667 3.5 -33 10.5s-15.333 16.5 -18 28.5l-122 455h149l68 -320c2.66699 -13.333 5 -26.833 7 -40.5s3.66699 -27.167 5 -40.5h13c2 13.333 4.16699 26.833 6.5 40.5s4.5 27.167 6.5 40.5
l54 275c2 13.333 7.66699 24.166 17 32.499s21 12.5 35 12.5h96c13.333 0 24.833 -4.16699 34.5 -12.5s15.5 -19.5 17.5 -33.5l53 -274c2 -13.333 4.33301 -26.666 7 -39.999s5 -27 7 -41h12c2.66699 14 4.83398 27.5 6.50098 40.5s3.83398 26.5 6.50098 40.5l68 320h149z
" />
    <glyph glyph-name="x" unicode="x" horiz-adv-x="567" 
d="M546 494l-143 -241l154 -253h-150l-146 253l135 241h150zM171 494l135 -241l-145 -253h-151l154 253l-143 241h150zM362 301v-92h-156v92h156z" />
    <glyph glyph-name="y" unicode="y" horiz-adv-x="566" 
d="M557 494l-177.003 -500c-8 -24.667 -19.167 -49.5 -33.5 -74.5s-32.333 -47.5 -54 -67.5s-47.667 -35.167 -78 -45.5s-66.166 -12.833 -107.499 -7.5l-11 84c40.667 10.667 72.334 25 95.001 43s40.334 41.667 53.001 71l31 69c6 14.667 11.833 32.5 17.5 53.5l14.5 54.5
l92 320h158zM164.997 494l94 -320l8 -38c2.66699 -12.667 5 -25.334 7 -38.001h27l-47 -98h-36c-11.333 0 -21.333 3.33301 -30 10s-14.667 15.334 -18 26.001l-163 458h158z" />
    <glyph glyph-name="z" unicode="z" horiz-adv-x="526" 
d="M312 392l170 -1l-273 -290l-170 1zM487 102v-102h-448v102h448zM482 494v-103h-439v103h439z" />
    <glyph glyph-name="braceleft" unicode="{" horiz-adv-x="339" 
d="M303 768l0.000976562 -90.9922c-29.333 0 -49.333 -4 -60 -12s-16 -24.667 -16 -50v-151c0.666992 -28 -1.83301 -51.167 -7.5 -69.5s-16 -32.833 -31 -43.5s-36.5 -18.334 -64.5 -23.001c28 -8 49.667 -17.833 65 -29.5s26.166 -25.834 32.499 -42.501
s9.5 -36.667 9.5 -60v-210c0 -24.667 5.33301 -40.834 16 -48.501s30.667 -11.5 60 -11.5v-91c-51.333 -6.66699 -93 -4.83398 -125 5.49902s-55.5 27.166 -70.5 50.499s-22.5 51.333 -22.5 84v238c0 16 -1.83301 27.833 -5.5 35.5s-9.5 13.5 -17.5 17.5
s-18.667 8.66699 -32 14v96c14 4.66699 24.667 8.66699 32 12s12.333 9.16602 15 17.499s4 22.166 4 41.499v181c0 33.333 7.5 61.5 22.5 84.5s38.5 39.667 70.5 50s73.667 12.166 125 5.49902z" />
    <glyph glyph-name="bar" unicode="|" horiz-adv-x="261" 
d="M183 781v-950h-105v950h105z" />
    <glyph glyph-name="braceright" unicode="}" horiz-adv-x="340" 
d="M36 768c52 6.66699 93.999 4.82617 125.999 -5.50684s55.333 -27 70 -50s22 -51.167 22 -84.5v-181c0 -19.333 1.33301 -33.166 4 -41.499s7.83398 -14.166 15.501 -17.499s18.5 -7.33301 32.5 -12v-96c-13.333 -5.33301 -24.166 -10 -32.499 -14
s-14.333 -9.83301 -18 -17.5s-5.5 -19.5 -5.5 -35.5v-238c0 -32.667 -7.33301 -60.667 -22 -84s-38 -40.166 -70 -50.499s-74 -12.166 -126 -5.49902v91c30 0 50.333 3.83301 61 11.5s16 23.834 16 48.501v210c0.666992 23.333 4 43.333 10 60s16.667 30.834 32 42.501
s36.666 21.5 63.999 29.5c-27.333 4.66699 -48.5 12.334 -63.5 23.001s-25.333 25.167 -31 43.5s-8.16699 41.5 -7.5 69.5v151c0 25.333 -5.33301 42 -16 50s-31 12 -61 12v91z" />
    <glyph glyph-name="asciitilde" unicode="~" horiz-adv-x="512" 
d="M142 362c14.667 0 31.502 -2.5 50.502 -7.5s38.333 -10.5 58 -16.5l55.5 -17c17.333 -5.33301 31.666 -8.66602 42.999 -9.99902c16.667 -2 27 0.666992 31 8s6 20 6 38h66c8 -48.667 3.66699 -85 -13 -109s-39.334 -35.667 -68.001 -35
c-16 0.666992 -33.5 3.33398 -52.5 8.00098s-38.333 10 -58 16l-55 17c-17 5.33301 -31.167 8.66602 -42.5 9.99902c-16.667 2.66699 -26.834 0.166992 -30.501 -7.5s-5.5 -20.834 -5.5 -39.501h-66c-5.33301 34 -4.66602 61.833 2.00098 83.5s17 37.5 31 47.5
s30 14.667 48 14z" />
    <glyph glyph-name="uni00A0" unicode="&#xa0;" horiz-adv-x="216" 
 />
    <glyph glyph-name="exclamdown" unicode="&#xa1;" horiz-adv-x="284" 
d="M200 288l16 -207v-266h-147v266l15 207h116zM160 507c19.333 0 32.833 -3.83301 40.5 -11.5s11.5 -21.5 11.5 -41.5v-47c0 -20 -3.83301 -33.667 -11.5 -41s-21.167 -11 -40.5 -11h-34c-20 0 -33.833 3.66699 -41.5 11s-11.5 21 -11.5 41v47
c0 20 3.83301 33.833 11.5 41.5s21.5 11.5 41.5 11.5h34z" />
    <glyph glyph-name="cent" unicode="&#xa2;" horiz-adv-x="525" 
d="M291 608c17.333 0 36.8281 -0.999023 58.4951 -2.99902s43.5 -5.16699 65.5 -9.5s42 -10.5 60 -18.5l-16 -89c-27.333 2 -53.166 3.16699 -77.499 3.5s-46.166 0.5 -65.499 0.5c-33.333 0 -59.5 -4 -78.5 -12s-32.5 -22.5 -40.5 -43.5s-12 -50.5 -12 -88.5
s4 -67.5 12 -88.5s21.5 -35.667 40.5 -44s45.167 -12.5 78.5 -12.5c10.667 0 24.334 0.166992 41.001 0.5s34.834 1.16602 54.501 2.49902s38.834 3.33301 57.501 6l14 -89c-27.333 -12.667 -58 -21.5 -92 -26.5s-67.667 -7.5 -101 -7.5c-61.333 0 -110.333 8.33301 -147 25
s-63.167 44 -79.5 82s-24.5 88.667 -24.5 152c0 64 8.16699 114.833 24.5 152.5s43 65 80 82s86.167 25.5 147.5 25.5zM311.995 154.001l-17 -154h-50l17 154h50zM350.995 523.001l-37 -370h-51l38 370h50zM371.995 690.001l-19 -168h-50l18 168h51z" />
    <glyph glyph-name="sterling" unicode="&#xa3;" horiz-adv-x="586" 
d="M318 703c14 0 31.998 -0.330078 53.998 -0.99707s46.167 -1.66699 72.5 -3s52.833 -3.33301 79.5 -6l-7 -113c-11.333 0 -21.5 0.166992 -30.5 0.5s-19.333 0.666016 -31 0.999023s-26.834 0.5 -45.501 0.5h-74c-29.333 0 -49.666 -5.33301 -60.999 -16
s-16.333 -29.667 -15 -57l19 -225c2 -30.667 0.166992 -56.334 -5.5 -77.001s-14.334 -38 -26.001 -52s-25.5 -27.333 -41.5 -40c12.667 3.33301 25.334 5.16602 38.001 5.49902s25.334 0.5 38.001 0.5h265v-121h-497v121c34.667 17.333 56.834 40 66.501 68
s13.167 59.667 10.5 95l-16 231c-2.66699 38.667 0 70.334 8 95.001s20.667 43.667 38 57s39.5 22.666 66.5 27.999s58.5 8 94.5 8zM459.998 403.003l-3 -79h-410l-2 79h415z" />
    <glyph glyph-name="currency" unicode="&#xa4;" horiz-adv-x="584" 
d="M291 471c-20.667 0 -39.834 -5.33301 -57.501 -16s-31.834 -25 -42.501 -43s-16 -37.667 -16 -59c0 -22 5.33301 -42 16 -60s24.834 -32.167 42.501 -42.5s36.834 -15.5 57.501 -15.5c21.333 0 40.833 5.16699 58.5 15.5s31.834 24.5 42.501 42.5s16 38 16 60
c0 21.333 -5.33301 41 -16 59s-24.834 32.333 -42.501 43s-37.167 16 -58.5 16zM114 592l85 -86l-61 -61l-86 85zM472 592l62 -62l-83 -83l-62 62zM140 270l66 -67l-92 -92l-66 67zM443 262l91 -90l-62 -61l-90 89zM291 555c38 0 72.168 -9.16699 102.501 -27.5
s54.666 -42.833 72.999 -73.5s27.5 -64.667 27.5 -102s-9.16699 -71.333 -27.5 -102s-42.833 -55.167 -73.5 -73.5s-64.334 -27.5 -101.001 -27.5c-37.333 0 -71.333 9.16699 -102 27.5s-55.167 42.833 -73.5 73.5s-27.5 64.667 -27.5 102s9.16699 71.333 27.5 102
s42.833 55.167 73.5 73.5s64.334 27.5 101.001 27.5z" />
    <glyph glyph-name="yen" unicode="&#xa5;" horiz-adv-x="664" 
d="M637 690l-232.999 -460.002h-144l-233 460h157l116 -246c6.66699 -13.333 12 -27.666 16 -42.999l12 -44h10l12.5 44.5c4.33301 15.667 9.16602 29.834 14.499 42.501l114 246h158zM409.001 322.998v-323h-153v323h153zM571.001 218.998v-76h-474l-2 76h476z
M571.001 340.998v-77h-474l-2 77h476z" />
    <glyph glyph-name="brokenbar" unicode="&#xa6;" horiz-adv-x="263" 
d="M184 781v-400h-105v400h105zM184 231v-400h-105v400h105z" />
    <glyph glyph-name="section" unicode="&#xa7;" horiz-adv-x="555" 
d="M171 359c-1.33301 -26.667 -0.166016 -48.1699 3.50098 -64.5029s11.167 -30.333 22.5 -42s28 -23.5 50 -35.5l159 -87c16.667 -9.33301 32.667 -20 48 -32s28.166 -28.167 38.499 -48.5s15.5 -47.166 15.5 -80.499c0 -41.333 -8.83301 -72.833 -26.5 -94.5
s-43.167 -36.167 -76.5 -43.5s-73.666 -11 -120.999 -11c-17.333 0.666992 -39.166 1.33398 -65.499 2.00098s-53.833 2 -82.5 4s-55 4 -79 6l10 105c19.333 -0.666992 37.333 -1.33398 54 -2.00098s34.334 -1.16699 53.001 -1.5s41 -0.5 67 -0.5
c23.333 0 42.833 0.833008 58.5 2.5s27.667 5.33398 36 11.001s12.833 14.834 13.5 27.501c2 17.333 -2.5 31 -13.5 41s-24.167 19 -39.5 27l-139 72c-36.667 18.667 -63.334 39.5 -80.001 62.5s-25.334 49.5 -26.001 79.5s4.66602 64.333 15.999 103h104zM272 703.997
c17.333 0 39.333 -0.49707 66 -1.49707s54.334 -2.33301 83.001 -4s54.334 -3.83398 77.001 -6.50098l-10 -105c-17.333 1.33301 -33.833 2.16602 -49.5 2.49902s-33 0.5 -52 0.5h-71.5c-23.333 0.666992 -43 0.166992 -59 -1.5s-28.167 -5.16699 -36.5 -10.5
s-12.833 -14.333 -13.5 -27c-2 -17.333 2.5 -31 13.5 -41s24.5 -19 40.5 -27l139 -72c37.333 -18.667 64.166 -39.667 80.499 -63s24.666 -49.833 24.999 -79.5s-5.16699 -63.834 -16.5 -102.501h-104c1.33301 26 0.166016 47.167 -3.50098 63.5s-11.167 30.5 -22.5 42.5
s-28 24 -50 36l-159 88c-16 9.33301 -31.833 20 -47.5 32s-28.667 28 -39 48s-15.5 46.667 -15.5 80c0 40 8.5 70.667 25.5 92s42.333 36 76 44s74.834 12 123.501 12z" />
    <glyph glyph-name="dieresis" unicode="&#xa8;" horiz-adv-x="424" 
d="M328 707c21.333 0 32 -10.667 32 -32v-59c0 -21.333 -10.667 -32 -32 -32h-49c-20.667 0 -31 10.667 -31 32v59c0 21.333 10.333 32 31 32h49zM145 707c20.667 0 31 -10.667 31 -32v-59c0 -21.333 -10.333 -32 -31 -32h-49c-20.667 0 -31 10.667 -31 32v59
c0 21.333 10.333 32 31 32h49z" />
    <glyph glyph-name="copyright" unicode="&#xa9;" horiz-adv-x="809" 
d="M405 704c50 0 96.833 -8.83301 140.5 -26.5s82 -42.5 115 -74.5s58.833 -70 77.5 -114s28 -92 28 -144s-9.33301 -100 -28 -144s-44.5 -82 -77.5 -114s-71.333 -56.833 -115 -74.5s-90.5 -26.5 -140.5 -26.5c-50.667 0 -98 8.83301 -142 26.5s-82.333 42.667 -115 75
s-58.334 70.333 -77.001 114s-28 91.5 -28 143.5s9.33301 100 28 144s44.334 82 77.001 114s71 56.833 115 74.5s91.333 26.5 142 26.5zM409 554c32 0 57.667 -1.16211 77 -3.49512s39.333 -6.16602 60 -11.499l-10 -78c-21.333 0 -40.833 0.166992 -58.5 0.5
s-40.834 0.5 -69.501 0.5c-20.667 0 -37 -3.33301 -49 -10s-20.167 -18.334 -24.5 -35.001s-6.5 -40.334 -6.5 -71.001c0 -30 2.16699 -53.333 6.5 -70s12.5 -28.334 24.5 -35.001s28.333 -10 49 -10c30.667 0 56.334 0.166992 77.001 0.5s41.334 1.5 62.001 3.5l8 -78
c-21.333 -6 -42.833 -10.5 -64.5 -13.5s-48.834 -4.5 -81.501 -4.5c-47.333 0 -85.333 6.66699 -114 20s-49.334 35.166 -62.001 65.499s-19 70.833 -19 121.5c0 51.333 6.33301 92.166 19 122.499s33.334 52.166 62.001 65.499s66.667 20 114 20zM404 632.005
c-39.333 0 -76.1689 -7.16602 -110.502 -21.499s-64.666 -34.333 -90.999 -60s-47 -55.834 -62 -90.501s-22.5 -73 -22.5 -115c0 -41.333 7.5 -79.5 22.5 -114.5s35.667 -65.333 62 -91s56.833 -45.667 91.5 -60s71.334 -21.5 110.001 -21.5c40 0 77.333 7.16699 112 21.5
s65 34.333 91 60s46.5 56 61.5 91s22.5 73.167 22.5 114.5s-7.5 79.5 -22.5 114.5s-35.5 65.333 -61.5 91s-56.333 45.667 -91 60s-72 21.5 -112 21.5z" />
    <glyph glyph-name="ordfeminine" unicode="&#xaa;" horiz-adv-x="437" 
d="M248 615c42.667 0 75.498 -8.83203 98.498 -26.499s34.5 -50.5 34.5 -98.5v-215h-87l-15 72l-6 11v133c0 14 -3.66699 24.5 -11 31.5s-20 10.5 -38 10.5c-20 0 -43.167 -0.5 -69.5 -1.5s-53.166 -2.5 -80.499 -4.5l-10 73c16 2.66699 34.667 5.16699 56 7.5
s43.333 4.16602 66 5.49902s43.334 2 62.001 2zM336.998 478.001l-1.00293 -46.998l-147 -12c-13.333 -0.666992 -22.833 -3.5 -28.5 -8.5s-8.5 -11.833 -8.5 -20.5v-13c0 -10.667 3.33301 -18.667 10 -24s16.667 -8 30 -8s27 2.83301 41 8.5s27.5 13 40.5 22
s23.833 18.167 32.5 27.5v-41c-4 -7.33301 -10.167 -16.333 -18.5 -27s-18.666 -21.334 -30.999 -32.001s-27.166 -19.334 -44.499 -26.001s-36.666 -10 -57.999 -10c-30 0 -55.333 7.66699 -76 23s-31 38 -31 68v36c0 26 9 46.5 27 61.5s43 22.5 75 22.5h188z" />
    <glyph glyph-name="guillemotleft" unicode="&#xab;" horiz-adv-x="519" 
d="M399 465l78 -50l-106 -164l107 -169l-78 -50l-160 203v32zM191 465l78 -50l-106 -164l107 -169l-78 -50l-160 203v32z" />
    <glyph glyph-name="logicalnot" unicode="&#xac;" horiz-adv-x="580" 
d="M518 356v-105h-461v105h461zM518 346v-211h-111v205z" />
    <glyph glyph-name="uni00AD" unicode="&#xad;" horiz-adv-x="414" 
d="M356 302v-94h-298v94h298z" />
    <glyph glyph-name="registered" unicode="&#xae;" horiz-adv-x="523" 
d="M262 703c41.333 0 78.666 -10 111.999 -30s60 -46.667 80 -80s30 -70.666 30 -111.999s-10 -78.833 -30 -112.5s-46.667 -60.5 -80 -80.5s-70.666 -30 -111.999 -30s-78.833 10 -112.5 30s-60.5 46.833 -80.5 80.5s-30 71.167 -30 112.5s10 78.666 30 111.999
s46.833 60 80.5 80s71.167 30 112.5 30zM225 600v-233h-63v233h63zM262 660c-32.667 0 -62.5 -8.16699 -89.5 -24.5s-48.667 -38 -65 -65s-24.5 -56.833 -24.5 -89.5s8.16699 -62.667 24.5 -90s38 -49 65 -65s56.833 -24 89.5 -24s62.334 8 89.001 24s48 37.667 64 65
s24 57.333 24 90s-8 62.5 -24 89.5s-37.333 48.667 -64 65s-56.334 24.5 -89.001 24.5zM269 603c36 0 62.168 -4.83008 78.501 -14.4971s24.5 -27.834 24.5 -54.501c0 -14.667 -4 -27.167 -12 -37.5s-22 -16.833 -42 -19.5v-1c7.33301 -0.666992 15 -3.5 23 -8.5
s13.667 -14.167 17 -27.5l23 -73h-66l-19 70c-3.33301 8 -7.16602 13.167 -11.499 15.5s-10.5 3.5 -18.5 3.5h-63c-14 0 -26 0.333008 -36 1l1 39h98c16.667 0.666992 28 3.16699 34 7.5s8.66699 12.166 8 23.499c0.666992 12.667 -2 21 -8 25s-17.333 6 -34 6h-61.5
c-17.667 0 -29.5 -0.666992 -35.5 -2l-7 44c17.333 1.33301 33.166 2.16602 47.499 2.49902s34.166 0.5 59.499 0.5z" />
    <glyph glyph-name="macron" unicode="&#xaf;" horiz-adv-x="400" 
d="M350 693v-94h-300v94h300z" />
    <glyph glyph-name="degree" unicode="&#xb0;" horiz-adv-x="344" 
d="M172 704c24.667 0 47.334 -6 68.001 -18s37.167 -28.167 49.5 -48.5s18.5 -42.5 18.5 -66.5c0 -24.667 -6.16699 -47.334 -18.5 -68.001s-28.833 -37 -49.5 -49s-43.334 -18 -68.001 -18s-47.334 6 -68.001 18s-37.167 28.333 -49.5 49s-18.5 43.334 -18.5 68.001
c0 24 6.16699 46 18.5 66s28.833 36.167 49.5 48.5s43.334 18.5 68.001 18.5zM173 632c-17.333 0 -31.998 -5.66699 -43.998 -17s-18 -26.333 -18 -45c0 -11.333 2.83301 -21.833 8.5 -31.5s13.167 -17.167 22.5 -22.5s19.666 -8 30.999 -8c10.667 0 20.5 2.66699 29.5 8
s16.333 12.833 22 22.5s8.5 20.167 8.5 31.5c0 18.667 -5.83301 33.667 -17.5 45s-25.834 17 -42.501 17z" />
    <glyph glyph-name="plusminus" unicode="&#xb1;" horiz-adv-x="573" 
d="M514 428v-109h-455v109h455zM514 154v-110h-455v110h455zM341 549v-350h-109v350h109z" />
    <glyph glyph-name="uni00B2" unicode="&#xb2;" horiz-adv-x="423" 
d="M201 777c36.667 0 67.334 -2.66895 92.001 -8.00195s43 -15.833 55 -31.5s18 -38.167 18 -67.5c0 -17.333 -6 -36.333 -18 -57s-30 -42.334 -54 -65.001l-106 -97c11.333 2.66699 21.5 4.33398 30.5 5.00098s19.167 0.666992 30.5 0l131 -2l-1 -94h-332v57
c0 9.33301 1.16699 17.833 3.5 25.5s6.5 14.5 12.5 20.5l100 94c16 14.667 29.5 27.834 40.5 39.501s19.833 22.334 26.5 32.001s10.667 18.5 12 26.5c2 12 -1.83301 19.667 -11.5 23s-23.167 5 -40.5 5c-21.333 0 -41.833 -0.333008 -61.5 -1s-44.167 -1.66699 -73.5 -3
l-4 85c32 6 61.167 9.66699 87.5 11s47.166 2 62.499 2z" />
    <glyph glyph-name="uni00B3" unicode="&#xb3;" horiz-adv-x="409" 
d="M201 779c56.667 0 96.334 -6.83594 119.001 -20.5029s34 -38.834 34 -75.501c0 -30 -5 -53.667 -15 -71s-30 -28.333 -60 -33v-2c32.667 -4.66699 55.167 -15.167 67.5 -31.5s18.833 -40.166 19.5 -71.499c0.666992 -44 -11.333 -75.5 -36 -94.5
s-66.667 -28.5 -126 -28.5c-27.333 0 -54.666 1.16699 -81.999 3.5s-53.333 5.16602 -78 8.49902l4 82c18.667 -1.33301 34.667 -2.16602 48 -2.49902l38.5 -1c12.333 -0.333008 25.166 -0.5 38.499 -0.5c30.667 0 51 3.33301 61 10s15 19.334 15 38.001
c0 9.33301 -1.5 17.333 -4.5 24s-8.83301 11.834 -17.5 15.501s-22 5.5 -40 5.5l-86 1v72l86 3c17.333 0 30 2 38 6s13.167 9.16699 15.5 15.5s3.16602 13.5 2.49902 21.5c0 14.667 -4 24.334 -12 29.001s-24.667 7 -50 7c-22.667 0 -45 -0.166992 -67 -0.5
s-41.333 -0.833008 -58 -1.5l-4 79c25.333 4 50.5 7.16699 75.5 9.5s49.5 3.5 73.5 3.5z" />
    <glyph glyph-name="acute" unicode="&#xb4;" horiz-adv-x="353" 
d="M247 739l64 -100l-223 -111l-44 63z" />
    <glyph glyph-name="uni00B5" unicode="&#xb5;" horiz-adv-x="607" 
d="M208 494v-312.997c0 -27.333 4.83301 -45.333 14.5 -54s23.167 -13 40.5 -13c20.667 0 40 7.16699 58 21.5s32.833 34.666 44.5 60.999s17.834 57.166 18.501 92.499l3 -196c-9.33301 -19.333 -22 -37 -38 -53s-34.333 -28.833 -55 -38.5s-43.334 -14.5 -68.001 -14.5
c-30.667 0 -58.5 4.66699 -83.5 14s-45 24.666 -60 45.999s-22.5 49.333 -22.5 84v363h148zM207 101.003v-171l-18 -120h-129v374zM531 494.003l-0.000976562 -359c0 -10.667 0.666992 -19.667 2 -27s3.83301 -12.833 7.5 -16.5s9.5 -5.5 17.5 -5.5h31l6 -76
c-15.333 -6 -32.666 -11.167 -51.999 -15.5s-39.333 -6.5 -60 -6.5c-28 0 -51 7.33301 -69 22s-27 37.667 -27 69v14l-3 16v385h147z" />
    <glyph glyph-name="paragraph" unicode="&#xb6;" horiz-adv-x="607" 
d="M352 702c23.333 0 51.1699 -1.16992 83.5029 -3.50293s61.5 -6.83301 87.5 -13.5l-6 -85c-16.667 3.33301 -35.834 5.83301 -57.501 7.5s-43 2.83398 -64 3.50098s-39.5 1 -55.5 1l-68 -412c-86.667 6.66699 -148.667 29.334 -186 68.001s-56 99.334 -56 182.001
c0 62 10.667 111.333 32 148s55.666 63.167 102.999 79.5s109.666 24.5 186.999 24.5zM359.004 684.997v-895h-97v895h97zM523.004 684.997v-685h-96v685h96z" />
    <glyph glyph-name="periodcentered" unicode="&#xb7;" horiz-adv-x="251" 
d="M144 334c19.333 0 32.833 -3.83301 40.5 -11.5s11.5 -21.167 11.5 -40.5v-48c0 -19.333 -3.83301 -32.833 -11.5 -40.5s-21.167 -11.5 -40.5 -11.5h-38c-19.333 0 -32.833 3.83301 -40.5 11.5s-11.5 21.167 -11.5 40.5v48c0 19.333 3.83301 32.833 11.5 40.5
s21.167 11.5 40.5 11.5h38z" />
    <glyph glyph-name="cedilla" unicode="&#xb8;" horiz-adv-x="249" 
d="M81 -38c34 4 61.666 5.16699 82.999 3.5s37 -7.66699 47 -18s14.667 -27.166 14 -50.499c-1.33301 -33.333 -11 -60.833 -29 -82.5s-42 -36.834 -72 -45.501s-63.333 -10.667 -100 -6l17 62c24.667 -0.666992 45.5 3.5 62.5 12.5s26.167 24.5 27.5 46.5
c1.33301 10 -2.16699 16 -10.5 18s-26.166 3.33301 -53.499 4z" />
    <glyph glyph-name="uni00B9" unicode="&#xb9;" horiz-adv-x="308" 
d="M243 771v-411h-114v270c0 8 0.333008 16 1 24s1.66699 16.333 3 25l-102 -22l-13 73l111 41h114z" />
    <glyph glyph-name="ordmasculine" unicode="&#xba;" horiz-adv-x="439" 
d="M220 615c64.667 0 110.334 -13.167 137.001 -39.5s40 -71.833 40 -136.5c0 -41.333 -5.83301 -74.833 -17.5 -100.5s-30.334 -44 -56.001 -55s-60.167 -16.5 -103.5 -16.5c-65.333 0 -111.166 12.833 -137.499 38.5s-39.5 70.167 -39.5 133.5
c0 64.667 13.167 110.167 39.5 136.5s72.166 39.5 137.499 39.5zM220 537c-24.667 0 -41.5 -6.33301 -50.5 -19s-13.5 -38.667 -13.5 -78c0 -38.667 4.5 -64.334 13.5 -77.001s25.833 -19 50.5 -19s41.334 6.33301 50.001 19s13 38.334 13 77.001
c0 39.333 -4.33301 65.333 -13 78s-25.334 19 -50.001 19z" />
    <glyph glyph-name="guillemotright" unicode="&#xbb;" horiz-adv-x="519" 
d="M119 465l159 -198v-32l-160 -203l-78 50l107 169l-106 164zM327 465l159 -198v-32l-159 -203l-78 50l106 169l-105 164z" />
    <glyph glyph-name="onequarter" unicode="&#xbc;" horiz-adv-x="904" 
d="M664 690l-417 -690h-93l416 690h94zM251 690v-414h-114v273c0 8 0.333008 16 1 24s2 16.333 4 25l-101 -21l-13 72l109 41h114zM709 414l-102 -234c-2 -5.33301 -1.83301 -9.33301 0.5 -12s6.5 -4 12.5 -4h251v-68l-51 -10h-284c-18 0 -32 6.33301 -42 19
s-10.667 28 -2 46l115 263h102zM824 333v-333h-105v269l19 64h86z" />
    <glyph glyph-name="onehalf" unicode="&#xbd;" horiz-adv-x="915" 
d="M661 690l-417 -690h-94l417 690h94zM251 690v-414h-114v273c0 8 0.333008 16 1 24s2 16.333 4 25l-101 -21l-13 72l109 41h114zM696 421c37.333 0 68.334 -2.66797 93.001 -8.00098s43 -15.666 55 -30.999s18 -38 18 -68c0 -17.333 -6 -36.333 -18 -57
s-30 -42.334 -54 -65.001l-107 -100c11.333 2.66699 21.666 4.33398 30.999 5.00098s19.666 0.666992 30.999 0l131 -2l-1 -95h-332v59c0 9.33301 1.16699 17.666 3.5 24.999s6.5 14.333 12.5 21l100 94c23.333 22 41.833 41.333 55.5 58s21.834 31 24.501 43
c1.33301 12 -2.66699 19.5 -12 22.5s-23.333 4.5 -42 4.5c-22 0 -42.5 -0.166992 -61.5 -0.5s-43.167 -1.16602 -72.5 -2.49902l-4 84c32.667 6 61.667 9.66699 87 11s46 2 62 2z" />
    <glyph glyph-name="threequarters" unicode="&#xbe;" horiz-adv-x="986" 
d="M753 690l-417 -690h-94l416 690h95zM200 696c58 0 98.1641 -6.83789 120.497 -20.5049s33.5 -39.167 33.5 -76.5c0 -29.333 -5 -53 -15 -71s-30.667 -29.333 -62 -34v-2c34 -4.66699 57 -15.167 69 -31.5s18.333 -40.5 19 -72.5c1.33301 -44 -10.167 -75.5 -34.5 -94.5
s-66.833 -28.5 -127.5 -28.5c-26.667 0 -53.667 1.16699 -81 3.5s-53.666 4.83301 -78.999 7.5l4 82c18.667 -0.666992 34.834 -1.16699 48.501 -1.5s26.5 -0.666016 38.5 -0.999023s24.667 -0.5 38 -0.5c30.667 0 51.167 3.33301 61.5 10s15.5 19.667 15.5 39
c0 10.667 -1.5 19.334 -4.5 26.001s-8.83301 11.834 -17.5 15.501s-22 5.5 -40 5.5l-86 1v70l86 2c17.333 0 30 2 38 6s13 9.33301 15 16s3 14.334 3 23.001c0 15.333 -4.16699 25.333 -12.5 30s-25.166 7 -50.499 7c-23.333 0.666992 -45.666 0.833984 -66.999 0.500977
s-40.333 -0.833008 -57 -1.5l-4 79c25.333 4 50.166 7 74.499 9s48.833 3 73.5 3zM791.997 413.995l-102 -234c-2 -5.33301 -1.66699 -9.33301 1 -12s7 -4 13 -4h250v-68l-51 -10h-284c-18 0 -32 6.33301 -42 19s-10.667 28 -2 46l114 263h103zM905.997 332.995v-333h-105
v269l18 64h87z" />
    <glyph glyph-name="questiondown" unicode="&#xbf;" horiz-adv-x="516" 
d="M331 290c1.33301 -35.333 -2.50195 -66.166 -11.502 -92.499s-20.5 -49.5 -34.5 -69.5s-28.333 -38.167 -43 -54.5s-27.167 -31.833 -37.5 -46.5s-16.166 -30 -17.499 -46c-2 -22.667 4.33301 -39.167 19 -49.5s39.334 -15.5 74.001 -15.5c34 0 61.5 0.166992 82.5 0.5
s40.5 0.833008 58.5 1.5s38.333 1.66699 61 3l5 -100c-19.333 -3.33301 -36.666 -6.5 -51.999 -9.5s-31.5 -5.66699 -48.5 -8s-36.667 -4 -59 -5s-49.833 -1.5 -82.5 -1.5c-72 0 -125.833 12.667 -161.5 38s-53.5 64.333 -53.5 117c0 29.333 5.66699 54.666 17 75.999
s25.666 40.833 42.999 58.5l52.5 54.5c17.667 18.667 33 39.667 46 63s20.833 52 23.5 86h119zM288.998 509c20 0 33.667 -3.83301 41 -11.5s11 -21.167 11 -40.5v-49c0 -19.333 -3.66699 -32.666 -11 -39.999s-21 -11 -41 -11h-34c-20 0 -33.667 3.66699 -41 11
s-11 20.666 -11 39.999v49c0 19.333 3.66699 32.833 11 40.5s21 11.5 41 11.5h34z" />
    <glyph glyph-name="Agrave" unicode="&#xc0;" horiz-adv-x="653" 
d="M399 690c12.667 0 23.8311 -3.66797 33.498 -11.001s16.167 -17 19.5 -29l200 -650h-156l-141 507l-8 34.5c-2.66699 11.667 -5 22.834 -7 33.501h-27l-6.5 -33.5c-2.33301 -11.667 -5.16602 -23.167 -8.49902 -34.5l-141 -507h-157l201 650
c3.33301 12 9.83301 21.667 19.5 29s20.834 11 33.501 11h145zM504.997 296.999v-115h-358v115h358zM202.997 940.999l203 -148l-43 -63l-224 112z" />
    <glyph glyph-name="Aacute" unicode="&#xc1;" horiz-adv-x="653" 
d="M399 690c12.667 0 23.8311 -3.66797 33.498 -11.001s16.167 -17 19.5 -29l200 -650h-156l-141 507l-8 34.5c-2.66699 11.667 -5 22.834 -7 33.501h-27l-6.5 -33.5c-2.33301 -11.667 -5.16602 -23.167 -8.49902 -34.5l-141 -507h-157l201 650
c3.33301 12 9.83301 21.667 19.5 29s20.834 11 33.501 11h145zM504.997 296.999v-115h-358v115h358zM442.997 934.999l64 -100l-223 -111l-44 63z" />
    <glyph glyph-name="Acircumflex" unicode="&#xc2;" horiz-adv-x="653" 
d="M399 690c12.667 0 23.8311 -3.66797 33.498 -11.001s16.167 -17 19.5 -29l200 -650h-156l-141 507l-8 34.5c-2.66699 11.667 -5 22.834 -7 33.501h-27l-6.5 -33.5c-2.33301 -11.667 -5.16602 -23.167 -8.49902 -34.5l-141 -507h-157l201 650
c3.33301 12 9.83301 21.667 19.5 29s20.834 11 33.501 11h145zM504.997 296.999v-115h-358v115h358zM381.997 909.999l134 -134l-39 -53l-144 95h-8l-147 -95l-39 57l136 130h107z" />
    <glyph glyph-name="Atilde" unicode="&#xc3;" horiz-adv-x="653" 
d="M399 690c12.667 0 23.8311 -3.66797 33.498 -11.001s16.167 -17 19.5 -29l200 -650h-156l-141 507l-8 34.5c-2.66699 11.667 -5 22.834 -7 33.501h-27l-6.5 -33.5c-2.33301 -11.667 -5.16602 -23.167 -8.49902 -34.5l-141 -507h-157l201 650
c3.33301 12 9.83301 21.667 19.5 29s20.834 11 33.501 11h145zM504.997 296.999v-115h-358v115h358zM233.997 896.999c16.667 -1.33301 31.6699 -4.16602 45.0029 -8.49902s26.166 -9.16602 38.499 -14.499l37 -15.5c12.333 -5 25.166 -8.5 38.499 -10.5
c17.333 -2.66699 28.166 -0.333984 32.499 6.99902s6.5 19.666 6.5 36.999h64c7.33301 -47.333 2.66602 -83.166 -14.001 -107.499s-39.334 -35.5 -68.001 -33.5c-22.667 2 -43.167 6.5 -61.5 13.5s-35.333 14.333 -51 22s-31.5 12.5 -47.5 14.5
c-16.667 2 -27.167 -0.666992 -31.5 -8s-6.5 -20 -6.5 -38h-64c-4.66699 33.333 -3.66699 60.666 3 81.999s17.334 37 32.001 47s30.334 14.333 47.001 13z" />
    <glyph glyph-name="Adieresis" unicode="&#xc4;" horiz-adv-x="653" 
d="M399 690c12.667 0 23.8311 -3.66797 33.498 -11.001s16.167 -17 19.5 -29l200 -650h-156l-141 507l-8 34.5c-2.66699 11.667 -5 22.834 -7 33.501h-27l-6.5 -33.5c-2.33301 -11.667 -5.16602 -23.167 -8.49902 -34.5l-141 -507h-157l201 650
c3.33301 12 9.83301 21.667 19.5 29s20.834 11 33.501 11h145zM504.997 296.999v-115h-358v115h358zM441.997 883.999c21.333 0 32 -10.667 32 -32v-59c0 -21.333 -10.667 -32 -32 -32h-49c-20.667 0 -31 10.667 -31 32v59c0 21.333 10.333 32 31 32h49zM258.997 883.999
c20.667 0 31 -10.667 31 -32v-59c0 -21.333 -10.333 -32 -31 -32h-49c-20.667 0 -31 10.667 -31 32v59c0 21.333 10.333 32 31 32h49z" />
    <glyph glyph-name="Aring" unicode="&#xc5;" horiz-adv-x="653" 
d="M399 690c12.667 0 23.8311 -3.66797 33.498 -11.001s16.167 -17 19.5 -29l200 -650h-156l-141 507l-8 34.5c-2.66699 11.667 -5 22.834 -7 33.501h-27l-6.5 -33.5c-2.33301 -11.667 -5.16602 -23.167 -8.49902 -34.5l-141 -507h-157l201 650
c3.33301 12 9.83301 21.667 19.5 29s20.834 11 33.501 11h145zM504.997 296.999v-115h-358v115h358zM327.997 943.999c21.333 0 41 -5.16602 59 -15.499s32.333 -24.166 43 -41.499s16 -36.666 16 -57.999s-5.33301 -40.833 -16 -58.5s-25 -31.667 -43 -42
s-37.667 -15.5 -59 -15.5s-41.166 5.16699 -59.499 15.5s-32.833 24.166 -43.5 41.499s-16 37 -16 59c0 21.333 5.33301 40.666 16 57.999s25.167 31.166 43.5 41.499s38.166 15.5 59.499 15.5zM326.997 881c-14 0 -26 -4.83301 -36 -14.5s-15 -22.5 -15 -38.5
c0 -15.333 5 -27.833 15 -37.5s22 -14.5 36 -14.5c15.333 0 27.833 4.83301 37.5 14.5s14.5 22.167 14.5 37.5c0 16 -4.83301 28.833 -14.5 38.5s-22.167 14.5 -37.5 14.5z" />
    <glyph glyph-name="AE" unicode="&#xc6;" horiz-adv-x="934" 
d="M572 692c62.667 0 118.999 -0.498047 168.999 -1.49805s101 -3.5 153 -7.5l-6 -110h-246c-16 0 -28.833 -4.83301 -38.5 -14.5s-14.5 -22.5 -14.5 -38.5v-352c0 -16.667 4.5 -29.334 13.5 -38.001s22.167 -13 39.5 -13h246l6 -110
c-49.333 -4.66699 -101.166 -7.5 -155.499 -8.5s-108.166 -1.5 -161.499 -1.5c-40 0 -71.833 13 -95.5 39s-35.5 59.333 -35.5 100v392c0 12 2.16699 24.333 6.5 37s9.83301 22.667 16.5 30h-11c-6.66699 -6 -13.5 -13.833 -20.5 -23.5s-13.5 -19.834 -19.5 -30.501
l-271 -541h-157l292 558c12 24.667 25.5 45.5 40.5 62.5s33.333 30.667 55 41s48.167 18 79.5 23s69.666 7.5 114.999 7.5zM482.999 304.002v-111h-330l5 111h325zM456.999 411.002l394 -1v-103h-394v104z" />
    <glyph glyph-name="Ccedilla" unicode="&#xc7;" horiz-adv-x="588" 
d="M339 702c32.667 0 60.499 -0.832031 83.499 -2.49902s44.167 -4.16699 63.5 -7.5s39.333 -8 60 -14l-12 -112c-22 1.33301 -42.167 2.33301 -60.5 3s-38 1.16699 -59 1.5s-46.167 0.5 -75.5 0.5c-34 0 -60.5 -6.66699 -79.5 -20s-32.5 -36.5 -40.5 -69.5
s-12 -78.5 -12 -136.5s4 -103.5 12 -136.5s21.5 -56.167 40.5 -69.5s45.5 -20 79.5 -20c46 0 84.667 0.666992 116 2s62.333 3.66602 93 6.99902l13 -112c-32 -10 -64.667 -17.167 -98 -21.5s-74.666 -6.5 -123.999 -6.5c-71.333 0 -128.5 11.5 -171.5 34.5
s-74 60.5 -93 112.5s-28.5 122 -28.5 210s9.5 158 28.5 210s50 89.5 93 112.5s100.167 34.5 171.5 34.5zM267.999 -59.999c34 4 61.666 5.16699 82.999 3.5s37 -7.66699 47 -18s14.667 -27.166 14 -50.499c-1.33301 -33.333 -11 -60.833 -29 -82.5s-42 -36.834 -72 -45.501
s-63.333 -10.667 -100 -6l17 62c24.667 -0.666992 45.5 3.5 62.5 12.5s26.167 24.5 27.5 46.5c1.33301 10 -2.16699 16 -10.5 18s-26.166 3.33301 -53.499 4z" />
    <glyph glyph-name="Egrave" unicode="&#xc8;" horiz-adv-x="578" 
d="M211 693c37.333 0 75 -0.166016 113 -0.499023s75.333 -1.16602 112 -2.49902s71 -3.66602 103 -6.99902l-7 -111h-265c-16.667 0 -29.167 -4.33301 -37.5 -13s-12.5 -21.334 -12.5 -38.001v-352c0 -16.667 4.16699 -29.334 12.5 -38.001s20.833 -13 37.5 -13h265l7 -111
c-32 -2.66699 -66.333 -4.83398 -103 -6.50098s-74 -2.66699 -112 -3s-75.667 -0.5 -113 -0.5c-44 0 -79.5 12.833 -106.5 38.5s-40.5 59.167 -40.5 100.5v418c0 42 13.5 75.667 40.5 101s62.5 38 106.5 38zM82 413.001h413v-108h-413v108zM192 952.001l203 -148l-43 -63
l-224 112z" />
    <glyph glyph-name="Eacute" unicode="&#xc9;" horiz-adv-x="578" 
d="M211 693c37.333 0 75 -0.166016 113 -0.499023s75.333 -1.16602 112 -2.49902s71 -3.66602 103 -6.99902l-7 -111h-265c-16.667 0 -29.167 -4.33301 -37.5 -13s-12.5 -21.334 -12.5 -38.001v-352c0 -16.667 4.16699 -29.334 12.5 -38.001s20.833 -13 37.5 -13h265l7 -111
c-32 -2.66699 -66.333 -4.83398 -103 -6.50098s-74 -2.66699 -112 -3s-75.667 -0.5 -113 -0.5c-44 0 -79.5 12.833 -106.5 38.5s-40.5 59.167 -40.5 100.5v418c0 42 13.5 75.667 40.5 101s62.5 38 106.5 38zM82 413.001h413v-108h-413v108zM432 946.001l64 -100l-223 -111
l-44 63z" />
    <glyph glyph-name="Ecircumflex" unicode="&#xca;" horiz-adv-x="578" 
d="M211 693c37.333 0 75 -0.166016 113 -0.499023s75.333 -1.16602 112 -2.49902s71 -3.66602 103 -6.99902l-7 -111h-265c-16.667 0 -29.167 -4.33301 -37.5 -13s-12.5 -21.334 -12.5 -38.001v-352c0 -16.667 4.16699 -29.334 12.5 -38.001s20.833 -13 37.5 -13h265l7 -111
c-32 -2.66699 -66.333 -4.83398 -103 -6.50098s-74 -2.66699 -112 -3s-75.667 -0.5 -113 -0.5c-44 0 -79.5 12.833 -106.5 38.5s-40.5 59.167 -40.5 100.5v418c0 42 13.5 75.667 40.5 101s62.5 38 106.5 38zM82 413.001h413v-108h-413v108zM370 920.001l134 -134l-39 -53
l-144 95h-8l-147 -95l-39 57l136 130h107z" />
    <glyph glyph-name="Edieresis" unicode="&#xcb;" horiz-adv-x="578" 
d="M211 693c37.333 0 75 -0.166016 113 -0.499023s75.333 -1.16602 112 -2.49902s71 -3.66602 103 -6.99902l-7 -111h-265c-16.667 0 -29.167 -4.33301 -37.5 -13s-12.5 -21.334 -12.5 -38.001v-352c0 -16.667 4.16699 -29.334 12.5 -38.001s20.833 -13 37.5 -13h265l7 -111
c-32 -2.66699 -66.333 -4.83398 -103 -6.50098s-74 -2.66699 -112 -3s-75.667 -0.5 -113 -0.5c-44 0 -79.5 12.833 -106.5 38.5s-40.5 59.167 -40.5 100.5v418c0 42 13.5 75.667 40.5 101s62.5 38 106.5 38zM82 413.001h413v-108h-413v108zM431 894.001
c21.333 0 32 -10.667 32 -32v-59c0 -21.333 -10.667 -32 -32 -32h-49c-20.667 0 -31 10.667 -31 32v59c0 21.333 10.333 32 31 32h49zM248 894.001c20.667 0 31 -10.667 31 -32v-59c0 -21.333 -10.333 -32 -31 -32h-49c-20.667 0 -31 10.667 -31 32v59
c0 21.333 10.333 32 31 32h49z" />
    <glyph glyph-name="Igrave" unicode="&#xcc;" horiz-adv-x="292" 
d="M222 690v-690h-152v690h152zM22 945l203 -148l-43 -63l-224 112z" />
    <glyph glyph-name="Iacute" unicode="&#xcd;" horiz-adv-x="292" 
d="M222 690v-690h-152v690h152zM262 939l64 -100l-223 -111l-44 63z" />
    <glyph glyph-name="Icircumflex" unicode="&#xce;" horiz-adv-x="292" 
d="M222 690v-690h-152v690h152zM200 913l134 -134l-39 -53l-144 95h-8l-147 -95l-39 57l136 130h107z" />
    <glyph glyph-name="Idieresis" unicode="&#xcf;" horiz-adv-x="292" 
d="M222 690v-690h-152v690h152zM261 888c21.333 0 32 -10.667 32 -32v-59c0 -21.333 -10.667 -32 -32 -32h-49c-20.667 0 -31 10.667 -31 32v59c0 21.333 10.333 32 31 32h49zM78 888c20.667 0 31 -10.667 31 -32v-59c0 -21.333 -10.333 -32 -31 -32h-49
c-20.667 0 -31 10.667 -31 32v59c0 21.333 10.333 32 31 32h49z" />
    <glyph glyph-name="Eth" unicode="&#xd0;" horiz-adv-x="685" 
d="M350 400v-77h-336v77h336zM342 700c54.667 0 100.834 -5.82812 138.501 -17.4951s68 -30.834 91 -57.501s39.833 -62.834 50.5 -108.501s16 -102.834 16 -171.501s-5.33301 -125.834 -16 -171.501s-27.5 -81.834 -50.5 -108.501s-53.333 -45.834 -91 -57.501
s-83.834 -17.5 -138.501 -17.5c-52.667 0 -101 1 -145 3s-86 4.33301 -126 7l64 113c25.333 -1.33301 55.5 -2.5 90.5 -3.5s73.833 -1.5 116.5 -1.5c34 0 60.833 6.83301 80.5 20.5s33.667 37.834 42 72.501s12.5 82.667 12.5 144s-4.16699 109.333 -12.5 144
s-22.333 59 -42 73s-46.5 21 -80.5 21c-40.667 0 -77 -0.166992 -109 -0.5s-63.333 -0.5 -94 -0.5l-68 108c40 2.66699 81.833 5 125.5 7s92.167 3 145.5 3zM224 690.005v-690h-153v690h153z" />
    <glyph glyph-name="Ntilde" unicode="&#xd1;" horiz-adv-x="722" 
d="M653 690l0.000976562 -635c0 -36.667 -18.333 -55 -55 -55h-84c-16.667 -0 -29.334 3.83301 -38.001 11.5s-16.667 19.167 -24 34.5l-191 362c-8 15.333 -15.833 32.333 -23.5 51s-14.167 36.667 -19.5 54h-11c2 -18 3.66699 -36.167 5 -54.5s2 -36.5 2 -54.5v-404h-145
v635c0 36.667 18.667 55 56 55h83c16 0 28.167 -3.83301 36.5 -11.5s16.5 -19.167 24.5 -34.5l185 -351c8 -15.333 16.333 -32.333 25 -51s17 -38 25 -58h12c-2 20 -3.5 39.5 -4.5 58.5s-1.5 37.833 -1.5 56.5l-1 391h144zM279.001 900
c16.667 -1.33301 31.6699 -4.16602 45.0029 -8.49902s26.166 -9.16602 38.499 -14.499l37 -15.5c12.333 -5 25.166 -8.5 38.499 -10.5c17.333 -2.66699 28.166 -0.333984 32.499 6.99902s6.5 19.666 6.5 36.999h64c7.33301 -47.333 2.66602 -83.166 -14.001 -107.499
s-39.334 -35.5 -68.001 -33.5c-22.667 2 -43.167 6.5 -61.5 13.5s-35.333 14.333 -51 22s-31.5 12.5 -47.5 14.5c-16.667 2 -27.167 -0.666992 -31.5 -8s-6.5 -20 -6.5 -38h-64c-4.66699 33.333 -3.66699 60.666 3 81.999s17.334 37 32.001 47s30.334 14.333 47.001 13z" />
    <glyph glyph-name="Ograve" unicode="&#xd2;" horiz-adv-x="688" 
d="M344 704c54.667 0 101 -5.83301 139 -17.5s68.5 -31 91.5 -58s39.833 -63.667 50.5 -110s16 -104.166 16 -173.499s-5.33301 -127.166 -16 -173.499s-27.5 -83 -50.5 -110s-53.5 -46.333 -91.5 -58s-84.333 -17.5 -139 -17.5s-101 5.83301 -139 17.5s-68.667 31 -92 58
s-40.333 63.667 -51 110s-16 104.166 -16 173.499s5.33301 127.166 16 173.499s27.667 83 51 110s54 46.333 92 58s84.333 17.5 139 17.5zM344 583c-35.333 0 -62.833 -7 -82.5 -21s-33.667 -38.167 -42 -72.5s-12.5 -82.5 -12.5 -144.5
c0 -61.333 4.16699 -109.333 12.5 -144s22.333 -59 42 -73s47.167 -21 82.5 -21c34.667 0 61.834 7 81.501 21s33.667 38.333 42 73s12.5 82.667 12.5 144c0 62 -4.16699 110.167 -12.5 144.5s-22.333 58.5 -42 72.5s-46.834 21 -81.501 21zM220 945l203 -148l-43 -63
l-224 112z" />
    <glyph glyph-name="Oacute" unicode="&#xd3;" horiz-adv-x="688" 
d="M344 704c54.667 0 101 -5.83301 139 -17.5s68.5 -31 91.5 -58s39.833 -63.667 50.5 -110s16 -104.166 16 -173.499s-5.33301 -127.166 -16 -173.499s-27.5 -83 -50.5 -110s-53.5 -46.333 -91.5 -58s-84.333 -17.5 -139 -17.5s-101 5.83301 -139 17.5s-68.667 31 -92 58
s-40.333 63.667 -51 110s-16 104.166 -16 173.499s5.33301 127.166 16 173.499s27.667 83 51 110s54 46.333 92 58s84.333 17.5 139 17.5zM344 583c-35.333 0 -62.833 -7 -82.5 -21s-33.667 -38.167 -42 -72.5s-12.5 -82.5 -12.5 -144.5
c0 -61.333 4.16699 -109.333 12.5 -144s22.333 -59 42 -73s47.167 -21 82.5 -21c34.667 0 61.834 7 81.501 21s33.667 38.333 42 73s12.5 82.667 12.5 144c0 62 -4.16699 110.167 -12.5 144.5s-22.333 58.5 -42 72.5s-46.834 21 -81.501 21zM459 949l64 -100l-223 -111
l-44 63z" />
    <glyph glyph-name="Ocircumflex" unicode="&#xd4;" horiz-adv-x="688" 
d="M344 704c54.667 0 101 -5.83301 139 -17.5s68.5 -31 91.5 -58s39.833 -63.667 50.5 -110s16 -104.166 16 -173.499s-5.33301 -127.166 -16 -173.499s-27.5 -83 -50.5 -110s-53.5 -46.333 -91.5 -58s-84.333 -17.5 -139 -17.5s-101 5.83301 -139 17.5s-68.667 31 -92 58
s-40.333 63.667 -51 110s-16 104.166 -16 173.499s5.33301 127.166 16 173.499s27.667 83 51 110s54 46.333 92 58s84.333 17.5 139 17.5zM344 583c-35.333 0 -62.833 -7 -82.5 -21s-33.667 -38.167 -42 -72.5s-12.5 -82.5 -12.5 -144.5
c0 -61.333 4.16699 -109.333 12.5 -144s22.333 -59 42 -73s47.167 -21 82.5 -21c34.667 0 61.834 7 81.501 21s33.667 38.333 42 73s12.5 82.667 12.5 144c0 62 -4.16699 110.167 -12.5 144.5s-22.333 58.5 -42 72.5s-46.834 21 -81.501 21zM398 913l134 -134l-39 -53
l-144 95h-8l-147 -95l-39 57l136 130h107z" />
    <glyph glyph-name="Otilde" unicode="&#xd5;" horiz-adv-x="688" 
d="M344 704c54.667 0 101 -5.83301 139 -17.5s68.5 -31 91.5 -58s39.833 -63.667 50.5 -110s16 -104.166 16 -173.499s-5.33301 -127.166 -16 -173.499s-27.5 -83 -50.5 -110s-53.5 -46.333 -91.5 -58s-84.333 -17.5 -139 -17.5s-101 5.83301 -139 17.5s-68.667 31 -92 58
s-40.333 63.667 -51 110s-16 104.166 -16 173.499s5.33301 127.166 16 173.499s27.667 83 51 110s54 46.333 92 58s84.333 17.5 139 17.5zM344 583c-35.333 0 -62.833 -7 -82.5 -21s-33.667 -38.167 -42 -72.5s-12.5 -82.5 -12.5 -144.5
c0 -61.333 4.16699 -109.333 12.5 -144s22.333 -59 42 -73s47.167 -21 82.5 -21c34.667 0 61.834 7 81.501 21s33.667 38.333 42 73s12.5 82.667 12.5 144c0 62 -4.16699 110.167 -12.5 144.5s-22.333 58.5 -42 72.5s-46.834 21 -81.501 21zM250 900
c16.667 -1.33301 31.6699 -4.16602 45.0029 -8.49902s26.166 -9.16602 38.499 -14.499l37 -15.5c12.333 -5 25.166 -8.5 38.499 -10.5c17.333 -2.66699 28.166 -0.333984 32.499 6.99902s6.5 19.666 6.5 36.999h64c7.33301 -47.333 2.66602 -83.166 -14.001 -107.499
s-39.334 -35.5 -68.001 -33.5c-22.667 2 -43.167 6.5 -61.5 13.5s-35.333 14.333 -51 22s-31.5 12.5 -47.5 14.5c-16.667 2 -27.167 -0.666992 -31.5 -8s-6.5 -20 -6.5 -38h-64c-4.66699 33.333 -3.66699 60.666 3 81.999s17.334 37 32.001 47s30.334 14.333 47.001 13z" />
    <glyph glyph-name="Odieresis" unicode="&#xd6;" horiz-adv-x="688" 
d="M344 704c54.667 0 101 -5.83301 139 -17.5s68.5 -31 91.5 -58s39.833 -63.667 50.5 -110s16 -104.166 16 -173.499s-5.33301 -127.166 -16 -173.499s-27.5 -83 -50.5 -110s-53.5 -46.333 -91.5 -58s-84.333 -17.5 -139 -17.5s-101 5.83301 -139 17.5s-68.667 31 -92 58
s-40.333 63.667 -51 110s-16 104.166 -16 173.499s5.33301 127.166 16 173.499s27.667 83 51 110s54 46.333 92 58s84.333 17.5 139 17.5zM344 583c-35.333 0 -62.833 -7 -82.5 -21s-33.667 -38.167 -42 -72.5s-12.5 -82.5 -12.5 -144.5
c0 -61.333 4.16699 -109.333 12.5 -144s22.333 -59 42 -73s47.167 -21 82.5 -21c34.667 0 61.834 7 81.501 21s33.667 38.333 42 73s12.5 82.667 12.5 144c0 62 -4.16699 110.167 -12.5 144.5s-22.333 58.5 -42 72.5s-46.834 21 -81.501 21zM459 888
c21.333 0 32 -10.667 32 -32v-59c0 -21.333 -10.667 -32 -32 -32h-49c-20.667 0 -31 10.667 -31 32v59c0 21.333 10.333 32 31 32h49zM276 888c20.667 0 31 -10.667 31 -32v-59c0 -21.333 -10.333 -32 -31 -32h-49c-20.667 0 -31 10.667 -31 32v59c0 21.333 10.333 32 31 32
h49z" />
    <glyph glyph-name="multiply" unicode="&#xd7;" horiz-adv-x="495" 
d="M397 496l-365 -326l70 -83l365 325zM102 496l-70 -84l365 -325l70 83z" />
    <glyph glyph-name="Oslash" unicode="&#xd8;" horiz-adv-x="688" 
d="M500 754l52 -24l-372 -795l-51 24zM344 704c54.667 0 101 -5.83301 139 -17.5s68.5 -31 91.5 -58s39.833 -63.667 50.5 -110s16 -104.166 16 -173.499s-5.33301 -127.166 -16 -173.499s-27.5 -83 -50.5 -110s-53.5 -46.333 -91.5 -58s-84.333 -17.5 -139 -17.5
s-101 5.83301 -139 17.5s-68.667 31 -92 58s-40.333 63.667 -51 110s-16 104.166 -16 173.499s5.33301 127.166 16 173.499s27.667 83 51 110s54 46.333 92 58s84.333 17.5 139 17.5zM344 583c-35.333 0 -62.833 -7 -82.5 -21s-33.667 -38.167 -42 -72.5
s-12.5 -82.5 -12.5 -144.5c0 -61.333 4.16699 -109.333 12.5 -144s22.333 -59 42 -73s47.167 -21 82.5 -21c34.667 0 61.834 7 81.501 21s33.667 38.333 42 73s12.5 82.667 12.5 144c0 62 -4.16699 110.167 -12.5 144.5s-22.333 58.5 -42 72.5s-46.834 21 -81.501 21z" />
    <glyph glyph-name="Ugrave" unicode="&#xd9;" horiz-adv-x="686" 
d="M621 690v-415c0 -70 -8.66699 -126.167 -26 -168.5s-45.833 -73 -85.5 -92s-92.5 -28.5 -158.5 -28.5c-70 0 -126 9.5 -168 28.5s-72.333 49.667 -91 92s-28 98.5 -28 168.5v415h153v-415c0 -43.333 3.83301 -77.166 11.5 -101.499s20.834 -41.5 39.501 -51.5
s43.667 -15 75 -15s56.166 5 74.499 15s31.333 27.167 39 51.5s11.5 58.166 11.5 101.499v415h153zM220 945l203 -148l-43 -63l-224 112z" />
    <glyph glyph-name="Uacute" unicode="&#xda;" horiz-adv-x="686" 
d="M621 690v-415c0 -70 -8.66699 -126.167 -26 -168.5s-45.833 -73 -85.5 -92s-92.5 -28.5 -158.5 -28.5c-70 0 -126 9.5 -168 28.5s-72.333 49.667 -91 92s-28 98.5 -28 168.5v415h153v-415c0 -43.333 3.83301 -77.166 11.5 -101.499s20.834 -41.5 39.501 -51.5
s43.667 -15 75 -15s56.166 5 74.499 15s31.333 27.167 39 51.5s11.5 58.166 11.5 101.499v415h153zM460 939l64 -100l-223 -111l-44 63z" />
    <glyph glyph-name="Ucircumflex" unicode="&#xdb;" horiz-adv-x="686" 
d="M621 690v-415c0 -70 -8.66699 -126.167 -26 -168.5s-45.833 -73 -85.5 -92s-92.5 -28.5 -158.5 -28.5c-70 0 -126 9.5 -168 28.5s-72.333 49.667 -91 92s-28 98.5 -28 168.5v415h153v-415c0 -43.333 3.83301 -77.166 11.5 -101.499s20.834 -41.5 39.501 -51.5
s43.667 -15 75 -15s56.166 5 74.499 15s31.333 27.167 39 51.5s11.5 58.166 11.5 101.499v415h153zM398 913l134 -134l-39 -53l-144 95h-8l-147 -95l-39 57l136 130h107z" />
    <glyph glyph-name="Udieresis" unicode="&#xdc;" horiz-adv-x="686" 
d="M621 690v-415c0 -70 -8.66699 -126.167 -26 -168.5s-45.833 -73 -85.5 -92s-92.5 -28.5 -158.5 -28.5c-70 0 -126 9.5 -168 28.5s-72.333 49.667 -91 92s-28 98.5 -28 168.5v415h153v-415c0 -43.333 3.83301 -77.166 11.5 -101.499s20.834 -41.5 39.501 -51.5
s43.667 -15 75 -15s56.166 5 74.499 15s31.333 27.167 39 51.5s11.5 58.166 11.5 101.499v415h153zM459 888c21.333 0 32 -10.667 32 -32v-59c0 -21.333 -10.667 -32 -32 -32h-49c-20.667 0 -31 10.667 -31 32v59c0 21.333 10.333 32 31 32h49zM276 888
c20.667 0 31 -10.667 31 -32v-59c0 -21.333 -10.333 -32 -31 -32h-49c-20.667 0 -31 10.667 -31 32v59c0 21.333 10.333 32 31 32h49z" />
    <glyph glyph-name="Yacute" unicode="&#xdd;" horiz-adv-x="612" 
d="M611 690l-233 -471h-144l-234 471h159l116 -254c6 -13.333 11 -27.666 15 -42.999l11 -44h10l12 44c4 15.333 8.66699 29.666 14 42.999l115 254h159zM382 312v-312h-153v312h153zM423 934l64 -100l-223 -111l-44 63z" />
    <glyph glyph-name="Thorn" unicode="&#xde;" horiz-adv-x="613" 
d="M331 573c63.333 0 113.168 -6.66602 149.501 -19.999s62.166 -36.333 77.499 -69s23 -78.667 23 -138s-7.33301 -105.333 -22 -138s-38.834 -55.5 -72.501 -68.5s-78.834 -19.5 -135.501 -19.5c-30.667 0 -60.5 1.33301 -89.5 4s-56 6 -81 10s-46.167 8.33301 -63.5 13
s-29.666 8.66699 -36.999 12l3 76h120.5h124.5c25.333 0.666992 45.333 4 60 10s25 17 31 33s9 38.667 9 68c0 30 -3 53 -9 69s-16.333 27.167 -31 33.5s-34.667 9.5 -60 9.5c-60.667 0 -112.667 -0.333008 -156 -1s-72.666 -1.66699 -87.999 -3l-14 110
c27.333 2.66699 53 4.66699 77 6s50.5 2.16602 79.5 2.49902s63.833 0.5 104.5 0.5zM223.002 690.001v-690h-153v690h153z" />
    <glyph glyph-name="germandbls" unicode="&#xdf;" horiz-adv-x="707" 
d="M355 732c62 0 110.667 -4.83691 146 -14.5039s60.166 -25.5 74.499 -47.5s21.5 -51.667 21.5 -89c0 -15.333 -1.66699 -29.166 -5 -41.499s-9.66602 -24.833 -18.999 -37.5s-23.333 -26.667 -42 -42l-37 -28.5c-10.667 -8.33301 -19 -16.666 -25 -24.999
s-9 -18.166 -9 -29.499c0 -14 6 -25.667 18 -35s26.667 -19.666 44 -30.999l78 -44c20.667 -14 37.167 -26.667 49.5 -38s21.333 -24.333 27 -39s8.5 -33.334 8.5 -56.001c0 -35.333 -6.16699 -63.5 -18.5 -84.5s-32.666 -36.333 -60.999 -46s-65.5 -14.5 -111.5 -14.5
c-24.667 0 -50.5 0.833008 -77.5 2.5s-58.167 4.5 -93.5 8.5l9 96c21.333 -0.666992 42.5 -1.16699 63.5 -1.5s42.5 -0.5 64.5 -0.5c19.333 0 34.5 0.833008 45.5 2.5s19 5.66699 24 12s7.5 16.5 7.5 30.5c0 11.333 -3.16699 21.166 -9.5 29.499s-15 16.5 -26 24.5l-37.5 26
l-68 33c-22.667 14.667 -40.834 30.834 -54.501 48.501s-20.5 40.167 -20.5 67.5c0 19.333 4 35.333 12 48s19 24.5 33 35.5s29.333 24.167 46 39.5c18.667 16 31.5 29.5 38.5 40.5s10.5 24.833 10.5 41.5c0 12.667 -2.83301 22.834 -8.5 30.501
s-15.834 13.334 -30.501 17.001s-36 5.5 -64 5.5s-49.833 -2.33301 -65.5 -7s-26.5 -13.334 -32.5 -26.001s-9 -31 -9 -55v-538h-148v555c0 36 5 65.5 15 88.5s25.333 41 46 54s46.834 22 78.501 27s69.167 7.5 112.5 7.5zM176 493.996v-98h-158v94l87 4h71z" />
    <glyph glyph-name="agrave" unicode="&#xe0;" horiz-adv-x="570" 
d="M321 507c41.333 0 76.334 -5.49805 105.001 -16.498s50.5 -29.667 65.5 -56s22.5 -62.5 22.5 -108.5v-326h-118l-21 107l-10 15v205c0 23.333 -5.5 40.333 -16.5 51s-31.833 16 -62.5 16c-25.333 0 -57 -0.833008 -95 -2.5s-77 -3.83398 -117 -6.50098l-14 98
c24 4.66699 51.667 8.66699 83 12s62.666 6.16602 93.999 8.49902s59.333 3.5 84 3.5zM453.001 304.002l-1 -83l-220 -1c-18 0 -30.833 -4.33301 -38.5 -13s-11.5 -20.334 -11.5 -35.001v-24c0 -16.667 4.66699 -29.5 14 -38.5s24.333 -13.5 45 -13.5
c17.333 0 36.166 3.66699 56.499 11s40.5 17.666 60.5 30.999s37.667 29 53 47v-64c-6 -10 -14.833 -22.5 -26.5 -37.5s-26.5 -29.667 -44.5 -44s-39 -26.5 -63 -36.5s-51.333 -15 -82 -15c-30 0 -57 5.33301 -81 16s-43 26.334 -57 47.001s-21 46.334 -21 77.001v51
c0 39.333 13.333 70 40 92s63.334 33 110.001 33h267zM164.001 770.002l203 -148l-43 -63l-224 112z" />
    <glyph glyph-name="aacute" unicode="&#xe1;" horiz-adv-x="570" 
d="M321 507c41.333 0 76.334 -5.49805 105.001 -16.498s50.5 -29.667 65.5 -56s22.5 -62.5 22.5 -108.5v-326h-118l-21 107l-10 15v205c0 23.333 -5.5 40.333 -16.5 51s-31.833 16 -62.5 16c-25.333 0 -57 -0.833008 -95 -2.5s-77 -3.83398 -117 -6.50098l-14 98
c24 4.66699 51.667 8.66699 83 12s62.666 6.16602 93.999 8.49902s59.333 3.5 84 3.5zM453.001 304.002l-1 -83l-220 -1c-18 0 -30.833 -4.33301 -38.5 -13s-11.5 -20.334 -11.5 -35.001v-24c0 -16.667 4.66699 -29.5 14 -38.5s24.333 -13.5 45 -13.5
c17.333 0 36.166 3.66699 56.499 11s40.5 17.666 60.5 30.999s37.667 29 53 47v-64c-6 -10 -14.833 -22.5 -26.5 -37.5s-26.5 -29.667 -44.5 -44s-39 -26.5 -63 -36.5s-51.333 -15 -82 -15c-30 0 -57 5.33301 -81 16s-43 26.334 -57 47.001s-21 46.334 -21 77.001v51
c0 39.333 13.333 70 40 92s63.334 33 110.001 33h267zM404.001 764.002l64 -100l-223 -111l-44 63z" />
    <glyph glyph-name="acircumflex" unicode="&#xe2;" horiz-adv-x="570" 
d="M321 507c41.333 0 76.334 -5.49805 105.001 -16.498s50.5 -29.667 65.5 -56s22.5 -62.5 22.5 -108.5v-326h-118l-21 107l-10 15v205c0 23.333 -5.5 40.333 -16.5 51s-31.833 16 -62.5 16c-25.333 0 -57 -0.833008 -95 -2.5s-77 -3.83398 -117 -6.50098l-14 98
c24 4.66699 51.667 8.66699 83 12s62.666 6.16602 93.999 8.49902s59.333 3.5 84 3.5zM453.001 304.002l-1 -83l-220 -1c-18 0 -30.833 -4.33301 -38.5 -13s-11.5 -20.334 -11.5 -35.001v-24c0 -16.667 4.66699 -29.5 14 -38.5s24.333 -13.5 45 -13.5
c17.333 0 36.166 3.66699 56.499 11s40.5 17.666 60.5 30.999s37.667 29 53 47v-64c-6 -10 -14.833 -22.5 -26.5 -37.5s-26.5 -29.667 -44.5 -44s-39 -26.5 -63 -36.5s-51.333 -15 -82 -15c-30 0 -57 5.33301 -81 16s-43 26.334 -57 47.001s-21 46.334 -21 77.001v51
c0 39.333 13.333 70 40 92s63.334 33 110.001 33h267zM343.001 738.002l134 -134l-39 -53l-144 95h-8l-147 -95l-39 57l136 130h107z" />
    <glyph glyph-name="atilde" unicode="&#xe3;" horiz-adv-x="570" 
d="M321 507c41.333 0 76.334 -5.49805 105.001 -16.498s50.5 -29.667 65.5 -56s22.5 -62.5 22.5 -108.5v-326h-118l-21 107l-10 15v205c0 23.333 -5.5 40.333 -16.5 51s-31.833 16 -62.5 16c-25.333 0 -57 -0.833008 -95 -2.5s-77 -3.83398 -117 -6.50098l-14 98
c24 4.66699 51.667 8.66699 83 12s62.666 6.16602 93.999 8.49902s59.333 3.5 84 3.5zM453.001 304.002l-1 -83l-220 -1c-18 0 -30.833 -4.33301 -38.5 -13s-11.5 -20.334 -11.5 -35.001v-24c0 -16.667 4.66699 -29.5 14 -38.5s24.333 -13.5 45 -13.5
c17.333 0 36.166 3.66699 56.499 11s40.5 17.666 60.5 30.999s37.667 29 53 47v-64c-6 -10 -14.833 -22.5 -26.5 -37.5s-26.5 -29.667 -44.5 -44s-39 -26.5 -63 -36.5s-51.333 -15 -82 -15c-30 0 -57 5.33301 -81 16s-43 26.334 -57 47.001s-21 46.334 -21 77.001v51
c0 39.333 13.333 70 40 92s63.334 33 110.001 33h267zM195.001 725.002c16.667 -1.33301 31.6699 -4.16602 45.0029 -8.49902s26.166 -9.16602 38.499 -14.499l37 -15.5c12.333 -5 25.166 -8.5 38.499 -10.5c17.333 -2.66699 28.166 -0.333984 32.499 6.99902
s6.5 19.666 6.5 36.999h64c7.33301 -47.333 2.66602 -83.166 -14.001 -107.499s-39.334 -35.5 -68.001 -33.5c-22.667 2 -43.167 6.5 -61.5 13.5s-35.333 14.333 -51 22s-31.5 12.5 -47.5 14.5c-16.667 2 -27.167 -0.666992 -31.5 -8s-6.5 -20 -6.5 -38h-64
c-4.66699 33.333 -3.66699 60.666 3 81.999s17.334 37 32.001 47s30.334 14.333 47.001 13z" />
    <glyph glyph-name="adieresis" unicode="&#xe4;" horiz-adv-x="570" 
d="M321 507c41.333 0 76.334 -5.49805 105.001 -16.498s50.5 -29.667 65.5 -56s22.5 -62.5 22.5 -108.5v-326h-118l-21 107l-10 15v205c0 23.333 -5.5 40.333 -16.5 51s-31.833 16 -62.5 16c-25.333 0 -57 -0.833008 -95 -2.5s-77 -3.83398 -117 -6.50098l-14 98
c24 4.66699 51.667 8.66699 83 12s62.666 6.16602 93.999 8.49902s59.333 3.5 84 3.5zM453.001 304.002l-1 -83l-220 -1c-18 0 -30.833 -4.33301 -38.5 -13s-11.5 -20.334 -11.5 -35.001v-24c0 -16.667 4.66699 -29.5 14 -38.5s24.333 -13.5 45 -13.5
c17.333 0 36.166 3.66699 56.499 11s40.5 17.666 60.5 30.999s37.667 29 53 47v-64c-6 -10 -14.833 -22.5 -26.5 -37.5s-26.5 -29.667 -44.5 -44s-39 -26.5 -63 -36.5s-51.333 -15 -82 -15c-30 0 -57 5.33301 -81 16s-43 26.334 -57 47.001s-21 46.334 -21 77.001v51
c0 39.333 13.333 70 40 92s63.334 33 110.001 33h267zM403.001 713.002c21.333 0 32 -10.667 32 -32v-59c0 -21.333 -10.667 -32 -32 -32h-49c-20.667 0 -31 10.667 -31 32v59c0 21.333 10.333 32 31 32h49zM220.001 713.002c20.667 0 31 -10.667 31 -32v-59
c0 -21.333 -10.333 -32 -31 -32h-49c-20.667 0 -31 10.667 -31 32v59c0 21.333 10.333 32 31 32h49z" />
    <glyph glyph-name="aring" unicode="&#xe5;" horiz-adv-x="570" 
d="M321 507c41.333 0 76.334 -5.49805 105.001 -16.498s50.5 -29.667 65.5 -56s22.5 -62.5 22.5 -108.5v-326h-118l-21 107l-10 15v205c0 23.333 -5.5 40.333 -16.5 51s-31.833 16 -62.5 16c-25.333 0 -57 -0.833008 -95 -2.5s-77 -3.83398 -117 -6.50098l-14 98
c24 4.66699 51.667 8.66699 83 12s62.666 6.16602 93.999 8.49902s59.333 3.5 84 3.5zM453.001 304.002l-1 -83l-220 -1c-18 0 -30.833 -4.33301 -38.5 -13s-11.5 -20.334 -11.5 -35.001v-24c0 -16.667 4.66699 -29.5 14 -38.5s24.333 -13.5 45 -13.5
c17.333 0 36.166 3.66699 56.499 11s40.5 17.666 60.5 30.999s37.667 29 53 47v-64c-6 -10 -14.833 -22.5 -26.5 -37.5s-26.5 -29.667 -44.5 -44s-39 -26.5 -63 -36.5s-51.333 -15 -82 -15c-30 0 -57 5.33301 -81 16s-43 26.334 -57 47.001s-21 46.334 -21 77.001v51
c0 39.333 13.333 70 40 92s63.334 33 110.001 33h267zM289.001 773.002c21.333 0 41 -5.16602 59 -15.499s32.333 -24.166 43 -41.499s16 -36.666 16 -57.999s-5.33301 -40.833 -16 -58.5s-25 -31.667 -43 -42s-37.667 -15.5 -59 -15.5s-41.166 5.16699 -59.499 15.5
s-32.833 24.166 -43.5 41.499s-16 37 -16 59c0 21.333 5.33301 40.666 16 57.999s25.167 31.166 43.5 41.499s38.166 15.5 59.499 15.5zM288.001 710.003c-14 0 -26 -4.83301 -36 -14.5s-15 -22.5 -15 -38.5c0 -15.333 5 -27.833 15 -37.5s22 -14.5 36 -14.5
c15.333 0 27.833 4.83301 37.5 14.5s14.5 22.167 14.5 37.5c0 16 -4.83301 28.833 -14.5 38.5s-22.167 14.5 -37.5 14.5z" />
    <glyph glyph-name="ae" unicode="&#xe6;" horiz-adv-x="879" 
d="M611 507c83.333 0 142.834 -14.1699 178.501 -42.5029s53.834 -70.5 54.501 -126.5c0 -30.667 -5.16699 -56 -15.5 -76s-27.166 -34.833 -50.499 -44.5s-55 -14.5 -95 -14.5h-266v83h226c23.333 0 38.666 4.66699 45.999 14s11 23 11 41c0 22.667 -6.5 38.667 -19.5 48
s-34.5 14 -64.5 14c-28 0 -49.667 -3.66699 -65 -11s-26 -21.333 -32 -42s-9 -50.667 -9 -90c0 -41.333 3.66699 -73.166 11 -95.499s19.833 -37.833 37.5 -46.5s42.5 -13 74.5 -13c22.667 0 50.5 0.833008 83.5 2.5s66.5 4.5 100.5 8.5l14 -91
c-19.333 -9.33301 -41 -16.666 -65 -21.999s-48.833 -9.16602 -74.5 -11.499s-50.834 -3.5 -75.501 -3.5c-62 0 -111.833 9.16699 -149.5 27.5s-64.834 46.5 -81.501 84.5s-25 86.667 -25 146c0 64.667 8.33301 116 25 154s43.5 65.333 80.5 82s85.5 25 145.5 25z
M449.001 301.997l-0.998047 -82.001h-217c-17.333 0 -29.833 -4.33301 -37.5 -13s-11.5 -20.334 -11.5 -35.001v-24c0 -16.667 4.66699 -29.5 14 -38.5s23.666 -13.5 42.999 -13.5c17.333 0 36.166 3.66699 56.499 11s40.5 17.833 60.5 31.5s37.667 29.5 53 47.5l5 -68
c-6 -10.667 -15 -23.167 -27 -37.5s-27 -28.5 -45 -42.5s-39.333 -25.833 -64 -35.5s-53 -14.5 -85 -14.5c-29.333 0 -56 5.33301 -80 16s-42.833 26.334 -56.5 47.001s-20.5 46.334 -20.5 77.001v51c0 38 13.167 68 39.5 90s62.5 33 108.5 33h265zM318.003 506.996
c41.333 0 76.167 -5.49805 104.5 -16.498s49.833 -29.667 64.5 -56s22 -62.5 22 -108.5v-94h-149v95c0 23.333 -5.5 40.333 -16.5 51s-31.167 16 -60.5 16c-25.333 0 -56.833 -0.833008 -94.5 -2.5s-76.167 -3.83398 -115.5 -6.50098l-13 98
c23.333 4.66699 50.333 8.66699 81 12s61.667 6.16602 93 8.49902s59.333 3.5 84 3.5z" />
    <glyph glyph-name="ccedilla" unicode="&#xe7;" horiz-adv-x="509" 
d="M290 507c18 0 37.6631 -0.832031 58.9961 -2.49902s42.833 -4.66699 64.5 -9s41.5 -10.5 59.5 -18.5l-16 -93l-76.5 2c-24.333 0.666992 -46.166 1 -65.499 1c-30 0 -53.667 -4 -71 -12s-29.833 -22.167 -37.5 -42.5s-11.5 -48.5 -11.5 -84.5
c0 -36.667 3.83301 -65.334 11.5 -86.001s20.167 -35 37.5 -43s41 -12 71 -12c10.667 0 24.334 0.333008 41.001 1s34.667 1.5 54 2.5s38.333 2.83301 57 5.5l14 -94c-26.667 -12 -57 -20.667 -91 -26s-67.667 -8 -101 -8c-61.333 0 -110.166 8.5 -146.499 25.5
s-62.5 44.5 -78.5 82.5s-24 88.667 -24 152s8.16699 114 24.5 152s42.833 65.333 79.5 82s85.334 25 146.001 25zM220.996 -52.999c34 4 61.666 5.16699 82.999 3.5s37 -7.66699 47 -18s14.667 -27.166 14 -50.499c-1.33301 -33.333 -11 -60.833 -29 -82.5
s-42 -36.834 -72 -45.501s-63.333 -10.667 -100 -6l17 62c24.667 -0.666992 45.5 3.5 62.5 12.5s26.167 24.5 27.5 46.5c1.33301 10 -2.16699 16 -10.5 18s-26.166 3.33301 -53.499 4z" />
    <glyph glyph-name="egrave" unicode="&#xe8;" horiz-adv-x="564" 
d="M294 507c83.333 0 143.164 -14.1709 179.497 -42.5039s54.5 -70.5 54.5 -126.5c0.666992 -45.333 -10.666 -79.166 -33.999 -101.499s-63.666 -33.5 -120.999 -33.5h-276v83h235c22.667 0 37.167 4.83301 43.5 14.5s9.5 23.167 9.5 40.5
c-0.666992 23.333 -7.5 39.5 -20.5 48.5s-34.833 13.5 -65.5 13.5c-27.333 0 -48.666 -3.66699 -63.999 -11s-26 -21.333 -32 -42s-9 -50.667 -9 -90c0 -41.333 3.66699 -73.166 11 -95.499s19.833 -37.833 37.5 -46.5s42.167 -13 73.5 -13
c22.667 0 50.834 0.833008 84.501 2.5s67.5 4.5 101.5 8.5l14 -91c-19.333 -9.33301 -41.333 -16.666 -66 -21.999s-50 -9.16602 -76 -11.499s-51 -3.5 -75 -3.5c-62.667 0 -113.167 9.16699 -151.5 27.5s-66 46.5 -83 84.5s-25.5 86.667 -25.5 146
c0 64.667 8.66699 116 26 154s44.666 65.333 81.999 82s86.333 25 147 25zM171.998 765.996l203 -148l-43 -63l-224 112z" />
    <glyph glyph-name="eacute" unicode="&#xe9;" horiz-adv-x="564" 
d="M294 507c83.333 0 143.164 -14.1709 179.497 -42.5039s54.5 -70.5 54.5 -126.5c0.666992 -45.333 -10.666 -79.166 -33.999 -101.499s-63.666 -33.5 -120.999 -33.5h-276v83h235c22.667 0 37.167 4.83301 43.5 14.5s9.5 23.167 9.5 40.5
c-0.666992 23.333 -7.5 39.5 -20.5 48.5s-34.833 13.5 -65.5 13.5c-27.333 0 -48.666 -3.66699 -63.999 -11s-26 -21.333 -32 -42s-9 -50.667 -9 -90c0 -41.333 3.66699 -73.166 11 -95.499s19.833 -37.833 37.5 -46.5s42.167 -13 73.5 -13
c22.667 0 50.834 0.833008 84.501 2.5s67.5 4.5 101.5 8.5l14 -91c-19.333 -9.33301 -41.333 -16.666 -66 -21.999s-50 -9.16602 -76 -11.499s-51 -3.5 -75 -3.5c-62.667 0 -113.167 9.16699 -151.5 27.5s-66 46.5 -83 84.5s-25.5 86.667 -25.5 146
c0 64.667 8.66699 116 26 154s44.666 65.333 81.999 82s86.333 25 147 25zM412.998 759.996l64 -100l-223 -111l-44 63z" />
    <glyph glyph-name="ecircumflex" unicode="&#xea;" horiz-adv-x="564" 
d="M294 507c83.333 0 143.164 -14.1709 179.497 -42.5039s54.5 -70.5 54.5 -126.5c0.666992 -45.333 -10.666 -79.166 -33.999 -101.499s-63.666 -33.5 -120.999 -33.5h-276v83h235c22.667 0 37.167 4.83301 43.5 14.5s9.5 23.167 9.5 40.5
c-0.666992 23.333 -7.5 39.5 -20.5 48.5s-34.833 13.5 -65.5 13.5c-27.333 0 -48.666 -3.66699 -63.999 -11s-26 -21.333 -32 -42s-9 -50.667 -9 -90c0 -41.333 3.66699 -73.166 11 -95.499s19.833 -37.833 37.5 -46.5s42.167 -13 73.5 -13
c22.667 0 50.834 0.833008 84.501 2.5s67.5 4.5 101.5 8.5l14 -91c-19.333 -9.33301 -41.333 -16.666 -66 -21.999s-50 -9.16602 -76 -11.499s-51 -3.5 -75 -3.5c-62.667 0 -113.167 9.16699 -151.5 27.5s-66 46.5 -83 84.5s-25.5 86.667 -25.5 146
c0 64.667 8.66699 116 26 154s44.666 65.333 81.999 82s86.333 25 147 25zM350.998 733.996l134 -134l-39 -53l-144 95h-8l-147 -95l-39 57l136 130h107z" />
    <glyph glyph-name="edieresis" unicode="&#xeb;" horiz-adv-x="564" 
d="M294 507c83.333 0 143.164 -14.1709 179.497 -42.5039s54.5 -70.5 54.5 -126.5c0.666992 -45.333 -10.666 -79.166 -33.999 -101.499s-63.666 -33.5 -120.999 -33.5h-276v83h235c22.667 0 37.167 4.83301 43.5 14.5s9.5 23.167 9.5 40.5
c-0.666992 23.333 -7.5 39.5 -20.5 48.5s-34.833 13.5 -65.5 13.5c-27.333 0 -48.666 -3.66699 -63.999 -11s-26 -21.333 -32 -42s-9 -50.667 -9 -90c0 -41.333 3.66699 -73.166 11 -95.499s19.833 -37.833 37.5 -46.5s42.167 -13 73.5 -13
c22.667 0 50.834 0.833008 84.501 2.5s67.5 4.5 101.5 8.5l14 -91c-19.333 -9.33301 -41.333 -16.666 -66 -21.999s-50 -9.16602 -76 -11.499s-51 -3.5 -75 -3.5c-62.667 0 -113.167 9.16699 -151.5 27.5s-66 46.5 -83 84.5s-25.5 86.667 -25.5 146
c0 64.667 8.66699 116 26 154s44.666 65.333 81.999 82s86.333 25 147 25zM411.998 708.996c21.333 0 32 -10.667 32 -32v-59c0 -21.333 -10.667 -32 -32 -32h-49c-20.667 0 -31 10.667 -31 32v59c0 21.333 10.333 32 31 32h49zM228.998 708.996c20.667 0 31 -10.667 31 -32
v-59c0 -21.333 -10.333 -32 -31 -32h-49c-20.667 0 -31 10.667 -31 32v59c0 21.333 10.333 32 31 32h49z" />
    <glyph glyph-name="igrave" unicode="&#xec;" horiz-adv-x="277" 
d="M213 494v-494h-149v494h149zM13 766l203 -148l-43 -63l-224 112z" />
    <glyph glyph-name="iacute" unicode="&#xed;" horiz-adv-x="277" 
d="M213 494v-494h-149v494h149zM254 760l64 -100l-223 -111l-44 63z" />
    <glyph glyph-name="icircumflex" unicode="&#xee;" horiz-adv-x="277" 
d="M213 494v-494h-149v494h149zM191 734l134 -134l-39 -53l-144 95h-8l-147 -95l-39 57l136 130h107z" />
    <glyph glyph-name="idieresis" unicode="&#xef;" horiz-adv-x="277" 
d="M213 494v-494h-149v494h149zM252 709c21.333 0 32 -10.667 32 -32v-59c0 -21.333 -10.667 -32 -32 -32h-49c-20.667 0 -31 10.667 -31 32v59c0 21.333 10.333 32 31 32h49zM69 709c20.667 0 31 -10.667 31 -32v-59c0 -21.333 -10.333 -32 -31 -32h-49
c-20.667 0 -31 10.667 -31 32v59c0 21.333 10.333 32 31 32h49z" />
    <glyph glyph-name="eth" unicode="&#xf0;" horiz-adv-x="582" 
d="M138 698c48 3.33301 92.501 0.165039 133.501 -9.50195s77.833 -25.167 110.5 -46.5s60.334 -48.833 83.001 -82.5s40.167 -73.167 52.5 -118.5s18.5 -96.666 18.5 -153.999c0 -51.333 -4.33301 -95.833 -13 -133.5s-22.667 -68.834 -42 -93.501s-45 -43.167 -77 -55.5
s-71.333 -18.5 -118 -18.5c-84 0 -145.833 18.5 -185.5 55.5s-59.5 95.167 -59.5 174.5c0 52 7 95.333 21 130s36.667 60.834 68 78.501s73.333 26.5 126 26.5c17.333 0 37.166 -1.66699 59.499 -5s44.166 -10.333 65.499 -21s39.666 -27 54.999 -49l-8 -60
c-19.333 9.33301 -40.666 16.333 -63.999 21s-48.666 7 -75.999 7c-22.667 0 -40.667 -4 -54 -12s-23 -21.167 -29 -39.5s-9 -43.166 -9 -74.499c0 -46.667 7 -78.834 21 -96.501s37.667 -26.5 71 -26.5c27.333 0 47.5 6.33301 60.5 19s21.667 33.334 26 62.001
s6.5 66.334 6.5 113.001c0 51.333 -3.5 95.5 -10.5 132.5s-17.333 67.667 -31 92s-30.834 43.166 -51.501 56.499s-44.667 22.5 -72 27.5s-58 6.5 -92 4.5zM423.001 722.999l41 -50l-222 -184l-43 50z" />
    <glyph glyph-name="ntilde" unicode="&#xf1;" horiz-adv-x="601" 
d="M404 507c93.333 0 140 -45.668 140 -137.001v-370h-148v324c0 22 -4 37.167 -12 45.5s-21.667 12.5 -41 12.5c-21.333 0 -43.333 -4.16699 -66 -12.5s-50.667 -21.166 -84 -38.499l-7 83c35.333 30 71.5 53 108.5 69s73.5 24 109.5 24zM179 493.999l17 -98l12 -13v-383
h-148v494h119zM214 720.999c16.667 -1.33301 31.6699 -4.16602 45.0029 -8.49902s26.166 -9.16602 38.499 -14.499l37 -15.5c12.333 -5 25.166 -8.5 38.499 -10.5c17.333 -2.66699 28.166 -0.333984 32.499 6.99902s6.5 19.666 6.5 36.999h64
c7.33301 -47.333 2.66602 -83.166 -14.001 -107.499s-39.334 -35.5 -68.001 -33.5c-22.667 2 -43.167 6.5 -61.5 13.5s-35.333 14.333 -51 22s-31.5 12.5 -47.5 14.5c-16.667 2 -27.167 -0.666992 -31.5 -8s-6.5 -20 -6.5 -38h-64c-4.66699 33.333 -3.66699 60.666 3 81.999
s17.334 37 32.001 47s30.334 14.333 47.001 13z" />
    <glyph glyph-name="ograve" unicode="&#xf2;" 
d="M295 507c62 0 111.667 -8.5 149 -25.5s64.166 -44.5 80.499 -82.5s24.5 -89 24.5 -153c0 -62.667 -8.16699 -113 -24.5 -151s-43.166 -65.333 -80.499 -82s-87 -25 -149 -25c-61.333 0 -110.833 8.33301 -148.5 25s-64.834 44 -81.501 82s-25 88.333 -25 151
c0 64 8.33301 115 25 153s43.834 65.5 81.501 82.5s87.167 25.5 148.5 25.5zM295 399c-25.333 0 -45.333 -4.33301 -60 -13s-25 -24 -31 -46s-9 -53.333 -9 -94c0 -40 3 -71 9 -93s16.333 -37.167 31 -45.5s34.667 -12.5 60 -12.5s45.333 4.16699 60 12.5s25 23.5 31 45.5
s9 53 9 93c0 40.667 -3 72 -9 94s-16.333 37.333 -31 46s-34.667 13 -60 13zM172 759l203 -148l-43 -63l-224 112z" />
    <glyph glyph-name="oacute" unicode="&#xf3;" 
d="M295 507c62 0 111.667 -8.5 149 -25.5s64.166 -44.5 80.499 -82.5s24.5 -89 24.5 -153c0 -62.667 -8.16699 -113 -24.5 -151s-43.166 -65.333 -80.499 -82s-87 -25 -149 -25c-61.333 0 -110.833 8.33301 -148.5 25s-64.834 44 -81.501 82s-25 88.333 -25 151
c0 64 8.33301 115 25 153s43.834 65.5 81.501 82.5s87.167 25.5 148.5 25.5zM295 399c-25.333 0 -45.333 -4.33301 -60 -13s-25 -24 -31 -46s-9 -53.333 -9 -94c0 -40 3 -71 9 -93s16.333 -37.167 31 -45.5s34.667 -12.5 60 -12.5s45.333 4.16699 60 12.5s25 23.5 31 45.5
s9 53 9 93c0 40.667 -3 72 -9 94s-16.333 37.333 -31 46s-34.667 13 -60 13zM411 753l64 -100l-223 -111l-44 63z" />
    <glyph glyph-name="ocircumflex" unicode="&#xf4;" 
d="M295 507c62 0 111.667 -8.5 149 -25.5s64.166 -44.5 80.499 -82.5s24.5 -89 24.5 -153c0 -62.667 -8.16699 -113 -24.5 -151s-43.166 -65.333 -80.499 -82s-87 -25 -149 -25c-61.333 0 -110.833 8.33301 -148.5 25s-64.834 44 -81.501 82s-25 88.333 -25 151
c0 64 8.33301 115 25 153s43.834 65.5 81.501 82.5s87.167 25.5 148.5 25.5zM295 399c-25.333 0 -45.333 -4.33301 -60 -13s-25 -24 -31 -46s-9 -53.333 -9 -94c0 -40 3 -71 9 -93s16.333 -37.167 31 -45.5s34.667 -12.5 60 -12.5s45.333 4.16699 60 12.5s25 23.5 31 45.5
s9 53 9 93c0 40.667 -3 72 -9 94s-16.333 37.333 -31 46s-34.667 13 -60 13zM350 727l134 -134l-39 -53l-144 95h-8l-147 -95l-39 57l136 130h107z" />
    <glyph glyph-name="otilde" unicode="&#xf5;" 
d="M295 507c62 0 111.667 -8.5 149 -25.5s64.166 -44.5 80.499 -82.5s24.5 -89 24.5 -153c0 -62.667 -8.16699 -113 -24.5 -151s-43.166 -65.333 -80.499 -82s-87 -25 -149 -25c-61.333 0 -110.833 8.33301 -148.5 25s-64.834 44 -81.501 82s-25 88.333 -25 151
c0 64 8.33301 115 25 153s43.834 65.5 81.501 82.5s87.167 25.5 148.5 25.5zM295 399c-25.333 0 -45.333 -4.33301 -60 -13s-25 -24 -31 -46s-9 -53.333 -9 -94c0 -40 3 -71 9 -93s16.333 -37.167 31 -45.5s34.667 -12.5 60 -12.5s45.333 4.16699 60 12.5s25 23.5 31 45.5
s9 53 9 93c0 40.667 -3 72 -9 94s-16.333 37.333 -31 46s-34.667 13 -60 13zM202 714c16.667 -1.33301 31.6699 -4.16602 45.0029 -8.49902s26.166 -9.16602 38.499 -14.499l37 -15.5c12.333 -5 25.166 -8.5 38.499 -10.5c17.333 -2.66699 28.166 -0.333984 32.499 6.99902
s6.5 19.666 6.5 36.999h64c7.33301 -47.333 2.66602 -83.166 -14.001 -107.499s-39.334 -35.5 -68.001 -33.5c-22.667 2 -43.167 6.5 -61.5 13.5s-35.333 14.333 -51 22s-31.5 12.5 -47.5 14.5c-16.667 2 -27.167 -0.666992 -31.5 -8s-6.5 -20 -6.5 -38h-64
c-4.66699 33.333 -3.66699 60.666 3 81.999s17.334 37 32.001 47s30.334 14.333 47.001 13z" />
    <glyph glyph-name="odieresis" unicode="&#xf6;" 
d="M295 507c62 0 111.667 -8.5 149 -25.5s64.166 -44.5 80.499 -82.5s24.5 -89 24.5 -153c0 -62.667 -8.16699 -113 -24.5 -151s-43.166 -65.333 -80.499 -82s-87 -25 -149 -25c-61.333 0 -110.833 8.33301 -148.5 25s-64.834 44 -81.501 82s-25 88.333 -25 151
c0 64 8.33301 115 25 153s43.834 65.5 81.501 82.5s87.167 25.5 148.5 25.5zM295 399c-25.333 0 -45.333 -4.33301 -60 -13s-25 -24 -31 -46s-9 -53.333 -9 -94c0 -40 3 -71 9 -93s16.333 -37.167 31 -45.5s34.667 -12.5 60 -12.5s45.333 4.16699 60 12.5s25 23.5 31 45.5
s9 53 9 93c0 40.667 -3 72 -9 94s-16.333 37.333 -31 46s-34.667 13 -60 13zM411 702c21.333 0 32 -10.667 32 -32v-59c0 -21.333 -10.667 -32 -32 -32h-49c-20.667 0 -31 10.667 -31 32v59c0 21.333 10.333 32 31 32h49zM228 702c20.667 0 31 -10.667 31 -32v-59
c0 -21.333 -10.333 -32 -31 -32h-49c-20.667 0 -31 10.667 -31 32v59c0 21.333 10.333 32 31 32h49z" />
    <glyph glyph-name="divide" unicode="&#xf7;" horiz-adv-x="553" 
d="M506 346v-105h-460v105h460zM293 176c20.667 0 35 -4 43 -12s12 -22.333 12 -43v-33c0 -20 -4 -34 -12 -42s-22.333 -12 -43 -12h-36c-20.667 0 -34.834 4 -42.501 12s-11.5 22 -11.5 42v33c0 20.667 3.83301 35 11.5 43s21.834 12 42.501 12h36zM293 551
c20.667 0 35 -4 43 -12s12 -22 12 -42v-34c0 -20 -4 -34 -12 -42s-22.333 -12 -43 -12h-36c-20.667 0 -34.834 4 -42.501 12s-11.5 22 -11.5 42v34c0 20 3.83301 34 11.5 42s21.834 12 42.501 12h36z" />
    <glyph glyph-name="oslash" unicode="&#xf8;" 
d="M421 579l43 -21l-299 -642l-42 20zM295 507c62 0 111.667 -8.5 149 -25.5s64.166 -44.5 80.499 -82.5s24.5 -89 24.5 -153c0 -62.667 -8.16699 -113 -24.5 -151s-43.166 -65.333 -80.499 -82s-87 -25 -149 -25c-61.333 0 -110.833 8.33301 -148.5 25
s-64.834 44 -81.501 82s-25 88.333 -25 151c0 64 8.33301 115 25 153s43.834 65.5 81.501 82.5s87.167 25.5 148.5 25.5zM295 399c-25.333 0 -45.333 -4.33301 -60 -13s-25 -24 -31 -46s-9 -53.333 -9 -94c0 -40 3 -71 9 -93s16.333 -37.167 31 -45.5s34.667 -12.5 60 -12.5
s45.333 4.16699 60 12.5s25 23.5 31 45.5s9 53 9 93c0 40.667 -3 72 -9 94s-16.333 37.333 -31 46s-34.667 13 -60 13z" />
    <glyph glyph-name="ugrave" unicode="&#xf9;" horiz-adv-x="593" 
d="M205 494l0.000976562 -325.001c0 -20.667 4.5 -35.334 13.5 -44.001s23.5 -13 43.5 -13c20.667 0 41.167 3.83301 61.5 11.5s45.5 19.834 75.5 36.501l12 -81c-36 -31.333 -71.333 -54.666 -106 -69.999s-70.334 -23 -107.001 -23c-94 0 -141 46 -141 138v370h148z
M532.001 493.999v-494h-117l-17 97l-14 14v383h148zM171.001 766.999l203 -148l-43 -63l-224 112z" />
    <glyph glyph-name="uacute" unicode="&#xfa;" horiz-adv-x="593" 
d="M205 494l0.000976562 -325.001c0 -20.667 4.5 -35.334 13.5 -44.001s23.5 -13 43.5 -13c20.667 0 41.167 3.83301 61.5 11.5s45.5 19.834 75.5 36.501l12 -81c-36 -31.333 -71.333 -54.666 -106 -69.999s-70.334 -23 -107.001 -23c-94 0 -141 46 -141 138v370h148z
M532.001 493.999v-494h-117l-17 97l-14 14v383h148zM411.001 760.999l64 -100l-223 -111l-44 63z" />
    <glyph glyph-name="ucircumflex" unicode="&#xfb;" horiz-adv-x="593" 
d="M205 494l0.000976562 -325.001c0 -20.667 4.5 -35.334 13.5 -44.001s23.5 -13 43.5 -13c20.667 0 41.167 3.83301 61.5 11.5s45.5 19.834 75.5 36.501l12 -81c-36 -31.333 -71.333 -54.666 -106 -69.999s-70.334 -23 -107.001 -23c-94 0 -141 46 -141 138v370h148z
M532.001 493.999v-494h-117l-17 97l-14 14v383h148zM349.001 735.999l134 -134l-39 -53l-144 95h-8l-147 -95l-39 57l136 130h107z" />
    <glyph glyph-name="udieresis" unicode="&#xfc;" horiz-adv-x="593" 
d="M205 494l0.000976562 -325.001c0 -20.667 4.5 -35.334 13.5 -44.001s23.5 -13 43.5 -13c20.667 0 41.167 3.83301 61.5 11.5s45.5 19.834 75.5 36.501l12 -81c-36 -31.333 -71.333 -54.666 -106 -69.999s-70.334 -23 -107.001 -23c-94 0 -141 46 -141 138v370h148z
M532.001 493.999v-494h-117l-17 97l-14 14v383h148zM411.001 709.999c21.333 0 32 -10.667 32 -32v-59c0 -21.333 -10.667 -32 -32 -32h-49c-20.667 0 -31 10.667 -31 32v59c0 21.333 10.333 32 31 32h49zM228.001 709.999c20.667 0 31 -10.667 31 -32v-59
c0 -21.333 -10.333 -32 -31 -32h-49c-20.667 0 -31 10.667 -31 32v59c0 21.333 10.333 32 31 32h49z" />
    <glyph glyph-name="yacute" unicode="&#xfd;" horiz-adv-x="566" 
d="M557 494l-177.003 -500c-8 -24.667 -19.167 -49.5 -33.5 -74.5s-32.333 -47.5 -54 -67.5s-47.667 -35.167 -78 -45.5s-66.166 -12.833 -107.499 -7.5l-11 84c40.667 10.667 72.334 25 95.001 43s40.334 41.667 53.001 71l31 69c6 14.667 11.833 32.5 17.5 53.5l14.5 54.5
l92 320h158zM164.997 494l94 -320l8 -38c2.66699 -12.667 5 -25.334 7 -38.001h27l-47 -98h-36c-11.333 0 -21.333 3.33301 -30 10s-14.667 15.334 -18 26.001l-163 458h158zM402.997 760l64 -100l-223 -111l-44 63z" />
    <glyph glyph-name="thorn" unicode="&#xfe;" horiz-adv-x="597" 
d="M376 506c64.667 0 110.666 -21.999 137.999 -65.999s41 -110 41 -198c0 -66 -6.66699 -117.5 -20 -154.5s-33.666 -63.167 -60.999 -78.5s-61.666 -23 -102.999 -23c-36 0 -71 5.33301 -105 16s-64 28 -90 52l16 67c22 -8.66699 42.5 -15.834 61.5 -21.501
s39.5 -8.5 61.5 -8.5c21.333 0 38.333 4 51 12s21.834 22.833 27.501 44.5s8.5 53.167 8.5 94.5s-2.83301 72.833 -8.5 94.5s-14.667 36.5 -27 44.5s-28.5 12 -48.5 12c-20.667 0 -39.834 -4 -57.501 -12s-36.167 -18.667 -55.5 -32l-25 68
c21.333 25.333 47.666 46.5 78.999 63.5s70.333 25.5 117 25.5zM207.999 700.001v-135.001c0.666992 -21.333 0.5 -42.666 -0.5 -63.999s-2.5 -42 -4.5 -62l5 -12v-359l-5 -12c2 -20 3.5 -40.833 4.5 -62.5s1.16699 -43.167 0.5 -64.5v-119h-148v890h148z" />
    <glyph glyph-name="ydieresis" unicode="&#xff;" horiz-adv-x="566" 
d="M557 494l-177.003 -500c-8 -24.667 -19.167 -49.5 -33.5 -74.5s-32.333 -47.5 -54 -67.5s-47.667 -35.167 -78 -45.5s-66.166 -12.833 -107.499 -7.5l-11 84c40.667 10.667 72.334 25 95.001 43s40.334 41.667 53.001 71l31 69c6 14.667 11.833 32.5 17.5 53.5l14.5 54.5
l92 320h158zM164.997 494l94 -320l8 -38c2.66699 -12.667 5 -25.334 7 -38.001h27l-47 -98h-36c-11.333 0 -21.333 3.33301 -30 10s-14.667 15.334 -18 26.001l-163 458h158zM400.997 709c21.333 0 32 -10.667 32 -32v-59c0 -21.333 -10.667 -32 -32 -32h-49
c-20.667 0 -31 10.667 -31 32v59c0 21.333 10.333 32 31 32h49zM217.997 709c20.667 0 31 -10.667 31 -32v-59c0 -21.333 -10.333 -32 -31 -32h-49c-20.667 0 -31 10.667 -31 32v59c0 21.333 10.333 32 31 32h49z" />
    <glyph glyph-name="Amacron" unicode="&#x100;" horiz-adv-x="653" 
d="M399 690c12.667 0 23.8311 -3.66797 33.498 -11.001s16.167 -17 19.5 -29l200 -650h-156l-141 507l-8 34.5c-2.66699 11.667 -5 22.834 -7 33.501h-27l-6.5 -33.5c-2.33301 -11.667 -5.16602 -23.167 -8.49902 -34.5l-141 -507h-157l201 650
c3.33301 12 9.83301 21.667 19.5 29s20.834 11 33.501 11h145zM504.997 296.999v-115h-358v115h358zM477.997 868.999v-94h-300v94h300z" />
    <glyph glyph-name="amacron" unicode="&#x101;" horiz-adv-x="570" 
d="M321 507c41.333 0 76.334 -5.49805 105.001 -16.498s50.5 -29.667 65.5 -56s22.5 -62.5 22.5 -108.5v-326h-118l-21 107l-10 15v205c0 23.333 -5.5 40.333 -16.5 51s-31.833 16 -62.5 16c-25.333 0 -57 -0.833008 -95 -2.5s-77 -3.83398 -117 -6.50098l-14 98
c24 4.66699 51.667 8.66699 83 12s62.666 6.16602 93.999 8.49902s59.333 3.5 84 3.5zM453.001 304.002l-1 -83l-220 -1c-18 0 -30.833 -4.33301 -38.5 -13s-11.5 -20.334 -11.5 -35.001v-24c0 -16.667 4.66699 -29.5 14 -38.5s24.333 -13.5 45 -13.5
c17.333 0 36.166 3.66699 56.499 11s40.5 17.666 60.5 30.999s37.667 29 53 47v-64c-6 -10 -14.833 -22.5 -26.5 -37.5s-26.5 -29.667 -44.5 -44s-39 -26.5 -63 -36.5s-51.333 -15 -82 -15c-30 0 -57 5.33301 -81 16s-43 26.334 -57 47.001s-21 46.334 -21 77.001v51
c0 39.333 13.333 70 40 92s63.334 33 110.001 33h267zM439.001 697.002v-94h-300v94h300z" />
    <glyph glyph-name="Abreve" unicode="&#x102;" horiz-adv-x="653" 
d="M399 690c12.667 0 23.8311 -3.66797 33.498 -11.001s16.167 -17 19.5 -29l200 -650h-156l-141 507l-8 34.5c-2.66699 11.667 -5 22.834 -7 33.501h-27l-6.5 -33.5c-2.33301 -11.667 -5.16602 -23.167 -8.49902 -34.5l-141 -507h-157l201 650
c3.33301 12 9.83301 21.667 19.5 29s20.834 11 33.501 11h145zM504.997 296.999v-115h-358v115h358zM419.997 899.999l71 -10c4 -27.333 -0.333008 -52.666 -13 -75.999s-31.667 -41.833 -57 -55.5s-56.666 -20.5 -93.999 -20.5c-36 0 -67 6.83301 -93 20.5
s-45.333 32.167 -58 55.5s-17.334 48.666 -14.001 75.999l71 10c0 -22 7.66699 -38.667 23 -50s39.333 -17 72 -17c31.333 0 54.5 5.66699 69.5 17s22.5 28 22.5 50z" />
    <glyph glyph-name="abreve" unicode="&#x103;" horiz-adv-x="570" 
d="M321 507c41.333 0 76.334 -5.49805 105.001 -16.498s50.5 -29.667 65.5 -56s22.5 -62.5 22.5 -108.5v-326h-118l-21 107l-10 15v205c0 23.333 -5.5 40.333 -16.5 51s-31.833 16 -62.5 16c-25.333 0 -57 -0.833008 -95 -2.5s-77 -3.83398 -117 -6.50098l-14 98
c24 4.66699 51.667 8.66699 83 12s62.666 6.16602 93.999 8.49902s59.333 3.5 84 3.5zM453.001 304.002l-1 -83l-220 -1c-18 0 -30.833 -4.33301 -38.5 -13s-11.5 -20.334 -11.5 -35.001v-24c0 -16.667 4.66699 -29.5 14 -38.5s24.333 -13.5 45 -13.5
c17.333 0 36.166 3.66699 56.499 11s40.5 17.666 60.5 30.999s37.667 29 53 47v-64c-6 -10 -14.833 -22.5 -26.5 -37.5s-26.5 -29.667 -44.5 -44s-39 -26.5 -63 -36.5s-51.333 -15 -82 -15c-30 0 -57 5.33301 -81 16s-43 26.334 -57 47.001s-21 46.334 -21 77.001v51
c0 39.333 13.333 70 40 92s63.334 33 110.001 33h267zM381.001 728.002l71 -10c4 -27.333 -0.333008 -52.666 -13 -75.999s-31.667 -41.833 -57 -55.5s-56.666 -20.5 -93.999 -20.5c-36 0 -67 6.83301 -93 20.5s-45.333 32.167 -58 55.5s-17.334 48.666 -14.001 75.999
l71 10c0 -22 7.66699 -38.667 23 -50s39.333 -17 72 -17c31.333 0 54.5 5.66699 69.5 17s22.5 28 22.5 50z" />
    <glyph glyph-name="Aogonek" unicode="&#x104;" horiz-adv-x="653" 
d="M399 690c12.667 0 23.8311 -3.66797 33.498 -11.001s16.167 -17 19.5 -29l200 -650h-156l-141 507l-8 34.5c-2.66699 11.667 -5 22.834 -7 33.501h-27l-6.5 -33.5c-2.33301 -11.667 -5.16602 -23.167 -8.49902 -34.5l-141 -507h-157l201 650
c3.33301 12 9.83301 21.667 19.5 29s20.834 11 33.501 11h145zM504.997 296.999v-115h-358v115h358zM591.997 1.99902l59.999 -2.00098c-11.333 -15.333 -22.166 -31 -32.499 -47s-19.833 -33.667 -28.5 -53c-9.33301 -21.333 -7.33301 -34.666 6 -39.999s32.333 -5 57 1
l11 -53c-36 -14.667 -66.333 -22.167 -91 -22.5s-44.167 4.5 -58.5 14.5s-23.333 23 -27 39s-2.5 32.667 3.5 50c5.33301 16.667 16 34.667 32 54s38.667 39 68 59z" />
    <glyph glyph-name="aogonek" unicode="&#x105;" horiz-adv-x="570" 
d="M321 507c41.333 0 76.334 -5.49805 105.001 -16.498s50.5 -29.667 65.5 -56s22.5 -62.5 22.5 -108.5v-326h-118l-21 107l-10 15v205c0 23.333 -5.5 40.333 -16.5 51s-31.833 16 -62.5 16c-25.333 0 -57 -0.833008 -95 -2.5s-77 -3.83398 -117 -6.50098l-14 98
c24 4.66699 51.667 8.66699 83 12s62.666 6.16602 93.999 8.49902s59.333 3.5 84 3.5zM453.001 304.002l-1 -83l-220 -1c-18 0 -30.833 -4.33301 -38.5 -13s-11.5 -20.334 -11.5 -35.001v-24c0 -16.667 4.66699 -29.5 14 -38.5s24.333 -13.5 45 -13.5
c17.333 0 36.166 3.66699 56.499 11s40.5 17.666 60.5 30.999s37.667 29 53 47v-64c-6 -10 -14.833 -22.5 -26.5 -37.5s-26.5 -29.667 -44.5 -44s-39 -26.5 -63 -36.5s-51.333 -15 -82 -15c-30 0 -57 5.33301 -81 16s-43 26.334 -57 47.001s-21 46.334 -21 77.001v51
c0 39.333 13.333 70 40 92s63.334 33 110.001 33h267zM453.001 2.00195l59.999 -2.00098c-11.333 -15.333 -22.166 -31 -32.499 -47s-19.833 -33.667 -28.5 -53c-9.33301 -21.333 -7.33301 -34.666 6 -39.999s32.333 -5 57 1l11 -53c-36 -14.667 -66.333 -22.167 -91 -22.5
s-44.167 4.5 -58.5 14.5s-23.333 23 -27 39s-2.5 32.667 3.5 50c5.33301 16.667 16 34.667 32 54s38.667 39 68 59z" />
    <glyph glyph-name="Cacute" unicode="&#x106;" horiz-adv-x="588" 
d="M339 702c32.667 0 60.499 -0.832031 83.499 -2.49902s44.167 -4.16699 63.5 -7.5s39.333 -8 60 -14l-12 -112c-22 1.33301 -42.167 2.33301 -60.5 3s-38 1.16699 -59 1.5s-46.167 0.5 -75.5 0.5c-34 0 -60.5 -6.66699 -79.5 -20s-32.5 -36.5 -40.5 -69.5
s-12 -78.5 -12 -136.5s4 -103.5 12 -136.5s21.5 -56.167 40.5 -69.5s45.5 -20 79.5 -20c46 0 84.667 0.666992 116 2s62.333 3.66602 93 6.99902l13 -112c-32 -10 -64.667 -17.167 -98 -21.5s-74.666 -6.5 -123.999 -6.5c-71.333 0 -128.5 11.5 -171.5 34.5
s-74 60.5 -93 112.5s-28.5 122 -28.5 210s9.5 158 28.5 210s50 89.5 93 112.5s100.167 34.5 171.5 34.5zM447.999 939.001l64 -100l-223 -111l-44 63z" />
    <glyph glyph-name="cacute" unicode="&#x107;" horiz-adv-x="509" 
d="M290 507c18 0 37.6631 -0.832031 58.9961 -2.49902s42.833 -4.66699 64.5 -9s41.5 -10.5 59.5 -18.5l-16 -93l-76.5 2c-24.333 0.666992 -46.166 1 -65.499 1c-30 0 -53.667 -4 -71 -12s-29.833 -22.167 -37.5 -42.5s-11.5 -48.5 -11.5 -84.5
c0 -36.667 3.83301 -65.334 11.5 -86.001s20.167 -35 37.5 -43s41 -12 71 -12c10.667 0 24.334 0.333008 41.001 1s34.667 1.5 54 2.5s38.333 2.83301 57 5.5l14 -94c-26.667 -12 -57 -20.667 -91 -26s-67.667 -8 -101 -8c-61.333 0 -110.166 8.5 -146.499 25.5
s-62.5 44.5 -78.5 82.5s-24 88.667 -24 152s8.16699 114 24.5 152s42.833 65.333 79.5 82s85.334 25 146.001 25zM395.996 760.001l64 -100l-223 -111l-44 63z" />
    <glyph glyph-name="Ccircumflex" unicode="&#x108;" horiz-adv-x="588" 
d="M339 702c32.667 0 60.499 -0.832031 83.499 -2.49902s44.167 -4.16699 63.5 -7.5s39.333 -8 60 -14l-12 -112c-22 1.33301 -42.167 2.33301 -60.5 3s-38 1.16699 -59 1.5s-46.167 0.5 -75.5 0.5c-34 0 -60.5 -6.66699 -79.5 -20s-32.5 -36.5 -40.5 -69.5
s-12 -78.5 -12 -136.5s4 -103.5 12 -136.5s21.5 -56.167 40.5 -69.5s45.5 -20 79.5 -20c46 0 84.667 0.666992 116 2s62.333 3.66602 93 6.99902l13 -112c-32 -10 -64.667 -17.167 -98 -21.5s-74.666 -6.5 -123.999 -6.5c-71.333 0 -128.5 11.5 -171.5 34.5
s-74 60.5 -93 112.5s-28.5 122 -28.5 210s9.5 158 28.5 210s50 89.5 93 112.5s100.167 34.5 171.5 34.5zM385.999 913.001l134 -134l-39 -53l-144 95h-8l-147 -95l-39 57l136 130h107z" />
    <glyph glyph-name="ccircumflex" unicode="&#x109;" horiz-adv-x="509" 
d="M290 507c18 0 37.6631 -0.832031 58.9961 -2.49902s42.833 -4.66699 64.5 -9s41.5 -10.5 59.5 -18.5l-16 -93l-76.5 2c-24.333 0.666992 -46.166 1 -65.499 1c-30 0 -53.667 -4 -71 -12s-29.833 -22.167 -37.5 -42.5s-11.5 -48.5 -11.5 -84.5
c0 -36.667 3.83301 -65.334 11.5 -86.001s20.167 -35 37.5 -43s41 -12 71 -12c10.667 0 24.334 0.333008 41.001 1s34.667 1.5 54 2.5s38.333 2.83301 57 5.5l14 -94c-26.667 -12 -57 -20.667 -91 -26s-67.667 -8 -101 -8c-61.333 0 -110.166 8.5 -146.499 25.5
s-62.5 44.5 -78.5 82.5s-24 88.667 -24 152s8.16699 114 24.5 152s42.833 65.333 79.5 82s85.334 25 146.001 25zM333.996 734.001l134 -134l-39 -53l-144 95h-8l-147 -95l-39 57l136 130h107z" />
    <glyph glyph-name="Cdotaccent" unicode="&#x10a;" horiz-adv-x="588" 
d="M339 702c32.667 0 60.499 -0.832031 83.499 -2.49902s44.167 -4.16699 63.5 -7.5s39.333 -8 60 -14l-12 -112c-22 1.33301 -42.167 2.33301 -60.5 3s-38 1.16699 -59 1.5s-46.167 0.5 -75.5 0.5c-34 0 -60.5 -6.66699 -79.5 -20s-32.5 -36.5 -40.5 -69.5
s-12 -78.5 -12 -136.5s4 -103.5 12 -136.5s21.5 -56.167 40.5 -69.5s45.5 -20 79.5 -20c46 0 84.667 0.666992 116 2s62.333 3.66602 93 6.99902l13 -112c-32 -10 -64.667 -17.167 -98 -21.5s-74.666 -6.5 -123.999 -6.5c-71.333 0 -128.5 11.5 -171.5 34.5
s-74 60.5 -93 112.5s-28.5 122 -28.5 210s9.5 158 28.5 210s50 89.5 93 112.5s100.167 34.5 171.5 34.5zM355.999 891.001c28 0 42 -13.667 42 -41v-52c0 -28 -14 -42 -42 -42h-46c-28 0 -42 14 -42 42v52c0 27.333 14 41 42 41h46z" />
    <glyph glyph-name="cdotaccent" unicode="&#x10b;" horiz-adv-x="509" 
d="M290 507c18 0 37.6631 -0.832031 58.9961 -2.49902s42.833 -4.66699 64.5 -9s41.5 -10.5 59.5 -18.5l-16 -93l-76.5 2c-24.333 0.666992 -46.166 1 -65.499 1c-30 0 -53.667 -4 -71 -12s-29.833 -22.167 -37.5 -42.5s-11.5 -48.5 -11.5 -84.5
c0 -36.667 3.83301 -65.334 11.5 -86.001s20.167 -35 37.5 -43s41 -12 71 -12c10.667 0 24.334 0.333008 41.001 1s34.667 1.5 54 2.5s38.333 2.83301 57 5.5l14 -94c-26.667 -12 -57 -20.667 -91 -26s-67.667 -8 -101 -8c-61.333 0 -110.166 8.5 -146.499 25.5
s-62.5 44.5 -78.5 82.5s-24 88.667 -24 152s8.16699 114 24.5 152s42.833 65.333 79.5 82s85.334 25 146.001 25zM303.996 712.001c28 0 42 -13.667 42 -41v-52c0 -28 -14 -42 -42 -42h-46c-28 0 -42 14 -42 42v52c0 27.333 14 41 42 41h46z" />
    <glyph glyph-name="Ccaron" unicode="&#x10c;" horiz-adv-x="588" 
d="M339 702c32.667 0 60.499 -0.832031 83.499 -2.49902s44.167 -4.16699 63.5 -7.5s39.333 -8 60 -14l-12 -112c-22 1.33301 -42.167 2.33301 -60.5 3s-38 1.16699 -59 1.5s-46.167 0.5 -75.5 0.5c-34 0 -60.5 -6.66699 -79.5 -20s-32.5 -36.5 -40.5 -69.5
s-12 -78.5 -12 -136.5s4 -103.5 12 -136.5s21.5 -56.167 40.5 -69.5s45.5 -20 79.5 -20c46 0 84.667 0.666992 116 2s62.333 3.66602 93 6.99902l13 -112c-32 -10 -64.667 -17.167 -98 -21.5s-74.666 -6.5 -123.999 -6.5c-71.333 0 -128.5 11.5 -171.5 34.5
s-74 60.5 -93 112.5s-28.5 122 -28.5 210s9.5 158 28.5 210s50 89.5 93 112.5s100.167 34.5 171.5 34.5zM476.999 928.001l39 -57l-153 -129h-61l-154 129l40 57l141 -81h8z" />
    <glyph glyph-name="ccaron" unicode="&#x10d;" horiz-adv-x="509" 
d="M290 507c18 0 37.6631 -0.832031 58.9961 -2.49902s42.833 -4.66699 64.5 -9s41.5 -10.5 59.5 -18.5l-16 -93l-76.5 2c-24.333 0.666992 -46.166 1 -65.499 1c-30 0 -53.667 -4 -71 -12s-29.833 -22.167 -37.5 -42.5s-11.5 -48.5 -11.5 -84.5
c0 -36.667 3.83301 -65.334 11.5 -86.001s20.167 -35 37.5 -43s41 -12 71 -12c10.667 0 24.334 0.333008 41.001 1s34.667 1.5 54 2.5s38.333 2.83301 57 5.5l14 -94c-26.667 -12 -57 -20.667 -91 -26s-67.667 -8 -101 -8c-61.333 0 -110.166 8.5 -146.499 25.5
s-62.5 44.5 -78.5 82.5s-24 88.667 -24 152s8.16699 114 24.5 152s42.833 65.333 79.5 82s85.334 25 146.001 25zM424.996 749.001l39 -57l-153 -129h-61l-154 129l40 57l141 -81h8z" />
    <glyph glyph-name="Dcaron" unicode="&#x10e;" horiz-adv-x="683" 
d="M340 700c54.667 0 100.834 -5.82812 138.501 -17.4951s68 -30.834 91 -57.501s39.833 -62.834 50.5 -108.501s16 -102.834 16 -171.501s-5.33301 -125.834 -16 -171.501s-27.5 -81.834 -50.5 -108.501s-53.333 -45.834 -91 -57.501s-83.834 -17.5 -138.501 -17.5
c-52.667 0 -101 1 -145 3s-86 4.33301 -126 7l64 113c25.333 -1.33301 55.5 -2.5 90.5 -3.5s73.833 -1.5 116.5 -1.5c34 0 60.833 6.83301 80.5 20.5s33.667 37.834 42 72.501s12.5 82.667 12.5 144s-4.16699 109.333 -12.5 144s-22.333 59 -42 73s-46.5 21 -80.5 21
c-40.667 0 -77 -0.166992 -109 -0.5s-63.333 -0.5 -94 -0.5l-68 108c40 2.66699 81.833 5 125.5 7s92.167 3 145.5 3zM222 690.005v-690h-153v690h153zM478 928.005l39 -57l-153 -129h-61l-154 129l40 57l141 -81h8z" />
    <glyph glyph-name="dcaron" unicode="&#x10f;" horiz-adv-x="597" 
d="M229 507c34.667 0 68.168 -5.00293 100.501 -15.0029s60.833 -26.333 85.5 -49l-10 -68l-61 18c-18 5.33301 -39 8 -63 8c-20.667 0 -37.334 -3.66699 -50.001 -11s-22 -21.666 -28 -42.999s-9 -53 -9 -95c0 -39.333 2.83301 -69.166 8.5 -89.499s14.667 -34.333 27 -42
s28.166 -11.5 47.499 -11.5c17.333 0 32.333 1.83301 45 5.5s25.334 9.33398 38.001 17.001s27 17.167 43 28.5l11 -73c-20 -28 -46 -51.5 -78 -70.5s-71.333 -28.5 -118 -28.5c-63.333 0 -108.5 22.667 -135.5 68s-40.5 110.333 -40.5 195c0 66 6.83301 117.5 20.5 154.5
s34.5 63.167 62.5 78.5s62.667 23 104 23zM536.001 699.997v-700h-117l-15 91l-16 11v324l6 13c-2 20.667 -3.5 41.5 -4.5 62.5s-1.5 42.5 -1.5 64.5v134h148zM653.001 704.997c16 0 27.002 -3.16699 33.002 -9.5s9 -17.5 9 -33.5v-54
c0.666992 -32 -2.83301 -59.667 -10.5 -83s-17.834 -46 -30.501 -68l-50 15c4.66699 18 7.66699 35.5 9 52.5s2.33301 35.167 3 54.5c-24 0 -35.667 12.667 -35 38l1 45c0.666992 16 4.16699 27.167 10.5 33.5s17.166 9.5 32.499 9.5h28z" />
    <glyph glyph-name="Dcroat" unicode="&#x110;" horiz-adv-x="685" 
d="M350 400v-77h-336v77h336zM342 700c54.667 0 100.834 -5.82812 138.501 -17.4951s68 -30.834 91 -57.501s39.833 -62.834 50.5 -108.501s16 -102.834 16 -171.501s-5.33301 -125.834 -16 -171.501s-27.5 -81.834 -50.5 -108.501s-53.333 -45.834 -91 -57.501
s-83.834 -17.5 -138.501 -17.5c-52.667 0 -101 1 -145 3s-86 4.33301 -126 7l64 113c25.333 -1.33301 55.5 -2.5 90.5 -3.5s73.833 -1.5 116.5 -1.5c34 0 60.833 6.83301 80.5 20.5s33.667 37.834 42 72.501s12.5 82.667 12.5 144s-4.16699 109.333 -12.5 144
s-22.333 59 -42 73s-46.5 21 -80.5 21c-40.667 0 -77 -0.166992 -109 -0.5s-63.333 -0.5 -94 -0.5l-68 108c40 2.66699 81.833 5 125.5 7s92.167 3 145.5 3zM224 690.005v-690h-153v690h153z" />
    <glyph glyph-name="dcroat" unicode="&#x111;" horiz-adv-x="593" 
d="M597 627v-67h-339v67h339zM229 507c34.667 0 68.168 -5.00293 100.501 -15.0029s60.833 -26.333 85.5 -49l-10 -68l-61 18c-18 5.33301 -39 8 -63 8c-20.667 0 -37.334 -3.66699 -50.001 -11s-22 -21.666 -28 -42.999s-9 -53 -9 -95
c0 -39.333 2.83301 -69.166 8.5 -89.499s14.667 -34.333 27 -42s28.166 -11.5 47.499 -11.5c17.333 0 32.333 1.83301 45 5.5s25.334 9.33398 38.001 17.001s27 17.167 43 28.5l11 -73c-20 -28 -46 -51.5 -78 -70.5s-71.333 -28.5 -118 -28.5
c-63.333 0 -108.5 22.667 -135.5 68s-40.5 110.333 -40.5 195c0 66 6.83301 117.5 20.5 154.5s34.5 63.167 62.5 78.5s62.667 23 104 23zM536.001 699.997v-700h-117l-15 91l-16 11v324l6 13c-2 20.667 -3.5 41.5 -4.5 62.5s-1.5 42.5 -1.5 64.5v134h148z" />
    <glyph glyph-name="Emacron" unicode="&#x112;" horiz-adv-x="578" 
d="M211 693c37.333 0 75 -0.166016 113 -0.499023s75.333 -1.16602 112 -2.49902s71 -3.66602 103 -6.99902l-7 -111h-265c-16.667 0 -29.167 -4.33301 -37.5 -13s-12.5 -21.334 -12.5 -38.001v-352c0 -16.667 4.16699 -29.334 12.5 -38.001s20.833 -13 37.5 -13h265l7 -111
c-32 -2.66699 -66.333 -4.83398 -103 -6.50098s-74 -2.66699 -112 -3s-75.667 -0.5 -113 -0.5c-44 0 -79.5 12.833 -106.5 38.5s-40.5 59.167 -40.5 100.5v418c0 42 13.5 75.667 40.5 101s62.5 38 106.5 38zM82 413.001h413v-108h-413v108zM467 879.001v-94h-300v94h300z
" />
    <glyph glyph-name="emacron" unicode="&#x113;" horiz-adv-x="564" 
d="M294 507c83.333 0 143.164 -14.1709 179.497 -42.5039s54.5 -70.5 54.5 -126.5c0.666992 -45.333 -10.666 -79.166 -33.999 -101.499s-63.666 -33.5 -120.999 -33.5h-276v83h235c22.667 0 37.167 4.83301 43.5 14.5s9.5 23.167 9.5 40.5
c-0.666992 23.333 -7.5 39.5 -20.5 48.5s-34.833 13.5 -65.5 13.5c-27.333 0 -48.666 -3.66699 -63.999 -11s-26 -21.333 -32 -42s-9 -50.667 -9 -90c0 -41.333 3.66699 -73.166 11 -95.499s19.833 -37.833 37.5 -46.5s42.167 -13 73.5 -13
c22.667 0 50.834 0.833008 84.501 2.5s67.5 4.5 101.5 8.5l14 -91c-19.333 -9.33301 -41.333 -16.666 -66 -21.999s-50 -9.16602 -76 -11.499s-51 -3.5 -75 -3.5c-62.667 0 -113.167 9.16699 -151.5 27.5s-66 46.5 -83 84.5s-25.5 86.667 -25.5 146
c0 64.667 8.66699 116 26 154s44.666 65.333 81.999 82s86.333 25 147 25zM446.998 692.996v-94h-300v94h300z" />
    <glyph glyph-name="Ebreve" unicode="&#x114;" horiz-adv-x="578" 
d="M211 693c37.333 0 75 -0.166016 113 -0.499023s75.333 -1.16602 112 -2.49902s71 -3.66602 103 -6.99902l-7 -111h-265c-16.667 0 -29.167 -4.33301 -37.5 -13s-12.5 -21.334 -12.5 -38.001v-352c0 -16.667 4.16699 -29.334 12.5 -38.001s20.833 -13 37.5 -13h265l7 -111
c-32 -2.66699 -66.333 -4.83398 -103 -6.50098s-74 -2.66699 -112 -3s-75.667 -0.5 -113 -0.5c-44 0 -79.5 12.833 -106.5 38.5s-40.5 59.167 -40.5 100.5v418c0 42 13.5 75.667 40.5 101s62.5 38 106.5 38zM82 413.001h413v-108h-413v108zM409 910.001l71 -10
c4 -27.333 -0.333008 -52.666 -13 -75.999s-31.667 -41.833 -57 -55.5s-56.666 -20.5 -93.999 -20.5c-36 0 -67 6.83301 -93 20.5s-45.333 32.167 -58 55.5s-17.334 48.666 -14.001 75.999l71 10c0 -22 7.66699 -38.667 23 -50s39.333 -17 72 -17
c31.333 0 54.5 5.66699 69.5 17s22.5 28 22.5 50z" />
    <glyph glyph-name="ebreve" unicode="&#x115;" horiz-adv-x="564" 
d="M294 507c83.333 0 143.164 -14.1709 179.497 -42.5039s54.5 -70.5 54.5 -126.5c0.666992 -45.333 -10.666 -79.166 -33.999 -101.499s-63.666 -33.5 -120.999 -33.5h-276v83h235c22.667 0 37.167 4.83301 43.5 14.5s9.5 23.167 9.5 40.5
c-0.666992 23.333 -7.5 39.5 -20.5 48.5s-34.833 13.5 -65.5 13.5c-27.333 0 -48.666 -3.66699 -63.999 -11s-26 -21.333 -32 -42s-9 -50.667 -9 -90c0 -41.333 3.66699 -73.166 11 -95.499s19.833 -37.833 37.5 -46.5s42.167 -13 73.5 -13
c22.667 0 50.834 0.833008 84.501 2.5s67.5 4.5 101.5 8.5l14 -91c-19.333 -9.33301 -41.333 -16.666 -66 -21.999s-50 -9.16602 -76 -11.499s-51 -3.5 -75 -3.5c-62.667 0 -113.167 9.16699 -151.5 27.5s-66 46.5 -83 84.5s-25.5 86.667 -25.5 146
c0 64.667 8.66699 116 26 154s44.666 65.333 81.999 82s86.333 25 147 25zM389.998 723.996l71 -10c4 -27.333 -0.333008 -52.666 -13 -75.999s-31.667 -41.833 -57 -55.5s-56.666 -20.5 -93.999 -20.5c-36 0 -67 6.83301 -93 20.5s-45.333 32.167 -58 55.5
s-17.334 48.666 -14.001 75.999l71 10c0 -22 7.66699 -38.667 23 -50s39.333 -17 72 -17c31.333 0 54.5 5.66699 69.5 17s22.5 28 22.5 50z" />
    <glyph glyph-name="Edotaccent" unicode="&#x116;" horiz-adv-x="578" 
d="M211 693c37.333 0 75 -0.166016 113 -0.499023s75.333 -1.16602 112 -2.49902s71 -3.66602 103 -6.99902l-7 -111h-265c-16.667 0 -29.167 -4.33301 -37.5 -13s-12.5 -21.334 -12.5 -38.001v-352c0 -16.667 4.16699 -29.334 12.5 -38.001s20.833 -13 37.5 -13h265l7 -111
c-32 -2.66699 -66.333 -4.83398 -103 -6.50098s-74 -2.66699 -112 -3s-75.667 -0.5 -113 -0.5c-44 0 -79.5 12.833 -106.5 38.5s-40.5 59.167 -40.5 100.5v418c0 42 13.5 75.667 40.5 101s62.5 38 106.5 38zM82 413.001h413v-108h-413v108zM340 897.001
c28 0 42 -13.667 42 -41v-52c0 -28 -14 -42 -42 -42h-46c-28 0 -42 14 -42 42v52c0 27.333 14 41 42 41h46z" />
    <glyph glyph-name="edotaccent" unicode="&#x117;" horiz-adv-x="564" 
d="M294 507c83.333 0 143.164 -14.1709 179.497 -42.5039s54.5 -70.5 54.5 -126.5c0.666992 -45.333 -10.666 -79.166 -33.999 -101.499s-63.666 -33.5 -120.999 -33.5h-276v83h235c22.667 0 37.167 4.83301 43.5 14.5s9.5 23.167 9.5 40.5
c-0.666992 23.333 -7.5 39.5 -20.5 48.5s-34.833 13.5 -65.5 13.5c-27.333 0 -48.666 -3.66699 -63.999 -11s-26 -21.333 -32 -42s-9 -50.667 -9 -90c0 -41.333 3.66699 -73.166 11 -95.499s19.833 -37.833 37.5 -46.5s42.167 -13 73.5 -13
c22.667 0 50.834 0.833008 84.501 2.5s67.5 4.5 101.5 8.5l14 -91c-19.333 -9.33301 -41.333 -16.666 -66 -21.999s-50 -9.16602 -76 -11.499s-51 -3.5 -75 -3.5c-62.667 0 -113.167 9.16699 -151.5 27.5s-66 46.5 -83 84.5s-25.5 86.667 -25.5 146
c0 64.667 8.66699 116 26 154s44.666 65.333 81.999 82s86.333 25 147 25zM319.998 710.996c28 0 42 -13.667 42 -41v-52c0 -28 -14 -42 -42 -42h-46c-28 0 -42 14 -42 42v52c0 27.333 14 41 42 41h46z" />
    <glyph glyph-name="Eogonek" unicode="&#x118;" horiz-adv-x="578" 
d="M211 693c37.333 0 75 -0.166016 113 -0.499023s75.333 -1.16602 112 -2.49902s71 -3.66602 103 -6.99902l-7 -111h-265c-16.667 0 -29.167 -4.33301 -37.5 -13s-12.5 -21.334 -12.5 -38.001v-352c0 -16.667 4.16699 -29.334 12.5 -38.001s20.833 -13 37.5 -13h265l7 -111
c-32 -2.66699 -66.333 -4.83398 -103 -6.50098s-74 -2.66699 -112 -3s-75.667 -0.5 -113 -0.5c-44 0 -79.5 12.833 -106.5 38.5s-40.5 59.167 -40.5 100.5v418c0 42 13.5 75.667 40.5 101s62.5 38 106.5 38zM82 413.001h413v-108h-413v108zM480 9.00098l59.999 -2.00098
c-11.333 -15.333 -22.166 -31 -32.499 -47s-19.833 -33.667 -28.5 -53c-9.33301 -21.333 -7.33301 -34.666 6 -39.999s32.333 -5 57 1l11 -53c-36 -14.667 -66.333 -22.167 -91 -22.5s-44.167 4.5 -58.5 14.5s-23.333 23 -27 39s-2.5 32.667 3.5 50
c5.33301 16.667 16 34.667 32 54s38.667 39 68 59z" />
    <glyph glyph-name="eogonek" unicode="&#x119;" horiz-adv-x="564" 
d="M294 507c83.333 0 143.164 -14.1709 179.497 -42.5039s54.5 -70.5 54.5 -126.5c0.666992 -45.333 -10.666 -79.166 -33.999 -101.499s-63.666 -33.5 -120.999 -33.5h-276v83h235c22.667 0 37.167 4.83301 43.5 14.5s9.5 23.167 9.5 40.5
c-0.666992 23.333 -7.5 39.5 -20.5 48.5s-34.833 13.5 -65.5 13.5c-27.333 0 -48.666 -3.66699 -63.999 -11s-26 -21.333 -32 -42s-9 -50.667 -9 -90c0 -41.333 3.66699 -73.166 11 -95.499s19.833 -37.833 37.5 -46.5s42.167 -13 73.5 -13
c22.667 0 50.834 0.833008 84.501 2.5s67.5 4.5 101.5 8.5l14 -91c-19.333 -9.33301 -41.333 -16.666 -66 -21.999s-50 -9.16602 -76 -11.499s-51 -3.5 -75 -3.5c-62.667 0 -113.167 9.16699 -151.5 27.5s-66 46.5 -83 84.5s-25.5 86.667 -25.5 146
c0 64.667 8.66699 116 26 154s44.666 65.333 81.999 82s86.333 25 147 25zM455.998 26.9961l59.999 -2.00098c-11.333 -15.333 -22.166 -31 -32.499 -47s-19.833 -33.667 -28.5 -53c-9.33301 -21.333 -7.33301 -34.666 6 -39.999s32.333 -5 57 1l11 -53
c-36 -14.667 -66.333 -22.167 -91 -22.5s-44.167 4.5 -58.5 14.5s-23.333 23 -27 39s-2.5 32.667 3.5 50c5.33301 16.667 16 34.667 32 54s38.667 39 68 59z" />
    <glyph glyph-name="Ecaron" unicode="&#x11a;" horiz-adv-x="578" 
d="M211 693c37.333 0 75 -0.166016 113 -0.499023s75.333 -1.16602 112 -2.49902s71 -3.66602 103 -6.99902l-7 -111h-265c-16.667 0 -29.167 -4.33301 -37.5 -13s-12.5 -21.334 -12.5 -38.001v-352c0 -16.667 4.16699 -29.334 12.5 -38.001s20.833 -13 37.5 -13h265l7 -111
c-32 -2.66699 -66.333 -4.83398 -103 -6.50098s-74 -2.66699 -112 -3s-75.667 -0.5 -113 -0.5c-44 0 -79.5 12.833 -106.5 38.5s-40.5 59.167 -40.5 100.5v418c0 42 13.5 75.667 40.5 101s62.5 38 106.5 38zM82 413.001h413v-108h-413v108zM461 934.001l39 -57l-153 -129
h-61l-154 129l40 57l141 -81h8z" />
    <glyph glyph-name="ecaron" unicode="&#x11b;" horiz-adv-x="564" 
d="M294 507c83.333 0 143.164 -14.1709 179.497 -42.5039s54.5 -70.5 54.5 -126.5c0.666992 -45.333 -10.666 -79.166 -33.999 -101.499s-63.666 -33.5 -120.999 -33.5h-276v83h235c22.667 0 37.167 4.83301 43.5 14.5s9.5 23.167 9.5 40.5
c-0.666992 23.333 -7.5 39.5 -20.5 48.5s-34.833 13.5 -65.5 13.5c-27.333 0 -48.666 -3.66699 -63.999 -11s-26 -21.333 -32 -42s-9 -50.667 -9 -90c0 -41.333 3.66699 -73.166 11 -95.499s19.833 -37.833 37.5 -46.5s42.167 -13 73.5 -13
c22.667 0 50.834 0.833008 84.501 2.5s67.5 4.5 101.5 8.5l14 -91c-19.333 -9.33301 -41.333 -16.666 -66 -21.999s-50 -9.16602 -76 -11.499s-51 -3.5 -75 -3.5c-62.667 0 -113.167 9.16699 -151.5 27.5s-66 46.5 -83 84.5s-25.5 86.667 -25.5 146
c0 64.667 8.66699 116 26 154s44.666 65.333 81.999 82s86.333 25 147 25zM441.998 747.996l39 -57l-153 -129h-61l-154 129l40 57l141 -81h8z" />
    <glyph glyph-name="Gcircumflex" unicode="&#x11c;" horiz-adv-x="648" 
d="M354 704c30 0 57.3359 -1.00098 82.0029 -3.00098s48.167 -4.66699 70.5 -8s44.166 -8.33301 65.499 -15l-12 -111c-23.333 1.33301 -46 2.33301 -68 3s-44 1.16699 -66 1.5s-45 0.5 -69 0.5c-28.667 0 -52.5 -3 -71.5 -9s-34.167 -17.167 -45.5 -33.5
s-19.5 -39.666 -24.5 -69.999s-7.5 -69.166 -7.5 -116.499c0 -57.333 3.66699 -102.333 11 -135s19.666 -55.834 36.999 -69.501s40.666 -20.5 69.999 -20.5c20 0 38.333 2 55 6s32 9.5 46 16.5s27 13.833 39 20.5l16 -72c-10 -14 -24.833 -29 -44.5 -45
s-43.5 -29.667 -71.5 -41s-60 -17 -96 -17c-52 0 -94.5 12.333 -127.5 37s-57.167 63.5 -72.5 116.5s-23 121.833 -23 206.5c0 90 9.83301 161 29.5 213s52 89.167 97 111.5s105.167 33.5 180.5 33.5zM596.003 397.999v-398h-113l-21 105l-14 28v265h148zM394.003 916.999
l134 -134l-39 -53l-144 95h-8l-147 -95l-39 57l136 130h107z" />
    <glyph glyph-name="gcircumflex" unicode="&#x11d;" horiz-adv-x="581" 
d="M280 507c57.333 0 102.831 -5.33301 136.498 -16s58 -27.334 73 -50.001s22.5 -53 22.5 -91c0 -36.667 -7.33301 -66.5 -22 -89.5s-39.167 -39.833 -73.5 -50.5s-80.166 -16 -137.499 -16s-103.166 5.33301 -137.499 16s-59 27.334 -74 50.001s-22.5 52.667 -22.5 90
s7.5 67.5 22.5 90.5s39.833 39.833 74.5 50.5s80.667 16 138 16zM278.998 416c-36.667 0 -62 -4.83301 -76 -14.5s-21 -26.834 -21 -51.501s7 -42 21 -52s39.333 -15 76 -15s61.667 5 75 15s20 27.333 20 52s-6.66699 41.834 -20 51.501s-38.333 14.5 -75 14.5zM568.998 494
l-8 -63l-132 -17l-36 80h176zM129.998 224l74.001 -12.999c-9.33301 -5.33301 -15.833 -13.666 -19.5 -24.999s-2.83398 -22 2.49902 -32s17 -16 35 -18l182 -21c52 -5.33301 88.667 -19.833 110 -43.5s32 -58.167 32 -103.5c0 -42.667 -8.66699 -75.5 -26 -98.5
s-45 -38.833 -83 -47.5s-88.667 -13 -152 -13c-52 0 -94.833 2.5 -128.5 7.5s-60.334 13.167 -80.001 24.5s-33.334 26.166 -41.001 44.499s-11.5 41.166 -11.5 68.499c0 20.667 3.66699 38.5 11 53.5s19.833 28.5 37.5 40.5s42.5 23 74.5 33l73 26l53 -21l-40 -26
c-16.667 -12 -30.167 -22.167 -40.5 -30.5s-17.666 -16.5 -21.999 -24.5s-6.5 -18.667 -6.5 -32c0 -15.333 3.33301 -27.166 10 -35.499s18.834 -14 36.501 -17s41.834 -4.5 72.501 -4.5c32 0 57 1.5 75 4.5s30.5 8.5 37.5 16.5s10.5 19.333 10.5 34
c0 12.667 -2.5 22 -7.5 28s-13.333 10.5 -25 13.5s-27.834 5.83301 -48.501 8.5l-155 17c-26 2.66699 -46.333 9.66699 -61 21s-24.834 25.166 -30.501 41.499s-7.16699 32.833 -4.5 49.5s8.83398 31.667 18.501 45s22.167 23 37.5 29zM335.999 729.001l134 -134l-39 -53
l-144 95h-8l-147 -95l-39 57l136 130h107z" />
    <glyph glyph-name="Gbreve" unicode="&#x11e;" horiz-adv-x="648" 
d="M354 704c30 0 57.3359 -1.00098 82.0029 -3.00098s48.167 -4.66699 70.5 -8s44.166 -8.33301 65.499 -15l-12 -111c-23.333 1.33301 -46 2.33301 -68 3s-44 1.16699 -66 1.5s-45 0.5 -69 0.5c-28.667 0 -52.5 -3 -71.5 -9s-34.167 -17.167 -45.5 -33.5
s-19.5 -39.666 -24.5 -69.999s-7.5 -69.166 -7.5 -116.499c0 -57.333 3.66699 -102.333 11 -135s19.666 -55.834 36.999 -69.501s40.666 -20.5 69.999 -20.5c20 0 38.333 2 55 6s32 9.5 46 16.5s27 13.833 39 20.5l16 -72c-10 -14 -24.833 -29 -44.5 -45
s-43.5 -29.667 -71.5 -41s-60 -17 -96 -17c-52 0 -94.5 12.333 -127.5 37s-57.167 63.5 -72.5 116.5s-23 121.833 -23 206.5c0 90 9.83301 161 29.5 213s52 89.167 97 111.5s105.167 33.5 180.5 33.5zM596.003 397.999v-398h-113l-21 105l-14 28v265h148zM433.003 906.999
l71 -10c4 -27.333 -0.333008 -52.666 -13 -75.999s-31.667 -41.833 -57 -55.5s-56.666 -20.5 -93.999 -20.5c-36 0 -67 6.83301 -93 20.5s-45.333 32.167 -58 55.5s-17.334 48.666 -14.001 75.999l71 10c0 -22 7.66699 -38.667 23 -50s39.333 -17 72 -17
c31.333 0 54.5 5.66699 69.5 17s22.5 28 22.5 50z" />
    <glyph glyph-name="gbreve" unicode="&#x11f;" horiz-adv-x="581" 
d="M280 507c57.333 0 102.831 -5.33301 136.498 -16s58 -27.334 73 -50.001s22.5 -53 22.5 -91c0 -36.667 -7.33301 -66.5 -22 -89.5s-39.167 -39.833 -73.5 -50.5s-80.166 -16 -137.499 -16s-103.166 5.33301 -137.499 16s-59 27.334 -74 50.001s-22.5 52.667 -22.5 90
s7.5 67.5 22.5 90.5s39.833 39.833 74.5 50.5s80.667 16 138 16zM278.998 416c-36.667 0 -62 -4.83301 -76 -14.5s-21 -26.834 -21 -51.501s7 -42 21 -52s39.333 -15 76 -15s61.667 5 75 15s20 27.333 20 52s-6.66699 41.834 -20 51.501s-38.333 14.5 -75 14.5zM568.998 494
l-8 -63l-132 -17l-36 80h176zM129.998 224l74.001 -12.999c-9.33301 -5.33301 -15.833 -13.666 -19.5 -24.999s-2.83398 -22 2.49902 -32s17 -16 35 -18l182 -21c52 -5.33301 88.667 -19.833 110 -43.5s32 -58.167 32 -103.5c0 -42.667 -8.66699 -75.5 -26 -98.5
s-45 -38.833 -83 -47.5s-88.667 -13 -152 -13c-52 0 -94.833 2.5 -128.5 7.5s-60.334 13.167 -80.001 24.5s-33.334 26.166 -41.001 44.499s-11.5 41.166 -11.5 68.499c0 20.667 3.66699 38.5 11 53.5s19.833 28.5 37.5 40.5s42.5 23 74.5 33l73 26l53 -21l-40 -26
c-16.667 -12 -30.167 -22.167 -40.5 -30.5s-17.666 -16.5 -21.999 -24.5s-6.5 -18.667 -6.5 -32c0 -15.333 3.33301 -27.166 10 -35.499s18.834 -14 36.501 -17s41.834 -4.5 72.501 -4.5c32 0 57 1.5 75 4.5s30.5 8.5 37.5 16.5s10.5 19.333 10.5 34
c0 12.667 -2.5 22 -7.5 28s-13.333 10.5 -25 13.5s-27.834 5.83301 -48.501 8.5l-155 17c-26 2.66699 -46.333 9.66699 -61 21s-24.834 25.166 -30.501 41.499s-7.16699 32.833 -4.5 49.5s8.83398 31.667 18.501 45s22.167 23 37.5 29zM374.999 720.001l71 -10
c4 -27.333 -0.333008 -52.666 -13 -75.999s-31.667 -41.833 -57 -55.5s-56.666 -20.5 -93.999 -20.5c-36 0 -67 6.83301 -93 20.5s-45.333 32.167 -58 55.5s-17.334 48.666 -14.001 75.999l71 10c0 -22 7.66699 -38.667 23 -50s39.333 -17 72 -17
c31.333 0 54.5 5.66699 69.5 17s22.5 28 22.5 50z" />
    <glyph glyph-name="Gdotaccent" unicode="&#x120;" horiz-adv-x="648" 
d="M354 704c30 0 57.3359 -1.00098 82.0029 -3.00098s48.167 -4.66699 70.5 -8s44.166 -8.33301 65.499 -15l-12 -111c-23.333 1.33301 -46 2.33301 -68 3s-44 1.16699 -66 1.5s-45 0.5 -69 0.5c-28.667 0 -52.5 -3 -71.5 -9s-34.167 -17.167 -45.5 -33.5
s-19.5 -39.666 -24.5 -69.999s-7.5 -69.166 -7.5 -116.499c0 -57.333 3.66699 -102.333 11 -135s19.666 -55.834 36.999 -69.501s40.666 -20.5 69.999 -20.5c20 0 38.333 2 55 6s32 9.5 46 16.5s27 13.833 39 20.5l16 -72c-10 -14 -24.833 -29 -44.5 -45
s-43.5 -29.667 -71.5 -41s-60 -17 -96 -17c-52 0 -94.5 12.333 -127.5 37s-57.167 63.5 -72.5 116.5s-23 121.833 -23 206.5c0 90 9.83301 161 29.5 213s52 89.167 97 111.5s105.167 33.5 180.5 33.5zM596.003 397.999v-398h-113l-21 105l-14 28v265h148zM363.003 893.999
c28 0 42 -13.667 42 -41v-52c0 -28 -14 -42 -42 -42h-46c-28 0 -42 14 -42 42v52c0 27.333 14 41 42 41h46z" />
    <glyph glyph-name="gdotaccent" unicode="&#x121;" horiz-adv-x="581" 
d="M280 507c57.333 0 102.831 -5.33301 136.498 -16s58 -27.334 73 -50.001s22.5 -53 22.5 -91c0 -36.667 -7.33301 -66.5 -22 -89.5s-39.167 -39.833 -73.5 -50.5s-80.166 -16 -137.499 -16s-103.166 5.33301 -137.499 16s-59 27.334 -74 50.001s-22.5 52.667 -22.5 90
s7.5 67.5 22.5 90.5s39.833 39.833 74.5 50.5s80.667 16 138 16zM278.998 416c-36.667 0 -62 -4.83301 -76 -14.5s-21 -26.834 -21 -51.501s7 -42 21 -52s39.333 -15 76 -15s61.667 5 75 15s20 27.333 20 52s-6.66699 41.834 -20 51.501s-38.333 14.5 -75 14.5zM568.998 494
l-8 -63l-132 -17l-36 80h176zM129.998 224l74.001 -12.999c-9.33301 -5.33301 -15.833 -13.666 -19.5 -24.999s-2.83398 -22 2.49902 -32s17 -16 35 -18l182 -21c52 -5.33301 88.667 -19.833 110 -43.5s32 -58.167 32 -103.5c0 -42.667 -8.66699 -75.5 -26 -98.5
s-45 -38.833 -83 -47.5s-88.667 -13 -152 -13c-52 0 -94.833 2.5 -128.5 7.5s-60.334 13.167 -80.001 24.5s-33.334 26.166 -41.001 44.499s-11.5 41.166 -11.5 68.499c0 20.667 3.66699 38.5 11 53.5s19.833 28.5 37.5 40.5s42.5 23 74.5 33l73 26l53 -21l-40 -26
c-16.667 -12 -30.167 -22.167 -40.5 -30.5s-17.666 -16.5 -21.999 -24.5s-6.5 -18.667 -6.5 -32c0 -15.333 3.33301 -27.166 10 -35.499s18.834 -14 36.501 -17s41.834 -4.5 72.501 -4.5c32 0 57 1.5 75 4.5s30.5 8.5 37.5 16.5s10.5 19.333 10.5 34
c0 12.667 -2.5 22 -7.5 28s-13.333 10.5 -25 13.5s-27.834 5.83301 -48.501 8.5l-155 17c-26 2.66699 -46.333 9.66699 -61 21s-24.834 25.166 -30.501 41.499s-7.16699 32.833 -4.5 49.5s8.83398 31.667 18.501 45s22.167 23 37.5 29zM305.999 706.001
c28 0 42 -13.667 42 -41v-52c0 -28 -14 -42 -42 -42h-46c-28 0 -42 14 -42 42v52c0 27.333 14 41 42 41h46z" />
    <glyph glyph-name="uni0122" unicode="&#x122;" horiz-adv-x="648" 
d="M353 -53c17.333 0 29.333 -2.99707 36 -8.99707s10.334 -16.667 11.001 -32v-52c-0.666992 -20.667 -2.66699 -39.334 -6 -56.001s-8.5 -32.334 -15.5 -47.001s-15.5 -28.667 -25.5 -42l-54 14c5.33301 17.333 9 34.166 11 50.499s3 33.833 3 52.5
c-25.333 0 -38.333 12 -39 36l1 44c0 15.333 3.66699 26 11 32s19.666 9 36.999 9h30zM354 704.003c30 0 57.3359 -1.00098 82.0029 -3.00098s48.167 -4.66699 70.5 -8s44.166 -8.33301 65.499 -15l-12 -111c-23.333 1.33301 -46 2.33301 -68 3s-44 1.16699 -66 1.5
s-45 0.5 -69 0.5c-28.667 0 -52.5 -3 -71.5 -9s-34.167 -17.167 -45.5 -33.5s-19.5 -39.666 -24.5 -69.999s-7.5 -69.166 -7.5 -116.499c0 -57.333 3.66699 -102.333 11 -135s19.666 -55.834 36.999 -69.501s40.666 -20.5 69.999 -20.5c20 0 38.333 2 55 6s32 9.5 46 16.5
s27 13.833 39 20.5l16 -72c-10 -14 -24.833 -29 -44.5 -45s-43.5 -29.667 -71.5 -41s-60 -17 -96 -17c-52 0 -94.5 12.333 -127.5 37s-57.167 63.5 -72.5 116.5s-23 121.833 -23 206.5c0 90 9.83301 161 29.5 213s52 89.167 97 111.5s105.167 33.5 180.5 33.5z
M596.003 398.002v-398h-113l-21 105l-14 28v265h148z" />
    <glyph glyph-name="uni0123" unicode="&#x123;" horiz-adv-x="581" 
d="M279 553c-18 0 -30.332 2.99902 -36.999 8.99902s-10.334 16.667 -11.001 32v51c0.666992 21.333 2.66699 40.333 6 57s8.5 32.167 15.5 46.5s15.5 28.5 25.5 42.5l54 -15c-4.66699 -16.667 -8 -33.167 -10 -49.5s-3.33301 -34.166 -4 -53.499
c25.333 0 38.333 -12 39 -36l-1 -43c0 -15.333 -3.66699 -26 -11 -32s-19.333 -9 -36 -9h-30zM280.001 506.999c57.333 0 102.831 -5.33301 136.498 -16s58 -27.334 73 -50.001s22.5 -53 22.5 -91c0 -36.667 -7.33301 -66.5 -22 -89.5s-39.167 -39.833 -73.5 -50.5
s-80.166 -16 -137.499 -16s-103.166 5.33301 -137.499 16s-59 27.334 -74 50.001s-22.5 52.667 -22.5 90s7.5 67.5 22.5 90.5s39.833 39.833 74.5 50.5s80.667 16 138 16zM278.999 415.999c-36.667 0 -62 -4.83301 -76 -14.5s-21 -26.834 -21 -51.501s7 -42 21 -52
s39.333 -15 76 -15s61.667 5 75 15s20 27.333 20 52s-6.66699 41.834 -20 51.501s-38.333 14.5 -75 14.5zM568.999 493.999l-8 -63l-132 -17l-36 80h176zM129.999 223.999l74.001 -12.999c-9.33301 -5.33301 -15.833 -13.666 -19.5 -24.999s-2.83398 -22 2.49902 -32
s17 -16 35 -18l182 -21c52 -5.33301 88.667 -19.833 110 -43.5s32 -58.167 32 -103.5c0 -42.667 -8.66699 -75.5 -26 -98.5s-45 -38.833 -83 -47.5s-88.667 -13 -152 -13c-52 0 -94.833 2.5 -128.5 7.5s-60.334 13.167 -80.001 24.5s-33.334 26.166 -41.001 44.499
s-11.5 41.166 -11.5 68.499c0 20.667 3.66699 38.5 11 53.5s19.833 28.5 37.5 40.5s42.5 23 74.5 33l73 26l53 -21l-40 -26c-16.667 -12 -30.167 -22.167 -40.5 -30.5s-17.666 -16.5 -21.999 -24.5s-6.5 -18.667 -6.5 -32c0 -15.333 3.33301 -27.166 10 -35.499
s18.834 -14 36.501 -17s41.834 -4.5 72.501 -4.5c32 0 57 1.5 75 4.5s30.5 8.5 37.5 16.5s10.5 19.333 10.5 34c0 12.667 -2.5 22 -7.5 28s-13.333 10.5 -25 13.5s-27.834 5.83301 -48.501 8.5l-155 17c-26 2.66699 -46.333 9.66699 -61 21s-24.834 25.166 -30.501 41.499
s-7.16699 32.833 -4.5 49.5s8.83398 31.667 18.501 45s22.167 23 37.5 29z" />
    <glyph glyph-name="Hcircumflex" unicode="&#x124;" horiz-adv-x="691" 
d="M223 690v-690h-153v690h153zM479 425v-115h-264v115h264zM621 690v-690h-153v690h153zM399 917l134 -134l-39 -53l-144 95h-8l-147 -95l-39 57l136 130h107z" />
    <glyph glyph-name="hcircumflex" unicode="&#x125;" horiz-adv-x="601" 
d="M404 507c93.333 0 140 -45.667 140 -137v-370h-149v324c0 22 -3.83301 37.167 -11.5 45.5s-21.167 12.5 -40.5 12.5c-21.333 0 -43.333 -4 -66 -12s-50.667 -21 -84 -39l-13 77c36.667 32 74 56.5 112 73.5s75.333 25.5 112 25.5zM208 700l1 -171
c0 -26 -1.5 -50.667 -4.5 -74s-6.5 -43 -10.5 -59l14 -13v-383h-148v700h148zM188 889l134 -134l-39 -53l-144 95h-8l-147 -95l-39 57l136 130h107z" />
    <glyph glyph-name="Hbar" unicode="&#x126;" horiz-adv-x="695" 
d="M684 584v-71h-672v71h672zM225 690v-690h-153v690h153zM481 425v-115h-264v115h264zM623 690v-690h-153v690h153z" />
    <glyph glyph-name="hbar" unicode="&#x127;" horiz-adv-x="605" 
d="M338 627v-67h-340v67h340zM407 507c93.333 0 140 -45.667 140 -137v-370h-148v324c0 22 -4 37.167 -12 45.5s-21.667 12.5 -41 12.5c-20.667 0 -42.5 -4 -65.5 -12s-51.167 -21 -84.5 -39l-13 77c36.667 32 74.167 56.5 112.5 73.5s75.5 25.5 111.5 25.5zM212 700l1 -171
c0 -26 -1.5 -50.667 -4.5 -74s-6.83301 -43 -11.5 -59l15 -13v-383h-148v700h148z" />
    <glyph glyph-name="Itilde" unicode="&#x128;" horiz-adv-x="292" 
d="M222 690v-690h-152v690h152zM53 900c16.667 -1.33301 31.6699 -4.16602 45.0029 -8.49902s26.166 -9.16602 38.499 -14.499l37 -15.5c12.333 -5 25.166 -8.5 38.499 -10.5c17.333 -2.66699 28.166 -0.333984 32.499 6.99902s6.5 19.666 6.5 36.999h64
c7.33301 -47.333 2.66602 -83.166 -14.001 -107.499s-39.334 -35.5 -68.001 -33.5c-22.667 2 -43.167 6.5 -61.5 13.5s-35.333 14.333 -51 22s-31.5 12.5 -47.5 14.5c-16.667 2 -27.167 -0.666992 -31.5 -8s-6.5 -20 -6.5 -38h-64c-4.66699 33.333 -3.66699 60.666 3 81.999
s17.334 37 32.001 47s30.334 14.333 47.001 13z" />
    <glyph glyph-name="itilde" unicode="&#x129;" horiz-adv-x="277" 
d="M213 494v-494h-149v494h149zM44 722c16.667 -1.33301 31.6699 -4.16602 45.0029 -8.49902s26.166 -9.16602 38.499 -14.499l37 -15.5c12.333 -5 25.166 -8.5 38.499 -10.5c17.333 -2.66699 28.166 -0.333984 32.499 6.99902s6.5 19.666 6.5 36.999h64
c7.33301 -47.333 2.66602 -83.166 -14.001 -107.499s-39.334 -35.5 -68.001 -33.5c-22.667 2 -43.167 6.5 -61.5 13.5s-35.333 14.333 -51 22s-31.5 12.5 -47.5 14.5c-16.667 2 -27.167 -0.666992 -31.5 -8s-6.5 -20 -6.5 -38h-64c-4.66699 33.333 -3.66699 60.666 3 81.999
s17.334 37 32.001 47s30.334 14.333 47.001 13z" />
    <glyph glyph-name="Imacron" unicode="&#x12a;" horiz-adv-x="292" 
d="M222 690v-690h-152v690h152zM297 873v-94h-300v94h300z" />
    <glyph glyph-name="imacron" unicode="&#x12b;" horiz-adv-x="277" 
d="M213 494v-494h-149v494h149zM288 694v-94h-300v94h300z" />
    <glyph glyph-name="Ibreve" unicode="&#x12c;" horiz-adv-x="292" 
d="M222 690v-690h-152v690h152zM239 903l71 -10c4 -27.333 -0.333008 -52.666 -13 -75.999s-31.667 -41.833 -57 -55.5s-56.666 -20.5 -93.999 -20.5c-36 0 -67 6.83301 -93 20.5s-45.333 32.167 -58 55.5s-17.334 48.666 -14.001 75.999l71 10
c0 -22 7.66699 -38.667 23 -50s39.333 -17 72 -17c31.333 0 54.5 5.66699 69.5 17s22.5 28 22.5 50z" />
    <glyph glyph-name="ibreve" unicode="&#x12d;" horiz-adv-x="277" 
d="M213 494v-494h-149v494h149zM230 725l71 -10c4 -27.333 -0.333008 -52.666 -13 -75.999s-31.667 -41.833 -57 -55.5s-56.666 -20.5 -93.999 -20.5c-36 0 -67 6.83301 -93 20.5s-45.333 32.167 -58 55.5s-17.334 48.666 -14.001 75.999l71 10
c0 -22 7.66699 -38.667 23 -50s39.333 -17 72 -17c31.333 0 54.5 5.66699 69.5 17s22.5 28 22.5 50z" />
    <glyph glyph-name="Iogonek" unicode="&#x12e;" horiz-adv-x="292" 
d="M222 690v-690h-152v690h152zM143 2l59.999 -2.00098c-11.333 -15.333 -22.166 -31 -32.499 -47s-19.833 -33.667 -28.5 -53c-9.33301 -21.333 -7.33301 -34.666 6 -39.999s32.333 -5 57 1l11 -53c-36 -14.667 -66.333 -22.167 -91 -22.5s-44.167 4.5 -58.5 14.5
s-23.333 23 -27 39s-2.5 32.667 3.5 50c5.33301 16.667 16 34.667 32 54s38.667 39 68 59z" />
    <glyph glyph-name="iogonek" unicode="&#x12f;" horiz-adv-x="277" 
d="M213 494v-494h-149v494h149zM161 712c28 0 42 -13.667 42 -41v-52c0 -28 -14 -42 -42 -42h-46c-28 0 -42 14 -42 42v52c0 27.333 14 41 42 41h46zM140 2l59.999 -2.00098c-11.333 -15.333 -22.166 -31 -32.499 -47s-19.833 -33.667 -28.5 -53
c-9.33301 -21.333 -7.33301 -34.666 6 -39.999s32.333 -5 57 1l11 -53c-36 -14.667 -66.333 -22.167 -91 -22.5s-44.167 4.5 -58.5 14.5s-23.333 23 -27 39s-2.5 32.667 3.5 50c5.33301 16.667 16 34.667 32 54s38.667 39 68 59z" />
    <glyph glyph-name="Idotaccent" unicode="&#x130;" horiz-adv-x="292" 
d="M222 690v-690h-152v690h152zM170 891c28 0 42 -13.667 42 -41v-52c0 -28 -14 -42 -42 -42h-46c-28 0 -42 14 -42 42v52c0 27.333 14 41 42 41h46z" />
    <glyph glyph-name="dotlessi" unicode="&#x131;" horiz-adv-x="277" 
d="M213 494v-494h-149v494h149z" />
    <glyph glyph-name="IJ" unicode="&#x132;" horiz-adv-x="664" 
d="M222 690v-690h-152v690h152zM597 690l-0.00195312 -554c0 -48 -13.833 -84.667 -41.5 -110s-66.5 -38 -116.5 -38c-12 0 -26.167 0.833008 -42.5 2.5s-32.166 4 -47.499 7s-27.666 6.5 -36.999 10.5l16 99h49c45.333 0 68 18.667 68 56v527h152z" />
    <glyph glyph-name="ij" unicode="&#x133;" horiz-adv-x="553" 
d="M211 494v-494h-147v494h147zM170 712c29.333 0 44 -15 44 -45v-53c0 -30 -14.667 -45 -44 -45h-64c-29.333 0 -44 15 -44 45v53c0 30 14.667 45 44 45h64zM489 494v-471c0 -30 -5.16699 -59.167 -15.5 -87.5s-25 -53.833 -44 -76.5s-41.833 -41 -68.5 -55l-82 64
c22.667 25.333 38.667 50 48 74s14 51 14 81v471h148zM446 717c28.667 0 43 -14.667 43 -44v-54c0 -30 -14.333 -45 -43 -45h-65c-28.667 0 -43 15 -43 45v54c0 29.333 14.333 44 43 44h65z" />
    <glyph glyph-name="Jcircumflex" unicode="&#x134;" horiz-adv-x="372" 
d="M305 690l-0.00195312 -554c0 -48 -13.833 -84.667 -41.5 -110s-66.5 -38 -116.5 -38c-12 0 -26.167 0.833008 -42.5 2.5s-32.166 4 -47.499 7s-27.666 6.5 -36.999 10.5l16 99h49c45.333 0 68 18.667 68 56v527h152zM284.998 914l134 -134l-39 -53l-144 95h-8l-147 -95
l-39 57l136 130h107z" />
    <glyph glyph-name="jcircumflex" unicode="&#x135;" horiz-adv-x="277" 
d="M213 494v-471c0 -30 -5.16699 -59.167 -15.5 -87.5s-25 -53.833 -44 -76.5s-41.833 -41 -68.5 -55l-82 64c22.667 25.333 38.667 50 48 74s14 51 14 81v471h148zM192 734l134 -134l-39 -53l-144 95h-8l-147 -95l-39 57l136 130h107z" />
    <glyph glyph-name="uni0136" unicode="&#x136;" horiz-adv-x="634" 
d="M347 -53c17.333 0 29.333 -2.99707 36 -8.99707s10.334 -16.667 11.001 -32v-52c-0.666992 -20.667 -2.66699 -39.334 -6 -56.001s-8.5 -32.334 -15.5 -47.001s-15.5 -28.667 -25.5 -42l-54 14c5.33301 17.333 9 34.166 11 50.499s3 33.833 3 52.5
c-25.333 0 -38.333 12 -39 36l1 44c0 15.333 3.66699 26 11 32s19.666 9 36.999 9h30zM617 690.003l-180 -278c-7.33301 -12 -15.333 -22.333 -24 -31s-17.334 -16 -26.001 -22v-3c9.33301 -5.33301 19.333 -13.333 30 -24s19.334 -22 26.001 -34l186 -298h-171l-213 361
l207 329h165zM222 690.003v-194.999c0 -22.667 -1.66699 -45.167 -5 -67.5s-8.66602 -44.166 -15.999 -65.499c5.33301 -20.667 10.166 -41.834 14.499 -63.501s6.5 -41.834 6.5 -60.501v-238h-152v690h152zM300 412.004v-106h-124v106h124z" />
    <glyph glyph-name="uni0137" unicode="&#x137;" horiz-adv-x="559" 
d="M306 -48c18 0 30.333 -2.99805 37 -8.99805s10 -16.667 10 -32v-51c0 -21.333 -1.83301 -40.333 -5.5 -57s-9 -32.334 -16 -47.001s-15.167 -28.667 -24.5 -42l-54 14c4.66699 17.333 8 34.166 10 50.499s3.33301 33.833 4 52.5c-26 0 -39.333 12.333 -40 37l2 43
c0 15.333 3.66699 26 11 32s19.333 9 36 9h30zM538 494.002l-129 -171.999c-6 -9.33301 -13.667 -18.333 -23 -27s-17 -15 -23 -19v-4c6 -3.33301 13.667 -10.333 23 -21s17 -21.334 23 -32.001l146 -219h-165l-169 278l152 216h165zM208 700.003l0.999023 -288.998
c0 -23.333 -1.33301 -46 -4 -68s-6.66699 -43.667 -12 -65c4.66699 -20.667 8.33398 -41.834 11.001 -63.501s4 -41.834 4 -60.501v-154h-148v700h148zM276.999 320.005v-90h-115v90h115z" />
    <glyph glyph-name="kgreenlandic" unicode="&#x138;" horiz-adv-x="559" 
d="M538 494l-130 -188c-6 -9.33301 -13.667 -18.5 -23 -27.5s-17 -15.5 -23 -19.5v-3c6 -3.33301 13.5 -10.5 22.5 -21.5s16.833 -21.5 23.5 -31.5l147 -203h-165l-169 254l152 240h165zM208 494l0.999023 -108.001c0 -22.667 -1.33301 -45.167 -4 -67.5
s-6.66699 -44.166 -12 -65.499c4.66699 -20 8.33398 -41 11.001 -63s4 -42 4 -60v-130h-148v494h148zM276.999 294.999v-90h-115v90h115z" />
    <glyph glyph-name="Lacute" unicode="&#x139;" horiz-adv-x="536" 
d="M220 690l0.000976562 -515.999c0 -16.667 4.66699 -29.334 14 -38.001s22.666 -13 39.999 -13h241l7 -115c-47.333 -5.33301 -96.833 -8.5 -148.5 -9.5s-103.167 -1.5 -154.5 -1.5c-50 0 -87.833 13.5 -113.5 40.5s-38.5 61.5 -38.5 103.5v549h153zM256.001 940.001
l64 -100l-223 -111l-44 63z" />
    <glyph glyph-name="lacute" unicode="&#x13a;" horiz-adv-x="328" 
d="M209 700l-1 -542c0 -16.667 5 -29.167 15 -37.5s24.667 -12.5 44 -12.5h40l17 -100c-8 -4 -19.333 -7.5 -34 -10.5s-29.667 -5.33301 -45 -7s-28.333 -2.5 -39 -2.5c-44.667 0 -80 11.667 -106 35s-39 56 -39 98v579h148zM251 946l64 -100l-223 -111l-44 63z" />
    <glyph glyph-name="uni013B" unicode="&#x13b;" horiz-adv-x="536" 
d="M310 -54c18 0 30.333 -2.99707 37 -8.99707s10 -16.667 10 -32v-52c0 -20.667 -1.83301 -39.334 -5.5 -56.001s-9 -32.334 -16 -47.001s-15.167 -28.667 -24.5 -42l-55 14c5.33301 17.333 9 34.166 11 50.499s3 33.833 3 52.5c-25.333 0 -38.333 12 -39 36l2 44
c0 15.333 3.5 26 10.5 32s19.167 9 36.5 9h30zM220 690.003l0.000976562 -515.999c0 -16.667 4.66699 -29.334 14 -38.001s22.666 -13 39.999 -13h241l7 -115c-47.333 -5.33301 -96.833 -8.5 -148.5 -9.5s-103.167 -1.5 -154.5 -1.5c-50 0 -87.833 13.5 -113.5 40.5
s-38.5 61.5 -38.5 103.5v549h153z" />
    <glyph glyph-name="uni013C" unicode="&#x13c;" horiz-adv-x="328" 
d="M197 -54c18 0 30.333 -2.99707 37 -8.99707s10 -16.667 10 -32v-52c0 -20.667 -1.83301 -39.334 -5.5 -56.001s-9 -32.334 -16 -47.001s-15.167 -28.667 -24.5 -42l-55 14c5.33301 17.333 9 34.166 11 50.499s3.33301 33.833 4 52.5c-26 0 -39.333 12 -40 36l2 44
c0 15.333 3.5 26 10.5 32s19.167 9 36.5 9h30zM209 700.003l-1 -542c0 -16.667 5 -29.167 15 -37.5s24.667 -12.5 44 -12.5h40l17 -100c-8 -4 -19.333 -7.5 -34 -10.5s-29.667 -5.33301 -45 -7s-28.333 -2.5 -39 -2.5c-44.667 0 -80 11.667 -106 35s-39 56 -39 98v579h148z
" />
    <glyph glyph-name="Lcaron" unicode="&#x13d;" horiz-adv-x="536" 
d="M220 690l0.000976562 -515.999c0 -16.667 4.66699 -29.334 14 -38.001s22.666 -13 39.999 -13h241l7 -115c-47.333 -5.33301 -96.833 -8.5 -148.5 -9.5s-103.167 -1.5 -154.5 -1.5c-50 0 -87.833 13.5 -113.5 40.5s-38.5 61.5 -38.5 103.5v549h153zM402.001 689.001
c16 0 27.002 -3.16699 33.002 -9.5s9 -17.5 9 -33.5v-54c0.666992 -32 -2.83301 -59.667 -10.5 -83s-17.834 -46 -30.501 -68l-50 15c4.66699 18 7.66699 35.5 9 52.5s2.33301 35.167 3 54.5c-24 0 -35.667 12.667 -35 38l1 45c0.666992 16 4.16699 27.167 10.5 33.5
s17.166 9.5 32.499 9.5h28z" />
    <glyph glyph-name="lcaron" unicode="&#x13e;" horiz-adv-x="328" 
d="M209 700l-1 -542c0 -16.667 5 -29.167 15 -37.5s24.667 -12.5 44 -12.5h40l17 -100c-8 -4 -19.333 -7.5 -34 -10.5s-29.667 -5.33301 -45 -7s-28.333 -2.5 -39 -2.5c-44.667 0 -80 11.667 -106 35s-39 56 -39 98v579h148zM329 703c16 0 27.002 -3.16699 33.002 -9.5
s9 -17.5 9 -33.5v-54c0.666992 -32 -2.83301 -59.667 -10.5 -83s-17.834 -46 -30.501 -68l-50 15c4.66699 18 7.66699 35.5 9 52.5s2.33301 35.167 3 54.5c-24 0 -35.667 12.667 -35 38l1 45c0.666992 16 4.16699 27.167 10.5 33.5s17.166 9.5 32.499 9.5h28z" />
    <glyph glyph-name="Ldot" unicode="&#x13f;" horiz-adv-x="536" 
d="M362 341c-28 0 -42 13.667 -42 41v52c0 28 14 42 42 42h45c28.667 0 43 -14 43 -42v-52c0 -27.333 -14.333 -41 -43 -41h-45zM220 690l0.000976562 -515.999c0 -16.667 4.66699 -29.334 14 -38.001s22.666 -13 39.999 -13h241l7 -115
c-47.333 -5.33301 -96.833 -8.5 -148.5 -9.5s-103.167 -1.5 -154.5 -1.5c-50 0 -87.833 13.5 -113.5 40.5s-38.5 61.5 -38.5 103.5v549h153z" />
    <glyph glyph-name="ldot" unicode="&#x140;" horiz-adv-x="399" 
d="M310 323c-28.667 0 -43 14 -43 42v51c0 28 14.333 42 43 42h45c28 0 42 -14 42 -42v-51c0 -28 -14 -42 -42 -42h-45zM209 700l-1 -542c0 -16.667 5 -29.167 15 -37.5s24.667 -12.5 44 -12.5h40l17 -100c-8 -4 -19.333 -7.5 -34 -10.5s-29.667 -5.33301 -45 -7
s-28.333 -2.5 -39 -2.5c-44.667 0 -80 11.667 -106 35s-39 56 -39 98v579h148z" />
    <glyph glyph-name="Lslash" unicode="&#x141;" horiz-adv-x="539" 
d="M333 494v-80l-320 -127v80zM223 690l0.000976562 -515.999c0 -16.667 4.66699 -29.334 14 -38.001s22.666 -13 39.999 -13h241l7 -115c-47.333 -5.33301 -96.833 -8.5 -148.5 -9.5s-103.167 -1.5 -154.5 -1.5c-50 0 -87.833 13.5 -113.5 40.5s-38.5 61.5 -38.5 103.5v549
h153z" />
    <glyph glyph-name="lslash" unicode="&#x142;" horiz-adv-x="359" 
d="M330 487v-80l-318 -127v80zM234 700l0.000976562 -542c0 -16.667 5 -29.167 15 -37.5s24.333 -12.5 43 -12.5h41l16 -100c-8 -4 -19.333 -7.5 -34 -10.5s-29.667 -5.33301 -45 -7s-28.333 -2.5 -39 -2.5c-44.667 0 -79.834 11.667 -105.501 35s-38.5 56 -38.5 98v579h147
z" />
    <glyph glyph-name="Nacute" unicode="&#x143;" horiz-adv-x="722" 
d="M653 690l0.000976562 -635c0 -36.667 -18.333 -55 -55 -55h-84c-16.667 -0 -29.334 3.83301 -38.001 11.5s-16.667 19.167 -24 34.5l-191 362c-8 15.333 -15.833 32.333 -23.5 51s-14.167 36.667 -19.5 54h-11c2 -18 3.66699 -36.167 5 -54.5s2 -36.5 2 -54.5v-404h-145
v635c0 36.667 18.667 55 56 55h83c16 0 28.167 -3.83301 36.5 -11.5s16.5 -19.167 24.5 -34.5l185 -351c8 -15.333 16.333 -32.333 25 -51s17 -38 25 -58h12c-2 20 -3.5 39.5 -4.5 58.5s-1.5 37.833 -1.5 56.5l-1 391h144zM488.001 939l64 -100l-223 -111l-44 63z" />
    <glyph glyph-name="nacute" unicode="&#x144;" horiz-adv-x="601" 
d="M404 507c93.333 0 140 -45.668 140 -137.001v-370h-148v324c0 22 -4 37.167 -12 45.5s-21.667 12.5 -41 12.5c-21.333 0 -43.333 -4.16699 -66 -12.5s-50.667 -21.166 -84 -38.499l-7 83c35.333 30 71.5 53 108.5 69s73.5 24 109.5 24zM179 493.999l17 -98l12 -13v-383
h-148v494h119zM423 759.999l64 -100l-223 -111l-44 63z" />
    <glyph glyph-name="uni0145" unicode="&#x145;" horiz-adv-x="722" 
d="M375 -53c17.333 0 29.333 -2.99707 36 -8.99707s10.334 -16.667 11.001 -32v-52c-0.666992 -20.667 -2.66699 -39.334 -6 -56.001s-8.5 -32.334 -15.5 -47.001s-15.5 -28.667 -25.5 -42l-54 14c5.33301 17.333 9 34.166 11 50.499s3 33.833 3 52.5
c-25.333 0 -38.333 12 -39 36l1 44c0 15.333 3.66699 26 11 32s19.666 9 36.999 9h30zM653 690.003l0.000976562 -635c0 -36.667 -18.333 -55 -55 -55h-84c-16.667 0 -29.334 3.83301 -38.001 11.5s-16.667 19.167 -24 34.5l-191 362c-8 15.333 -15.833 32.333 -23.5 51
s-14.167 36.667 -19.5 54h-11c2 -18 3.66699 -36.167 5 -54.5s2 -36.5 2 -54.5v-404h-145v635c0 36.667 18.667 55 56 55h83c16 0 28.167 -3.83301 36.5 -11.5s16.5 -19.167 24.5 -34.5l185 -351c8 -15.333 16.333 -32.333 25 -51s17 -38 25 -58h12
c-2 20 -3.5 39.5 -4.5 58.5s-1.5 37.833 -1.5 56.5l-1 391h144z" />
    <glyph glyph-name="uni0146" unicode="&#x146;" horiz-adv-x="601" 
d="M310 -48c18 0 30.333 -2.99805 37 -8.99805s10 -16.667 10 -32v-51c0 -21.333 -1.83301 -40.333 -5.5 -57s-9 -32.334 -16 -47.001s-15.167 -28.667 -24.5 -42l-55 14c5.33301 17.333 9 34.166 11 50.499s3 33.833 3 52.5c-25.333 0 -38.333 12.333 -39 37l2 43
c0 15.333 3.5 26 10.5 32s19.167 9 36.5 9h30zM404 507.002c93.333 0 140 -45.668 140 -137.001v-370h-148v324c0 22 -4 37.167 -12 45.5s-21.667 12.5 -41 12.5c-21.333 0 -43.333 -4.16699 -66 -12.5s-50.667 -21.166 -84 -38.499l-7 83c35.333 30 71.5 53 108.5 69
s73.5 24 109.5 24zM179 494.001l17 -98l12 -13v-383h-148v494h119z" />
    <glyph glyph-name="Ncaron" unicode="&#x147;" horiz-adv-x="722" 
d="M653 690l0.000976562 -635c0 -36.667 -18.333 -55 -55 -55h-84c-16.667 -0 -29.334 3.83301 -38.001 11.5s-16.667 19.167 -24 34.5l-191 362c-8 15.333 -15.833 32.333 -23.5 51s-14.167 36.667 -19.5 54h-11c2 -18 3.66699 -36.167 5 -54.5s2 -36.5 2 -54.5v-404h-145
v635c0 36.667 18.667 55 56 55h83c16 0 28.167 -3.83301 36.5 -11.5s16.5 -19.167 24.5 -34.5l185 -351c8 -15.333 16.333 -32.333 25 -51s17 -38 25 -58h12c-2 20 -3.5 39.5 -4.5 58.5s-1.5 37.833 -1.5 56.5l-1 391h144zM517.001 928l39 -57l-153 -129h-61l-154 129l40 57
l141 -81h8z" />
    <glyph glyph-name="ncaron" unicode="&#x148;" horiz-adv-x="601" 
d="M404 507c93.333 0 140 -45.668 140 -137.001v-370h-148v324c0 22 -4 37.167 -12 45.5s-21.667 12.5 -41 12.5c-21.333 0 -43.333 -4.16699 -66 -12.5s-50.667 -21.166 -84 -38.499l-7 83c35.333 30 71.5 53 108.5 69s73.5 24 109.5 24zM179 493.999l17 -98l12 -13v-383
h-148v494h119zM453 747.999l39 -57l-153 -129h-61l-154 129l40 57l141 -81h8z" />
    <glyph glyph-name="Eng" unicode="&#x14a;" horiz-adv-x="723" 
d="M653 690l-0.00292969 -746.003c0 -49.333 -12.833 -87.333 -38.5 -114s-59.5 -40 -101.5 -40c-16 0 -35.333 1.66699 -58 5s-42 8 -58 14l16 96h42c41.333 0 62 17.333 62 52v48h-20c-5.33301 0 -11.166 4 -17.499 12s-12.166 17 -17.499 27l-201 357
c-8.66699 14.667 -16.667 31.5 -24 50.5s-14 37.167 -20 54.5h-10c2 -17.333 3.5 -34.833 4.5 -52.5s1.5 -35.167 1.5 -52.5v-401h-144v635c0 36.667 18.667 55 56 55h74c16.667 0 29.334 -3.83301 38.001 -11.5s17 -19.167 25 -34.5l192 -343
c7.33301 -13.333 15.5 -29.666 24.5 -48.999s17.167 -39.333 24.5 -60h12c-1.33301 18.667 -2.83301 37.334 -4.5 56.001s-2.5 37.334 -2.5 56.001v386h145z" />
    <glyph glyph-name="eng" unicode="&#x14b;" horiz-adv-x="601" 
d="M403 507c94 0 141 -45.6689 141 -137.002v-416c0 -49.333 -12.167 -87.333 -36.5 -114s-59.166 -40 -104.499 -40c-10.667 0 -23.5 0.833008 -38.5 2.5s-29.667 3.83398 -44 6.50098s-26.833 6.33398 -37.5 11.001l17 95h39c38 0 57 17.333 57 52v357
c0 20 -4 34.167 -12 42.5s-22 12.5 -42 12.5c-18.667 0 -38.834 -3.5 -60.501 -10.5s-46.167 -17.167 -73.5 -30.5v-338h-148v494h116l13 -77c36 30 72.167 52.5 108.5 67.5s71.5 22.5 105.5 22.5z" />
    <glyph glyph-name="Omacron" unicode="&#x14c;" horiz-adv-x="688" 
d="M344 704c54.667 0 101 -5.83301 139 -17.5s68.5 -31 91.5 -58s39.833 -63.667 50.5 -110s16 -104.166 16 -173.499s-5.33301 -127.166 -16 -173.499s-27.5 -83 -50.5 -110s-53.5 -46.333 -91.5 -58s-84.333 -17.5 -139 -17.5s-101 5.83301 -139 17.5s-68.667 31 -92 58
s-40.333 63.667 -51 110s-16 104.166 -16 173.499s5.33301 127.166 16 173.499s27.667 83 51 110s54 46.333 92 58s84.333 17.5 139 17.5zM344 583c-35.333 0 -62.833 -7 -82.5 -21s-33.667 -38.167 -42 -72.5s-12.5 -82.5 -12.5 -144.5
c0 -61.333 4.16699 -109.333 12.5 -144s22.333 -59 42 -73s47.167 -21 82.5 -21c34.667 0 61.834 7 81.501 21s33.667 38.333 42 73s12.5 82.667 12.5 144c0 62 -4.16699 110.167 -12.5 144.5s-22.333 58.5 -42 72.5s-46.834 21 -81.501 21zM495 873v-94h-300v94h300z" />
    <glyph glyph-name="omacron" unicode="&#x14d;" 
d="M295 507c62 0 111.667 -8.5 149 -25.5s64.166 -44.5 80.499 -82.5s24.5 -89 24.5 -153c0 -62.667 -8.16699 -113 -24.5 -151s-43.166 -65.333 -80.499 -82s-87 -25 -149 -25c-61.333 0 -110.833 8.33301 -148.5 25s-64.834 44 -81.501 82s-25 88.333 -25 151
c0 64 8.33301 115 25 153s43.834 65.5 81.501 82.5s87.167 25.5 148.5 25.5zM295 399c-25.333 0 -45.333 -4.33301 -60 -13s-25 -24 -31 -46s-9 -53.333 -9 -94c0 -40 3 -71 9 -93s16.333 -37.167 31 -45.5s34.667 -12.5 60 -12.5s45.333 4.16699 60 12.5s25 23.5 31 45.5
s9 53 9 93c0 40.667 -3 72 -9 94s-16.333 37.333 -31 46s-34.667 13 -60 13zM447 687v-94h-300v94h300z" />
    <glyph glyph-name="Obreve" unicode="&#x14e;" horiz-adv-x="688" 
d="M344 704c54.667 0 101 -5.83301 139 -17.5s68.5 -31 91.5 -58s39.833 -63.667 50.5 -110s16 -104.166 16 -173.499s-5.33301 -127.166 -16 -173.499s-27.5 -83 -50.5 -110s-53.5 -46.333 -91.5 -58s-84.333 -17.5 -139 -17.5s-101 5.83301 -139 17.5s-68.667 31 -92 58
s-40.333 63.667 -51 110s-16 104.166 -16 173.499s5.33301 127.166 16 173.499s27.667 83 51 110s54 46.333 92 58s84.333 17.5 139 17.5zM344 583c-35.333 0 -62.833 -7 -82.5 -21s-33.667 -38.167 -42 -72.5s-12.5 -82.5 -12.5 -144.5
c0 -61.333 4.16699 -109.333 12.5 -144s22.333 -59 42 -73s47.167 -21 82.5 -21c34.667 0 61.834 7 81.501 21s33.667 38.333 42 73s12.5 82.667 12.5 144c0 62 -4.16699 110.167 -12.5 144.5s-22.333 58.5 -42 72.5s-46.834 21 -81.501 21zM436 903l71 -10
c4 -27.333 -0.333008 -52.666 -13 -75.999s-31.667 -41.833 -57 -55.5s-56.666 -20.5 -93.999 -20.5c-36 0 -67 6.83301 -93 20.5s-45.333 32.167 -58 55.5s-17.334 48.666 -14.001 75.999l71 10c0 -22 7.66699 -38.667 23 -50s39.333 -17 72 -17
c31.333 0 54.5 5.66699 69.5 17s22.5 28 22.5 50z" />
    <glyph glyph-name="obreve" unicode="&#x14f;" 
d="M295 507c62 0 111.667 -8.5 149 -25.5s64.166 -44.5 80.499 -82.5s24.5 -89 24.5 -153c0 -62.667 -8.16699 -113 -24.5 -151s-43.166 -65.333 -80.499 -82s-87 -25 -149 -25c-61.333 0 -110.833 8.33301 -148.5 25s-64.834 44 -81.501 82s-25 88.333 -25 151
c0 64 8.33301 115 25 153s43.834 65.5 81.501 82.5s87.167 25.5 148.5 25.5zM295 399c-25.333 0 -45.333 -4.33301 -60 -13s-25 -24 -31 -46s-9 -53.333 -9 -94c0 -40 3 -71 9 -93s16.333 -37.167 31 -45.5s34.667 -12.5 60 -12.5s45.333 4.16699 60 12.5s25 23.5 31 45.5
s9 53 9 93c0 40.667 -3 72 -9 94s-16.333 37.333 -31 46s-34.667 13 -60 13zM389 717l71 -10c4 -27.333 -0.333008 -52.666 -13 -75.999s-31.667 -41.833 -57 -55.5s-56.666 -20.5 -93.999 -20.5c-36 0 -67 6.83301 -93 20.5s-45.333 32.167 -58 55.5
s-17.334 48.666 -14.001 75.999l71 10c0 -22 7.66699 -38.667 23 -50s39.333 -17 72 -17c31.333 0 54.5 5.66699 69.5 17s22.5 28 22.5 50z" />
    <glyph glyph-name="Ohungarumlaut" unicode="&#x150;" horiz-adv-x="688" 
d="M344 704c54.667 0 101 -5.83301 139 -17.5s68.5 -31 91.5 -58s39.833 -63.667 50.5 -110s16 -104.166 16 -173.499s-5.33301 -127.166 -16 -173.499s-27.5 -83 -50.5 -110s-53.5 -46.333 -91.5 -58s-84.333 -17.5 -139 -17.5s-101 5.83301 -139 17.5s-68.667 31 -92 58
s-40.333 63.667 -51 110s-16 104.166 -16 173.499s5.33301 127.166 16 173.499s27.667 83 51 110s54 46.333 92 58s84.333 17.5 139 17.5zM344 583c-35.333 0 -62.833 -7 -82.5 -21s-33.667 -38.167 -42 -72.5s-12.5 -82.5 -12.5 -144.5
c0 -61.333 4.16699 -109.333 12.5 -144s22.333 -59 42 -73s47.167 -21 82.5 -21c34.667 0 61.834 7 81.501 21s33.667 38.333 42 73s12.5 82.667 12.5 144c0 62 -4.16699 110.167 -12.5 144.5s-22.333 58.5 -42 72.5s-46.834 21 -81.501 21zM289 950l96 -64l-152 -168
l-61 48zM479 950l95 -64l-152 -168l-60 47z" />
    <glyph glyph-name="ohungarumlaut" unicode="&#x151;" 
d="M295 507c62 0 111.667 -8.5 149 -25.5s64.166 -44.5 80.499 -82.5s24.5 -89 24.5 -153c0 -62.667 -8.16699 -113 -24.5 -151s-43.166 -65.333 -80.499 -82s-87 -25 -149 -25c-61.333 0 -110.833 8.33301 -148.5 25s-64.834 44 -81.501 82s-25 88.333 -25 151
c0 64 8.33301 115 25 153s43.834 65.5 81.501 82.5s87.167 25.5 148.5 25.5zM295 399c-25.333 0 -45.333 -4.33301 -60 -13s-25 -24 -31 -46s-9 -53.333 -9 -94c0 -40 3 -71 9 -93s16.333 -37.167 31 -45.5s34.667 -12.5 60 -12.5s45.333 4.16699 60 12.5s25 23.5 31 45.5
s9 53 9 93c0 40.667 -3 72 -9 94s-16.333 37.333 -31 46s-34.667 13 -60 13zM241 764l96 -64l-152 -168l-61 48zM431 764l95 -64l-152 -168l-60 47z" />
    <glyph glyph-name="OE" unicode="&#x152;" horiz-adv-x="948" 
d="M342 704c25.333 0 48.1641 -1.16309 68.4971 -3.49609s39.833 -6 58.5 -11s37.334 -11.167 56.001 -18.5l-58 -105c-12 4 -23.667 7.16699 -35 9.5s-24.333 4.16602 -39 5.49902s-31.667 2 -51 2c-34.667 0 -61.667 -6.83301 -81 -20.5s-33 -37.834 -41 -72.501
s-12 -83 -12 -145c0 -61.333 4 -109.333 12 -144s21.667 -59 41 -73s46.333 -21 81 -21c20.667 0 38.334 0.666992 53.001 2s27.834 3.5 39.501 6.5s23.5 6.83301 35.5 11.5l53 -99c-18.667 -10 -37.167 -18 -55.5 -24s-37.5 -10.5 -57.5 -13.5s-42.667 -4.5 -68 -4.5
c-54 0 -100 5.83301 -138 17.5s-68.5 31 -91.5 58s-39.667 63.667 -50 110s-15.5 104.166 -15.5 173.499s5.16699 127.166 15.5 173.499s27 83 50 110s53.5 46.333 91.5 58s84 17.5 138 17.5zM587.998 693.004c36 0 72.667 -0.167969 110 -0.500977
s74 -1.16602 110 -2.49902s69.333 -3.66602 100 -6.99902l-6 -111h-249c-17.333 0 -30.5 -4.33301 -39.5 -13s-13.5 -21.334 -13.5 -38.001v-352c0 -16.667 4.5 -29.334 13.5 -38.001s22.167 -13 39.5 -13h249l6 -111c-31.333 -2.66699 -65.166 -4.83398 -101.499 -6.50098
s-73.333 -2.66699 -111 -3s-74.834 -0.5 -111.501 -0.5c-40 0 -73 13.333 -99 40s-39 61.334 -39 104.001v408c0 42.667 13.5 77.334 40.5 104.001s60.833 40 101.5 40zM462.998 411.003l402 -1v-103h-402v104z" />
    <glyph glyph-name="oe" unicode="&#x153;" horiz-adv-x="908" 
d="M293 -12c-62 0 -111.5 8.33301 -148.5 25s-63.667 44 -80 82s-24.5 88.333 -24.5 151c0 64 8.16699 115 24.5 153s43 65.5 80 82.5s86.5 25.5 148.5 25.5c60.667 0 109.167 -8.5 145.5 -25.5s62.666 -44.5 78.999 -82.5s24.5 -89 24.5 -153
c0 -62.667 -8.16699 -113 -24.5 -151s-42.666 -65.333 -78.999 -82s-84.833 -25 -145.5 -25zM293 95c25.333 0 45.3311 4.16699 59.998 12.5s25 23.5 31 45.5s9 53 9 93c0 40.667 -3 72 -9 94s-16.167 37.333 -30.5 46s-34.166 13 -59.499 13s-45.166 -4.33301 -59.499 -13
s-24.333 -24 -30 -46s-8.5 -53.333 -8.5 -94c0 -40 2.83301 -71 8.5 -93s15.5 -37.167 29.5 -45.5s33.667 -12.5 59 -12.5zM644.998 -13c-61.333 0 -110.5 9.16309 -147.5 27.4961s-63.833 46.5 -80.5 84.5s-25 86.667 -25 146c0 64.667 8.16699 115.834 24.5 153.501
s42.5 65 78.5 82s83.667 25.5 143 25.5c84.667 0 144.834 -14.167 180.501 -42.5s53.834 -69.166 54.501 -122.499c0.666992 -33.333 -4.66602 -60.166 -15.999 -80.499s-29.5 -34.833 -54.5 -43.5s-59.5 -13 -103.5 -13h-253v81h222c24.667 0 41.167 4.16699 49.5 12.5
s12.166 23.833 11.499 46.5c-0.666992 21.333 -8 36.333 -22 45s-36.333 13 -67 13c-25.333 0 -45.333 -3.83301 -60 -11.5s-24.834 -21.834 -30.501 -42.501s-8.5 -50.334 -8.5 -89.001c0 -41.333 3.66699 -73.166 11 -95.499s19.833 -37.833 37.5 -46.5
s42.167 -13 73.5 -13c22 0 49.5 0.833008 82.5 2.5s66.5 4.5 100.5 8.5l14 -91c-19.333 -9.33301 -41 -16.666 -65 -21.999s-48.833 -9.16602 -74.5 -11.499s-50.834 -3.5 -75.501 -3.5z" />
    <glyph glyph-name="Racute" unicode="&#x154;" horiz-adv-x="647" 
d="M335 700c60.667 0 109.833 -6.16797 147.5 -18.501s65.334 -33.333 83.001 -63s26.5 -70.834 26.5 -123.501c0 -32 -4.16699 -60.167 -12.5 -84.5s-22.166 -43.833 -41.499 -58.5s-45.666 -24 -78.999 -28v-5c12 -2 24.5 -6.66699 37.5 -14s25.167 -18.166 36.5 -32.499
s19.666 -33.5 24.999 -57.5l60 -215h-161l-53 210c-6 22.667 -14.833 38.334 -26.5 47.001s-27.834 13 -48.501 13c-45.333 0 -83.5 0.166992 -114.5 0.5s-57 0.833008 -78 1.5s-39.833 1.33398 -56.5 2.00098l3 111h249c26.667 0 47.834 2.83301 63.501 8.5
s26.667 15.834 33 30.501s9.5 35 9.5 61c0 26.667 -3.16699 47.167 -9.5 61.5s-17.333 24.333 -33 30s-36.834 8.5 -63.501 8.5c-62.667 0 -115.667 -0.333008 -159 -1s-73 -1.66699 -89 -3l-15 109c28 3.33301 54.333 5.66602 79 6.99902s51.667 2.16602 81 2.49902
s64.666 0.5 105.999 0.5zM219.999 689.999v-690h-151v690h151zM432.999 938.999l64 -100l-223 -111l-44 63z" />
    <glyph glyph-name="racute" unicode="&#x155;" horiz-adv-x="427" 
d="M176 494l18 -98l14 -13v-383h-148v494h116zM417 507l-14 -137h-41c-23.333 0 -47.666 -3.33301 -72.999 -10s-57.333 -16.667 -96 -30l-10 83c34.667 30.667 69.667 54 105 70s69.666 24 102.999 24h26zM341 760l64 -100l-223 -111l-44 63z" />
    <glyph glyph-name="uni0156" unicode="&#x156;" horiz-adv-x="647" 
d="M353 -53c17.333 0 29.333 -2.99707 36 -8.99707s10.334 -16.667 11.001 -32v-52c-0.666992 -20.667 -2.66699 -39.334 -6 -56.001s-8.5 -32.334 -15.5 -47.001s-15.5 -28.667 -25.5 -42l-54 14c5.33301 17.333 9 34.166 11 50.499s3 33.833 3 52.5
c-25.333 0 -38.333 12 -39 36l1 44c0 15.333 3.66699 26 11 32s19.666 9 36.999 9h30zM335 700.003c60.667 0 109.833 -6.16797 147.5 -18.501s65.334 -33.333 83.001 -63s26.5 -70.834 26.5 -123.501c0 -32 -4.16699 -60.167 -12.5 -84.5s-22.166 -43.833 -41.499 -58.5
s-45.666 -24 -78.999 -28v-5c12 -2 24.5 -6.66699 37.5 -14s25.167 -18.166 36.5 -32.499s19.666 -33.5 24.999 -57.5l60 -215h-161l-53 210c-6 22.667 -14.833 38.334 -26.5 47.001s-27.834 13 -48.501 13c-45.333 0 -83.5 0.166992 -114.5 0.5s-57 0.833008 -78 1.5
s-39.833 1.33398 -56.5 2.00098l3 111h249c26.667 0 47.834 2.83301 63.501 8.5s26.667 15.834 33 30.501s9.5 35 9.5 61c0 26.667 -3.16699 47.167 -9.5 61.5s-17.333 24.333 -33 30s-36.834 8.5 -63.501 8.5c-62.667 0 -115.667 -0.333008 -159 -1s-73 -1.66699 -89 -3
l-15 109c28 3.33301 54.333 5.66602 79 6.99902s51.667 2.16602 81 2.49902s64.666 0.5 105.999 0.5zM219.999 690.002v-690h-151v690h151z" />
    <glyph glyph-name="uni0157" unicode="&#x157;" horiz-adv-x="427" 
d="M140 -48c17.333 0 29.333 -2.99805 36 -8.99805s10.334 -16.667 11.001 -32v-51c-0.666992 -21.333 -2.66699 -40.333 -6 -57s-8.5 -32.334 -15.5 -47.001s-15.5 -28.667 -25.5 -42l-54 14c5.33301 17.333 9 34.166 11 50.499s3 33.833 3 52.5
c-25.333 0 -38.333 12.333 -39 37l1 43c0 15.333 3.66699 26 11 32s19.666 9 36.999 9h30zM176 494.002l18 -98l14 -13v-383h-148v494h116zM417 507.002l-14 -137h-41c-23.333 0 -47.666 -3.33301 -72.999 -10s-57.333 -16.667 -96 -30l-10 83
c34.667 30.667 69.667 54 105 70s69.666 24 102.999 24h26z" />
    <glyph glyph-name="Rcaron" unicode="&#x158;" horiz-adv-x="647" 
d="M335 700c60.667 0 109.833 -6.16797 147.5 -18.501s65.334 -33.333 83.001 -63s26.5 -70.834 26.5 -123.501c0 -32 -4.16699 -60.167 -12.5 -84.5s-22.166 -43.833 -41.499 -58.5s-45.666 -24 -78.999 -28v-5c12 -2 24.5 -6.66699 37.5 -14s25.167 -18.166 36.5 -32.499
s19.666 -33.5 24.999 -57.5l60 -215h-161l-53 210c-6 22.667 -14.833 38.334 -26.5 47.001s-27.834 13 -48.501 13c-45.333 0 -83.5 0.166992 -114.5 0.5s-57 0.833008 -78 1.5s-39.833 1.33398 -56.5 2.00098l3 111h249c26.667 0 47.834 2.83301 63.501 8.5
s26.667 15.834 33 30.501s9.5 35 9.5 61c0 26.667 -3.16699 47.167 -9.5 61.5s-17.333 24.333 -33 30s-36.834 8.5 -63.501 8.5c-62.667 0 -115.667 -0.333008 -159 -1s-73 -1.66699 -89 -3l-15 109c28 3.33301 54.333 5.66602 79 6.99902s51.667 2.16602 81 2.49902
s64.666 0.5 105.999 0.5zM219.999 689.999v-690h-151v690h151zM460.999 927.999l39 -57l-153 -129h-61l-154 129l40 57l141 -81h8z" />
    <glyph glyph-name="rcaron" unicode="&#x159;" horiz-adv-x="427" 
d="M176 494l18 -98l14 -13v-383h-148v494h116zM417 507l-14 -137h-41c-23.333 0 -47.666 -3.33301 -72.999 -10s-57.333 -16.667 -96 -30l-10 83c34.667 30.667 69.667 54 105 70s69.666 24 102.999 24h26zM371 749l39 -57l-153 -129h-61l-154 129l40 57l141 -81h8z" />
    <glyph glyph-name="Sacute" unicode="&#x15a;" horiz-adv-x="586" 
d="M297 703c34 0 71.0029 -1.83301 111.003 -5.5s79 -11.167 117 -22.5l-10 -101c-29.333 0.666992 -63.666 1.33398 -102.999 2.00098s-78 1 -116 1c-18.667 0 -34.5 -0.5 -47.5 -1.5s-23.5 -3.66699 -31.5 -8s-13.667 -10.833 -17 -19.5s-5 -20.667 -5 -36
c0 -23.333 5.5 -40.333 16.5 -51s29.833 -20.334 56.5 -29.001l133 -43c55.333 -18.667 93.666 -44 114.999 -76s32 -74 32 -126c0 -39.333 -4.66699 -72 -14 -98s-24 -46.333 -44 -61s-46.333 -25.167 -79 -31.5s-72.667 -9.5 -120 -9.5c-22.667 0 -55 1.5 -97 4.5
s-90 10.5 -144 22.5l10 108c39.333 -0.666992 73.5 -1.5 102.5 -2.5s53.833 -1.66699 74.5 -2s38.667 -0.5 54 -0.5c26.667 0 47.5 1.66699 62.5 5s25.5 10 31.5 20s9 24.333 9 43c0 16 -2.16699 28.833 -6.5 38.5s-11.333 17.334 -21 23.001s-22.834 10.834 -39.501 15.501
l-140 48c-52.667 19.333 -90 44.666 -112 75.999s-33 72.666 -33 123.999c0 40 4.83301 72.5 14.5 97.5s24.667 44.5 45 58.5s46.666 23.667 78.999 29s71.166 8 116.499 8zM413.003 939l64 -100l-223 -111l-44 63z" />
    <glyph glyph-name="sacute" unicode="&#x15b;" horiz-adv-x="531" 
d="M248 507c24 0 49.999 -0.831055 77.999 -2.49805s55.333 -3.83398 82 -6.50098s50.334 -6 71.001 -10l-10 -92c-32 0.666992 -64.167 1.16699 -96.5 1.5s-63.833 0.5 -94.5 0.5c-26 0.666992 -46 0.333984 -60 -0.999023s-23.833 -4.5 -29.5 -9.5
s-8.5 -13.833 -8.5 -26.5c0 -14.667 5 -24.5 15 -29.5s26.667 -10.5 50 -16.5l129 -31c41.333 -10.667 72 -26.5 92 -47.5s30 -52.5 30 -94.5c0 -41.333 -7.66699 -73 -23 -95s-39.666 -37.167 -72.999 -45.5s-76.333 -12.5 -129 -12.5c-20.667 0 -51.334 1 -92.001 3
s-85.334 7 -134.001 15l10 92c12 -0.666992 27.333 -1.16699 46 -1.5s39 -0.5 61 -0.5h66c34 0 60 0.833008 78 2.5s30.333 5.5 37 11.5s10 15 10 27c0 14.667 -5.66699 24.667 -17 30s-29.333 11 -54 17l-125 31c-31.333 8.66699 -55.666 19.667 -72.999 33
s-29.5 29.666 -36.5 48.999s-10.5 42.333 -10.5 69c0 34 6.83301 61.167 20.5 81.5s36 35.166 67 44.499s72.167 14 123.5 14zM385.999 755.002l64 -100l-223 -111l-44 63z" />
    <glyph glyph-name="Scircumflex" unicode="&#x15c;" horiz-adv-x="586" 
d="M297 703c34 0 71.0029 -1.83301 111.003 -5.5s79 -11.167 117 -22.5l-10 -101c-29.333 0.666992 -63.666 1.33398 -102.999 2.00098s-78 1 -116 1c-18.667 0 -34.5 -0.5 -47.5 -1.5s-23.5 -3.66699 -31.5 -8s-13.667 -10.833 -17 -19.5s-5 -20.667 -5 -36
c0 -23.333 5.5 -40.333 16.5 -51s29.833 -20.334 56.5 -29.001l133 -43c55.333 -18.667 93.666 -44 114.999 -76s32 -74 32 -126c0 -39.333 -4.66699 -72 -14 -98s-24 -46.333 -44 -61s-46.333 -25.167 -79 -31.5s-72.667 -9.5 -120 -9.5c-22.667 0 -55 1.5 -97 4.5
s-90 10.5 -144 22.5l10 108c39.333 -0.666992 73.5 -1.5 102.5 -2.5s53.833 -1.66699 74.5 -2s38.667 -0.5 54 -0.5c26.667 0 47.5 1.66699 62.5 5s25.5 10 31.5 20s9 24.333 9 43c0 16 -2.16699 28.833 -6.5 38.5s-11.333 17.334 -21 23.001s-22.834 10.834 -39.501 15.501
l-140 48c-52.667 19.333 -90 44.666 -112 75.999s-33 72.666 -33 123.999c0 40 4.83301 72.5 14.5 97.5s24.667 44.5 45 58.5s46.666 23.667 78.999 29s71.166 8 116.499 8zM350.003 913l134 -134l-39 -53l-144 95h-8l-147 -95l-39 57l136 130h107z" />
    <glyph glyph-name="scircumflex" unicode="&#x15d;" horiz-adv-x="531" 
d="M248 507c24 0 49.999 -0.831055 77.999 -2.49805s55.333 -3.83398 82 -6.50098s50.334 -6 71.001 -10l-10 -92c-32 0.666992 -64.167 1.16699 -96.5 1.5s-63.833 0.5 -94.5 0.5c-26 0.666992 -46 0.333984 -60 -0.999023s-23.833 -4.5 -29.5 -9.5
s-8.5 -13.833 -8.5 -26.5c0 -14.667 5 -24.5 15 -29.5s26.667 -10.5 50 -16.5l129 -31c41.333 -10.667 72 -26.5 92 -47.5s30 -52.5 30 -94.5c0 -41.333 -7.66699 -73 -23 -95s-39.666 -37.167 -72.999 -45.5s-76.333 -12.5 -129 -12.5c-20.667 0 -51.334 1 -92.001 3
s-85.334 7 -134.001 15l10 92c12 -0.666992 27.333 -1.16699 46 -1.5s39 -0.5 61 -0.5h66c34 0 60 0.833008 78 2.5s30.333 5.5 37 11.5s10 15 10 27c0 14.667 -5.66699 24.667 -17 30s-29.333 11 -54 17l-125 31c-31.333 8.66699 -55.666 19.667 -72.999 33
s-29.5 29.666 -36.5 48.999s-10.5 42.333 -10.5 69c0 34 6.83301 61.167 20.5 81.5s36 35.166 67 44.499s72.167 14 123.5 14zM322.999 729.002l134 -134l-39 -53l-144 95h-8l-147 -95l-39 57l136 130h107z" />
    <glyph glyph-name="Scedilla" unicode="&#x15e;" horiz-adv-x="586" 
d="M297 703c34 0 71.0029 -1.83301 111.003 -5.5s79 -11.167 117 -22.5l-10 -101c-29.333 0.666992 -63.666 1.33398 -102.999 2.00098s-78 1 -116 1c-18.667 0 -34.5 -0.5 -47.5 -1.5s-23.5 -3.66699 -31.5 -8s-13.667 -10.833 -17 -19.5s-5 -20.667 -5 -36
c0 -23.333 5.5 -40.333 16.5 -51s29.833 -20.334 56.5 -29.001l133 -43c55.333 -18.667 93.666 -44 114.999 -76s32 -74 32 -126c0 -39.333 -4.66699 -72 -14 -98s-24 -46.333 -44 -61s-46.333 -25.167 -79 -31.5s-72.667 -9.5 -120 -9.5c-22.667 0 -55 1.5 -97 4.5
s-90 10.5 -144 22.5l10 108c39.333 -0.666992 73.5 -1.5 102.5 -2.5s53.833 -1.66699 74.5 -2s38.667 -0.5 54 -0.5c26.667 0 47.5 1.66699 62.5 5s25.5 10 31.5 20s9 24.333 9 43c0 16 -2.16699 28.833 -6.5 38.5s-11.333 17.334 -21 23.001s-22.834 10.834 -39.501 15.501
l-140 48c-52.667 19.333 -90 44.666 -112 75.999s-33 72.666 -33 123.999c0 40 4.83301 72.5 14.5 97.5s24.667 44.5 45 58.5s46.666 23.667 78.999 29s71.166 8 116.499 8zM241.003 -50c34 4 61.666 5.16699 82.999 3.5s37 -7.66699 47 -18s14.667 -27.166 14 -50.499
c-1.33301 -33.333 -11 -60.833 -29 -82.5s-42 -36.834 -72 -45.501s-63.333 -10.667 -100 -6l17 62c24.667 -0.666992 45.5 3.5 62.5 12.5s26.167 24.5 27.5 46.5c1.33301 10 -2.16699 16 -10.5 18s-26.166 3.33301 -53.499 4z" />
    <glyph glyph-name="scedilla" unicode="&#x15f;" horiz-adv-x="531" 
d="M248 507c24 0 49.999 -0.831055 77.999 -2.49805s55.333 -3.83398 82 -6.50098s50.334 -6 71.001 -10l-10 -92c-32 0.666992 -64.167 1.16699 -96.5 1.5s-63.833 0.5 -94.5 0.5c-26 0.666992 -46 0.333984 -60 -0.999023s-23.833 -4.5 -29.5 -9.5
s-8.5 -13.833 -8.5 -26.5c0 -14.667 5 -24.5 15 -29.5s26.667 -10.5 50 -16.5l129 -31c41.333 -10.667 72 -26.5 92 -47.5s30 -52.5 30 -94.5c0 -41.333 -7.66699 -73 -23 -95s-39.666 -37.167 -72.999 -45.5s-76.333 -12.5 -129 -12.5c-20.667 0 -51.334 1 -92.001 3
s-85.334 7 -134.001 15l10 92c12 -0.666992 27.333 -1.16699 46 -1.5s39 -0.5 61 -0.5h66c34 0 60 0.833008 78 2.5s30.333 5.5 37 11.5s10 15 10 27c0 14.667 -5.66699 24.667 -17 30s-29.333 11 -54 17l-125 31c-31.333 8.66699 -55.666 19.667 -72.999 33
s-29.5 29.666 -36.5 48.999s-10.5 42.333 -10.5 69c0 34 6.83301 61.167 20.5 81.5s36 35.166 67 44.499s72.167 14 123.5 14zM200.999 -51.998c34 4 61.666 5.16699 82.999 3.5s37 -7.66699 47 -18s14.667 -27.166 14 -50.499c-1.33301 -33.333 -11 -60.833 -29 -82.5
s-42 -36.834 -72 -45.501s-63.333 -10.667 -100 -6l17 62c24.667 -0.666992 45.5 3.5 62.5 12.5s26.167 24.5 27.5 46.5c1.33301 10 -2.16699 16 -10.5 18s-26.166 3.33301 -53.499 4z" />
    <glyph glyph-name="Scaron" unicode="&#x160;" horiz-adv-x="586" 
d="M297 703c34 0 71.0029 -1.83301 111.003 -5.5s79 -11.167 117 -22.5l-10 -101c-29.333 0.666992 -63.666 1.33398 -102.999 2.00098s-78 1 -116 1c-18.667 0 -34.5 -0.5 -47.5 -1.5s-23.5 -3.66699 -31.5 -8s-13.667 -10.833 -17 -19.5s-5 -20.667 -5 -36
c0 -23.333 5.5 -40.333 16.5 -51s29.833 -20.334 56.5 -29.001l133 -43c55.333 -18.667 93.666 -44 114.999 -76s32 -74 32 -126c0 -39.333 -4.66699 -72 -14 -98s-24 -46.333 -44 -61s-46.333 -25.167 -79 -31.5s-72.667 -9.5 -120 -9.5c-22.667 0 -55 1.5 -97 4.5
s-90 10.5 -144 22.5l10 108c39.333 -0.666992 73.5 -1.5 102.5 -2.5s53.833 -1.66699 74.5 -2s38.667 -0.5 54 -0.5c26.667 0 47.5 1.66699 62.5 5s25.5 10 31.5 20s9 24.333 9 43c0 16 -2.16699 28.833 -6.5 38.5s-11.333 17.334 -21 23.001s-22.834 10.834 -39.501 15.501
l-140 48c-52.667 19.333 -90 44.666 -112 75.999s-33 72.666 -33 123.999c0 40 4.83301 72.5 14.5 97.5s24.667 44.5 45 58.5s46.666 23.667 78.999 29s71.166 8 116.499 8zM442.003 928l39 -57l-153 -129h-61l-154 129l40 57l141 -81h8z" />
    <glyph glyph-name="scaron" unicode="&#x161;" horiz-adv-x="531" 
d="M248 507c24 0 49.999 -0.831055 77.999 -2.49805s55.333 -3.83398 82 -6.50098s50.334 -6 71.001 -10l-10 -92c-32 0.666992 -64.167 1.16699 -96.5 1.5s-63.833 0.5 -94.5 0.5c-26 0.666992 -46 0.333984 -60 -0.999023s-23.833 -4.5 -29.5 -9.5
s-8.5 -13.833 -8.5 -26.5c0 -14.667 5 -24.5 15 -29.5s26.667 -10.5 50 -16.5l129 -31c41.333 -10.667 72 -26.5 92 -47.5s30 -52.5 30 -94.5c0 -41.333 -7.66699 -73 -23 -95s-39.666 -37.167 -72.999 -45.5s-76.333 -12.5 -129 -12.5c-20.667 0 -51.334 1 -92.001 3
s-85.334 7 -134.001 15l10 92c12 -0.666992 27.333 -1.16699 46 -1.5s39 -0.5 61 -0.5h66c34 0 60 0.833008 78 2.5s30.333 5.5 37 11.5s10 15 10 27c0 14.667 -5.66699 24.667 -17 30s-29.333 11 -54 17l-125 31c-31.333 8.66699 -55.666 19.667 -72.999 33
s-29.5 29.666 -36.5 48.999s-10.5 42.333 -10.5 69c0 34 6.83301 61.167 20.5 81.5s36 35.166 67 44.499s72.167 14 123.5 14zM414.999 743.002l39 -57l-153 -129h-61l-154 129l40 57l141 -81h8z" />
    <glyph glyph-name="uni0162" unicode="&#x162;" horiz-adv-x="602" 
d="M377 690v-690h-153v690h153zM585 690v-120h-568v120h568zM241 -48c34 4 61.666 5.16699 82.999 3.5s37 -7.66699 47 -18s14.667 -27.166 14 -50.499c-1.33301 -33.333 -11 -60.833 -29 -82.5s-42 -36.834 -72 -45.501s-63.333 -10.667 -100 -6l17 62
c24.667 -0.666992 45.5 3.5 62.5 12.5s26.167 24.5 27.5 46.5c1.33301 10 -2.16699 16 -10.5 18s-26.166 3.33301 -53.499 4z" />
    <glyph glyph-name="uni0163" unicode="&#x163;" horiz-adv-x="410" 
d="M253 631v-473c0 -18 4.16699 -30.833 12.5 -38.5s22.166 -11.5 41.499 -11.5h64l16 -100c-12 -4 -26.667 -7.5 -44 -10.5s-34.666 -5.33301 -51.999 -7s-32 -2.5 -44 -2.5c-44.667 0 -79.5 12 -104.5 36s-37.5 57.667 -37.5 101l-1 506h149zM391 494v-97h-373v92l96 5
h277zM201 -49c34 4 61.666 5.16699 82.999 3.5s37 -7.66699 47 -18s14.667 -27.166 14 -50.499c-1.33301 -33.333 -11 -60.833 -29 -82.5s-42 -36.834 -72 -45.501s-63.333 -10.667 -100 -6l17 62c24.667 -0.666992 45.5 3.5 62.5 12.5s26.167 24.5 27.5 46.5
c1.33301 10 -2.16699 16 -10.5 18s-26.166 3.33301 -53.499 4z" />
    <glyph glyph-name="Tcaron" unicode="&#x164;" horiz-adv-x="602" 
d="M377 690v-690h-153v690h153zM585 690v-120h-568v120h568zM446 928l39 -57l-153 -129h-61l-154 129l40 57l141 -81h8z" />
    <glyph glyph-name="tcaron" unicode="&#x165;" horiz-adv-x="410" 
d="M253 631v-473c0 -18 4.16699 -30.833 12.5 -38.5s22.166 -11.5 41.499 -11.5h64l16 -100c-12 -4 -26.667 -7.5 -44 -10.5s-34.666 -5.33301 -51.999 -7s-32 -2.5 -44 -2.5c-44.667 0 -79.5 12 -104.5 36s-37.5 57.667 -37.5 101l-1 506h149zM391 494v-97h-373v92l96 5
h277zM369 788c16 0 27.002 -3.16699 33.002 -9.5s9 -17.5 9 -33.5v-54c0.666992 -32 -2.83301 -59.667 -10.5 -83s-17.834 -46 -30.501 -68l-50 15c4.66699 18 7.66699 35.5 9 52.5s2.33301 35.167 3 54.5c-24 0 -35.667 12.667 -35 38l1 45
c0.666992 16 4.16699 27.167 10.5 33.5s17.166 9.5 32.499 9.5h28z" />
    <glyph glyph-name="Tbar" unicode="&#x166;" horiz-adv-x="604" 
d="M506 401v-72h-410v72h410zM378 690v-690h-153v690h153zM586 690v-120h-568v120h568z" />
    <glyph glyph-name="tbar" unicode="&#x167;" horiz-adv-x="410" 
d="M359 310v-71h-315v71h315zM253 631v-473c0 -18 4.16699 -30.833 12.5 -38.5s22.166 -11.5 41.499 -11.5h64l16 -100c-12 -4 -26.667 -7.5 -44 -10.5s-34.666 -5.33301 -51.999 -7s-32 -2.5 -44 -2.5c-44.667 0 -79.5 12 -104.5 36s-37.5 57.667 -37.5 101l-1 506h149z
M391 494v-97h-373v92l96 5h277z" />
    <glyph glyph-name="Utilde" unicode="&#x168;" horiz-adv-x="686" 
d="M621 690v-415c0 -70 -8.66699 -126.167 -26 -168.5s-45.833 -73 -85.5 -92s-92.5 -28.5 -158.5 -28.5c-70 0 -126 9.5 -168 28.5s-72.333 49.667 -91 92s-28 98.5 -28 168.5v415h153v-415c0 -43.333 3.83301 -77.166 11.5 -101.499s20.834 -41.5 39.501 -51.5
s43.667 -15 75 -15s56.166 5 74.499 15s31.333 27.167 39 51.5s11.5 58.166 11.5 101.499v415h153zM251 900c16.667 -1.33301 31.6699 -4.16602 45.0029 -8.49902s26.166 -9.16602 38.499 -14.499l37 -15.5c12.333 -5 25.166 -8.5 38.499 -10.5
c17.333 -2.66699 28.166 -0.333984 32.499 6.99902s6.5 19.666 6.5 36.999h64c7.33301 -47.333 2.66602 -83.166 -14.001 -107.499s-39.334 -35.5 -68.001 -33.5c-22.667 2 -43.167 6.5 -61.5 13.5s-35.333 14.333 -51 22s-31.5 12.5 -47.5 14.5
c-16.667 2 -27.167 -0.666992 -31.5 -8s-6.5 -20 -6.5 -38h-64c-4.66699 33.333 -3.66699 60.666 3 81.999s17.334 37 32.001 47s30.334 14.333 47.001 13z" />
    <glyph glyph-name="utilde" unicode="&#x169;" horiz-adv-x="593" 
d="M205 494l0.000976562 -325.001c0 -20.667 4.5 -35.334 13.5 -44.001s23.5 -13 43.5 -13c20.667 0 41.167 3.83301 61.5 11.5s45.5 19.834 75.5 36.501l12 -81c-36 -31.333 -71.333 -54.666 -106 -69.999s-70.334 -23 -107.001 -23c-94 0 -141 46 -141 138v370h148z
M532.001 493.999v-494h-117l-17 97l-14 14v383h148zM202.001 722.999c16.667 -1.33301 31.6699 -4.16602 45.0029 -8.49902s26.166 -9.16602 38.499 -14.499l37 -15.5c12.333 -5 25.166 -8.5 38.499 -10.5c17.333 -2.66699 28.166 -0.333984 32.499 6.99902
s6.5 19.666 6.5 36.999h64c7.33301 -47.333 2.66602 -83.166 -14.001 -107.499s-39.334 -35.5 -68.001 -33.5c-22.667 2 -43.167 6.5 -61.5 13.5s-35.333 14.333 -51 22s-31.5 12.5 -47.5 14.5c-16.667 2 -27.167 -0.666992 -31.5 -8s-6.5 -20 -6.5 -38h-64
c-4.66699 33.333 -3.66699 60.666 3 81.999s17.334 37 32.001 47s30.334 14.333 47.001 13z" />
    <glyph glyph-name="Umacron" unicode="&#x16a;" horiz-adv-x="686" 
d="M621 690v-415c0 -70 -8.66699 -126.167 -26 -168.5s-45.833 -73 -85.5 -92s-92.5 -28.5 -158.5 -28.5c-70 0 -126 9.5 -168 28.5s-72.333 49.667 -91 92s-28 98.5 -28 168.5v415h153v-415c0 -43.333 3.83301 -77.166 11.5 -101.499s20.834 -41.5 39.501 -51.5
s43.667 -15 75 -15s56.166 5 74.499 15s31.333 27.167 39 51.5s11.5 58.166 11.5 101.499v415h153zM495 873v-94h-300v94h300z" />
    <glyph glyph-name="umacron" unicode="&#x16b;" horiz-adv-x="593" 
d="M205 494l0.000976562 -325.001c0 -20.667 4.5 -35.334 13.5 -44.001s23.5 -13 43.5 -13c20.667 0 41.167 3.83301 61.5 11.5s45.5 19.834 75.5 36.501l12 -81c-36 -31.333 -71.333 -54.666 -106 -69.999s-70.334 -23 -107.001 -23c-94 0 -141 46 -141 138v370h148z
M532.001 493.999v-494h-117l-17 97l-14 14v383h148zM446.001 694.999v-94h-300v94h300z" />
    <glyph glyph-name="Ubreve" unicode="&#x16c;" horiz-adv-x="686" 
d="M621 690v-415c0 -70 -8.66699 -126.167 -26 -168.5s-45.833 -73 -85.5 -92s-92.5 -28.5 -158.5 -28.5c-70 0 -126 9.5 -168 28.5s-72.333 49.667 -91 92s-28 98.5 -28 168.5v415h153v-415c0 -43.333 3.83301 -77.166 11.5 -101.499s20.834 -41.5 39.501 -51.5
s43.667 -15 75 -15s56.166 5 74.499 15s31.333 27.167 39 51.5s11.5 58.166 11.5 101.499v415h153zM437 903l71 -10c4 -27.333 -0.333008 -52.666 -13 -75.999s-31.667 -41.833 -57 -55.5s-56.666 -20.5 -93.999 -20.5c-36 0 -67 6.83301 -93 20.5s-45.333 32.167 -58 55.5
s-17.334 48.666 -14.001 75.999l71 10c0 -22 7.66699 -38.667 23 -50s39.333 -17 72 -17c31.333 0 54.5 5.66699 69.5 17s22.5 28 22.5 50z" />
    <glyph glyph-name="ubreve" unicode="&#x16d;" horiz-adv-x="593" 
d="M205 494l0.000976562 -325.001c0 -20.667 4.5 -35.334 13.5 -44.001s23.5 -13 43.5 -13c20.667 0 41.167 3.83301 61.5 11.5s45.5 19.834 75.5 36.501l12 -81c-36 -31.333 -71.333 -54.666 -106 -69.999s-70.334 -23 -107.001 -23c-94 0 -141 46 -141 138v370h148z
M532.001 493.999v-494h-117l-17 97l-14 14v383h148zM388.001 725.999l71 -10c4 -27.333 -0.333008 -52.666 -13 -75.999s-31.667 -41.833 -57 -55.5s-56.666 -20.5 -93.999 -20.5c-36 0 -67 6.83301 -93 20.5s-45.333 32.167 -58 55.5s-17.334 48.666 -14.001 75.999l71 10
c0 -22 7.66699 -38.667 23 -50s39.333 -17 72 -17c31.333 0 54.5 5.66699 69.5 17s22.5 28 22.5 50z" />
    <glyph glyph-name="Uring" unicode="&#x16e;" horiz-adv-x="686" 
d="M621 690v-415c0 -70 -8.66699 -126.167 -26 -168.5s-45.833 -73 -85.5 -92s-92.5 -28.5 -158.5 -28.5c-70 0 -126 9.5 -168 28.5s-72.333 49.667 -91 92s-28 98.5 -28 168.5v415h153v-415c0 -43.333 3.83301 -77.166 11.5 -101.499s20.834 -41.5 39.501 -51.5
s43.667 -15 75 -15s56.166 5 74.499 15s31.333 27.167 39 51.5s11.5 58.166 11.5 101.499v415h153zM345 948c21.333 0 41 -5.16602 59 -15.499s32.333 -24.166 43 -41.499s16 -36.666 16 -57.999s-5.33301 -40.833 -16 -58.5s-25 -31.667 -43 -42s-37.667 -15.5 -59 -15.5
s-41.166 5.16699 -59.499 15.5s-32.833 24.166 -43.5 41.499s-16 37 -16 59c0 21.333 5.33301 40.666 16 57.999s25.167 31.166 43.5 41.499s38.166 15.5 59.499 15.5zM344 885.001c-14 0 -26 -4.83301 -36 -14.5s-15 -22.5 -15 -38.5c0 -15.333 5 -27.833 15 -37.5
s22 -14.5 36 -14.5c15.333 0 27.833 4.83301 37.5 14.5s14.5 22.167 14.5 37.5c0 16 -4.83301 28.833 -14.5 38.5s-22.167 14.5 -37.5 14.5z" />
    <glyph glyph-name="uring" unicode="&#x16f;" horiz-adv-x="593" 
d="M205 494l0.000976562 -325.001c0 -20.667 4.5 -35.334 13.5 -44.001s23.5 -13 43.5 -13c20.667 0 41.167 3.83301 61.5 11.5s45.5 19.834 75.5 36.501l12 -81c-36 -31.333 -71.333 -54.666 -106 -69.999s-70.334 -23 -107.001 -23c-94 0 -141 46 -141 138v370h148z
M532.001 493.999v-494h-117l-17 97l-14 14v383h148zM296.001 769.999c21.333 0 41 -5.16602 59 -15.499s32.333 -24.166 43 -41.499s16 -36.666 16 -57.999s-5.33301 -40.833 -16 -58.5s-25 -31.667 -43 -42s-37.667 -15.5 -59 -15.5s-41.166 5.16699 -59.499 15.5
s-32.833 24.166 -43.5 41.499s-16 37 -16 59c0 21.333 5.33301 40.666 16 57.999s25.167 31.166 43.5 41.499s38.166 15.5 59.499 15.5zM295.001 707c-14 0 -26 -4.83301 -36 -14.5s-15 -22.5 -15 -38.5c0 -15.333 5 -27.833 15 -37.5s22 -14.5 36 -14.5
c15.333 0 27.833 4.83301 37.5 14.5s14.5 22.167 14.5 37.5c0 16 -4.83301 28.833 -14.5 38.5s-22.167 14.5 -37.5 14.5z" />
    <glyph glyph-name="Uhungarumlaut" unicode="&#x170;" horiz-adv-x="686" 
d="M621 690v-415c0 -70 -8.66699 -126.167 -26 -168.5s-45.833 -73 -85.5 -92s-92.5 -28.5 -158.5 -28.5c-70 0 -126 9.5 -168 28.5s-72.333 49.667 -91 92s-28 98.5 -28 168.5v415h153v-415c0 -43.333 3.83301 -77.166 11.5 -101.499s20.834 -41.5 39.501 -51.5
s43.667 -15 75 -15s56.166 5 74.499 15s31.333 27.167 39 51.5s11.5 58.166 11.5 101.499v415h153zM289 950l96 -64l-152 -168l-61 48zM479 950l95 -64l-152 -168l-60 47z" />
    <glyph glyph-name="uhungarumlaut" unicode="&#x171;" horiz-adv-x="593" 
d="M205 494l0.000976562 -325.001c0 -20.667 4.5 -35.334 13.5 -44.001s23.5 -13 43.5 -13c20.667 0 41.167 3.83301 61.5 11.5s45.5 19.834 75.5 36.501l12 -81c-36 -31.333 -71.333 -54.666 -106 -69.999s-70.334 -23 -107.001 -23c-94 0 -141 46 -141 138v370h148z
M532.001 493.999v-494h-117l-17 97l-14 14v383h148zM241.001 772.999l96 -64l-152 -168l-61 48zM431.001 772.999l95 -64l-152 -168l-60 47z" />
    <glyph glyph-name="Uogonek" unicode="&#x172;" horiz-adv-x="686" 
d="M621 690v-415c0 -70 -8.66699 -126.167 -26 -168.5s-45.833 -73 -85.5 -92s-92.5 -28.5 -158.5 -28.5c-70 0 -126 9.5 -168 28.5s-72.333 49.667 -91 92s-28 98.5 -28 168.5v415h153v-415c0 -43.333 3.83301 -77.166 11.5 -101.499s20.834 -41.5 39.501 -51.5
s43.667 -15 75 -15s56.166 5 74.499 15s31.333 27.167 39 51.5s11.5 58.166 11.5 101.499v415h153zM333 -2l59.999 -2.00098c-11.333 -15.333 -22.166 -31 -32.499 -47s-19.833 -33.667 -28.5 -53c-9.33301 -21.333 -7.33301 -34.666 6 -39.999s32.333 -5 57 1l11 -53
c-36 -14.667 -66.333 -22.167 -91 -22.5s-44.167 4.5 -58.5 14.5s-23.333 23 -27 39s-2.5 32.667 3.5 50c5.33301 16.667 16 34.667 32 54s38.667 39 68 59z" />
    <glyph glyph-name="uogonek" unicode="&#x173;" horiz-adv-x="593" 
d="M205 494l0.000976562 -325.001c0 -20.667 4.5 -35.334 13.5 -44.001s23.5 -13 43.5 -13c20.667 0 41.167 3.83301 61.5 11.5s45.5 19.834 75.5 36.501l12 -81c-36 -31.333 -71.333 -54.666 -106 -69.999s-70.334 -23 -107.001 -23c-94 0 -141 46 -141 138v370h148z
M532.001 493.999v-494h-117l-17 97l-14 14v383h148zM474.001 1.99902l59.999 -2.00098c-11.333 -15.333 -22.166 -31 -32.499 -47s-19.833 -33.667 -28.5 -53c-9.33301 -21.333 -7.33301 -34.666 6 -39.999s32.333 -5 57 1l11 -53c-36 -14.667 -66.333 -22.167 -91 -22.5
s-44.167 4.5 -58.5 14.5s-23.333 23 -27 39s-2.5 32.667 3.5 50c5.33301 16.667 16 34.667 32 54s38.667 39 68 59z" />
    <glyph glyph-name="Wcircumflex" unicode="&#x174;" horiz-adv-x="976" 
d="M950 690l-113.002 -647.998c-2 -12 -8 -22 -18 -30s-22 -12 -36 -12h-143c-13.333 0 -25.166 4 -35.499 12s-16.5 18.333 -18.5 31l-77 449l-6 45.5l-6 44.5h-19c-1.33301 -14.667 -3 -29.667 -5 -45l-6 -45l-77 -449c-2 -12.667 -8.16699 -23 -18.5 -31
s-22.166 -12 -35.499 -12h-144c-13.333 0 -25.166 4 -35.499 12s-16.5 18 -18.5 30l-113 648h154l72 -480c2 -14.667 3.66699 -30.334 5 -47.001s2.66602 -34.334 3.99902 -53.001h19l8.5 50.5c3 17.667 5.5 34.167 7.5 49.5l76 433c2 14 8 25.333 18 34s22 13 36 13h126
c14 0 25.833 -4.33301 35.5 -13s15.5 -20 17.5 -34l77 -434l8 -49.5c2.66699 -17 5 -33.5 7 -49.5h20c1.33301 16 2.83301 32.667 4.5 50l4.5 48l71 482h154zM541.998 913.002l134 -134l-39 -53l-144 95h-8l-147 -95l-39 57l136 130h107z" />
    <glyph glyph-name="wcircumflex" unicode="&#x175;" horiz-adv-x="850" 
d="M834 494l-122.002 -455c-2.66699 -12 -8.66699 -21.5 -18 -28.5s-20.333 -10.5 -33 -10.5h-112c-13.333 0 -25 4.16699 -35 12.5s-16 19.166 -18 32.499l-54 278c-2 14 -3.66699 27.833 -5 41.5s-3.33301 27.5 -6 41.5h-12l-6 -41.5l-6 -41.5l-54 -278
c-2 -13.333 -8 -24.166 -18 -32.499s-21.667 -12.5 -35 -12.5h-111c-12.667 0 -23.667 3.5 -33 10.5s-15.333 16.5 -18 28.5l-122 455h149l68 -320c2.66699 -13.333 5 -26.833 7 -40.5s3.66699 -27.167 5 -40.5h13c2 13.333 4.16699 26.833 6.5 40.5s4.5 27.167 6.5 40.5
l54 275c2 13.333 7.66699 24.166 17 32.499s21 12.5 35 12.5h96c13.333 0 24.833 -4.16699 34.5 -12.5s15.5 -19.5 17.5 -33.5l53 -274c2 -13.333 4.33301 -26.666 7 -39.999s5 -27 7 -41h12c2.66699 14 4.83398 27.5 6.50098 40.5s3.83398 26.5 6.50098 40.5l68 320h149z
M479.998 729l134 -134l-39 -53l-144 95h-8l-147 -95l-39 57l136 130h107z" />
    <glyph glyph-name="Ycircumflex" unicode="&#x176;" horiz-adv-x="612" 
d="M611 690l-233 -471h-144l-234 471h159l116 -254c6 -13.333 11 -27.666 15 -42.999l11 -44h10l12 44c4 15.333 8.66699 29.666 14 42.999l115 254h159zM382 312v-312h-153v312h153zM361 908l134 -134l-39 -53l-144 95h-8l-147 -95l-39 57l136 130h107z" />
    <glyph glyph-name="ycircumflex" unicode="&#x177;" horiz-adv-x="566" 
d="M557 494l-177.003 -500c-8 -24.667 -19.167 -49.5 -33.5 -74.5s-32.333 -47.5 -54 -67.5s-47.667 -35.167 -78 -45.5s-66.166 -12.833 -107.499 -7.5l-11 84c40.667 10.667 72.334 25 95.001 43s40.334 41.667 53.001 71l31 69c6 14.667 11.833 32.5 17.5 53.5l14.5 54.5
l92 320h158zM164.997 494l94 -320l8 -38c2.66699 -12.667 5 -25.334 7 -38.001h27l-47 -98h-36c-11.333 0 -21.333 3.33301 -30 10s-14.667 15.334 -18 26.001l-163 458h158zM340.997 734l134 -134l-39 -53l-144 95h-8l-147 -95l-39 57l136 130h107z" />
    <glyph glyph-name="Ydieresis" unicode="&#x178;" horiz-adv-x="612" 
d="M611 690l-233 -471h-144l-234 471h159l116 -254c6 -13.333 11 -27.666 15 -42.999l11 -44h10l12 44c4 15.333 8.66699 29.666 14 42.999l115 254h159zM382 312v-312h-153v312h153zM422 883c21.333 0 32 -10.667 32 -32v-59c0 -21.333 -10.667 -32 -32 -32h-49
c-20.667 0 -31 10.667 -31 32v59c0 21.333 10.333 32 31 32h49zM239 883c20.667 0 31 -10.667 31 -32v-59c0 -21.333 -10.333 -32 -31 -32h-49c-20.667 0 -31 10.667 -31 32v59c0 21.333 10.333 32 31 32h49z" />
    </font>
</defs>
</svg>
