<?xml version="1.0" standalone="no"?>
<!DOCTYPE svg PUBLIC "-//W3C//DTD SVG 1.1//EN" "http://www.w3.org/Graphics/SVG/1.1/DTD/svg11.dtd" >
<svg>
<metadata>
Created by FontForge 20090914 at Wed Feb  1 19:33:00 2023
 By www-data
</metadata>
<defs>
<font id="Typometry_Regular" horiz-adv-x="463" >
  <font-face 
    font-family="Typometry"
    font-weight="400"
    font-stretch="normal"
    units-per-em="1000"
    panose-1="0 0 0 0 0 0 0 0 0 0"
    ascent="750"
    descent="-250"
    x-height="708"
    cap-height="709"
    bbox="-1 -87.001 900 937"
    underline-thickness="50"
    underline-position="-100"
    unicode-range="U+0020-U+20AC"
  />
<missing-glyph horiz-adv-x="314" 
 />
    <glyph glyph-name=".notdef" horiz-adv-x="314" 
 />
    <glyph glyph-name="space" unicode=" " horiz-adv-x="314" 
 />
    <glyph glyph-name="space" unicode="&#xa0;" horiz-adv-x="314" 
 />
    <glyph glyph-name="exclam" unicode="!" horiz-adv-x="290" 
d="M148 198c28 0 51.5 -9.5 70.5 -28.5s28.5 -42.5 28.5 -70.5s-9.5 -51.5 -28.5 -70.5s-42.5 -28.5 -70.5 -28.5s-51.5 9.5 -70.5 28.5s-28.5 42.5 -28.5 70.5s9.5 51.5 28.5 70.5s42.5 28.5 70.5 28.5zM63 99c0 -23.333 8.33301 -43.166 25 -59.499
s36.667 -24.833 60 -25.5c23.333 0.666992 43.333 9.16699 60 25.5s25 36.166 25 59.499s-8.33301 43.333 -25 60s-36.667 25 -60 25s-43.333 -8.33301 -60 -25s-25 -36.667 -25 -60zM45 710h196v-458v-14h-99c-27.333 1.33301 -50.333 11.333 -69 30s-28 41.667 -28 69v373
zM60 695l-0.000976562 -362.002v-4c2 -21.333 10.833 -39.166 26.5 -53.499s34.834 -22.166 57.501 -23.499h82v443h-166z" />
    <glyph glyph-name="quotedbl" unicode="&#x22;" horiz-adv-x="257" 
d="M214 560c-1.33301 -2 -2.5 -3.83301 -3.5 -5.5s-2.16699 -3.16699 -3.5 -4.5l-84 -125l-12 8l58 87c-12 -6 -25.667 -9 -41 -9c-28 0 -51.5 9.5 -70.5 28.5s-28.5 42.5 -28.5 70.5s9.5 51.5 28.5 70.5s42.5 28.5 70.5 28.5s51.5 -9.5 70.5 -28.5s28.5 -42.5 28.5 -70.5
c0 -16.667 -3.66699 -31.667 -11 -45l1 -1zM128 525c14 0 26.834 3.16699 38.501 9.5s21.5 14.5 29.5 24.5l5 8c3.33301 6.66699 6.16602 13.5 8.49902 20.5s3.5 14.5 3.5 22.5c0 23.333 -8.33301 43.333 -25 60s-36.667 25 -60 25s-43.166 -8.33301 -59.499 -25
s-24.5 -36.667 -24.5 -60s8.16699 -43.333 24.5 -60s36.166 -25 59.499 -25z" />
    <glyph glyph-name="numbersign" unicode="#" horiz-adv-x="609" 
d="M492 709l-61 -248h149v-14h-152l-48 -196h153v-15h-157l-58 -236h-15l58 236h-184l-58 -236h-15l58 236h-144v15h148l48 196h-149v14h153l62 248h13l-60 -248h183l63 248h13zM365 251l48 196h-184l-48 -196h184z" />
    <glyph glyph-name="dollar" unicode="$" horiz-adv-x="477" 
d="M396 322c32 -33.333 48.0039 -74.001 48.0039 -122.001c0 -12.667 -2 -27 -6 -43c-5.33301 -22 -14.333 -42.333 -27 -61s-27.834 -35 -45.501 -49s-37.167 -25.167 -58.5 -33.5s-43.333 -12.833 -66 -13.5v-87h-14v87c-28 0.666992 -54.333 6.83398 -79 18.501
s-46.167 27 -64.5 46s-32.833 41 -43.5 66s-16 51.833 -16 80.5h14c0 -26.667 5 -51.667 15 -75s23.5 -43.833 40.5 -61.5s37 -32 60 -43s47.5 -16.833 73.5 -17.5v216l-144 169c-13.333 15.333 -24.5 32 -33.5 50s-14.167 37.333 -15.5 58v11
c0.666992 5.33301 1.16699 10.5 1.5 15.5s1.16602 10.167 2.49902 15.5c4.66699 22 12.667 42.667 24 62s25.333 36 42 50s35.5 25.167 56.5 33.5s43.167 12.833 66.5 13.5v89h14v-89c26.667 -1.33301 51.667 -7.33301 75 -18s43.666 -25.167 60.999 -43.5
s31 -39.5 41 -63.5s15 -49.333 15 -76h-14c0 24.667 -4.66699 48.167 -14 70.5s-22 41.833 -38 58.5s-34.833 30 -56.5 40s-44.834 15.667 -69.501 17v-187zM241.004 483.999l-0.000976562 -246.999l135 -161c15.333 16.667 27.833 35.167 37.5 55.5
s15.167 42.166 16.5 65.499c1.33301 20.667 -1.66699 40.167 -9 58.5s-18.666 36.5 -33.999 54.5zM227.003 521l-0.00195312 171.999c-5.33301 0 -10.666 -0.333008 -15.999 -1s-10.666 -1.66699 -15.999 -3c-10 -8.66699 -17.5 -18.667 -22.5 -30
s-7.5 -22.666 -7.5 -33.999c0 -20.667 6.33301 -38.667 19 -54zM227.001 251.999l0.000976562 246.999l-53 62c-16 18 -24 39.333 -24 64c0 20 6 38.667 18 56c-30 -11.333 -55.333 -29.166 -76 -53.499s-34.334 -53.833 -41.001 -88.5
c-0.666992 -3.33301 -1.16699 -6.83301 -1.5 -10.5s-0.5 -7.16699 -0.5 -10.5v-6c0 -20 4.33301 -38.833 13 -56.5s20 -34.167 34 -49.5zM241.002 214.998l0.00195312 -200.999c18.667 1.33301 37 4.83301 55 10.5s34.667 14.167 50 25.5
c3.33301 2.66699 6.66602 5.16699 9.99902 7.5s6.66602 5.16602 9.99902 8.49902z" />
    <glyph glyph-name="percent" unicode="%" horiz-adv-x="560" 
d="M490 709l-393 -709h-18l393 709h18zM404 253c17.333 0 33.666 -3.33301 48.999 -10s28.833 -15.667 40.5 -27s20.834 -24.666 27.501 -39.999s10 -31.666 10 -48.999s-3.33301 -33.833 -10 -49.5s-15.834 -29.167 -27.501 -40.5s-25.167 -20.333 -40.5 -27
s-31.666 -10 -48.999 -10s-33.833 3.33301 -49.5 10s-29.167 15.667 -40.5 27s-20.333 24.833 -27 40.5s-10 32.167 -10 49.5s3.33301 33.666 10 48.999s15.667 28.666 27 39.999s24.833 20.333 40.5 27s32.167 10 49.5 10zM404 14c15.333 0 29.833 3 43.5 9
s25.5 14.167 35.5 24.5s18 22.333 24 36s9 28.167 9 43.5s-3 29.833 -9 43.5s-14 25.5 -24 35.5s-21.833 18 -35.5 24s-28.167 9 -43.5 9s-29.833 -3 -43.5 -9s-25.5 -14 -35.5 -24s-18 -21.833 -24 -35.5s-9 -28.167 -9 -43.5s3 -29.833 9 -43.5s14 -25.667 24 -36
s21.833 -18.5 35.5 -24.5s28.167 -9 43.5 -9zM283 582c0 -17.333 -3.33301 -33.833 -10 -49.5s-15.834 -29.167 -27.501 -40.5s-25.167 -20.333 -40.5 -27s-31.666 -10 -48.999 -10s-33.833 3.33301 -49.5 10s-29.167 15.667 -40.5 27s-20.333 24.833 -27 40.5
s-10 32.167 -10 49.5s3.33301 33.666 10 48.999s15.667 28.833 27 40.5s24.833 20.834 40.5 27.501s32.167 10 49.5 10s33.666 -3.33301 48.999 -10s28.833 -15.834 40.5 -27.501s20.834 -25.167 27.501 -40.5s10 -31.666 10 -48.999zM269 582c0 15.333 -3 29.833 -9 43.5
s-14.167 25.5 -24.5 35.5s-22.333 18 -36 24s-28.167 9 -43.5 9s-29.833 -3 -43.5 -9s-25.5 -14 -35.5 -24s-18 -21.833 -24 -35.5s-9 -28.167 -9 -43.5s3 -29.833 9 -43.5s14 -25.5 24 -35.5s21.833 -18 35.5 -24s28.167 -9 43.5 -9s29.833 3 43.5 9s25.667 14 36 24
s18.5 21.833 24.5 35.5s9 28.167 9 43.5z" />
    <glyph glyph-name="ampersand" unicode="&#x26;" horiz-adv-x="491" 
d="M412 459l-0.000976562 -82h54v-14h-54v-174c0 -26.667 -5 -51.5 -15 -74.5s-23.5 -43 -40.5 -60s-37.167 -30.333 -60.5 -40s-48 -14.5 -74 -14.5c-26.667 -0 -51.5 4.83301 -74.5 14.5s-43 23 -60 40s-30.5 37 -40.5 60s-15 47.833 -15 74.5c0 22 3.5 42.667 10.5 62
s16.5 37 28.5 53s26.5 29.667 43.5 41s35.5 19.666 55.5 24.999c-36 11.333 -65.5 31.833 -88.5 61.5s-34.5 64.5 -34.5 104.5c0 24 4.5 46.5 13.5 67.5s21.5 39.333 37.5 55s34.667 28 56 37s44 13.5 68 13.5s46.5 -4.5 67.5 -13.5s39.5 -21.333 55.5 -37
s28.5 -34 37.5 -55s13.5 -43.5 13.5 -67.5h-14c0 20.667 -4.16699 40.667 -12.5 60s-19.833 36.333 -34.5 51s-31.667 26.334 -51 35.001s-40 13 -62 13c-21.333 0 -41.666 -4 -60.999 -12s-36.5 -19.167 -51.5 -33.5s-26.833 -31.166 -35.5 -50.499s-13 -40.333 -13 -63
c0 -20.667 4.16699 -40.667 12.5 -60s19.5 -36.333 33.5 -51s30.333 -26.334 49 -35.001s38 -13 58 -13h16c2 24 11.5 44 28.5 60s38.5 24.333 64.5 25h89v-3zM245.999 377h151v71h-72c-18.667 0 -36.167 -5.66699 -52.5 -17s-25.833 -29.333 -28.5 -54h2zM45.999 189
c0 -23.333 4.50391 -45.667 13.5039 -67s21.5 -40 37.5 -56s34.667 -28.833 56 -38.5s44.333 -14.5 69 -14.5c1.33301 0 2.66602 0.166992 3.99902 0.5s2.66602 0.5 3.99902 0.5v349h-13c-22.667 0 -44.334 -4.66699 -65.001 -14s-38.834 -22 -54.501 -38
s-28.167 -34.5 -37.5 -55.5s-14 -43.167 -14 -66.5zM397.003 362.999l-152.999 -0.00292969v-348c20 2.66699 39 8.83398 57 18.501s34 21.834 48 36.501s25.167 31.334 33.5 50.001s13.166 38.667 14.499 60v183z" />
    <glyph glyph-name="quotesingle" unicode="'" horiz-adv-x="257" 
d="M214 560c-1.33301 -2 -2.5 -3.83301 -3.5 -5.5s-2.16699 -3.16699 -3.5 -4.5l-84 -125l-12 8l58 87c-12 -6 -25.667 -9 -41 -9c-28 0 -51.5 9.5 -70.5 28.5s-28.5 42.5 -28.5 70.5s9.5 51.5 28.5 70.5s42.5 28.5 70.5 28.5s51.5 -9.5 70.5 -28.5s28.5 -42.5 28.5 -70.5
c0 -16.667 -3.66699 -31.667 -11 -45l1 -1zM128 525c14 0 26.834 3.16699 38.501 9.5s21.5 14.5 29.5 24.5l5 8c3.33301 6.66699 6.16602 13.5 8.49902 20.5s3.5 14.5 3.5 22.5c0 23.333 -8.33301 43.333 -25 60s-36.667 25 -60 25s-43.166 -8.33301 -59.499 -25
s-24.5 -36.667 -24.5 -60s8.16699 -43.333 24.5 -60s36.166 -25 59.499 -25z" />
    <glyph glyph-name="parenleft" unicode="(" horiz-adv-x="249" 
d="M249 756l-0.00195312 -15.001c-24 -0.666992 -47.167 -5 -69.5 -13s-42.166 -19.333 -59.499 -34s-31.166 -32 -41.499 -52s-15.5 -42.333 -15.5 -67v-439c0 -25.333 5.5 -48.166 16.5 -68.499s25.333 -37.833 43 -52.5s37.5 -26 59.5 -34s44.333 -12 67 -12v-14
c-26 0.666992 -51 5.5 -75 14.5s-45.333 21.5 -64 37.5s-33.667 35 -45 57s-17 46 -17 72v439c0 27.333 6 52.166 18 74.499s27.5 41.333 46.5 57s40.5 27.834 64.5 36.501s48 13 72 13z" />
    <glyph glyph-name="parenright" unicode=")" horiz-adv-x="249" 
d="M141 703c18 -16.667 32.333 -35.832 43 -57.499s16 -45.167 16 -70.5v-439c0 -25.333 -5.33301 -48.833 -16 -70.5s-25 -40.834 -43 -57.501c-18.667 -16.667 -40 -29.667 -64 -39s-50 -14 -78 -14v14c26 0 50.167 4.5 72.5 13.5s42.166 21.167 59.499 36.5
s30.666 33 39.999 53s14 41.333 14 64v439c0 22.667 -4.66699 44 -14 64s-22.666 37.667 -39.999 53s-37.166 27.333 -59.499 36s-46.5 13 -72.5 13v15c28 0 54 -4.66699 78 -14s45.333 -22.333 64 -39z" />
    <glyph glyph-name="asterisk" unicode="*" horiz-adv-x="311" 
d="M250 665l-82 -82h121v-14h-119l84 -85l-10 -10l-85 85v-120h-15v120l-85 -85l-10 10l84 85h-115v14h117l-82 82l10 10l81 -81v115h15v-115l81 81l10 -10v0z" />
    <glyph glyph-name="plus" unicode="+" horiz-adv-x="366" 
d="M188 473v-137h148v-14h-148v-134h-14v134h-148v14h148v137h14v0z" />
    <glyph glyph-name="comma" unicode="," horiz-adv-x="255" 
d="M214 49c-1.33301 -2 -2.5 -3.83301 -3.5 -5.5s-2.16699 -3.16699 -3.5 -4.5l-84 -125l-12 8l58 87c-12 -6 -25.667 -9 -41 -9c-28 0 -51.5 9.5 -70.5 28.5s-28.5 42.5 -28.5 70.5s9.5 51.5 28.5 70.5s42.5 28.5 70.5 28.5s51.5 -9.5 70.5 -28.5s28.5 -42.5 28.5 -70.5
c0 -16.667 -3.66699 -31.667 -11 -45l1 -1zM128 14c14 0 26.834 3.16699 38.501 9.5s21.5 14.5 29.5 24.5l5 8c3.33301 6.66699 6.16602 13.5 8.49902 20.5s3.5 14.5 3.5 22.5c0 23.333 -8.33301 43.333 -25 60s-36.667 25 -60 25s-43.166 -8.33301 -59.499 -25
s-24.5 -36.667 -24.5 -60s8.16699 -43.333 24.5 -60s36.166 -25 59.499 -25z" />
    <glyph glyph-name="hyphen" unicode="-" horiz-adv-x="386" 
d="M31 322v14h326v-14h-326v0z" />
    <glyph glyph-name="period" unicode="." horiz-adv-x="243" 
d="M121 198c28 0 51.5 -9.5 70.5 -28.5s28.5 -42.5 28.5 -70.5s-9.5 -51.5 -28.5 -70.5s-42.5 -28.5 -70.5 -28.5s-51.5 9.5 -70.5 28.5s-28.5 42.5 -28.5 70.5s9.5 51.5 28.5 70.5s42.5 28.5 70.5 28.5zM121 14c23.333 0.666992 43.333 9.16699 60 25.5
s25 36.166 25 59.499s-8.33301 43.333 -25 60s-36.667 25 -60 25s-43.166 -8.33301 -59.499 -25s-24.833 -36.667 -25.5 -60c0.666992 -23.333 9.16699 -43.166 25.5 -59.499s36.166 -24.833 59.499 -25.5z" />
    <glyph glyph-name="slash" unicode="/" horiz-adv-x="295" 
d="M274 739h19l-267 -774h-21z" />
    <glyph glyph-name="zero" unicode="0" horiz-adv-x="502" 
d="M251 709c25.333 0 49.668 -4.33301 73.001 -13s44.333 -21 63 -37s33.667 -35.167 45 -57.5s17.666 -46.833 18.999 -73.5v-347c-0.666992 -26.667 -6.5 -51 -17.5 -73s-25.667 -41 -44 -57s-39.5 -28.5 -63.5 -37.5s-49 -13.5 -75 -13.5s-51 4.5 -75 13.5
s-45.167 21.5 -63.5 37.5s-33 35 -44 57s-16.833 46.333 -17.5 73v347c0.666992 26 6.5 50.167 17.5 72.5s25.667 41.5 44 57.5s39.5 28.5 63.5 37.5s49 13.5 75 13.5zM244.002 694c-23.333 -0.666992 -45.666 -5.16699 -66.999 -13.5s-40.166 -20 -56.499 -35
s-29.333 -32.5 -39 -52.5s-14.5 -41.667 -14.5 -65v-347c0 -23.333 4.83301 -45 14.5 -65s22.667 -37.5 39 -52.5s35.166 -26.667 56.499 -35s43.666 -12.833 66.999 -13.5v679zM259.002 15c23.333 0.666992 45.499 5.33105 66.499 13.998s39.667 20.334 56 35.001
s29.333 32 39 52s14.5 41.667 14.5 65v347c0 22.667 -4.83301 43.834 -14.5 63.501s-22.5 36.667 -38.5 51s-34.667 26 -56 35s-43.666 14.5 -66.999 16.5v-679z" />
    <glyph glyph-name="one" unicode="1" horiz-adv-x="344" 
d="M14 709h278.998v-709h-112c-12.667 -0 -24.167 2.83301 -34.5 8.5s-19.166 13 -26.499 22s-13.166 19.333 -17.499 31s-6.5 23.5 -6.5 35.5v597h-82v15zM110.998 95c0 -10 1.83301 -19.8311 5.5 -29.498s8.66699 -18.334 15 -26.001s13.833 -13.834 22.5 -18.501
s18 -7 28 -7h97v681h-168v-598v-2z" />
    <glyph glyph-name="two" unicode="2" horiz-adv-x="490" 
d="M471 15l2.99707 0.00390625v-10v-2v-3h-450l292 682c-10 3.33301 -20.167 6.16602 -30.5 8.49902s-21.166 3.5 -32.499 3.5h-3c-25.333 -0.666992 -48.833 -5.83398 -70.5 -15.501s-40.5 -22.834 -56.5 -39.501s-28.667 -36.167 -38 -58.5s-14 -45.833 -14 -70.5v-3h-15
v3c0 27.333 5.16699 53 15.5 77s24.333 45 42 63s38.334 32.167 62.001 42.5s49.167 15.833 76.5 16.5h5c25.333 0 49.666 -5.33301 72.999 -16s43.833 -24.834 61.5 -42.501s31.834 -38.167 42.501 -61.5s16 -47.333 16 -72c0 -23.333 -5 -46 -15 -68l-171 -393
c-5.33301 -11.333 -11.666 -20 -18.999 -26s-14 -11 -20 -15h213h33zM180.997 15.0039c13.333 0 26.833 4.83301 40.5 14.5s24.167 21.5 31.5 35.5l173 401c6 16.667 9 33.667 9 51c0 33.333 -10 64.5 -30 93.5s-45 50.833 -75 65.5l-180 -419l-104 -242h135z" />
    <glyph glyph-name="three" unicode="3" horiz-adv-x="458" 
d="M322 390c34 -17.333 61.335 -42.3311 82.002 -74.998s31 -69 31 -109c0 -28.667 -5.33301 -55.5 -16 -80.5s-25.334 -46.833 -44.001 -65.5s-40.5 -33.334 -65.5 -44.001s-51.833 -16 -80.5 -16s-55.5 5.33301 -80.5 16s-46.833 25.334 -65.5 44.001
s-33.334 40.5 -44.001 65.5s-16 51.833 -16 80.5h14c0 -26 5.16699 -50.667 15.5 -74s24.166 -43.833 41.499 -61.5s37.5 -31.5 60.5 -41.5s47.833 -15 74.5 -15c26 0 50.667 5 74 15s43.833 23.667 61.5 41s31.5 37.666 41.5 60.999s15 48.333 15 75s-5 51.667 -15 75
s-23.667 43.666 -41 60.999s-37.666 31 -60.999 41s-48.333 15 -75 15h-83l88 296h-152v15h337zM229.002 412.002c30 0 56.667 -5.33301 80 -16l91 298h-151l-83 -282h63z" />
    <glyph glyph-name="four" unicode="4" horiz-adv-x="603" 
d="M461 271h125v-15h-125v-256h-100c-27.333 0 -50.333 9.5 -69 28.5s-28 42.5 -28 70.5v157h-243l243 453h197v-438zM446 14l-0.000976562 681h-168v-600c0.666992 -11.333 3.33398 -22 8.00098 -32s10.667 -18.667 18 -26s15.833 -13 25.5 -17s19.5 -6 29.5 -6h87z
M45.999 271h218v407z" />
    <glyph glyph-name="five" unicode="5" horiz-adv-x="498" 
d="M241 462c32 0 62.001 -5.99902 90.001 -17.999s52.5 -28.5 73.5 -49.5s37.5 -45.5 49.5 -73.5s18 -58 18 -90s-6 -62 -18 -90s-28.5 -52.5 -49.5 -73.5s-45.5 -37.5 -73.5 -49.5s-58 -18 -90 -18c-26 0 -50.833 4.16699 -74.5 12.5s-45.167 19.833 -64.5 34.5
s-36.166 32 -50.499 52s-24.833 42 -31.5 66h15c6.66699 -21.333 16.667 -41.166 30 -59.499s29.166 -34.333 47.499 -48s38.333 -24.334 60 -32.001s44.5 -11.5 68.5 -11.5c12.667 0 24.667 1 36 3v427c-12 2 -24 3 -36 3c-34.667 0 -67.667 -7.83301 -99 -23.5
s-57 -38.167 -77 -67.5l-2 -3l-13 3c0 0.666992 0.166992 1.5 0.5 2.5s1.16602 4.83301 2.49902 11.5l6 31.5c2.66699 14.333 6.66699 34.5 12 60.5l20 99l30 148h293v-15h-282l-61 -307c21.333 23.333 46.5 41.666 75.5 54.999s60.5 20 94.5 20zM291.001 20.001
c23.333 5.33301 45.167 14.6699 65.5 28.0029s38 29.166 53 47.499s26.833 39.166 35.5 62.499s13 47.666 13 72.999s-4.16699 49.5 -12.5 72.5s-20 43.833 -35 62.5s-32.667 34.5 -53 47.5s-42.5 22.167 -66.5 27.5v-421z" />
    <glyph glyph-name="six" unicode="6" horiz-adv-x="503" 
d="M254 440c30 0 58.334 -5.83301 85.001 -17.5s50 -27.5 70 -47.5s35.833 -43.333 47.5 -70s17.5 -55 17.5 -85c0 -30.667 -5.83301 -59.334 -17.5 -86.001s-27.5 -50 -47.5 -70s-43.333 -35.667 -70 -47s-55 -17 -85 -17c-30.667 0 -59.334 5.66699 -86.001 17
s-50 27 -70 47s-35.667 43.333 -47 70s-17 55.334 -17 86.001c0 20 2.5 39.167 7.5 57.5s12.167 35.5 21.5 51.5l213 380h17l-180 -320c19.333 16 40.833 28.5 64.5 37.5s49.167 13.5 76.5 13.5zM48.001 220c0 -24 4.16797 -47.1641 12.501 -69.4971s20 -42.333 35 -60
s32.833 -32.834 53.5 -45.501s43 -21.667 67 -27v404c-42.667 -8 -78.334 -27 -107.001 -57c-19.333 -18.667 -34.333 -40.334 -45 -65.001s-16 -51.334 -16 -80.001zM254.002 14.0029c26.667 0 52.5 5.33203 77.5 15.999s46.833 25.334 65.5 44.001s33.667 40.5 45 65.5
s17 51.833 17 80.5c0 26.667 -5.33301 52.5 -16 77.5s-25.167 46.833 -43.5 65.5s-40 33.667 -65 45s-51.833 17 -80.5 17h-12c-4 0 -8 -0.333008 -12 -1v-408c4 -0.666992 8 -1.16699 12 -1.5s8 -0.5 12 -0.5z" />
    <glyph glyph-name="seven" unicode="7" horiz-adv-x="480" 
d="M468 709l-224 -638c-6 -19.333 -16.5 -36 -31.5 -50s-33.167 -21 -54.5 -21h-149l244 694h-232v15h447zM157 15c18 0 33.167 5.83203 45.5 17.499s21.5 25.834 27.5 42.501l217 619h-179l-237 -679h126z" />
    <glyph glyph-name="eight" unicode="8" horiz-adv-x="433" 
d="M267 383c20.667 -5.33301 39.667 -14.001 57 -26.001s32.333 -26.167 45 -42.5s22.667 -34.666 30 -54.999s11 -41.833 11 -64.5c0 -26.667 -5.16699 -51.834 -15.5 -75.501s-24.166 -44.334 -41.499 -62.001s-38 -31.667 -62 -42s-49.333 -15.5 -76 -15.5
c-27.333 0 -52.833 5.16699 -76.5 15.5s-44.167 24.333 -61.5 42s-31.166 38.334 -41.499 62.001s-15.5 48.834 -15.5 75.501c0 22 3.5 43.167 10.5 63.5s16.667 38.666 29 54.999s27.166 30.5 44.499 42.5s36.333 21 57 27c-34 10.667 -61.667 30.334 -83 59.001
s-32 62 -32 100c0 22.667 4.33301 44.167 13 64.5s20.5 38.166 35.5 53.499s32.5 27.333 52.5 36s41.667 13 65 13s45.166 -4.33301 65.499 -13s38 -20.667 53 -36s26.833 -33.166 35.5 -53.499s13 -41.833 13 -64.5c0 -37.333 -10.5 -70.333 -31.5 -99
s-47.833 -48.667 -80.5 -60zM364 541.999c0 19.333 -3.5 37.8311 -10.5 55.498s-16.833 33.334 -29.5 47.001s-27.667 25 -45 34s-36.333 14.5 -57 16.5v-306c1.33301 0 2.5 0.166992 3.5 0.5s2.16699 0.5 3.5 0.5c18.667 2 36.167 7.33301 52.5 16s30.5 19.834 42.5 33.501
s21.5 29.167 28.5 46.5s10.833 36 11.5 56zM60 541.997c0 -19.333 3.5 -37.667 10.5 -55s16.667 -32.833 29 -46.5s26.833 -25 43.5 -34s35 -14.5 55 -16.5c2 -0.666992 5 -1 9 -1v306c-20 -1.33301 -38.833 -6 -56.5 -14s-33 -18.833 -46 -32.5s-23.5 -29.5 -31.5 -47.5
s-12.333 -37.667 -13 -59zM35 194.996c0 -23.333 4.33496 -45.501 13.002 -66.501s20.667 -39.667 36 -56s33.5 -29.666 54.5 -39.999s43.833 -16.5 68.5 -18.5v361h-9c-22.667 -2 -43.834 -8.16699 -63.501 -18.5s-36.834 -23.5 -51.501 -39.5s-26.167 -34.5 -34.5 -55.5
s-12.833 -43.167 -13.5 -66.5zM222.002 13.9951c22.667 1.33301 44.498 6.83105 65.498 16.498s39.5 22.5 55.5 38.5s28.833 34.833 38.5 56.5s14.5 44.834 14.5 69.501c0 22.667 -4.16699 44.334 -12.5 65.001s-19.833 39 -34.5 55s-32.167 29.167 -52.5 39.5
s-42.5 17.166 -66.5 20.499c-1.33301 0.666992 -2.66602 0.833984 -3.99902 0.500977s-2.66602 -0.5 -3.99902 -0.5v-361z" />
    <glyph glyph-name="nine" unicode="9" horiz-adv-x="479" 
d="M461 487c0 -46 -12.333 -87.333 -37 -124l-202 -363h-17l175 315c-19.333 -15.333 -40.833 -27.5 -64.5 -36.5s-48.834 -13.5 -75.501 -13.5c-30.667 0 -59.5 5.83301 -86.5 17.5s-50.5 27.5 -70.5 47.5s-35.833 43.5 -47.5 70.5s-17.5 55.833 -17.5 86.5
s5.83301 59.5 17.5 86.5s27.5 50.5 47.5 70.5s43.5 35.833 70.5 47.5s55.833 17.5 86.5 17.5s59.334 -5.83301 86.001 -17.5s50 -27.5 70 -47.5s35.833 -43.5 47.5 -70.5s17.5 -55.833 17.5 -86.5zM33 487c0 -24 3.99805 -47.166 11.998 -69.499s19.333 -42.5 34 -60.5
s32.167 -33.333 52.5 -46s42.5 -22 66.5 -28v407c-24 -4.66699 -45.833 -13.167 -65.5 -25.5s-36.667 -27.5 -51 -45.5s-25.666 -38.333 -33.999 -61s-13.166 -46.334 -14.499 -71.001zM239.998 279.001c34 0 66.332 8.16797 96.999 24.501s55.334 38.833 74.001 67.5
c12.667 21.333 21.834 41.166 27.501 59.499s8.5 37.166 8.5 56.499c0 28.667 -5.5 55.334 -16.5 80.001s-25.833 46.667 -44.5 66c-19.333 18.667 -41.333 33.5 -66 44.5s-51.334 16.5 -80.001 16.5h-14.5c-4.33301 0 -8.83301 -0.333008 -13.5 -1v-412
c4.66699 -1.33301 9.16699 -2 13.5 -2h14.5z" />
    <glyph glyph-name="colon" unicode=":" horiz-adv-x="246" 
d="M125 198c28 0 51.5 -9.5 70.5 -28.5s28.5 -42.5 28.5 -70.5s-9.5 -51.5 -28.5 -70.5s-42.5 -28.5 -70.5 -28.5s-51.5 9.5 -70.5 28.5s-28.5 42.5 -28.5 70.5s9.5 51.5 28.5 70.5s42.5 28.5 70.5 28.5zM125 14c23.333 0.666992 43.333 9.16699 60 25.5
s25 36.166 25 59.499s-8.33301 43.333 -25 60s-36.667 25 -60 25s-43.166 -8.33301 -59.499 -25s-24.833 -36.667 -25.5 -60c0.666992 -23.333 9.16699 -43.166 25.5 -59.499s36.166 -24.833 59.499 -25.5zM125 587c28 0 51.5 -9.5 70.5 -28.5s28.5 -42.5 28.5 -70.5
s-9.5 -51.5 -28.5 -70.5s-42.5 -28.5 -70.5 -28.5s-51.5 9.5 -70.5 28.5s-28.5 42.5 -28.5 70.5s9.5 51.5 28.5 70.5s42.5 28.5 70.5 28.5zM125 403c23.333 0.666992 43.333 9.16699 60 25.5s25 36.166 25 59.499s-8.33301 43.333 -25 60s-36.667 25 -60 25
s-43.166 -8.33301 -59.499 -25s-24.833 -36.667 -25.5 -60c0.666992 -23.333 9.16699 -43.166 25.5 -59.499s36.166 -24.833 59.499 -25.5z" />
    <glyph glyph-name="semicolon" unicode=";" horiz-adv-x="243" 
d="M121 587c28 0 51.5 -9.5 70.5 -28.5s28.5 -42.5 28.5 -70.5s-9.5 -51.5 -28.5 -70.5s-42.5 -28.5 -70.5 -28.5s-51.5 9.5 -70.5 28.5s-28.5 42.5 -28.5 70.5s9.5 51.5 28.5 70.5s42.5 28.5 70.5 28.5zM121 403c23.333 0.666992 43.333 9.16699 60 25.5
s25 36.166 25 59.499s-8.33301 43.333 -25 60s-36.667 25 -60 25s-43.166 -8.33301 -59.499 -25s-24.833 -36.667 -25.5 -60c0.666992 -23.333 9.16699 -43.166 25.5 -59.499s36.166 -24.833 59.499 -25.5zM207 51c-1.33301 -2 -2.5 -3.83301 -3.5 -5.5
s-2.16699 -3.16699 -3.5 -4.5l-84 -125l-12 8l58 87c-12 -6 -25.667 -9 -41 -9c-28 0 -51.5 9.5 -70.5 28.5s-28.5 42.5 -28.5 70.5s9.5 51.5 28.5 70.5s42.5 28.5 70.5 28.5s51.5 -9.5 70.5 -28.5s28.5 -42.5 28.5 -70.5c0 -16.667 -3.66699 -31.667 -11 -45l1 -1zM121 16
c14 0 26.834 3.16699 38.501 9.5s21.5 14.5 29.5 24.5l5 8c3.33301 6.66699 6.16602 13.5 8.49902 20.5s3.5 14.5 3.5 22.5c0 23.333 -8.33301 43.333 -25 60s-36.667 25 -60 25s-43.166 -8.33301 -59.499 -25s-24.5 -36.667 -24.5 -60s8.16699 -43.333 24.5 -60
s36.166 -25 59.499 -25z" />
    <glyph glyph-name="less" unicode="&#x3c;" horiz-adv-x="273" 
d="M260 508l-214 -182l214 -181l-10 -11l-226 192l226 193z" />
    <glyph glyph-name="equal" unicode="=" horiz-adv-x="447" 
d="M39 238v15h370v-15h-370zM409 434v-14h-370v14h370z" />
    <glyph glyph-name="greater" unicode="&#x3e;" horiz-adv-x="277" 
d="M24 508l10 11l226 -193l-226 -192l-10 11l214 181l-214 182v0z" />
    <glyph glyph-name="question" unicode="?" horiz-adv-x="403" 
d="M203 196c27.333 0 50.5 -9.5 69.5 -28.5s28.5 -42.167 28.5 -69.5s-9.5 -50.5 -28.5 -69.5s-42.167 -28.5 -69.5 -28.5s-50.5 9.5 -69.5 28.5s-28.5 42.167 -28.5 69.5s9.5 50.5 28.5 69.5s42.167 28.5 69.5 28.5zM119 98c0 -23.333 8.16699 -43.166 24.5 -59.499
s36.166 -24.5 59.499 -24.5s43.166 8.16699 59.499 24.5s24.5 36.166 24.5 59.499s-8.16699 43.166 -24.5 59.499s-36.166 24.5 -59.499 24.5s-43.166 -8.16699 -59.499 -24.5s-24.5 -36.166 -24.5 -59.499zM354 580c2 -9.33301 3.00098 -19.3311 3.00098 -29.998
s-2 -21.334 -6 -32.001l-120 -284c-27.333 14 -51.166 27.5 -71.499 40.5s-32.5 30.167 -36.5 51.5c-2.66699 13.333 -3.66699 25 -3 35s3.66699 20.667 9 32l105 231c3.33301 8.66699 5 17.334 5 26.001c0 8 -1.33301 15.833 -4 23.5s-7.33398 14.5 -14.001 20.5
c-3.33301 0.666992 -7 1.16699 -11 1.5s-7.66699 0.5 -11 0.5c-20 0 -38.667 -3.83301 -56 -11.5s-32.5 -18 -45.5 -31s-23.167 -28.333 -30.5 -46s-11 -36.5 -11 -56.5h-14c0 22 4.16699 42.5 12.5 61.5s19.666 35.667 33.999 50s31 25.666 50 33.999s39.5 12.5 61.5 12.5
c18.667 0 36.5 -3.33301 53.5 -10s32.333 -15.667 46 -27s25.167 -24.833 34.5 -40.5s16 -32.834 20 -51.501zM333.001 511.002c5.33301 11.333 8.66895 21.6689 10.002 31.002s0.666016 20.666 -2.00098 33.999c-4.66699 25.333 -16 48.5 -34 69.5s-39.667 35.5 -65 43.5
c7.33301 -12.667 11 -25.667 11 -39c0 -10 -2 -19.333 -6 -28l-104 -231c-4.66699 -10.667 -7.5 -20 -8.5 -28s-0.5 -19.667 1.5 -35c1.33301 -8.66699 4.66602 -16.334 9.99902 -23.001s12 -13 20 -19s17 -11.667 27 -17l31 -17z" />
    <glyph glyph-name="at" unicode="@" horiz-adv-x="761" 
d="M380 709c49.333 0 95.668 -9.33203 139.001 -27.999s81.166 -44 113.499 -76s57.833 -69.5 76.5 -112.5s28 -89.167 28 -138.5c0 -48.667 -9.16699 -94.167 -27.5 -136.5s-43.5 -79.5 -75.5 -111.5l-7 -6l-103 103c-18.667 -17.333 -40.334 -31 -65.001 -41
s-51 -15 -79 -15c-28.667 0 -55.667 5.33301 -81 16s-47.333 25.334 -66 44.001s-33.5 40.667 -44.5 66s-16.5 52.333 -16.5 81s5.5 55.667 16.5 81s26 47.5 45 66.5s41.167 33.833 66.5 44.5s52.333 16 81 16s55.834 -5.33301 81.501 -16s48 -25.5 67 -44.5
s34 -41.167 45 -66.5s16.5 -52.333 16.5 -81c0 -28 -5.16699 -53.667 -15.5 -77s-24.166 -44.333 -41.499 -63l93 -94c30 30.667 53.333 65.834 70 105.501s25 82.5 25 128.5c0 45.333 -8.83301 88.5 -26.5 129.5s-41.834 77.167 -72.501 108.5s-66.834 56.333 -108.501 75
s-86.5 28 -134.5 28c-45.333 0 -88.666 -8.83301 -129.999 -26.5s-77.666 -41.834 -108.999 -72.501s-56.333 -66.834 -75 -108.501s-28 -86.167 -28 -133.5s9 -91.333 27 -132s42.667 -76.334 74 -107.001c30.667 -31.333 66.667 -56 108 -74s85.666 -27 132.999 -27v-14
c-49.333 0 -95.5 9.16699 -138.5 27.5s-80.667 43.5 -113 75.5s-57.833 69.5 -76.5 112.5s-28 89.167 -28 138.5s9.33301 95.5 28 138.5s44.167 80.5 76.5 112.5s70 57.333 113 76s89.167 28 138.5 28zM186.002 354.001c0 -22.667 4.16602 -44.4971 12.499 -65.4971
s19.666 -40 33.999 -57s30.833 -31.333 49.5 -43s38.334 -19.167 59.001 -22.5v377c-22 -4.66699 -42.333 -12.834 -61 -24.501s-34.667 -25.834 -48 -42.501s-24.166 -35.334 -32.499 -56.001s-12.833 -42.667 -13.5 -66zM355.001 163.004
c4.66699 -0.666992 9.16699 -1.16699 13.5 -1.5s8.5 -0.5 12.5 -0.5c25.333 0 49.666 5 72.999 15s44 23.833 62 41.5s32.5 38.167 43.5 61.5s16.5 48.333 16.5 75c0 26 -5.16699 50.667 -15.5 74s-24.166 43.833 -41.499 61.5s-38 31.667 -62 42s-49.333 15.5 -76 15.5
h-12.5c-4.33301 0 -8.83301 -0.333008 -13.5 -1v-383z" />
    <glyph glyph-name="A" unicode="A" horiz-adv-x="617" 
d="M585 0h-149c-19.333 0 -36.833 5.5 -52.5 16.5s-28.167 27.5 -37.5 49.5l-32 83h-213l-57 -149h-16l172 448l100 261h12zM297 660l249 -645h16l-256 668zM449 15h16l-208 539l-8 -21zM241 512l-8.00098 -21l183 -473c2.66699 -1.33301 5.33398 -2 8.00098 -2
s5.66699 -0.333008 9 -1zM481.999 15h16l-225 581l-8 -21zM513.999 15h16l-241 623l-8 -20zM307.999 164l-100 262l-101 -262h201zM360.999 69c8.66699 -19.333 20.333 -33.667 35 -43l-171 444l-9 -23z" />
    <glyph glyph-name="B" unicode="B" horiz-adv-x="542" 
d="M369 371c19.333 -6 37.334 -14.833 54.001 -26.5s31 -25.334 43 -41.001s21.333 -33.167 28 -52.5s10 -39.666 10 -60.999c0 -24 -4.83301 -47.167 -14.5 -69.5s-23 -42.333 -40 -60s-36.833 -32 -59.5 -43s-46.667 -16.833 -72 -17.5h-263h-4v608
c0 21.333 5.83301 40.333 17.5 57s26.5 28.667 44.5 36v1h1c11.333 4.66699 22.333 7 33 7h179c23.333 -0.666992 45.166 -5.66699 65.499 -15s38 -21.833 53 -37.5s26.833 -33.834 35.5 -54.501s13 -42.667 13 -66c0 -38 -11.333 -72.167 -34 -102.5
s-52.667 -51.166 -90 -62.499zM321.001 694l-70.001 0.000976562v-315h60h3h4h3c21.333 0.666992 41.333 5 60 13s35 19 49 33s25.333 30.5 34 49.5s13.334 39.5 14.001 61.5c0 21.333 -4 41.166 -12 59.499s-18.833 34.5 -32.5 48.5s-30 25.333 -49 34s-39.5 14 -61.5 16
h-2zM236 95.001v599h-18v-679h18v78v2zM143 694.001l-15 -3v-676h15v679zM158 15.001h15v679h-15v-679zM188 15.001h15v679h-15v-679zM113 684.001c-5.33301 -2 -10.333 -5.33301 -15 -10v-659h15v669zM66 15.001h16v642c-10 -14 -15.333 -29 -16 -45v-597zM284 15.001
c-12.667 8 -23.667 18.667 -33 32v-32h33zM333 16.001c21.333 2 41.499 8 60.499 18s35.5 22.833 49.5 38.5s25.167 33.5 33.5 53.5s12.5 41.333 12.5 64c0 22 -4.33301 43.333 -13 64s-20.667 39 -36 55s-33.166 28.833 -53.499 38.5s-42.166 15.167 -65.499 16.5h-4h-66
v-273c2.66699 -21.333 11.667 -39 27 -53s33.666 -21.333 54.999 -22z" />
    <glyph glyph-name="C" unicode="C" horiz-adv-x="645" 
d="M600 90l8.99902 -10.999l-2 -2c-30.667 -24 -64.667 -42.833 -102 -56.5s-77 -20.5 -119 -20.5c-36 0 -70.5 5.16699 -103.5 15.5s-63.5 24.833 -91.5 43.5s-53 41 -75 67s-40 54.667 -54 86c-9.33301 21.333 -16.666 44 -21.999 68s-8 48.667 -8 74c0 46 8 89 24 129
s38 75.667 66 107v1h1c32.667 36 71.667 64.667 117 86s94 32 146 32c42 0 81.667 -6.83301 119 -20.5s71.333 -32.5 102 -56.5l2 -2l-9 -12l-3 2c-29.333 23.333 -61.833 41.5 -97.5 54.5s-73.5 19.5 -113.5 19.5c-28.667 0 -56.334 -3.5 -83.001 -10.5
s-51.667 -16.833 -75 -29.5v-600c23.333 -12.667 48.333 -22.334 75 -29.001s54.334 -10 83.001 -10c40 0 77.833 6.33301 113.5 19s68.167 30.667 97.5 54zM181.999 626.001c-2.66699 -2 -5.16699 -4 -7.5 -6s-4.5 -4 -6.5 -6v-519c2 -2 4.16699 -4 6.5 -6
s4.83301 -4 7.5 -6v543zM106.999 162.001c2.66699 -3.33301 5.16699 -6.66992 7.5 -10.0029s4.83301 -6.66602 7.5 -9.99902v425c-2.66699 -3.33301 -5.16699 -6.66602 -7.5 -9.99902s-4.83301 -6.66602 -7.5 -9.99902v-385zM91.999 521.997
c-2.66699 -4.66699 -5.16699 -9.33203 -7.5 -13.999l-7.5 -15v-277l7.5 -15c2.33301 -4.66699 4.83301 -9.33398 7.5 -14.001v335zM46.999 353.999c0 -33.333 5 -66 15 -98v197c-10 -32 -15 -65 -15 -99zM151.999 108.999v490.999l-7.5 -7.5
c-2.33301 -2.33301 -4.83301 -5.16602 -7.5 -8.49902v-460zM211.999 645.998c-2.66699 -1.33301 -5.16699 -2.83301 -7.5 -4.5l-6.5 -4.5v-565l6.5 -4.5c2.33301 -1.66699 4.83301 -3.16699 7.5 -4.5v583z" />
    <glyph glyph-name="D" unicode="D" horiz-adv-x="611" 
d="M213 710c46 0 90.3301 -9 132.997 -27s80.334 -43 113.001 -75s58.834 -69.5 78.501 -112.5s29.5 -89.5 29.5 -139.5c0 -48 -9.16699 -93.333 -27.5 -136s-43.5 -80 -75.5 -112s-69.667 -57.5 -113 -76.5s-89.666 -29.167 -138.999 -30.5h-3h-141h-12h-3v709h7h152h1z
M67.9971 695l-0.000976562 -16h213c2.66699 1.33301 7.33398 3.33301 14.001 6c-13.333 3.33301 -27 5.83301 -41 7.5s-27.667 2.5 -41 2.5h-1h-144zM221.996 76c2 4 3 8.66699 3 14h-157v-14h154zM216.996 60h-149v-15h140zM224.996 121h-157v-15h157v15zM224.996 151h-157
v-15h157v15zM224.996 181h-157v-15h157v15zM224.996 211h-157v-15h157v15zM224.996 241h-157v-15h157v15zM224.996 271h-157v-14h157v14zM224.996 302h-157v-15h157v15zM224.996 332h-157v-15h157v15zM224.996 362h-157v-15h157v15zM224.996 392h-157v-15h157v15z
M224.996 422h-157v-15h157v15zM224.996 452h-157v-14h157v14zM224.996 483h-157v-15h157v15zM224.996 513h-157v-15h157v15zM224.996 543h-157v-15h157v15zM224.996 573h-157v-15h157v15zM224.996 592c0 2 0.166992 4 0.5 6s0.5 3.66699 0.5 5h-158v-15h157v4zM228.996 619
c2.66699 6.66699 4.66699 11.333 6 14h-167v-14h161zM243.996 648.999c2.66699 2.66699 5 5.16699 7 7.5s4.33301 4.83301 7 7.5h-190v-15h176zM146.996 15.999c16.667 0 31.667 4.66699 45 14h-124v-14h75h4zM215.996 15.999c44.667 1.33301 87.332 10.998 127.999 28.998
s76.5 42.333 107.5 73s55.5 66.334 73.5 107.001s27 84.334 27 131.001c0 33.333 -5.66699 67 -17 101s-27.333 65.667 -48 95s-45 54.833 -73 76.5s-59 37.167 -93 46.5c-15.333 0 -28.666 -3.66699 -39.999 -11h-1c-12 -7.33301 -21.667 -17.333 -29 -30
s-11 -26.667 -11 -42v-501c0 -9.33301 -1.66699 -19.666 -5 -30.999c-4 -9.33301 -9.33301 -17.833 -16 -25.5s-15.667 -13.834 -27 -18.501h24z" />
    <glyph glyph-name="E" unicode="E" horiz-adv-x="457" 
d="M252 694v-299.999h154v-15h-154v-364h158v-15h-356v608v2c0 26 8.33301 48.667 25 68s39 29.666 67 30.999h103h174v-15h-171zM100 15.001h14v670c-2.66699 -1.33301 -5.16699 -2.83301 -7.5 -4.5s-4.5 -3.5 -6.5 -5.5v-660zM130 15.001h15v679l-15 -3v-676zM160 15.001
h15v679h-15v-679zM190 15.001h15v679h-15v-679zM69 15.001l15 -0.000976562v644c-10 -15.333 -15 -31.666 -15 -48.999v-2v-593zM237 694h-17v-679h17v679z" />
    <glyph glyph-name="F" unicode="F" horiz-adv-x="471" 
d="M251 694v-299.001h163v-15h-163v-281c0 -13.333 -2.5 -25.833 -7.5 -37.5s-11.833 -22.167 -20.5 -31.5s-19 -16.666 -31 -21.999s-25 -8 -39 -8h-1h-99v3v1v8v697h195h172v-15h-169zM204 693.999l-15 0.000976562v-670c6.66699 3.33301 11.667 6.66602 15 9.99902v660z
M129 15h15v679h-15v-679zM114 694h-15v-679h15v679zM159 15l15 3v676h-15v-679zM68 15h16v679h-16v-679zM236 694h-16v-644c10.667 14 16 30.333 16 49v284v311z" />
    <glyph glyph-name="G" unicode="G" horiz-adv-x="643" 
d="M402 341l-103.996 0.000976562v15h104h198v-256v-2v-1c0 -11.333 -2.16699 -22.666 -6.5 -33.999s-10.5 -21.666 -18.5 -30.999s-17.667 -17 -29 -23s-24 -9 -38 -9h-129c-29.333 0 -57 3.33301 -83 10c-38.667 9.33301 -74.5 24.666 -107.5 45.999
s-61.667 47.166 -86 77.499s-43.333 64.166 -57 101.499s-20.5 77 -20.5 119c0 49.333 9.16699 95.5 27.5 138.5s43.5 80.5 75.5 112.5s69.5 57.333 112.5 76s89.167 28 138.5 28c38.667 0 76.667 -6.5 114 -19.5s72.666 -32.167 105.999 -57.5l2 -2l-9 -12l-2 2
c-29.333 23.333 -61.833 41.333 -97.5 54s-73.5 19.334 -113.5 20.001c-44.667 0 -87.5 -8.66699 -128.5 -26s-78.167 -42 -111.5 -74c-32 -32 -56.5 -68.5 -73.5 -109.5s-25.5 -84.5 -25.5 -130.5c0 -44 8.33301 -86.833 25 -128.5s41.334 -78.834 74.001 -111.501
c21.333 -21.333 45.666 -39.833 72.999 -55.5s56.666 -27.167 87.999 -34.5c3.33301 -0.666992 6.33301 -1.16699 9 -1.5s5.66699 -0.5 9 -0.5c11.333 0 22.166 2.33301 32.499 7s19.166 10.667 26.499 18c14.667 13.333 23 31 25 53v4v2v235zM358.004 16.001
c2 -0.666992 5.5 -1 10.5 -1h33.5v38c-11.333 -16.667 -26 -29 -44 -37zM553.004 341.001h-14.001v-318c4.66699 2 9.33398 4.66699 14.001 8v310zM523.003 341.001h-15v-326c3.33301 0 6 0.166992 8 0.5s4.33301 0.833008 7 1.5v324zM493.003 341.001h-15v-326h15v326z
M463.003 341.001h-15v-326h15v326zM585.003 341.001h-16v-294c10.667 14.667 16 31.667 16 51v2v241zM417.003 341.001v-237v-89h16v326h-16z" />
    <glyph glyph-name="H" unicode="H" horiz-adv-x="629" 
d="M579 709v-338.999v-370h-15v359h-315v-359h-3h-1h-190h-4v697v8v4l103 -1c12.667 0 24.667 -2.16699 36 -6.5s21.333 -10.333 30 -18s15.667 -16.834 21 -27.501s8 -22 8 -34v-5v-243h315v335h15zM127 15.001h15v679h-15v-679zM112 694.001h-15v-679h15v679zM157 15.001
h15v676l-15 3v-679zM187 15.001h15v662c-4 2.66699 -9 5.66699 -15 9v-671zM66 15.001h16v679h-16v-679zM234 616.001c0 16.667 -5.33301 32 -16 46v-647h16v601z" />
    <glyph glyph-name="I" unicode="I" horiz-adv-x="300" 
d="M154 709c26.667 0 49.167 -8.33203 67.5 -24.999s27.5 -37.334 27.5 -62.001v-3v-2v-617h-194h-4v709h103zM127 15.001h15v679h-15v-679zM112 694.001h-15v-679h15v679zM157 15.001h15v677c-2.66699 0.666992 -5.16699 1 -7.5 1s-4.83301 0.333008 -7.5 1v-679z
M187 15.001h15v663c-4.66699 3.33301 -9.66699 6 -15 8v-671zM66 15.001h16v679h-16v-679zM234 616.001c0 18.667 -5.66699 34.667 -17 48v-649h17v601z" />
    <glyph glyph-name="J" unicode="J" 
d="M412 709l0.000976562 -512.998c0 -27.333 -5.16699 -52.833 -15.5 -76.5s-24.333 -44.334 -42 -62.001s-38.5 -31.667 -62.5 -42s-49.333 -15.5 -76 -15.5c-19.333 0 -37.833 2.66699 -55.5 8s-34.167 12.666 -49.5 21.999c-28 18.667 -49.833 42 -65.5 70
s-24.167 60 -25.5 96v3h15v-3c1.33301 -30 9.16602 -58.333 23.499 -85s34.166 -48.667 59.499 -66c26 0 48 9.33301 66 28s28 41.334 30 68.001v22v456c2.66699 25.333 13.334 46.666 32.001 63.999s41 26 67 26h92h7zM335.001 694.002h-15v-645l15 12v633zM260.001 20.002
c2.66699 1.33301 5.16699 2.16699 7.5 2.5s4.83301 1.16602 7.5 2.49902v659c-6.66699 -3.33301 -11.667 -6.66602 -15 -9.99902v-654zM290.001 31.0029c2.66699 1.33301 5.16699 2.66797 7.5 4.00098s4.83301 2.66602 7.5 3.99902v654c-5.33301 0 -10.333 -1 -15 -3v-659z
M229.001 163.005l0.00292969 -148.002c2.66699 0.666992 5.16699 1 7.5 1s5.16602 0.333008 8.49902 1v640c-4.66699 -7.33301 -8.33398 -14.666 -11.001 -21.999s-4.33398 -15.666 -5.00098 -24.999v-3v-444zM214.004 88.0029
c-2.66699 -3.33301 -5.16699 -6.83301 -7.5 -10.5s-5.16602 -7.16699 -8.49902 -10.5v-51c3.33301 -0.666992 8.66602 -1 15.999 -1v73zM183.004 53.0029c-3.33301 -1.33301 -6.16895 -3.00098 -8.50195 -5.00098s-5.16602 -3.66699 -8.49902 -5v-21
c4.66699 -1.33301 10.334 -2.66602 17.001 -3.99902v35zM146.001 29.002c1.33301 -0.666992 2.16895 -1.00098 2.50195 -1.00098s1.16602 -0.333008 2.49902 -1v10c-2.66699 -1.33301 -7.33398 -2.66602 -14.001 -3.99902zM350.004 77.001c5.33301 5.33301 10.333 12 15 20
v597h-15v-617zM397.004 694.001h-16.998v-569c5.33301 10.667 9.16602 21.667 11.499 33s4.16602 23 5.49902 35v501z" />
    <glyph glyph-name="K" unicode="K" horiz-adv-x="579" 
d="M562 0l-12 -0.000976562h-164c-20 0 -37.5 4.83301 -52.5 14.5s-27.167 22.834 -36.5 39.501l-174 291l-57 -55v-290h-15v708h15v-397l412 398h21l-229 -222zM445 14.999h17l-249 418l-11 -11zM191 410.999l-11 -11l229 -385h18zM480 14.999h17l-262 439l-11 -10z
M311 60.999c12 -18.667 26 -32 42 -40l-207 347l-12 -12zM392 14.999l-223 375l-15 -15l4 3l216 -362c2 -0.666992 4.66699 -1 8 -1h3h7zM535 14.999l-276 462l-12 -12l268 -450h20z" />
    <glyph glyph-name="L" unicode="L" 
d="M431 15v-15h-378v3v6v3v697h103c12.667 0 24.667 -2.66699 36 -8s21.333 -12.5 30 -21.5s15.667 -19.5 21 -31.5s8 -24.667 8 -38v-6v-589h180zM129 15h15v679h-15v-679zM114 694h-15v-679h15v679zM159 15h15v676l-15 3v-679zM189 15h14.999v661l-6.5 4.5
c-2.33301 1.66699 -5.16602 3.16699 -8.49902 4.5v-670zM67.999 15h16v679h-16v-679zM235.999 615c-1.33301 16.667 -7 31.667 -17 45v-645h17v600z" />
    <glyph glyph-name="M" unicode="M" horiz-adv-x="740" 
d="M689 709l-0.000976562 -709h-15v671l-222 -671h-207l-179 539v-539h-15v709h107c18.667 0 35.834 -5.16699 51.501 -15.5s26.167 -24.5 31.5 -42.5c0 -1.33301 0.5 -3.33301 1.5 -6s3.5 -10.167 7.5 -22.5l18.5 -56.5l35.5 -106.5l57.5 -173.5l84.5 -257l225 680h18z
M352.999 15h16l-226 679h-15zM111.999 694h-16l225 -679h16zM384.999 15h15l-224 676c-5.33301 2 -11 3 -17 3zM65.999 694v-6l223 -673h16l-225 679h-14zM254.999 15h18l-207 625v-53zM434.999 15l-208 630c-2.66699 8 -6.66699 15.5 -12 22.5s-12.333 12.5 -21 16.5
l223 -669h18z" />
    <glyph glyph-name="N" unicode="N" horiz-adv-x="603" 
d="M550 709v-610v-99h-1h-102c-18.667 0 -35.167 4.5 -49.5 13.5s-25.5 21.167 -33.5 36.5l-296 623v-673h-15v709h219l263 -554v554h15zM261 694h-16.999l291 -615v20c0 6.66699 -0.833008 13.5 -2.5 20.5s-3.83398 13.167 -6.50098 18.5zM465.001 15h17l-321 678l2 1h-19z
M499.001 15h16l-321 679h-17zM373.001 66c9.33301 -18.667 21.667 -32.667 37 -42l-316 670h-19l298 -629v1zM431.002 17c6.66699 -1.33301 12.333 -2 17 -2l-321 679h-17zM535.001 15v28l-308 651h-16l321 -679h3z" />
    <glyph glyph-name="O" unicode="O" horiz-adv-x="775" 
d="M388 709c48.667 0 94.5 -9.33301 137.5 -28s80.5 -44.167 112.5 -76.5s57.333 -70 76 -113s28 -88.833 28 -137.5c0 -49.333 -9.33301 -95.5 -28 -138.5s-44 -80.5 -76 -112.5s-69.5 -57.167 -112.5 -75.5s-88.833 -27.5 -137.5 -27.5
c-49.333 0 -95.5 9.16699 -138.5 27.5s-80.5 43.5 -112.5 75.5s-57.167 69.5 -75.5 112.5s-27.5 89.167 -27.5 138.5c0 48.667 9.16699 94.5 27.5 137.5s43.5 80.667 75.5 113s69.5 57.833 112.5 76.5s89.167 28 138.5 28zM182 623
c-5.33301 -3.33301 -10.333 -7.33301 -15 -12v-514l15 -12v538zM107 165c2.66699 -3.33301 5.16699 -6.66797 7.5 -10.001s4.83301 -6.66602 7.5 -9.99902v419l-15 -21v-378zM92 517.998c-6 -10 -11 -20 -15 -30v-268c4 -10 9 -20 15 -30v328zM62 444.998
c-8.66699 -28.667 -13 -59 -13 -91s4.33301 -62.333 13 -91v182zM137 126.998c2.66699 -3.33301 5.16699 -6.16504 7.5 -8.49805l7.5 -7.5v487c-2.66699 -2.66699 -5.16699 -5.33398 -7.5 -8.00098s-4.83301 -5.33398 -7.5 -8.00098v-455zM213 643.999
c-2.66699 -1.33301 -5.16699 -2.83301 -7.5 -4.5l-7.5 -5.5v-560c2.66699 -1.33301 5.16699 -3 7.5 -5s4.83301 -3.66699 7.5 -5v580zM388 14.999c46 0 89.1699 8.83496 129.503 26.502s75.833 41.667 106.5 72s55.167 66.166 73.5 107.499s28.166 85.666 29.499 132.999
c0 44.667 -8.83301 87.5 -26.5 128.5s-41.834 77.167 -72.501 108.5s-66.667 56.333 -108 75s-85.333 28 -132 28c-29.333 0 -57.333 -3.66699 -84 -11s-52 -17.333 -76 -30v-598c49.333 -26.667 102.666 -40 159.999 -40z" />
    <glyph glyph-name="P" unicode="P" horiz-adv-x="510" 
d="M333 702c20 -5.33301 38.668 -13.668 56.001 -25.001s32.166 -25 44.499 -41s22 -33.833 29 -53.5s10.5 -40.5 10.5 -62.5c0 -26 -5 -50.5 -15 -73.5s-23.667 -43 -41 -60s-37.666 -30.333 -60.999 -40s-48.333 -14.5 -75 -14.5h-33v-236v-7
c-1.33301 -12 -4.83301 -23.333 -10.5 -34s-13 -20.167 -22 -28.5s-19.167 -14.833 -30.5 -19.5s-23.333 -7 -36 -7h-2h-92h-4v1v708h15h221c17.333 -1.33301 32.666 -3.66602 45.999 -6.99902zM292.001 692.998c-1.33301 0.666992 -2.83301 1 -4.5 1h-10.5v-8
c2 1.33301 4.5 2.5 7.5 3.5s5.5 2.16699 7.5 3.5zM248.001 655.998c2.66699 3.33301 4.83301 6.5 6.5 9.5s4.16699 6.16699 7.5 9.5v19h-14v-38zM202 331.998h-14v-307c2.66699 1.33301 5.16699 2.83301 7.5 4.5s4.5 3.5 6.5 5.5v297zM142 693.998h-15v-347h15v347z
M157 346.998h15v347h-15v-347zM112 693.998h-15v-347h15v347zM97 331.998v-317h15v317h-15zM127 14.998h15v317h-15v-317zM157 15.998c4.66699 0 9.66699 1 15 3v313h-15v-316zM202 346.998v347h-14v-347h14zM66 346.998h16v347h-16v-347zM66 14.998h16v317h-16v-317z
M233 331.998h-15v-280c8 12 13 26.667 15 44v236zM233 607.998v1v85h-15v-347h15v261zM287 346.998c22.667 1.33301 44.334 6.49805 65.001 15.498s38.667 21 54 36s27.666 32.833 36.999 53.5s14 43.334 14 68.001c0 19.333 -3.16699 37.833 -9.5 55.5
s-15 33.834 -26 48.501s-24.167 27.5 -39.5 38.5s-32.333 19.167 -51 24.5c-21.333 0 -40 -7.33301 -56 -22s-25 -32.667 -27 -54v-182v-82h39z" />
    <glyph glyph-name="Q" unicode="Q" horiz-adv-x="751" 
d="M687 182c13.333 -9.33301 23.832 -20.998 31.499 -34.998s11.5 -29.667 11.5 -47c0 -13.333 -2.5 -26 -7.5 -38s-12 -22.5 -21 -31.5s-19.5 -16.167 -31.5 -21.5s-25 -8 -39 -8c-17.333 0 -32.833 4 -46.5 12s-25.167 18.667 -34.5 32
c-25.333 -14.667 -52.5 -25.834 -81.5 -33.501s-59.167 -11.5 -90.5 -11.5c-32 0 -62.833 4.16699 -92.5 12.5s-58.5 20.166 -86.5 35.499c-26 15.333 -49.833 33.833 -71.5 55.5s-40.167 45.667 -55.5 72s-27.166 54.5 -35.499 84.5s-12.5 61.333 -12.5 94
c0 48.667 9.16699 94.5 27.5 137.5s43.5 80.667 75.5 113s69.5 57.833 112.5 76.5s89.167 28 138.5 28c48.667 0 94.5 -9.33301 137.5 -28s80.5 -44.167 112.5 -76.5s57.333 -70 76 -113s28 -88.833 28 -137.5c0 -31.333 -4 -61.5 -12 -90.5s-19 -56.167 -33 -81.5z
M152.999 101.002c2.66699 -2 5.16699 -4.16699 7.5 -6.5s4.83301 -4.5 7.5 -6.5v532c-2.66699 -2 -5.16699 -4 -7.5 -6s-4.83301 -4.33301 -7.5 -7v-506zM92.999 172.002l7.5 -11.5c2.33301 -3.66699 4.83301 -7.16699 7.5 -10.5v408l-15 -21v-365zM77.999 511.002l-7.5 -15
c-2.33301 -4.66699 -4.5 -9.66699 -6.5 -15v-254c3.33301 -9.33301 8 -19 14 -29v313zM48.999 434.002c-6.66699 -24.667 -10 -51.332 -10 -79.999s3.33301 -55.334 10 -80.001v160zM122.999 132.004c2.66699 -3.33301 5.16699 -6.16504 7.5 -8.49805l7.5 -7.5v477
c-2.66699 -2.66699 -5.16699 -5.33398 -7.5 -8.00098s-4.83301 -5.33398 -7.5 -8.00098v-445zM198.999 642.005c-2.66699 -1.33301 -5.16699 -3 -7.5 -5s-4.83301 -3.66699 -7.5 -5v-555c2.66699 -2 5.16699 -4 7.5 -6s4.83301 -3.66699 7.5 -5v576zM377.999 15.0049
c59.333 0 114.002 14.332 164.002 42.999c-6.66699 14.667 -10 28.667 -10 42c0 14 2.66699 27 8 39s12.5 22.5 21.5 31.5s19.5 16 31.5 21s24.667 7.5 38 7.5c15.333 0 29.666 -3 42.999 -9c13.333 24 23.833 49.833 31.5 77.5s11.5 56.5 11.5 86.5
c0 44.667 -8.83301 87.5 -26.5 128.5s-41.834 77.167 -72.501 108.5s-66.667 56.333 -108 75s-85.333 28 -132 28c-30 0 -58.667 -4 -86 -12s-53.333 -18.667 -78 -32v-593c24.667 -13.333 50.667 -23.666 78 -30.999s56 -11 86 -11zM547.001 100.004
c0 -11.333 2.66895 -23.001 8.00195 -35.001c11.333 7.33301 22.166 15 32.499 23s20.166 16.667 29.499 26c20 20 36.667 41 50 63c-10 4.66699 -22 7 -36 7c-23.333 0 -43 -8.16699 -59 -24.5s-24.333 -36.166 -25 -59.499zM631.003 16.0029c12 0 23 2.16895 33 6.50195
s18.833 10.333 26.5 18s13.667 16.667 18 27s6.5 21.166 6.5 32.499c0 14.667 -3.16699 28 -9.5 40s-14.833 21.667 -25.5 29c-15.333 -23.333 -32.833 -45 -52.5 -65s-41.167 -37.333 -64.5 -52c7.33301 -10.667 17 -19.334 29 -26.001s25 -10 39 -10z" />
    <glyph glyph-name="R" unicode="R" horiz-adv-x="517" 
d="M485 0h-137.002c-21.333 0 -40.666 6.5 -57.999 19.5s-29.666 30.167 -36.999 51.5l-83 259h-105v-330h-15v709h3h4h5h190h4h30c26 0 50.5 -5 73.5 -15s43 -23.667 60 -41s30.5 -37.5 40.5 -60.5s15 -47.5 15 -73.5c0 -35.333 -9.16699 -67.833 -27.5 -97.5
s-43.5 -53.167 -75.5 -70.5zM357.998 344c-6.66699 -2.66699 -11.667 -4.33301 -15 -5l104 -324h17zM180.998 694.001h-16l112 -349h12h4zM308.998 346.001c6.66699 1.33301 11.333 2.33301 14 3l-111 345h-15zM148.997 694.001h-16l113 -349h15zM116.997 694.001h-15
l112 -349h16zM218.997 330.001l99 -309c3.33301 -1.33301 6.33301 -2.33301 9 -3l8 -2l-101 314h-15zM351.997 15.001h16l-102 315h-15zM383.997 15.001h15l-101 315h-15h-1zM414.997 15.001h16l-103 320l-15 -3zM260.997 694.001l106 -329.001
c28 13.333 50.5 34.166 67.5 62.499s25.5 58.833 25.5 91.5c0 23.333 -4.5 45.5 -13.5 66.5s-21.333 39.333 -37 55s-34.167 28.334 -55.5 38.001s-44 14.834 -68 15.501h-25zM244.997 694h-17l110 -341l15 6zM164.997 345l-100 312v-312h100zM180.997 345h17l-112 349h-17z
M268.997 72c2.66699 -7.33301 6.5 -14.333 11.5 -21s10.833 -12.667 17.5 -18l-95 297h-17z" />
    <glyph glyph-name="S" unicode="S" horiz-adv-x="476" 
d="M442 225c0.666992 -4 1.1709 -7.99414 1.50391 -11.9941s0.5 -8.33301 0.5 -13c0 -24.667 -5.66699 -49.334 -17 -74.001s-26 -46 -44 -64c-39.333 -39.333 -89.333 -60 -150 -62c-27.333 0 -53.5 5.16699 -78.5 15.5s-47.167 24.666 -66.5 42.999
s-34.833 40.5 -46.5 66.5s-17.5 55 -17.5 87v3h15v-3c0 -26.667 5 -52 15 -76s23.667 -45 41 -63s37.833 -32.333 61.5 -43s49.5 -16 77.5 -16c20 0 39.5 3.33301 58.5 10s36.5 15.667 52.5 27c3.33301 2.66699 6.66602 5.16699 9.99902 7.5
s6.66602 5.16602 9.99902 8.49902l-282 333c-38.667 43.333 -54 90.666 -46 141.999c4 22.667 11.667 44.167 23 64.5s25.833 38.166 43.5 53.499s37.5 27.333 59.5 36s45.333 13 70 13c28 0 54.167 -5.33301 78.5 -16s45.5 -25 63.5 -43s32.167 -39.167 42.5 -63.5
s15.5 -50.5 15.5 -78.5v-3h-15v3c0 25.333 -4.66699 49.166 -14 71.499s-22.333 41.833 -39 58.5s-36 30 -58 40s-45.333 15.333 -70 16h-3c-11.333 0 -24.333 -1.66699 -39 -5c-10 -8 -17.5 -17.667 -22.5 -29s-7.5 -23 -7.5 -35c0 -18.667 6.66699 -36.334 20 -53.001
l211 -250c11.333 -12.667 21.166 -26.667 29.499 -42s14.166 -33.666 17.499 -54.999h-1zM50.0039 528.006c-0.666992 -6.66699 -0.667969 -14 -0.000976562 -22l344 -406c2.66699 4 5.33398 8.33301 8.00098 13zM410.003 127.006c2 2.66699 4.33496 7.33105 7.00195 13.998
l-359 423c-0.666992 -3.33301 -1.33398 -6.16602 -2.00098 -8.49902s-1.33398 -5.16602 -2.00098 -8.49902zM423.005 157.003c0.666992 3.33301 1.33203 6.33398 1.99902 9.00098s1.33398 5.66699 2.00098 9l-356 419c-2 -4.66699 -4.33301 -9.33398 -7 -14.001z
M429.003 198.004v10.5c0 3.66699 -0.333008 7.16699 -1 10.5l-340 401l-9 -12l350 -412v2zM422.003 249.004c-6 20.667 -17 40.333 -33 59l-125 146l-64 76l-27 32l-1 2l-66 77l-9 -9zM127.003 659.003c-1.33301 -1.33301 -2.83301 -2.66797 -4.5 -4.00098
s-3.5 -2.66602 -5.5 -3.99902l34 -40c-0.666992 3.33301 -1 8 -1 14v7zM153.003 651.001c2.66699 10 7.33301 20 14 30l-13.5 -6c-4.33301 -2 -8.83301 -4.66699 -13.5 -8zM376.002 78.001c1.33301 1.33301 2.83301 3 4.5 5s3.16699 3.66699 4.5 5l-330 389
c7.33301 -26 21 -49 41 -69z" />
    <glyph glyph-name="T" unicode="T" horiz-adv-x="506" 
d="M495 709v-15.001h-140v-694h-96h-2h-1c-28 0 -51.5 8.83301 -70.5 26.5s-28.5 39.834 -28.5 66.501v3v3v595h-141v15h479zM202 31.999c2.66699 -1.33301 5 -2.83301 7 -4.5s4.66699 -3.16699 8 -4.5v671h-15v-662zM232 17.999l15 -3v679h-15v-676zM262 14.999h15v679h-15
v-679zM293 14.999h14v679h-14v-679zM172 97.999c0 -20 5 -36.333 15 -49v645h-15v-596zM340 693.999h-17v-679h17v679z" />
    <glyph glyph-name="U" unicode="U" horiz-adv-x="672" 
d="M627 709v-433.996v-4c-0.666992 -39.333 -9 -75.5 -25 -108.5s-37.167 -61.5 -63.5 -85.5s-57 -42.833 -92 -56.5s-71.833 -20.5 -110.5 -20.5h-15c-37.333 2 -72.5 10.167 -105.5 24.5s-62 33.5 -87 57.5s-45.167 52 -60.5 84s-23.333 67 -24 105v438h15v-431v-3
c0 -36.667 7.33301 -70.667 22 -102s34.167 -58.5 58.5 -81.5s52.833 -41.333 85.5 -55s67 -20.834 103 -21.501c14 1.33301 26.833 4.66602 38.5 9.99902s22.167 12.666 31.5 21.999c19.333 18 30 40.667 32 68v10l-1 485c0 14 2.83301 27.167 8.5 39.5
s13.5 23.166 23.5 32.499v1c17.333 16 39 24.667 65 26h101zM566 694.004v-563c6 8 11 16 15 24v539h-15zM476 51.0039c2.66699 1.33301 5.16602 2.66797 7.49902 4.00098s4.83301 2.66602 7.5 3.99902v626c-3.33301 -1.33301 -6.16602 -2.83301 -8.49902 -4.5l-6.5 -4.5
v-625zM505.999 70.0059l15 12v612l-15 -3v-621zM443.999 610.006v-3.99805v-17.5c0 -9.66699 0.166992 -24.334 0.5 -44.001s0.5 -47.334 0.5 -83.001v-135.5v-201v-89c2.66699 1.33301 5.16699 2.5 7.5 3.5l8.5 3.5v617c-11.333 -14.667 -17 -31 -17 -49v-1z
M429.999 64.0078c-4 -7.33301 -8.33203 -13.666 -12.999 -18.999v-19c3.33301 1.33301 7.66602 2.66602 12.999 3.99902v34zM402 30.0078c-5.33301 -4 -10 -7.33301 -14 -10c2.66699 0.666992 5 1.16699 7 1.5s4.33301 0.833008 7 1.5v7zM536 96.0078l7.5 7.50098
c2.33301 2.33301 4.83301 5.16602 7.5 8.49902v582h-15v-598zM612 694.009l-16 -0.000976562v-505c10.667 28.667 16 57.334 16 86.001v3v416z" />
    <glyph glyph-name="V" unicode="V" horiz-adv-x="599" 
d="M577 709l-172.001 -450l-99 -259h-15l-272 709h6h4h142c18.667 0 35.334 -5.5 50.001 -16.5s25.667 -24.833 33 -41.5l0.5 -2c0.333008 -1.33301 2 -5.5 5 -12.5s7.33301 -18 13 -33l24 -63.5l40 -104.5l59.5 -156.5l165 430h16zM330.999 110l8 20l-216 564h-16z
M90.999 694h-16l240 -627l8 21zM346.999 152l8 20l-199 522h-16zM362.999 194l8.00098 20l-182 477c-2.66699 0.666992 -5.33398 1.16699 -8.00098 1.5s-5.66699 0.833008 -9 1.5zM307 46l-248 648h-17l256 -671zM388 258l-145.001 378.999l-3 6
c-7.33301 16.667 -17.666 29.334 -30.999 38.001l170 -445z" />
    <glyph glyph-name="W" unicode="W" horiz-adv-x="722" 
d="M698 707l-242.999 -707h-14l-79 248l-42 -113v-1l-50 -134h-2h-1h-12l-233 709h81h1h61c13.333 -1.33301 24.333 -3.66602 33 -6.99902h3l1 -2c12.667 -5.33301 23.667 -13.333 33 -24s15.666 -23.334 18.999 -38.001l109 -342l140 411h17l-150 -435l78 -245l234 680h16z
M189.001 689c-6.66699 2.66699 -12.333 4 -17 4l157 -488l9 23zM109.002 694l186 -581l9 23l-180 558h-15zM92.002 694h-15l203 -626l7 22zM271.002 45l-210 649h-18l220 -669zM312.002 159l9 23l-165 512h-16zM354.002 272l-115.001 365.001
c-5.33301 17.333 -15.666 31.666 -30.999 42.999l138 -429z" />
    <glyph glyph-name="X" unicode="X" horiz-adv-x="605" 
d="M587 0l-6.99902 0.000976562h-152c-18.667 0 -35.834 4.66699 -51.501 14s-27.5 21.666 -35.5 36.999l-118 245l-173 -296h-17l182 312l-193 397h225l110 -234l130 234h18l-140 -251zM444.001 15.001h16l-328 678h-16zM99.001 693.001h-17l327 -676
c3.33301 -0.666992 6.33301 -1.16699 9 -1.5s5.66699 -0.5 9 -0.5zM477.001 15.001h17l-327 677l2 1h-20zM511.001 15.001h16l-327 677l2 1h-19zM353.001 62.001c8.66699 -16.667 20.667 -29 36 -37l-323 667l1 1h-21zM562.001 15.001l-325 678h-21l328 -678h18z" />
    <glyph glyph-name="Y" unicode="Y" horiz-adv-x="611" 
d="M572 709l-157 -276l-248 -433h-18l143 250l-262 459h171c17.333 0.666992 34 -4 50 -14s28.333 -22.667 37 -38l119 -208l148 260h17zM196 694l175 -307l9 15l-166 291c-2 0.666992 -5.33301 1 -10 1h-8zM336 326l9 15l-201 353h-17zM109 694h-17l227 -398l8 15zM354 357
l8 15l-183 322h-17zM301 265l9 16l-235 413h-19zM398 434l-121 212l-2 3c-10 17.333 -23.333 30 -40 38l153 -270z" />
    <glyph glyph-name="Z" unicode="Z" horiz-adv-x="552" 
d="M515 15v-15h-477h-4h-9l259 695h-226v15h447l-242 -643c-4 -11.333 -9.5 -21.5 -16.5 -30.5s-16.167 -16.167 -27.5 -21.5h296zM483 695h-19l-250 -667c18 11.333 30 27 36 47zM113 15h17h-1l254 680h-16zM351 695h-16l-254 -680h16zM145 15h16l254 680h-15zM177 15
c3.33301 0.666992 6.33301 1.16797 9 1.50098s5.66699 1.16602 9 2.49902l253 676h-16zM46 15.001h18l255 680h-19z" />
    <glyph glyph-name="bracketleft" unicode="[" horiz-adv-x="168" 
d="M47 -50v806h123v-14h-109v-778h108v-14h-122v0z" />
    <glyph glyph-name="backslash" unicode="\" horiz-adv-x="295" 
d="M293 -35h-21l-267 774h19z" />
    <glyph glyph-name="bracketright" unicode="]" horiz-adv-x="172" 
d="M123 -50h-122v14h108v778h-109v14h123v-806z" />
    <glyph glyph-name="asciicircum" unicode="^" horiz-adv-x="285" 
d="M142 709l121 -200h-18l-103 172l-103 -172h-17z" />
    <glyph glyph-name="underscore" unicode="_" horiz-adv-x="374" 
d="M24 0v14h327v-14h-327v0z" />
    <glyph glyph-name="a" unicode="a" horiz-adv-x="617" 
d="M585 0h-149c-19.333 0 -36.833 5.5 -52.5 16.5s-28.167 27.5 -37.5 49.5l-32 83h-213l-57 -149h-16l172 448l100 261h12zM562 15l-255.999 668l-90 -236l145 -378c15.333 -36 41.666 -54 78.999 -54h122zM208.001 426l-101 -262h201z" />
    <glyph glyph-name="b" unicode="b" horiz-adv-x="542" 
d="M369 371c19.333 -6 37.333 -14.8311 54 -26.498s31 -25.334 43 -41.001s21.333 -33.167 28 -52.5s10 -39.666 10 -60.999c0 -24 -4.83301 -47.167 -14.5 -69.5s-23 -42.333 -40 -60s-36.833 -32 -59.5 -43s-46.667 -16.833 -72 -17.5h-263h-4v608
c0 27.333 9.33301 50.666 28 69.999s41.334 29.666 68.001 30.999h179c23.333 -0.666992 45.166 -5.66699 65.499 -15s38 -21.833 53 -37.5s26.833 -33.834 35.5 -54.501s13 -42.667 13 -66c0 -38 -11.333 -72.167 -34 -102.5s-52.667 -51.166 -90 -62.499zM251 100.002
c0 -23.333 7.99805 -43 23.998 -59s35.333 -24.333 58 -25c21.333 2 41.5 8 60.5 18s35.5 22.833 49.5 38.5s25.167 33.5 33.5 53.5s12.5 41.333 12.5 64c0 22 -4.33301 43.333 -13 64s-20.667 39 -36 55s-33.166 28.833 -53.499 38.5s-42.166 15.167 -65.499 16.5h-4h-66
v-261v-3zM477.998 536.002c0 21.333 -4.00098 41.167 -12.001 59.5s-18.833 34.5 -32.5 48.5s-30 25.333 -49 34s-39.5 14 -61.5 16h-2h-70v-315h60h3h4h3c21.333 0.666992 41.333 5 60 13s35 19 49 33s25.333 30.5 34 49.5s13.334 39.5 14.001 61.5zM235.997 95.0029
l-0.000976562 598.999h-83h-3c-21.333 0 -40.166 -7.83301 -56.499 -23.5s-25.5 -35.167 -27.5 -58.5v-597h218c-13.333 8.66699 -24.333 19.834 -33 33.501s-13.667 29.167 -15 46.5z" />
    <glyph glyph-name="c" unicode="c" horiz-adv-x="645" 
d="M600 90l9 -10.999l-2 -2c-30.667 -24 -64.667 -42.833 -102 -56.5s-77 -20.5 -119 -20.5c-48.667 0 -94.5 9.33301 -137.5 28s-80.5 44 -112.5 76s-57.333 69.5 -76 112.5s-28 88.833 -28 137.5s9.33301 94.667 28 138s44 81 76 113s69.5 57.333 112.5 76
s88.833 28 137.5 28c42 0 81.667 -6.83301 119 -20.5s71.333 -32.5 102 -56.5l2 -2l-9 -12l-3 2c-29.333 23.333 -61.833 41.5 -97.5 54.5s-73.5 19.5 -113.5 19.5c-28.667 0 -56.334 -3.5 -83.001 -10.5s-51.667 -16.833 -75 -29.5v-600
c23.333 -12.667 48.333 -22.334 75 -29.001s54.334 -10 83.001 -10c40 0 77.833 6.33301 113.5 19s68.167 30.667 97.5 54zM212 646.001c-24.667 -15.333 -47.168 -33.3311 -67.501 -53.998s-37.666 -43.5 -51.999 -68.5s-25.5 -51.833 -33.5 -80.5s-12 -58.334 -12 -89.001
c0 -58.667 14.5 -113.834 43.5 -165.501s69.5 -93.5 121.5 -125.5v583z" />
    <glyph glyph-name="d" unicode="d" horiz-adv-x="611" 
d="M213 709c46 0 90.3301 -9 132.997 -27s80.334 -43 113.001 -75s58.834 -69.5 78.501 -112.5s29.5 -89.5 29.5 -139.5c0 -48 -9.16699 -93.333 -27.5 -136s-43.5 -80 -75.5 -112s-69.667 -57.5 -113 -76.5s-89.666 -29.167 -138.999 -30.5h-3h-141h-12h-3v709h7h152h1z
M224.997 591c0 23.333 7.00098 43 21.001 59s30.333 27.333 49 34c-13.333 3.33301 -27 5.83301 -41 7.5s-27.667 2.5 -41 2.5h-1h-144v-679h75h4c22 0 40.167 7.66699 54.5 23s22.166 34 23.499 56v3v494zM215.998 15c44.667 1.33301 87.333 10.999 128 28.999
s76.5 42.333 107.5 73s55.5 66.334 73.5 107.001s27 84.334 27 131.001c0 33.333 -5.66699 67 -17 101s-27.333 65.667 -48 95s-45 54.833 -73 76.5s-59 37.167 -93 46.5c-23.333 0 -42.666 -8 -57.999 -24s-23 -35.667 -23 -59v-501
c-0.666992 -16 -4.83398 -30.833 -12.501 -44.5s-19.5 -23.834 -35.5 -30.501h24z" />
    <glyph glyph-name="e" unicode="e" horiz-adv-x="457" 
d="M249 709l174 0.000976562v-15h-171v-300h154v-15h-154v-364h158v-15h-356v608v2c0 26 8.33301 48.667 25 68s39 29.666 67 30.999h103zM69 608.001l-0.000976562 -593.001h168v679h-81h-3c-23.333 0 -43.166 -8.16699 -59.499 -24.5s-24.5 -36.166 -24.5 -59.499v-2z" />
    <glyph glyph-name="f" unicode="f" horiz-adv-x="462" 
d="M248 709l172 -0.000976562v-15h-169v-299h163v-15h-163v-281c0 -13.333 -2.5 -25.833 -7.5 -37.5s-11.833 -22.167 -20.5 -31.5s-19 -16.666 -31 -21.999s-25 -8 -39 -8h-1h-99v3v1v8v697h195zM236 382.999v310.999h-168v-679h87h1
c10.667 0.666992 20.834 3.33398 30.501 8.00098s18.167 10.667 25.5 18s13.166 16 17.499 26s6.5 20.667 6.5 32v284z" />
    <glyph glyph-name="g" unicode="g" horiz-adv-x="643" 
d="M139 594c-32 -32 -56.4961 -68.499 -73.4961 -109.499s-25.5 -84.5 -25.5 -130.5c0 -44 8.33301 -86.833 25 -128.5s41.334 -78.834 74.001 -111.501c21.333 -21.333 45.666 -39.833 72.999 -55.5s56.666 -27.167 87.999 -34.5
c3.33301 -0.666992 6.33301 -1.16699 9 -1.5s5.66699 -0.5 9 -0.5c11.333 0 22.166 2.33301 32.499 7s19.166 10.667 26.499 18c16.667 15.333 25 35 25 59v235h-104v15h104h198v-256v-2v-1c0 -11.333 -2.16699 -22.666 -6.5 -33.999s-10.5 -21.666 -18.5 -30.999
s-17.667 -17 -29 -23s-24 -9 -38 -9h-129c-29.333 0 -57 3.33301 -83 10c-38.667 9.33301 -74.5 24.666 -107.5 45.999s-61.667 47.166 -86 77.499s-43.333 64.166 -57 101.499s-20.5 77 -20.5 119c0 49.333 9.16699 95.5 27.5 138.5s43.5 80.5 75.5 112.5
s69.5 57.333 112.5 76s89.167 28 138.5 28c38.667 0 76.667 -6.5 114 -19.5s72.666 -32.167 105.999 -57.5l2 -2l-9 -12l-2 2c-29.333 23.333 -61.833 41.333 -97.5 54s-73.5 19.334 -113.5 20.001c-44.667 0 -87.5 -8.66699 -128.5 -26s-78.167 -42 -111.5 -74z
M417.004 103.001c-0.666992 -19.333 -6.33301 -36.833 -17 -52.5s-24.667 -27.167 -42 -34.5c2 0 4.5 -0.166992 7.5 -0.5s9.33301 -0.5 19 -0.5h43h79.5c24 1.33301 43 10 57 26s21 35 21 57v2v241h-168v-238z" />
    <glyph glyph-name="h" unicode="h" horiz-adv-x="629" 
d="M564 709l15 0.000976562v-339v-370h-15v359h-315v-359h-3h-1h-190h-4v697v8v4l103 -1c12.667 0 24.667 -2.16699 36 -6.5s21.333 -10.333 30 -18s15.667 -16.834 21 -27.501s8 -22 8 -34v-5v-243h315v335zM66 15.001l168.001 -0.000976562v601
c0 20.667 -7.83301 38.834 -23.5 54.501s-35.834 23.5 -60.501 23.5h-84v-679z" />
    <glyph glyph-name="i" unicode="i" horiz-adv-x="300" 
d="M250 617v-616.999h-194h-4v709h103c26.667 0 49.167 -8.33301 67.5 -25s27.5 -37.334 27.5 -62.001v-3v-2zM67 15.001h168.001v601c0 22 -7.83301 40.5 -23.5 55.5s-35.834 22.5 -60.501 22.5h-84v-679z" />
    <glyph glyph-name="j" unicode="j" 
d="M412 196c0 -27.333 -5.16602 -52.8291 -15.499 -76.4961s-24.333 -44.334 -42 -62.001s-38.5 -31.667 -62.5 -42s-49.333 -15.5 -76 -15.5c-19.333 0 -37.833 2.66699 -55.5 8s-34.167 12.666 -49.5 21.999c-28 18.667 -49.833 42 -65.5 70s-24.167 60 -25.5 96v3h15v-3
c1.33301 -30 9.16602 -58.333 23.499 -85s34.166 -48.667 59.499 -66c13.333 0 25.833 2.66699 37.5 8s21.667 12.666 30 21.999s15 20 20 32s7.83301 25 8.5 39v473c2.66699 25.333 13.334 46.666 32.001 63.999s41 26 67 26h92h7v-513zM216.001 15.0039
c24 0 46.667 4.50195 68 13.502s40 21.5 56 37.5s29 34.833 39 56.5s16 45.167 18 70.5v501h-82h-5c-22.667 -1.33301 -41.5 -9.83301 -56.5 -25.5s-23.167 -35.167 -24.5 -58.5v-3v-461c0 -28 -8.66699 -52.5 -26 -73.5s-39.333 -34.167 -66 -39.5
c1.33301 -0.666992 2.83301 -1.33398 4.5 -2.00098s3.16699 -1.33398 4.5 -2.00098c22 -9.33301 45.333 -14 70 -14z" />
    <glyph glyph-name="k" unicode="k" horiz-adv-x="579" 
d="M562 0l-12 -0.000976562h-164c-20 0 -37.5 4.83301 -52.5 14.5s-27.167 22.834 -36.5 39.501l-174 291l-57 -55v-290h-15v708h15v-397l412 398h21l-229 -222zM311 60.999c18.667 -30 42.333 -45.333 71 -46h3h150l-276 462l-125 -121z" />
    <glyph glyph-name="l" unicode="l" 
d="M251 15h180v-15h-378v3v6v3v697h103c12.667 0 24.667 -2.66699 36 -8s21.333 -12.5 30 -21.5s15.667 -19.5 21 -31.5s8 -24.667 8 -38v-6v-589zM236 615c-0.666992 10.667 -3.33301 20.833 -8 30.5s-10.667 18 -18 25s-16 12.667 -26 17s-20.333 6.5 -31 6.5h-85v-679
h168v600z" />
    <glyph glyph-name="m" unicode="m" horiz-adv-x="740" 
d="M689 709l-0.000976562 -709h-15v671l-222 -671h-207l-179 539v-539h-15v709h107c18.667 0 35.834 -5.16699 51.501 -15.5s26.167 -24.5 31.5 -42.5c0 -1.33301 0.5 -3.33301 1.5 -6s3.5 -10.167 7.5 -22.5l18.5 -56.5l35.5 -106.5l57.5 -173.5l84.5 -257l225 680h18z
M65.999 694v-107l189 -572h180l-208 630c-4 14 -12.5 25.667 -25.5 35s-28.5 14 -46.5 14h-89z" />
    <glyph glyph-name="n" unicode="n" horiz-adv-x="603" 
d="M535 709h15v-610v-99h-1h-102c-18.667 0 -35.167 4.5 -49.5 13.5s-25.5 21.167 -33.5 36.5l-296 623v-673h-15v709h219l263 -554v554zM535 99c0 6.66699 -0.832031 13.499 -2.49902 20.499s-3.83398 13.167 -6.50098 18.5l-265 556h-186l298 -629v1
c7.33301 -15.333 17.333 -27.666 30 -36.999s27.667 -14 45 -14h3h84v84z" />
    <glyph glyph-name="o" unicode="o" horiz-adv-x="775" 
d="M388 708c48.667 0 94.5 -9.33301 137.5 -28s80.5 -44 112.5 -76s57.333 -69.5 76 -112.5s28 -88.833 28 -137.5c0 -49.333 -9.33301 -95.5 -28 -138.5s-44 -80.5 -76 -112.5s-69.5 -57.167 -112.5 -75.5s-88.833 -27.5 -137.5 -27.5c-49.333 0 -95.5 9.16699 -138.5 27.5
s-80.5 43.5 -112.5 75.5s-57.167 69.5 -75.5 112.5s-27.5 89.167 -27.5 138.5c0 48.667 9.16699 94.5 27.5 137.5s43.5 80.5 75.5 112.5s69.5 57.333 112.5 76s89.167 28 138.5 28zM727 354c0 44.667 -8.83008 87.335 -26.4971 128.002s-41.834 76.667 -72.501 108
s-66.667 56.333 -108 75s-85.333 28 -132 28c-29.333 0 -57.333 -3.5 -84 -10.5s-52 -16.833 -76 -29.5v-598c49.333 -26.667 102.666 -40 159.999 -40c46 0 89.167 8.83301 129.5 26.5s75.833 41.667 106.5 72s55.167 66.166 73.5 107.499s28.166 85.666 29.499 132.999z
M213.003 644.001c-24.667 -14 -47 -31.5 -67 -52.5s-37.167 -44 -51.5 -69s-25.5 -51.833 -33.5 -80.5s-12 -58 -12 -88c0 -58.667 14.333 -113.667 43 -165s69 -93 121 -125v580z" />
    <glyph glyph-name="p" unicode="p" horiz-adv-x="506" 
d="M333 703c20 -5.33301 38.668 -13.668 56.001 -25.001s32.166 -25 44.499 -41s22 -34 29 -54s10.5 -41 10.5 -63c0 -26 -5 -50.5 -15 -73.5s-23.667 -43 -41 -60s-37.666 -30.333 -60.999 -40s-48.333 -14.5 -75 -14.5h-33v-236v-7
c-1.33301 -12 -4.83301 -23.333 -10.5 -34s-13 -20.167 -22 -28.5s-19.167 -14.833 -30.5 -19.5s-23.333 -7 -36 -7h-2h-92h-4v1v709h15h221c17.333 -1.33301 32.666 -3.66602 45.999 -6.99902zM287.001 346.998c22.667 1.33301 44.334 6.49805 65.001 15.498
s38.667 21 54 36s27.666 32.833 36.999 53.5s14 43.334 14 68.001c0 19.333 -3.16699 37.833 -9.5 55.5s-15 34 -26 49s-24.167 28 -39.5 39s-32.333 19.167 -51 24.5c-23.333 0 -43 -8.16699 -59 -24.5s-24 -36.166 -24 -59.499v-3v-254h39zM66.001 346.996h166.999v262
c1.33301 19.333 7.33301 36.5 18 51.5s24.334 26.167 41.001 33.5c-2 0.666992 -4.66699 1 -8 1h-218v-348zM152 14.9961c21.333 1.33301 39.667 9.33301 55 24s24 33.667 26 57v236h-167v-317h80h6z" />
    <glyph glyph-name="q" unicode="q" horiz-adv-x="762" 
d="M378 709c48.667 0 94.499 -9.33105 137.499 -27.998s80.5 -44.167 112.5 -76.5s57.333 -70 76 -113s28 -88.833 28 -137.5c0 -31.333 -4 -61.5 -12 -90.5s-19 -56.167 -33 -81.5c13.333 -9.33301 23.833 -21 31.5 -35s11.5 -29.667 11.5 -47c0 -13.333 -2.5 -26 -7.5 -38
s-12 -22.5 -21 -31.5s-19.5 -16.167 -31.5 -21.5s-25 -8 -39 -8c-17.333 0 -32.833 4 -46.5 12s-25.167 18.667 -34.5 32c-25.333 -14.667 -52.5 -25.834 -81.5 -33.501s-59.167 -11.5 -90.5 -11.5c-32 0 -62.833 4.16699 -92.5 12.5s-58.5 20.166 -86.5 35.499
c-26 15.333 -49.833 33.833 -71.5 55.5s-40.167 45.667 -55.5 72s-27.166 54.5 -35.499 84.5s-12.5 61.333 -12.5 94c0 48.667 9.16699 94.5 27.5 137.5s43.5 80.667 75.5 113s69.5 57.833 112.5 76.5s89.167 28 138.5 28zM630.999 199.002
c15.333 0 29.668 -3.00098 43.001 -9.00098c13.333 24 23.833 49.833 31.5 77.5s11.5 56.5 11.5 86.5c0 44.667 -8.83301 87.5 -26.5 128.5s-41.834 77.167 -72.501 108.5s-66.667 56.333 -108 75s-85.333 28 -132 28c-30 0 -58.667 -4 -86 -12s-53.333 -18.667 -78 -32
v-593c24.667 -13.333 50.667 -23.666 78 -30.999s56 -11 86 -11c59.333 0 114 14.333 164 43c-6.66699 14.667 -10 28.667 -10 42c0 14 2.66699 27 8 39s12.5 22.5 21.5 31.5s19.5 16 31.5 21s24.667 7.5 38 7.5zM631.001 184.001
c-23.333 0 -42.998 -8.16797 -58.998 -24.501s-24.333 -36.166 -25 -59.499c0 -11.333 2.66699 -23 8 -35c11.333 7.33301 22.166 15 32.499 23s20.166 16.667 29.499 26c20 20 36.667 41 50 63c-10 4.66699 -22 7 -36 7zM680.003 169
c-15.333 -23.333 -32.833 -44.998 -52.5 -64.998s-41.167 -37.333 -64.5 -52c7.33301 -10.667 17 -19.334 29 -26.001s25 -10 39 -10c12 0 23 2.16699 33 6.5s18.833 10.333 26.5 18s13.667 16.667 18 27s6.5 21.166 6.5 32.499c0 14.667 -3.16699 28 -9.5 40
s-14.833 21.667 -25.5 29zM199.003 642.002c-24 -15.333 -45.833 -33.167 -65.5 -53.5s-36.5 -42.833 -50.5 -67.5s-24.833 -51.167 -32.5 -79.5s-11.5 -57.5 -11.5 -87.5c0 -58.667 14.167 -113.167 42.5 -163.5s67.5 -91.833 117.5 -124.5v576z" />
    <glyph glyph-name="r" unicode="r" horiz-adv-x="522" 
d="M485 0h-137.002c-21.333 0 -40.666 6.5 -57.999 19.5s-29.666 30.167 -36.999 51.5l-83 259h-105v-330h-15v709h3h4h5h190l4 1v-1h30c26 0 50.5 -5 73.5 -15s43 -23.667 60 -41s30.5 -37.5 40.5 -60.5s15 -47.5 15 -73.5c0 -35.333 -9.16699 -67.833 -27.5 -97.5
s-43.5 -53.167 -75.5 -70.5zM64.998 657v-312h100zM260.998 694l106 -329.001c28 13.333 50.5 34.166 67.5 62.499s25.5 58.833 25.5 91.5c0 23.333 -4.5 45.5 -13.5 66.5s-21.333 39.333 -37 55s-34.167 28.334 -55.5 38.001s-44 14.834 -68 15.501h-25zM463.998 14.999
l-106 328.999c-22.667 -9.33301 -47.667 -14 -75 -14h-97l83 -258c5.33301 -15.333 15.5 -28.666 30.5 -39.999s31.5 -17 49.5 -17h115zM288.998 344.998c22.667 0 44 4.66699 64 14l-108 335h-176l112 -349h108z" />
    <glyph glyph-name="s" unicode="s" horiz-adv-x="473" 
d="M396 322c13.333 -15.333 24.6689 -32.3252 34.002 -50.9922s14 -42.334 14 -71.001c0 -24.667 -5.66699 -49.334 -17 -74.001s-26 -46 -44 -64c-39.333 -39.333 -89.333 -60 -150 -62c-27.333 0 -53.5 5.16699 -78.5 15.5s-47.167 24.666 -66.5 42.999
s-34.833 40.5 -46.5 66.5s-17.5 55 -17.5 87v3h15v-3c0 -26.667 5 -52 15 -76s23.667 -45 41 -63s37.833 -32.333 61.5 -43s49.5 -16 77.5 -16c20 0 39.5 3.33301 58.5 10s36.5 15.667 52.5 27c3.33301 2.66699 6.66602 5.16699 9.99902 7.5
s6.66602 5.16602 9.99902 8.49902l-282 333c-38.667 43.333 -54 90.666 -46 141.999c4 22.667 11.667 44.167 23 64.5s25.833 38.166 43.5 53.499s37.5 27.333 59.5 36s45.333 13 70 13c28 0 54.167 -5.33301 78.5 -16s45.5 -25 63.5 -43s32.167 -39.167 42.5 -63.5
s15.5 -50.5 15.5 -78.5v-3h-15v3c0 25.333 -4.66699 49.166 -14 71.499s-22.333 41.833 -39 58.5s-36 30 -58 40s-45.333 15.333 -70 16h-3c-11.333 0 -24.333 -1.66699 -39 -5c-10 -8 -17.5 -17.667 -22.5 -29s-7.5 -23 -7.5 -35c0 -18.667 6.66699 -36.334 20 -53.001z
M376.003 78.0078c14 15.333 26.332 33.333 36.999 54s16 42.667 16 66c0.666992 20 -2.16602 39 -8.49902 57s-16.833 35.667 -31.5 53l-125 146l-64 76l-27 32l-2 3c-14 18 -21 38 -21 60c0 20 5.66699 38.667 17 56c-6 -2.66699 -12 -5.5 -18 -8.5s-11.667 -6.5 -17 -10.5
c-21.333 -14 -38.666 -31.667 -51.999 -53s-22.666 -44.333 -27.999 -69c-4.66699 -21.333 -3.33398 -43.833 3.99902 -67.5s20.666 -45.167 39.999 -64.5z" />
    <glyph glyph-name="t" unicode="t" horiz-adv-x="506" 
d="M495 709v-15.001h-140v-694h-96h-2h-1c-28 0 -51.5 8.83301 -70.5 26.5s-28.5 39.834 -28.5 66.501v3v3v595h-141v15h479zM172 693.999v-596c0 -23.333 7.5 -43 22.5 -59s35.5 -24 61.5 -24h3h81v679h-168z" />
    <glyph glyph-name="u" unicode="u" horiz-adv-x="672" 
d="M627 709v-433.997v-4c-0.666992 -39.333 -9 -75.5 -25 -108.5s-37.167 -61.5 -63.5 -85.5s-57 -42.833 -92 -56.5s-71.833 -20.5 -110.5 -20.5h-15c-37.333 2 -72.5 10.167 -105.5 24.5s-62 33.5 -87 57.5s-45.167 52 -60.5 84s-23.333 67 -24 105v438h15v-431v-3
c0 -36.667 7.33301 -70.667 22 -102s34.167 -58.5 58.5 -81.5s52.833 -41.333 85.5 -55s67 -20.834 103 -21.501c14 1.33301 26.833 4.66602 38.5 9.99902s22.167 12.666 31.5 21.999c21.333 20 32 45.333 32 76v1l-1 486c0 27.333 9.5 50.5 28.5 69.5
s41.833 28.833 68.5 29.5h101zM529 694.003l-1 0.000976562c-23.333 0 -43 -8 -59 -24s-24.333 -35.667 -25 -59v-1v-4v-17.5c0 -9.66699 0.166992 -24.334 0.5 -44.001s0.5 -47.334 0.5 -83.001v-136v-201.5v-1v-1c0 -21.333 -5.16699 -40.833 -15.5 -58.5
s-24.166 -32.167 -41.499 -43.5c31.333 5.33301 60.666 15.5 87.999 30.5s51 33.833 71 56.5s35.833 48.334 47.5 77.001s17.5 59 17.5 91v3v416h-83z" />
    <glyph glyph-name="v" unicode="v" horiz-adv-x="599" 
d="M561 709h15.999l-172 -450l-99 -259h-15l-272 709h6h4h142c18.667 0 35.334 -5.5 50.001 -16.5s25.667 -24.833 33 -41.5l0.5 -2c0.333008 -1.33301 2 -5.5 5 -12.5s7.33301 -18 13 -33l24 -63.5l40 -104.5l59.5 -156.5zM297.999 23l90.001 234.999l-145 379l-3 6
c-6.66699 14.667 -16.334 26.834 -29.001 36.501s-28 14.5 -46 14.5h-123z" />
    <glyph glyph-name="w" unicode="w" horiz-adv-x="707" 
d="M669 707l16.002 -0.00195312l-243 -707h-14l-79 248l-85 -248h-2h-1h-12l-242 709h145c21.333 -1.33301 40.166 -8.16602 56.499 -20.499s27.166 -29.166 32.499 -50.499l109 -342l140 411h17l-150 -435l78 -245zM257.002 24.998l84.001 246.999l-115 365
c-5.33301 16.667 -14.833 30.334 -28.5 41.001s-29.834 16 -48.501 16h-121z" />
    <glyph glyph-name="x" unicode="x" horiz-adv-x="591" 
d="M587 0l-6.99902 0.000976562h-152c-18.667 0 -35.834 4.66699 -51.501 14s-27.5 21.666 -35.5 36.999l-118 245l-173 -296h-17l182 312l-193 397h225l110 -234l130 234h18l-140 -251zM562.001 15.001l-324.998 678h-191l307 -631
c7.33301 -13.333 17.166 -24.5 29.499 -33.5s27.166 -13.5 44.499 -13.5h3h132z" />
    <glyph glyph-name="y" unicode="y" horiz-adv-x="570" 
d="M544 709h17l-157 -276l-248 -433h-18l143 250l-262 459h171c17.333 0.666992 34 -4 50 -14s28.333 -22.667 37 -38l119 -208zM290 265l97.001 169.001l-121 212l-2 3c-7.33301 13.333 -17.333 24.166 -30 32.499s-26.334 12.5 -41.001 12.5h-148z" />
    <glyph glyph-name="z" unicode="z" horiz-adv-x="552" 
d="M263 67c-4 -11.333 -9.5 -21.5 -16.5 -30.5s-16.167 -16.167 -27.5 -21.5h296v-15h-477h-4h-9l259 695h-226v15h447zM483 695l-182.998 0.000976562l-254 -680h122h1h1c19.333 0 36.166 5.66699 50.499 17s24.166 25.666 29.499 42.999z" />
    <glyph glyph-name="bar" unicode="|" horiz-adv-x="108" 
d="M46 756h14v-806h-14v806z" />
    <glyph glyph-name="cent" unicode="&#xa2;" horiz-adv-x="645" 
d="M600 90l9 -10.999l-2 -2c-30.667 -24 -64.667 -42.833 -102 -56.5s-77 -20.5 -119 -20.5c-48.667 0 -94.5 9.33301 -137.5 28s-80.5 44 -112.5 76s-57.333 69.5 -76 112.5s-28 88.833 -28 137.5s9.33301 94.667 28 138s44 81 76 113s69.5 57.333 112.5 76
s88.833 28 137.5 28c42 0 81.667 -6.83301 119 -20.5s71.333 -32.5 102 -56.5l2 -2l-9 -12l-3 2c-29.333 23.333 -61.833 41.5 -97.5 54.5s-73.5 19.5 -113.5 19.5c-28.667 0 -56.334 -3.5 -83.001 -10.5s-51.667 -16.833 -75 -29.5v-600
c23.333 -12.667 48.333 -22.334 75 -29.001s54.334 -10 83.001 -10c40 0 77.833 6.33301 113.5 19s68.167 30.667 97.5 54zM212 646.001c-24.667 -15.333 -47.168 -33.3311 -67.501 -53.998s-37.666 -43.5 -51.999 -68.5s-25.5 -51.833 -33.5 -80.5s-12 -58.334 -12 -89.001
c0 -58.667 14.5 -113.834 43.5 -165.501s69.5 -93.5 121.5 -125.5v583zM345.999 756.003h16v-806h-16v806z" />
    <glyph glyph-name="ae" unicode="&#xe6;" horiz-adv-x="758" 
d="M732 709l-0.00195312 -13.999h-168v-301h151v-15h-151v-365h155v-14h-301c-19.333 1.33301 -37.166 7.66602 -53.499 18.999s-28.166 26.333 -35.499 45l-32 83h-212l-56 -147h-16l170 445l102 264h9l72 -187v88c0 13.333 2.5 26 7.5 38s11.667 22.5 20 31.5
s18.333 16.167 30 21.5s24.167 8 37.5 8h271zM190.998 424.001l-100 -262h201zM543.998 15.001l-163 427v-416c12 -7.33301 25.667 -11 41 -11h122zM341.998 69.001c2.66699 -6 5.66699 -11.668 9 -17.001s8.33301 -10.666 15 -15.999v443l-77 200l-90 -235zM548.998 695
h-84.002c-12 0 -23.167 -2.33301 -33.5 -7s-19.166 -10.667 -26.499 -18s-13.166 -15.5 -17.499 -24.5s-6.5 -18.167 -6.5 -27.5v-7v-127l168 -440v651z" />
    <glyph glyph-name="oslash" unicode="&#xf8;" horiz-adv-x="765" 
d="M557 662c26.667 -15.333 50.8291 -33.8311 72.4961 -55.498s40.334 -45.667 56.001 -72s27.834 -54.833 36.501 -85.5s13 -62.334 13 -95.001c0 -45.333 -8 -88.333 -24 -129s-38.167 -76.667 -66.5 -108s-61.666 -57.166 -99.999 -77.499s-79.5 -32.833 -123.5 -37.5v-1
h-1c-6 -23.333 -18.5 -42.833 -37.5 -58.5s-41.167 -23.834 -66.5 -24.501h-141l28 129c-53.333 31.333 -96.166 73.833 -128.499 127.5s-48.5 113.5 -48.5 179.5c0 46 8.33301 89.667 25 131s39.5 77.666 68.5 108.999s63 57 102 77s81.167 32 126.5 36l20 89h216z
M362.995 708.002c3.33301 0.666992 6.33398 1 9.00098 1h9c29.333 0 57.666 -3.5 84.999 -10.5s53.333 -16.833 78 -29.5l23 112h-188zM408.996 15.002l131 638.999c-48 26.667 -101 40 -159 40h-21l-141 -639c24 -13.333 49.5 -23.666 76.5 -30.999s55.5 -11 85.5 -11
c4.66699 0 9.16699 0.333008 13.5 1s8.83301 1 13.5 1v1zM41.9961 354.001c0 -60.667 14.5 -116.332 43.5 -166.999s69.167 -92.334 120.5 -125.001l139 630c-41.333 -4.66699 -80.5 -16.5 -117.5 -35.5s-69.167 -43.5 -96.5 -73.5s-49 -64.5 -65 -103.5
s-24 -80.833 -24 -125.5zM315.996 -67.9971c21.333 1.33301 40 8.33301 56 21s27 28.667 33 48c-4 -0.666992 -8 -1 -12 -1h-12c-60 0 -115 13.333 -165 40l-24 -108h124zM423.996 17.0029c40.667 5.33301 78.833 17.8311 114.5 37.498s67 44.334 94 74.001
s48.333 63.834 64 102.501s23.5 79.667 23.5 123c0 60.667 -14.833 116.5 -44.5 167.5s-70.167 92.833 -121.5 125.5z" />
    <glyph glyph-name="oe" unicode="&#x153;" horiz-adv-x="925" 
d="M900 709l-0.00292969 -13.999h-168v-314h151v-14h-151v-352h155v-15h-353v37c-49.333 -24.667 -101.666 -37 -156.999 -37c-49.333 0 -95.5 9.33301 -138.5 28s-80.5 44 -112.5 76s-57.333 69.5 -76 112.5s-28 89.167 -28 138.5c0 48.667 9.33301 94.5 28 137.5
s44 80.5 76 112.5s69.5 57.333 112.5 76s89.167 28 138.5 28c32 0 62.5 -3.83301 91.5 -11.5s56.167 -18.834 81.5 -33.501c8.66699 12.667 19.834 23 33.501 31s28.834 12.667 45.501 14h271zM547.997 61.001c24.667 14.667 47.501 32.3311 68.501 52.998
s38.833 43.667 53.5 69s26.167 52.5 34.5 81.5s12.5 59.167 12.5 90.5c0 46.667 -8.83301 90.5 -26.5 131.5s-42.167 77.167 -73.5 108.5c-14.667 14.667 -31 28.334 -49 41.001c-2.66699 1.33301 -6.66699 4 -12 8c-3.33301 -5.33301 -5.33301 -10.666 -6 -15.999
s-1.33398 -11.333 -2.00098 -18v-549zM376.998 13.998c28 0 55.333 3.33203 82 9.99902s51.667 16.334 75 29.001v556c0 14.667 3 28.667 9 42c-24.667 14 -51 24.833 -79 32.5s-57 11.5 -87 11.5c-47.333 0 -91.5 -8.83301 -132.5 -26.5s-77.167 -42.167 -108.5 -73.5
c-30.667 -31.333 -55 -67.5 -73 -108.5s-27 -84.833 -27 -131.5c0 -47.333 9 -91.5 27 -132.5s42.333 -77.167 73 -108.5c31.333 -31.333 67.5 -55.833 108.5 -73.5s85.167 -26.5 132.5 -26.5zM716.998 14.9971v243c-12 -46 -33 -87.5 -63 -124.5
s-65.333 -66.833 -106 -89.5v-29h169zM716.998 452.997l0.000976562 242h-92c-13.333 -1.33301 -25.5 -5.33301 -36.5 -12s-20.167 -15.334 -27.5 -26.001c2.66699 -1.33301 5.5 -3 8.5 -5s5.83301 -4 8.5 -6c33.333 -23.333 62.166 -51.666 86.499 -84.999
s41.833 -70 52.5 -110v2z" />
    <glyph glyph-name="caron" unicode="&#x2c7;" horiz-adv-x="395" 
d="M33 937h122.001c11.333 -0.666992 21.666 -5.66699 30.999 -15l1.5 -1.5c1 -1 3.83301 -4 8.5 -9l22.5 -23l43.5 -44.5l90 93h20l-170 -175zM68.001 922l133.999 -139l50 51l-76 77c-7.33301 7.33301 -15.666 11 -24.999 11h-83z" />
    <glyph glyph-name="endash" unicode="&#x2013;" horiz-adv-x="386" 
d="M31 322v14h326v-14h-326v0z" />
    <glyph glyph-name="emdash" unicode="&#x2014;" horiz-adv-x="386" 
d="M31 322v14h326v-14h-326v0z" />
    <glyph glyph-name="fraction" unicode="&#x2044;" horiz-adv-x="295" 
d="M274 739h19l-267 -774h-21z" />
    <glyph glyph-name="Euro" unicode="&#x20ac;" horiz-adv-x="445" 
d="M245 694v-284h154v-15h-154v-82h154v-15h-154v-283h158v-15h-355h-1v298h-46v15h46v82h-46v15h46v198c-0.666992 26.667 8 49.667 26 69s40 30 66 32h277v-15h-171zM230 694h-80h-4c-22 0 -41.333 -8.16699 -58 -24.5s-25 -36.833 -25 -61.5v-28v-12v-158h167v284zM63 15
h167v283h-167v-283zM230 313v82h-167v-82h167z" />
    <glyph glyph-name=".null" horiz-adv-x="0" 
 />
    <glyph glyph-name="nonmarkingreturn" horiz-adv-x="314" 
 />
    </font>
</defs>
</svg>
